%FSTAX23Y23*%
%MOIN*%
%SFA1B1*%

%IPPOS*%
%ADD89C,0.010000*%
%ADD90C,0.005000*%
%ADD91C,0.007874*%
%ADD92C,0.012000*%
%LNpcb4-1*%
%LPD*%
G36*
X03068Y04985D02*
X03069Y04985D01*
X0307Y04984*
X03071Y04984*
X03072Y04984*
X03073Y04983*
X03073*
X03073Y04983*
X03073Y04983*
X03073Y04983*
X03074Y04983*
X03075Y04982*
X03075Y04981*
X03076Y04981*
X03076Y0498*
X03077Y0498*
X03077Y04979*
X03077Y04979*
X03077Y04978*
X03078Y04977*
X03078Y04976*
X03079Y04975*
X03079Y04974*
Y04974*
X03079Y04974*
X03079Y04974*
X03079Y04973*
X03079Y04973*
X03079Y04973*
X03079Y04972*
X03079Y04972*
X03079Y04971*
X03079Y0497*
X0308Y0497*
X0308Y04969*
X0308Y04968*
Y04967*
X0308Y04966*
Y04965*
Y04965*
Y04965*
Y04964*
Y04964*
X0308Y04963*
Y04963*
X0308Y04962*
X0308Y04961*
X03079Y04959*
X03079Y04958*
X03079Y04956*
X03079Y04955*
X03078Y04954*
Y04954*
X03078Y04954*
X03078Y04954*
X03078Y04953*
X03078Y04953*
X03078Y04953*
X03077Y04952*
X03077Y04951*
X03076Y0495*
X03075Y04949*
X03074Y04948*
X03074*
X03074Y04948*
X03074Y04947*
X03074Y04947*
X03073Y04947*
X03073Y04947*
X03072Y04947*
X03071Y04946*
X0307Y04946*
X03069Y04946*
X03067Y04945*
X03067*
X03066Y04946*
X03066Y04946*
X03065Y04946*
X03065Y04946*
X03064Y04946*
X03063Y04946*
X03063Y04946*
X03062Y04947*
X03061Y04947*
X0306Y04948*
X0306Y04948*
X03059Y04949*
X03058Y04949*
X03058Y04949*
X03058Y0495*
X03058Y0495*
X03058Y0495*
X03058Y04951*
X03057Y04952*
X03057Y04952*
X03057Y04953*
X03056Y04954*
X03056Y04955*
X03056Y04957*
X03055Y04958*
X03055Y0496*
X03055Y04961*
X03055Y04963*
X03055Y04965*
Y04965*
Y04965*
Y04966*
Y04966*
X03055Y04967*
Y04967*
X03055Y04968*
X03055Y04969*
X03055Y04971*
X03055Y04973*
X03056Y04974*
X03056Y04975*
X03056Y04976*
Y04976*
X03056Y04976*
X03056Y04976*
X03056Y04977*
X03056Y04977*
X03057Y04977*
X03057Y04978*
X03058Y04979*
X03058Y0498*
X03059Y04982*
X0306Y04982*
X0306*
X0306Y04983*
X0306Y04983*
X03061Y04983*
X03061Y04983*
X03061Y04983*
X03062Y04984*
X03063Y04984*
X03064Y04984*
X03066Y04985*
X03067Y04985*
X03068*
X03068Y04985*
G37*
G36*
X03038D02*
X03039Y04985D01*
X0304Y04984*
X03041Y04984*
X03042Y04984*
X03043Y04983*
X03043*
X03043Y04983*
X03043Y04983*
X03044Y04983*
X03044Y04982*
X03045Y04982*
X03045Y04981*
X03046Y0498*
X03047Y0498*
X03047Y0498*
X03047Y04979*
X03047Y04979*
X03047Y04978*
X03048Y04977*
X03048Y04977*
X03048Y04976*
X03048Y04975*
Y04975*
Y04974*
X03048Y04974*
X03048Y04973*
X03048Y04972*
X03047Y04972*
X03047Y04971*
X03047Y0497*
X03047Y0497*
X03046Y0497*
X03046Y04969*
X03046Y04969*
X03045Y04968*
X03044Y04968*
X03044Y04967*
X03043Y04967*
X03043*
X03043Y04967*
X03043Y04967*
X03043Y04967*
X03044Y04967*
X03045Y04966*
X03046Y04966*
X03046Y04965*
X03047Y04965*
X03048Y04964*
X03048Y04964*
X03048Y04963*
X03049Y04963*
X03049Y04962*
X03049Y04961*
X0305Y0496*
X0305Y04959*
X0305Y04957*
Y04957*
Y04957*
Y04957*
X0305Y04957*
X0305Y04956*
X0305Y04956*
X0305Y04955*
X0305Y04955*
X03049Y04953*
X03049Y04952*
X03048Y04952*
X03048Y04951*
X03047Y0495*
X03047Y0495*
X03046Y04949*
X03046Y04949*
X03046Y04949*
X03046Y04949*
X03046Y04948*
X03045Y04948*
X03045Y04948*
X03044Y04948*
X03044Y04947*
X03043Y04947*
X03042Y04947*
X03042Y04946*
X03041Y04946*
X0304Y04946*
X03039Y04946*
X03038Y04946*
X03037Y04945*
X03037*
X03036Y04946*
X03036Y04946*
X03035Y04946*
X03035Y04946*
X03034Y04946*
X03033Y04946*
X03031Y04947*
X03031Y04947*
X0303Y04947*
X03029Y04948*
X03029Y04948*
X03029Y04949*
X03028Y04949*
X03028Y04949*
X03028Y04949*
X03028Y04949*
X03028Y0495*
X03027Y0495*
X03027Y04951*
X03027Y04951*
X03026Y04952*
X03026Y04953*
X03025Y04955*
X03025Y04955*
X03025Y04956*
X0303Y04957*
Y04957*
X0303Y04957*
X0303Y04957*
X0303Y04956*
X0303Y04956*
X0303Y04956*
X0303Y04955*
X03031Y04954*
X03031Y04953*
X03032Y04952*
X03032Y04951*
X03032Y04951*
X03033Y04951*
X03033Y04951*
X03034Y0495*
X03034Y0495*
X03035Y0495*
X03036Y04949*
X03037Y04949*
X03037*
X03038Y04949*
X03038Y04949*
X03039Y0495*
X0304Y0495*
X03041Y0495*
X03042Y04951*
X03043Y04952*
X03043Y04952*
X03043Y04952*
X03043Y04953*
X03044Y04953*
X03044Y04954*
X03045Y04955*
X03045Y04956*
X03045Y04957*
Y04957*
Y04958*
Y04958*
X03045Y04958*
X03045Y04959*
X03045Y04959*
X03044Y0496*
X03044Y04961*
X03044Y04962*
X03043Y04963*
X03043Y04963*
X03042Y04963*
X03042Y04963*
X03041Y04964*
X03041Y04964*
X0304Y04965*
X03039Y04965*
X03037Y04965*
X03037*
X03037Y04965*
X03036Y04965*
X03036Y04965*
X03035Y04965*
X03034Y04964*
X03035Y04968*
X03035*
X03035Y04968*
X03036*
X03037Y04969*
X03037Y04969*
X03038Y04969*
X03039Y04969*
X0304Y04969*
X03041Y0497*
X03041*
X03041Y0497*
X03041Y0497*
X03042Y04971*
X03042Y04971*
X03043Y04972*
X03043Y04973*
X03043Y04974*
X03043Y04974*
Y04975*
Y04975*
Y04975*
Y04975*
X03043Y04976*
X03043Y04976*
X03043Y04977*
X03043Y04978*
X03042Y04978*
X03042Y04979*
X03041Y04979*
X03041Y04979*
X03041Y0498*
X0304Y0498*
X0304Y0498*
X03039Y04981*
X03038Y04981*
X03037Y04981*
X03037*
X03036Y04981*
X03035Y04981*
X03035Y0498*
X03034Y0498*
X03033Y0498*
X03032Y04979*
X03032Y04979*
X03032Y04979*
X03032Y04978*
X03031Y04978*
X03031Y04977*
X03031Y04976*
X0303Y04975*
X0303Y04974*
X03025Y04975*
Y04975*
X03025Y04975*
X03025Y04975*
X03026Y04976*
X03026Y04976*
X03026Y04976*
X03026Y04977*
X03027Y04979*
X03027Y0498*
X03028Y04981*
X03029Y04982*
X03029Y04982*
X03029Y04982*
X0303Y04982*
X0303Y04982*
X0303Y04983*
X0303Y04983*
X03031Y04983*
X03031Y04983*
X03032Y04984*
X03034Y04984*
X03035Y04985*
X03036Y04985*
X03037*
X03038Y04985*
G37*
G36*
X03006Y04985D02*
X03006Y04985D01*
X03007Y04985*
X03007Y04985*
X03008Y04985*
X03009Y04984*
X03011Y04984*
X03012Y04984*
X03013Y04983*
X03014Y04983*
X03014Y04982*
X03014Y04982*
X03014Y04982*
X03015Y04982*
X03015Y04982*
X03015Y04981*
X03016Y04981*
X03016Y04981*
X03016Y0498*
X03017Y0498*
X03017Y04979*
X03018Y04978*
X03018Y04978*
X03019Y04977*
X03019Y04976*
X03019Y04975*
X0302Y04974*
X03015Y04973*
Y04973*
X03015Y04973*
X03015Y04973*
X03015Y04973*
X03014Y04974*
X03014Y04974*
X03014Y04975*
X03013Y04976*
X03013Y04977*
X03012Y04978*
X03011Y04979*
X03011Y04979*
X0301Y04979*
X0301Y0498*
X03009Y0498*
X03008Y0498*
X03007Y04981*
X03006Y04981*
X03004Y04981*
X03004*
X03004Y04981*
X03003*
X03003Y04981*
X03002Y04981*
X03001Y0498*
X02999Y0498*
X02998Y04979*
X02997Y04979*
X02997*
X02997Y04979*
X02997Y04978*
X02996Y04978*
X02995Y04977*
X02995Y04976*
X02994Y04975*
X02993Y04974*
X02993Y04973*
Y04973*
X02993Y04973*
X02993Y04973*
X02993Y04972*
X02993Y04972*
X02992Y04972*
X02992Y04971*
X02992Y0497*
X02992Y04968*
X02992Y04967*
X02992Y04966*
Y04966*
Y04965*
Y04965*
Y04965*
X02992Y04964*
Y04964*
X02992Y04963*
X02992Y04963*
X02992Y04961*
X02992Y0496*
X02993Y04959*
X02993Y04957*
Y04957*
X02993Y04957*
X02993Y04957*
X02993Y04956*
X02994Y04956*
X02994Y04955*
X02995Y04954*
X02996Y04953*
X02996Y04952*
X02998Y04952*
X02998*
X02998Y04952*
X02998Y04951*
X02998Y04951*
X02998Y04951*
X02999Y04951*
X02999Y04951*
X03Y0495*
X03002Y0495*
X03003Y0495*
X03004Y0495*
X03004*
X03005Y0495*
X03005*
X03006Y0495*
X03007Y0495*
X03008Y0495*
X03009Y04951*
X0301Y04951*
X03011Y04952*
X03011Y04952*
X03011Y04952*
X03011Y04952*
X03012Y04953*
X03012Y04953*
X03012Y04953*
X03012Y04953*
X03013Y04954*
X03013Y04954*
X03013Y04955*
X03014Y04955*
X03014Y04956*
X03014Y04956*
X03015Y04957*
X03015Y04958*
X03015Y04959*
X03015Y0496*
X0302Y04958*
Y04958*
X0302Y04958*
X0302Y04958*
X0302Y04957*
X0302Y04957*
X0302Y04956*
X03019Y04955*
X03019Y04955*
X03018Y04953*
X03017Y04952*
X03017Y04951*
X03016Y0495*
X03015Y04949*
X03015Y04949*
X03015Y04949*
X03015Y04949*
X03014Y04948*
X03014Y04948*
X03014Y04948*
X03013Y04948*
X03012Y04947*
X03012Y04947*
X03011Y04947*
X0301Y04947*
X0301Y04946*
X03009Y04946*
X03008Y04946*
X03007Y04946*
X03006Y04946*
X03005Y04945*
X03004*
X03003Y04946*
X03003*
X03002Y04946*
X03002Y04946*
X03001Y04946*
X02999Y04946*
X02998Y04947*
X02996Y04947*
X02995Y04948*
X02994Y04948*
X02994Y04948*
X02994Y04948*
X02994Y04948*
X02994Y04948*
X02993Y04949*
X02993Y04949*
X02993Y04949*
X02992Y0495*
X02992Y0495*
X02991Y04951*
X0299Y04952*
X02989Y04954*
X02988Y04955*
Y04955*
X02988Y04956*
X02988Y04956*
X02988Y04956*
X02988Y04957*
X02988Y04957*
X02988Y04958*
X02988Y04958*
X02987Y04959*
X02987Y0496*
X02987Y04962*
X02987Y04964*
X02987Y04966*
Y04966*
Y04966*
Y04966*
X02987Y04967*
Y04967*
X02987Y04968*
X02987Y04968*
X02987Y04969*
X02987Y04971*
X02987Y04973*
X02988Y04974*
X02989Y04976*
X02989Y04976*
X02989Y04976*
X02989Y04976*
X02989Y04977*
X02989Y04977*
X0299Y04978*
X0299Y04979*
X02991Y0498*
X02992Y04981*
X02994Y04982*
X02995Y04983*
X02995Y04983*
X02995Y04983*
X02996Y04983*
X02996Y04983*
X02996Y04983*
X02997Y04984*
X02997Y04984*
X02998Y04984*
X02999Y04984*
X02999Y04984*
X03001Y04985*
X03003Y04985*
X03005Y04985*
X03005*
X03006Y04985*
G37*
%LNpcb4-2*%
%LPC*%
G36*
X03067Y04981D02*
X03067D01*
X03067Y04981*
X03066Y04981*
X03065Y0498*
X03064Y0498*
X03064Y0498*
X03063Y04979*
X03063Y04979*
X03062Y04979*
X03062Y04978*
Y04978*
X03062Y04978*
X03062Y04978*
X03061Y04977*
X03061Y04977*
X03061Y04976*
X03061Y04976*
X03061Y04975*
X0306Y04974*
X0306Y04973*
X0306Y04972*
X0306Y04971*
X0306Y0497*
X0306Y04968*
X0306Y04967*
X03059Y04965*
Y04965*
Y04965*
Y04964*
X0306Y04964*
Y04963*
X0306Y04962*
X0306Y04961*
X0306Y0496*
X0306Y04958*
X0306Y04957*
X0306Y04956*
X03061Y04955*
X03061Y04954*
X03061Y04953*
X03062Y04952*
Y04952*
X03062Y04952*
X03062Y04952*
X03063Y04951*
X03063Y04951*
X03064Y0495*
X03065Y0495*
X03066Y04949*
X03067Y04949*
X03067Y04949*
X03068*
X03068Y04949*
X03068Y0495*
X03069Y0495*
X0307Y0495*
X03071Y04951*
X03071Y04951*
X03072Y04951*
X03072Y04952*
X03073Y04952*
Y04953*
X03073Y04953*
X03073Y04953*
X03073Y04953*
X03073Y04953*
X03073Y04954*
X03074Y04955*
X03074Y04955*
X03074Y04956*
X03074Y04957*
X03074Y04958*
X03075Y04959*
X03075Y0496*
X03075Y04962*
X03075Y04963*
Y04965*
Y04965*
Y04965*
Y04965*
Y04966*
X03075Y04967*
Y04967*
X03075Y04968*
X03075Y04969*
X03075Y0497*
X03074Y04972*
X03074Y04973*
X03074Y04974*
X03074Y04975*
X03073Y04976*
X03073Y04977*
X03073Y04978*
Y04978*
X03073Y04978*
X03072Y04978*
X03072Y04978*
X03072Y04979*
X03071Y04979*
X0307Y0498*
X03069Y0498*
X03069Y04981*
X03068Y04981*
X03068Y04981*
X03067Y04981*
G37*
%LNpcb4-3*%
%LPD*%
G54D89*
X02244Y0184D02*
D01*
X02243Y01862*
X02241Y01884*
X02237Y01906*
X02231Y01927*
X02225Y01948*
X02216Y01968*
X02207Y01988*
X02196Y02007*
X02183Y02025*
X0217Y02043*
X02155Y02059*
X02139Y02074*
X02123Y02088*
X02105Y02101*
X02086Y02113*
X02067Y02123*
X02047Y02132*
X02026Y0214*
X02005Y02146*
X01983Y0215*
X01962Y02153*
X0194Y02155*
X01918*
X01896Y02153*
X01874Y0215*
X01852Y02146*
X01831Y0214*
X01811Y02132*
X01791Y02123*
X01771Y02113*
X01753Y02101*
X01735Y02088*
X01718Y02074*
X01702Y02059*
X01687Y02043*
X01674Y02025*
X01662Y02007*
X01651Y01988*
X01641Y01968*
X01633Y01948*
X01626Y01927*
X01621Y01906*
X01617Y01884*
X01614Y01862*
X01614Y0184*
X01614Y01818*
X01617Y01796*
X01621Y01775*
X01626Y01753*
X01633Y01732*
X01641Y01712*
X01651Y01692*
X01662Y01673*
X01674Y01655*
X01687Y01638*
X01702Y01621*
X01718Y01606*
X01735Y01592*
X01753Y01579*
X01771Y01567*
X01791Y01557*
X01811Y01548*
X01831Y01541*
X01852Y01534*
X01874Y0153*
X01896Y01527*
X01918Y01525*
X0194*
X01962Y01527*
X01983Y0153*
X02005Y01534*
X02026Y01541*
X02047Y01548*
X02067Y01557*
X02086Y01567*
X02105Y01579*
X02123Y01592*
X02139Y01606*
X02155Y01621*
X0217Y01638*
X02183Y01655*
X02196Y01673*
X02207Y01692*
X02216Y01712*
X02225Y01732*
X02231Y01753*
X02237Y01775*
X02241Y01796*
X02243Y01818*
X02244Y0184*
Y02529D02*
D01*
X02243Y02551*
X02241Y02573*
X02237Y02595*
X02231Y02616*
X02225Y02637*
X02216Y02657*
X02207Y02677*
X02196Y02696*
X02183Y02714*
X0217Y02731*
X02155Y02748*
X02139Y02763*
X02123Y02777*
X02105Y0279*
X02086Y02802*
X02067Y02812*
X02047Y02821*
X02026Y02829*
X02005Y02835*
X01983Y02839*
X01962Y02842*
X0194Y02844*
X01918*
X01896Y02842*
X01874Y02839*
X01852Y02835*
X01831Y02829*
X01811Y02821*
X01791Y02812*
X01771Y02802*
X01753Y0279*
X01735Y02777*
X01718Y02763*
X01702Y02748*
X01687Y02731*
X01674Y02714*
X01662Y02696*
X01651Y02677*
X01641Y02657*
X01633Y02637*
X01626Y02616*
X01621Y02595*
X01617Y02573*
X01614Y02551*
X01614Y02529*
X01614Y02507*
X01617Y02485*
X01621Y02464*
X01626Y02442*
X01633Y02421*
X01641Y02401*
X01651Y02381*
X01662Y02362*
X01674Y02344*
X01687Y02327*
X01702Y0231*
X01718Y02295*
X01735Y02281*
X01753Y02268*
X01771Y02256*
X01791Y02246*
X01811Y02237*
X01831Y02229*
X01852Y02223*
X01874Y02219*
X01896Y02216*
X01918Y02214*
X0194*
X01962Y02216*
X01983Y02219*
X02005Y02223*
X02026Y02229*
X02047Y02237*
X02067Y02246*
X02086Y02256*
X02105Y02268*
X02123Y02281*
X02139Y02295*
X02155Y0231*
X0217Y02327*
X02183Y02344*
X02196Y02362*
X02207Y02381*
X02216Y02401*
X02225Y02421*
X02231Y02442*
X02237Y02464*
X02241Y02485*
X02243Y02507*
X02244Y02529*
X01574Y0184D02*
D01*
X01574Y01862*
X01571Y01884*
X01567Y01906*
X01562Y01927*
X01555Y01948*
X01547Y01968*
X01537Y01988*
X01526Y02007*
X01514Y02025*
X01501Y02043*
X01486Y02059*
X0147Y02074*
X01453Y02088*
X01435Y02101*
X01417Y02113*
X01397Y02123*
X01377Y02132*
X01357Y0214*
X01336Y02146*
X01314Y0215*
X01292Y02153*
X0127Y02155*
X01248*
X01226Y02153*
X01205Y0215*
X01183Y02146*
X01162Y0214*
X01141Y02132*
X01121Y02123*
X01102Y02113*
X01083Y02101*
X01065Y02088*
X01049Y02074*
X01033Y02059*
X01018Y02043*
X01005Y02025*
X00992Y02007*
X00981Y01988*
X00972Y01968*
X00963Y01948*
X00957Y01927*
X00951Y01906*
X00947Y01884*
X00945Y01862*
X00944Y0184*
X00945Y01818*
X00947Y01796*
X00951Y01775*
X00957Y01753*
X00963Y01732*
X00972Y01712*
X00981Y01692*
X00992Y01673*
X01005Y01655*
X01018Y01638*
X01033Y01621*
X01049Y01606*
X01065Y01592*
X01083Y01579*
X01102Y01567*
X01121Y01557*
X01141Y01548*
X01162Y01541*
X01183Y01534*
X01205Y0153*
X01226Y01527*
X01248Y01525*
X0127*
X01292Y01527*
X01314Y0153*
X01336Y01534*
X01357Y01541*
X01377Y01548*
X01397Y01557*
X01417Y01567*
X01435Y01579*
X01453Y01592*
X0147Y01606*
X01486Y01621*
X01501Y01638*
X01514Y01655*
X01526Y01673*
X01537Y01692*
X01547Y01712*
X01555Y01732*
X01562Y01753*
X01567Y01775*
X01571Y01796*
X01574Y01818*
X01574Y0184*
Y02529D02*
D01*
X01574Y02551*
X01571Y02573*
X01567Y02595*
X01562Y02616*
X01555Y02637*
X01547Y02657*
X01537Y02677*
X01526Y02696*
X01514Y02714*
X01501Y02731*
X01486Y02748*
X0147Y02763*
X01453Y02777*
X01435Y0279*
X01417Y02802*
X01397Y02812*
X01377Y02821*
X01357Y02829*
X01336Y02835*
X01314Y02839*
X01292Y02842*
X0127Y02844*
X01248*
X01226Y02842*
X01205Y02839*
X01183Y02835*
X01162Y02829*
X01141Y02821*
X01121Y02812*
X01102Y02802*
X01083Y0279*
X01065Y02777*
X01049Y02763*
X01033Y02748*
X01018Y02731*
X01005Y02714*
X00992Y02696*
X00981Y02677*
X00972Y02657*
X00963Y02637*
X00957Y02616*
X00951Y02595*
X00947Y02573*
X00945Y02551*
X00944Y02529*
X00945Y02507*
X00947Y02485*
X00951Y02464*
X00957Y02442*
X00963Y02421*
X00972Y02401*
X00981Y02381*
X00992Y02362*
X01005Y02344*
X01018Y02327*
X01033Y0231*
X01049Y02295*
X01065Y02281*
X01083Y02268*
X01102Y02256*
X01121Y02246*
X01141Y02237*
X01162Y02229*
X01183Y02223*
X01205Y02219*
X01226Y02216*
X01248Y02214*
X0127*
X01292Y02216*
X01314Y02219*
X01336Y02223*
X01357Y02229*
X01377Y02237*
X01397Y02246*
X01417Y02256*
X01435Y02268*
X01453Y02281*
X0147Y02295*
X01486Y0231*
X01501Y02327*
X01514Y02344*
X01526Y02362*
X01537Y02381*
X01547Y02401*
X01555Y02421*
X01562Y02442*
X01567Y02464*
X01571Y02485*
X01574Y02507*
X01574Y02529*
X04173Y0433D02*
D01*
X04171Y04371*
X04167Y04412*
X0416Y04453*
X0415Y04493*
X04137Y04532*
X04122Y0457*
X04104Y04607*
X04083Y04643*
X0406Y04677*
X04035Y0471*
X04007Y0474*
X03977Y04769*
X03946Y04796*
X03912Y0482*
X03877Y04842*
X03841Y04861*
X03803Y04878*
X03765Y04892*
X03725Y04903*
X03685Y04912*
X03644Y04918*
X03603Y0492*
X03562*
X0352Y04918*
X0348Y04912*
X03439Y04903*
X034Y04892*
X03361Y04878*
X03323Y04861*
X03287Y04842*
X03252Y0482*
X03219Y04796*
X03187Y04769*
X03157Y0474*
X0313Y0471*
X03104Y04677*
X03081Y04643*
X03061Y04607*
X03043Y0457*
X03027Y04532*
X03015Y04493*
X03005Y04453*
X02997Y04412*
X02993Y04371*
X02992Y0433*
X02993Y04289*
X02997Y04248*
X03005Y04207*
X03015Y04167*
X03027Y04128*
X03043Y0409*
X03061Y04053*
X03081Y04017*
X03104Y03983*
X0313Y03951*
X03157Y0392*
X03187Y03891*
X03219Y03865*
X03252Y03841*
X03287Y03819*
X03323Y03799*
X03361Y03783*
X034Y03769*
X03439Y03757*
X0348Y03749*
X0352Y03743*
X03562Y0374*
X03603*
X03644Y03743*
X03685Y03749*
X03725Y03757*
X03765Y03769*
X03803Y03783*
X03841Y03799*
X03877Y03819*
X03912Y03841*
X03946Y03865*
X03977Y03891*
X04007Y0392*
X04035Y03951*
X0406Y03983*
X04083Y04017*
X04104Y04053*
X04122Y0409*
X04137Y04128*
X0415Y04167*
X0416Y04207*
X04167Y04248*
X04171Y04289*
X04173Y0433*
X04174Y01678D02*
D01*
X04174Y01677*
X04174Y01675*
X04174Y01674*
X04175Y01673*
X04175Y01671*
X04176Y0167*
X04176Y01669*
X04177Y01667*
X04178Y01666*
X04179Y01665*
X0418Y01664*
X04181Y01663*
X04182Y01662*
X04183Y01661*
X04184Y01661*
X04185Y0166*
X04186Y01659*
X04188Y01659*
X04189Y01659*
X04191Y01658*
X04192Y01658*
X04193Y01658*
X04195*
X04196Y01658*
X04197Y01658*
X04199Y01659*
X042Y01659*
X04201Y01659*
X04203Y0166*
X04204Y01661*
X04205Y01661*
X04206Y01662*
X04207Y01663*
X04208Y01664*
X04209Y01665*
X0421Y01666*
X04211Y01667*
X04212Y01669*
X04212Y0167*
X04213Y01671*
X04213Y01673*
X04214Y01674*
X04214Y01675*
X04214Y01677*
X04214Y01678*
X05103Y03187D02*
D01*
X05102Y03187*
X051Y03187*
X05099Y03187*
X05098Y03186*
X05096Y03186*
X05095Y03185*
X05094Y03185*
X05093Y03184*
X05091Y03183*
X0509Y03183*
X05089Y03182*
X05088Y03181*
X05087Y0318*
X05087Y03178*
X05086Y03177*
X05085Y03176*
X05085Y03175*
X05084Y03173*
X05084Y03172*
X05084Y03171*
X05083Y03169*
X05083Y03168*
Y03167*
X05083Y03165*
X05084Y03164*
X05084Y03162*
X05084Y03161*
X05085Y0316*
X05085Y03158*
X05086Y03157*
X05087Y03156*
X05087Y03155*
X05088Y03154*
X05089Y03153*
X0509Y03152*
X05091Y03151*
X05093Y0315*
X05094Y0315*
X05095Y03149*
X05096Y03148*
X05098Y03148*
X05099Y03148*
X051Y03147*
X05102Y03147*
X05103Y03147*
Y02439D02*
D01*
X05102Y02439*
X051Y02439*
X05099Y02439*
X05098Y02438*
X05096Y02438*
X05095Y02437*
X05094Y02437*
X05093Y02436*
X05091Y02435*
X0509Y02435*
X05089Y02434*
X05088Y02433*
X05087Y02431*
X05087Y0243*
X05086Y02429*
X05085Y02428*
X05085Y02427*
X05084Y02425*
X05084Y02424*
X05084Y02423*
X05083Y02421*
X05083Y0242*
Y02418*
X05083Y02417*
X05084Y02416*
X05084Y02414*
X05084Y02413*
X05085Y02412*
X05085Y0241*
X05086Y02409*
X05087Y02408*
X05087Y02407*
X05088Y02406*
X05089Y02405*
X0509Y02404*
X05091Y02403*
X05093Y02402*
X05094Y02402*
X05095Y02401*
X05096Y024*
X05098Y024*
X05099Y024*
X051Y02399*
X05102Y02399*
X05103Y02399*
X03489Y0303D02*
D01*
X03488Y0303*
X03486Y0303*
X03485Y03029*
X03484Y03029*
X03482Y03029*
X03481Y03028*
X0348Y03027*
X03478Y03027*
X03477Y03026*
X03476Y03025*
X03475Y03024*
X03474Y03023*
X03473Y03022*
X03472Y03021*
X03472Y0302*
X03471Y03019*
X03471Y03017*
X0347Y03016*
X0347Y03015*
X03469Y03013*
X03469Y03012*
X03469Y0301*
Y03009*
X03469Y03008*
X03469Y03006*
X0347Y03005*
X0347Y03004*
X03471Y03002*
X03471Y03001*
X03472Y03*
X03472Y02999*
X03473Y02997*
X03474Y02996*
X03475Y02995*
X03476Y02994*
X03477Y02994*
X03478Y02993*
X0348Y02992*
X03481Y02991*
X03482Y02991*
X03484Y02991*
X03485Y0299*
X03486Y0299*
X03488Y0299*
X03489Y0299*
Y02242D02*
D01*
X03488Y02242*
X03486Y02242*
X03485Y02242*
X03484Y02242*
X03482Y02241*
X03481Y02241*
X0348Y0224*
X03478Y02239*
X03477Y02239*
X03476Y02238*
X03475Y02237*
X03474Y02236*
X03473Y02235*
X03472Y02234*
X03472Y02232*
X03471Y02231*
X03471Y0223*
X0347Y02229*
X0347Y02227*
X03469Y02226*
X03469Y02224*
X03469Y02223*
Y02222*
X03469Y0222*
X03469Y02219*
X0347Y02217*
X0347Y02216*
X03471Y02215*
X03471Y02214*
X03472Y02212*
X03472Y02211*
X03473Y0221*
X03474Y02209*
X03475Y02208*
X03476Y02207*
X03477Y02206*
X03478Y02205*
X0348Y02205*
X03481Y02204*
X03482Y02204*
X03484Y02203*
X03485Y02203*
X03486Y02203*
X03488Y02202*
X03489Y02202*
X06719Y02205D02*
D01*
X06719Y02203*
X06719Y02201*
X06719Y02199*
X0672Y02198*
X0672Y02196*
X06721Y02194*
X06722Y02193*
X06722Y02191*
X06723Y0219*
X06724Y02188*
X06726Y02187*
X06727Y02186*
X06728Y02185*
X0673Y02184*
X06731Y02183*
X06733Y02182*
X06734Y02181*
X06736Y02181*
X06738Y0218*
X06739Y0218*
X06741Y0218*
X06743Y0218*
X06744*
X06746Y0218*
X06748Y0218*
X0675Y0218*
X06751Y02181*
X06753Y02181*
X06755Y02182*
X06756Y02183*
X06758Y02184*
X06759Y02185*
X0676Y02186*
X06762Y02187*
X06763Y02188*
X06764Y0219*
X06765Y02191*
X06766Y02193*
X06766Y02194*
X06767Y02196*
X06768Y02198*
X06768Y02199*
X06768Y02201*
X06769Y02203*
X06769Y02205*
X06461Y04729D02*
D01*
X06457Y04733*
X06452Y04737*
X06446Y04741*
X06441Y04744*
X06435Y04747*
X0643Y04749*
X06424Y04751*
X06418Y04753*
X06411Y04754*
X06405Y04755*
X06399Y04755*
X06392Y04755*
X06386Y04755*
X0638Y04754*
X06374Y04752*
X06368Y0475*
X06362Y04748*
X06356Y04746*
X0635Y04742*
X06345Y04739*
X0634Y04735*
X06335Y04731*
X06331Y04727*
X06327Y04722*
X06323Y04717*
X0632Y04711*
X06316Y04706*
X06314Y047*
X06312Y04694*
X0631Y04688*
X06308Y04682*
X06307Y04676*
X06307Y0467*
X06307Y04663*
X06307Y04657*
X06308Y04651*
X06309Y04644*
X06311Y04638*
X06313Y04632*
X06315Y04627*
X06318Y04621*
X06321Y04616*
X06325Y0461*
X06329Y04605*
X06333Y04601*
X06338Y04597*
X06343Y04593*
X06348Y04589*
X06353Y04586*
X06359Y04583*
X06365Y0458*
X06371Y04578*
X06377Y04577*
X06383Y04575*
X06389Y04575*
X06396Y04574*
X06402Y04574*
X06408Y04575*
X06414Y04576*
X06421Y04577*
X06427Y04579*
X06433Y04581*
X06438Y04584*
X06444Y04587*
X06449Y04591*
X06454Y04594*
X06459Y04599*
X06461Y04601*
X05989Y04729D02*
D01*
X05984Y04733*
X05979Y04737*
X05974Y04741*
X05969Y04744*
X05963Y04747*
X05957Y04749*
X05951Y04751*
X05945Y04753*
X05939Y04754*
X05933Y04755*
X05926Y04755*
X0592Y04755*
X05914Y04755*
X05907Y04754*
X05901Y04752*
X05895Y0475*
X05889Y04748*
X05884Y04746*
X05878Y04742*
X05873Y04739*
X05868Y04735*
X05863Y04731*
X05858Y04727*
X05854Y04722*
X05851Y04717*
X05847Y04711*
X05844Y04706*
X05841Y047*
X05839Y04694*
X05837Y04688*
X05836Y04682*
X05835Y04676*
X05834Y0467*
X05834Y04663*
X05834Y04657*
X05835Y04651*
X05836Y04644*
X05838Y04638*
X0584Y04632*
X05843Y04627*
X05845Y04621*
X05849Y04616*
X05852Y0461*
X05856Y04605*
X05861Y04601*
X05865Y04597*
X0587Y04593*
X05875Y04589*
X05881Y04586*
X05886Y04583*
X05892Y0458*
X05898Y04578*
X05904Y04577*
X05911Y04575*
X05917Y04575*
X05923Y04574*
X05929Y04574*
X05936Y04575*
X05942Y04576*
X05948Y04577*
X05954Y04579*
X0596Y04581*
X05966Y04584*
X05971Y04587*
X05977Y04591*
X05982Y04594*
X05986Y04599*
X05989Y04601*
X05753Y04729D02*
D01*
X05748Y04733*
X05743Y04737*
X05738Y04741*
X05732Y04744*
X05727Y04747*
X05721Y04749*
X05715Y04751*
X05709Y04753*
X05703Y04754*
X05696Y04755*
X0569Y04755*
X05684Y04755*
X05677Y04755*
X05671Y04754*
X05665Y04752*
X05659Y0475*
X05653Y04748*
X05647Y04746*
X05642Y04742*
X05637Y04739*
X05631Y04735*
X05627Y04731*
X05622Y04727*
X05618Y04722*
X05614Y04717*
X05611Y04711*
X05608Y04706*
X05605Y047*
X05603Y04694*
X05601Y04688*
X056Y04682*
X05599Y04676*
X05598Y0467*
X05598Y04663*
X05598Y04657*
X05599Y04651*
X056Y04644*
X05602Y04638*
X05604Y04632*
X05606Y04627*
X05609Y04621*
X05613Y04616*
X05616Y0461*
X0562Y04605*
X05624Y04601*
X05629Y04597*
X05634Y04593*
X05639Y04589*
X05645Y04586*
X0565Y04583*
X05656Y0458*
X05662Y04578*
X05668Y04577*
X05674Y04575*
X05681Y04575*
X05687Y04574*
X05693Y04574*
X057Y04575*
X05706Y04576*
X05712Y04577*
X05718Y04579*
X05724Y04581*
X0573Y04584*
X05735Y04587*
X0574Y04591*
X05745Y04594*
X0575Y04599*
X05753Y04601*
X06225Y04729D02*
D01*
X0622Y04733*
X06215Y04737*
X0621Y04741*
X06205Y04744*
X06199Y04747*
X06193Y04749*
X06187Y04751*
X06181Y04753*
X06175Y04754*
X06169Y04755*
X06162Y04755*
X06156Y04755*
X0615Y04755*
X06144Y04754*
X06137Y04752*
X06131Y0475*
X06126Y04748*
X0612Y04746*
X06114Y04742*
X06109Y04739*
X06104Y04735*
X06099Y04731*
X06095Y04727*
X06091Y04722*
X06087Y04717*
X06083Y04711*
X0608Y04706*
X06078Y047*
X06075Y04694*
X06073Y04688*
X06072Y04682*
X06071Y04676*
X0607Y0467*
X0607Y04663*
X06071Y04657*
X06071Y04651*
X06073Y04644*
X06074Y04638*
X06076Y04632*
X06079Y04627*
X06082Y04621*
X06085Y04616*
X06089Y0461*
X06093Y04605*
X06097Y04601*
X06102Y04597*
X06106Y04593*
X06112Y04589*
X06117Y04586*
X06123Y04583*
X06128Y0458*
X06134Y04578*
X06141Y04577*
X06147Y04575*
X06153Y04575*
X06159Y04574*
X06166Y04574*
X06172Y04575*
X06178Y04576*
X06184Y04577*
X0619Y04579*
X06196Y04581*
X06202Y04584*
X06208Y04587*
X06213Y04591*
X06218Y04594*
X06223Y04599*
X06225Y04601*
X06005Y03507D02*
D01*
X06005Y03509*
X06005Y0351*
X06005Y03511*
X06005Y03512*
X06004Y03513*
X06004Y03515*
X06003Y03516*
X06003Y03517*
X06002Y03518*
X06001Y03519*
X06Y0352*
X05999Y0352*
X05999Y03521*
X05998Y03522*
X05996Y03523*
X05995Y03523*
X05994Y03524*
X05993Y03524*
X05992Y03524*
X05991Y03525*
X0599Y03525*
X05988Y03525*
X05987*
X05986Y03525*
X05985Y03525*
X05983Y03524*
X05982Y03524*
X05981Y03524*
X0598Y03523*
X05979Y03523*
X05978Y03522*
X05977Y03521*
X05976Y0352*
X05975Y0352*
X05974Y03519*
X05973Y03518*
X05973Y03517*
X05972Y03516*
X05972Y03515*
X05971Y03513*
X05971Y03512*
X0597Y03511*
X0597Y0351*
X0597Y03509*
X0597Y03507*
X0597Y03506*
X0597Y03505*
X0597Y03504*
X05971Y03503*
X05971Y03501*
X05972Y035*
X05972Y03499*
X05973Y03498*
X05973Y03497*
X05974Y03496*
X05975Y03495*
X05976Y03494*
X05977Y03494*
X05978Y03493*
X05979Y03492*
X0598Y03492*
X05981Y03491*
X05982Y03491*
X05983Y0349*
X05985Y0349*
X05986Y0349*
X05987Y0349*
X05988*
X0599Y0349*
X05991Y0349*
X05992Y0349*
X05993Y03491*
X05994Y03491*
X05995Y03492*
X05996Y03492*
X05998Y03493*
X05999Y03494*
X05999Y03494*
X06Y03495*
X06001Y03496*
X06002Y03497*
X06003Y03498*
X06003Y03499*
X06004Y035*
X06004Y03501*
X06005Y03503*
X06005Y03504*
X06005Y03505*
X06005Y03506*
X06005Y03507*
Y03153D02*
D01*
X06005Y03154*
X06005Y03155*
X06005Y03157*
X06005Y03158*
X06004Y03159*
X06004Y0316*
X06003Y03161*
X06003Y03162*
X06002Y03163*
X06001Y03164*
X06Y03165*
X05999Y03166*
X05999Y03167*
X05998Y03168*
X05996Y03168*
X05995Y03169*
X05994Y03169*
X05993Y0317*
X05992Y0317*
X05991Y0317*
X0599Y03171*
X05988Y03171*
X05987*
X05986Y03171*
X05985Y0317*
X05983Y0317*
X05982Y0317*
X05981Y03169*
X0598Y03169*
X05979Y03168*
X05978Y03168*
X05977Y03167*
X05976Y03166*
X05975Y03165*
X05974Y03164*
X05973Y03163*
X05973Y03162*
X05972Y03161*
X05972Y0316*
X05971Y03159*
X05971Y03158*
X0597Y03157*
X0597Y03155*
X0597Y03154*
X0597Y03153*
X0597Y03152*
X0597Y03151*
X0597Y03149*
X05971Y03148*
X05971Y03147*
X05972Y03146*
X05972Y03145*
X05973Y03144*
X05973Y03143*
X05974Y03142*
X05975Y03141*
X05976Y0314*
X05977Y03139*
X05978Y03138*
X05979Y03138*
X0598Y03137*
X05981Y03137*
X05982Y03136*
X05983Y03136*
X05985Y03136*
X05986Y03136*
X05987Y03135*
X05988*
X0599Y03136*
X05991Y03136*
X05992Y03136*
X05993Y03136*
X05994Y03137*
X05995Y03137*
X05996Y03138*
X05998Y03138*
X05999Y03139*
X05999Y0314*
X06Y03141*
X06001Y03142*
X06002Y03143*
X06003Y03144*
X06003Y03145*
X06004Y03146*
X06004Y03147*
X06005Y03148*
X06005Y03149*
X06005Y03151*
X06005Y03152*
X06005Y03153*
Y03862D02*
D01*
X06005Y03863*
X06005Y03864*
X06005Y03865*
X06005Y03867*
X06004Y03868*
X06004Y03869*
X06003Y0387*
X06003Y03871*
X06002Y03872*
X06001Y03873*
X06Y03874*
X05999Y03875*
X05999Y03876*
X05998Y03876*
X05996Y03877*
X05995Y03878*
X05994Y03878*
X05993Y03878*
X05992Y03879*
X05991Y03879*
X0599Y03879*
X05988Y03879*
X05987*
X05986Y03879*
X05985Y03879*
X05983Y03879*
X05982Y03878*
X05981Y03878*
X0598Y03878*
X05979Y03877*
X05978Y03876*
X05977Y03876*
X05976Y03875*
X05975Y03874*
X05974Y03873*
X05973Y03872*
X05973Y03871*
X05972Y0387*
X05972Y03869*
X05971Y03868*
X05971Y03867*
X0597Y03865*
X0597Y03864*
X0597Y03863*
X0597Y03862*
X0597Y0386*
X0597Y03859*
X0597Y03858*
X05971Y03857*
X05971Y03856*
X05972Y03855*
X05972Y03853*
X05973Y03852*
X05973Y03851*
X05974Y0385*
X05975Y03849*
X05976Y03849*
X05977Y03848*
X05978Y03847*
X05979Y03846*
X0598Y03846*
X05981Y03845*
X05982Y03845*
X05983Y03845*
X05985Y03844*
X05986Y03844*
X05987Y03844*
X05988*
X0599Y03844*
X05991Y03844*
X05992Y03845*
X05993Y03845*
X05994Y03845*
X05995Y03846*
X05996Y03846*
X05998Y03847*
X05999Y03848*
X05999Y03849*
X06Y03849*
X06001Y0385*
X06002Y03851*
X06003Y03852*
X06003Y03853*
X06004Y03855*
X06004Y03856*
X06005Y03857*
X06005Y03858*
X06005Y03859*
X06005Y0386*
X06005Y03862*
Y04216D02*
D01*
X06005Y04217*
X06005Y04218*
X06005Y0422*
X06005Y04221*
X06004Y04222*
X06004Y04223*
X06003Y04224*
X06003Y04225*
X06002Y04226*
X06001Y04227*
X06Y04228*
X05999Y04229*
X05999Y0423*
X05998Y04231*
X05996Y04231*
X05995Y04232*
X05994Y04232*
X05993Y04233*
X05992Y04233*
X05991Y04233*
X0599Y04234*
X05988Y04234*
X05987*
X05986Y04234*
X05985Y04233*
X05983Y04233*
X05982Y04233*
X05981Y04232*
X0598Y04232*
X05979Y04231*
X05978Y04231*
X05977Y0423*
X05976Y04229*
X05975Y04228*
X05974Y04227*
X05973Y04226*
X05973Y04225*
X05972Y04224*
X05972Y04223*
X05971Y04222*
X05971Y04221*
X0597Y0422*
X0597Y04218*
X0597Y04217*
X0597Y04216*
X0597Y04215*
X0597Y04214*
X0597Y04212*
X05971Y04211*
X05971Y0421*
X05972Y04209*
X05972Y04208*
X05973Y04207*
X05973Y04206*
X05974Y04205*
X05975Y04204*
X05976Y04203*
X05977Y04202*
X05978Y04201*
X05979Y04201*
X0598Y042*
X05981Y042*
X05982Y04199*
X05983Y04199*
X05985Y04199*
X05986Y04199*
X05987Y04198*
X05988*
X0599Y04199*
X05991Y04199*
X05992Y04199*
X05993Y04199*
X05994Y042*
X05995Y042*
X05996Y04201*
X05998Y04201*
X05999Y04202*
X05999Y04203*
X06Y04204*
X06001Y04205*
X06002Y04206*
X06003Y04207*
X06003Y04208*
X06004Y04209*
X06004Y0421*
X06005Y04211*
X06005Y04212*
X06005Y04214*
X06005Y04215*
X06005Y04216*
X05181Y04015D02*
Y04303D01*
X04413Y04015D02*
Y04303D01*
X05181*
X04413Y04015D02*
X05181D01*
X04413Y04547D02*
X05181D01*
X04413Y04834D02*
X05181D01*
X04413Y04547D02*
Y04834D01*
X05181Y04547D02*
Y04834D01*
X05679Y01832D02*
Y01873D01*
X05579Y01673D02*
X05679D01*
X05579D02*
Y02032D01*
X05679*
Y01948D02*
Y02032D01*
Y01673D02*
Y01832D01*
Y01873D02*
Y01948D01*
X06526Y02659D02*
Y027D01*
X06426Y025D02*
X06526D01*
X06426D02*
Y02859D01*
X06526*
Y02775D02*
Y02859D01*
Y025D02*
Y02659D01*
Y027D02*
Y02775D01*
X06268Y02653D02*
Y02694D01*
Y02853D02*
X06368D01*
Y02495D02*
Y02853D01*
X06268Y02495D02*
X06368D01*
X06268D02*
Y02578D01*
Y02694D02*
Y02853D01*
Y02578D02*
Y02653D01*
X05679Y02265D02*
Y02306D01*
X05579Y02106D02*
X05679D01*
X05579D02*
Y02465D01*
X05679*
Y02381D02*
Y02465D01*
Y02106D02*
Y02265D01*
Y02306D02*
Y02381D01*
X06909Y03011D02*
Y03582D01*
X06653Y03011D02*
Y03582D01*
X06909*
X06653Y03011D02*
X06909D01*
X05275Y04547D02*
Y04803D01*
X0557Y04547D02*
Y04803D01*
X05275D02*
X0557D01*
X05275Y04547D02*
X0557D01*
X01751Y01631D02*
X01831D01*
X01791Y01591D02*
Y01671D01*
X02026Y02739D02*
X02106D01*
X02066Y02699D02*
Y02779D01*
X01082Y01631D02*
X01162D01*
X01122Y01591D02*
Y01671D01*
X01357Y02739D02*
X01437D01*
X01397Y02699D02*
Y02779D01*
X03897Y04708D02*
Y04788D01*
X03857Y04748D02*
X03937D01*
X00866Y04015D02*
X02125D01*
X00866Y03385D02*
X02125D01*
Y04015*
X00866Y03385D02*
Y04015D01*
X05433Y01724D02*
Y01779D01*
X05547*
Y01724D02*
Y01779D01*
X05433Y01724D02*
X05547D01*
X05433Y02157D02*
Y02212D01*
X05547*
Y02157D02*
Y02212D01*
X05433Y02157D02*
X05547D01*
X03131Y02477D02*
Y02832D01*
X02731Y02477D02*
X03131D01*
X02731D02*
Y02832D01*
X03131*
X04745Y01847D02*
Y02202D01*
X04345Y01847D02*
X04745D01*
X04345D02*
Y02202D01*
X04745*
Y02634D02*
Y02989D01*
X04345Y02634D02*
X04745D01*
X04345D02*
Y02989D01*
X04745*
X03131Y01689D02*
Y02044D01*
X02731Y01689D02*
X03131D01*
X02731D02*
Y02044D01*
X03131*
X05123Y01713D02*
X05143D01*
X05008Y01393D02*
Y01713D01*
Y01393D02*
X05143D01*
X05008Y01713D02*
X05123D01*
X05143Y01393D02*
Y01713D01*
X01643Y01477D02*
X01998D01*
Y01077D02*
Y01477D01*
X01643Y01077D02*
X01998D01*
X01643D02*
Y01477D01*
X06137Y02468D02*
X06421D01*
X06137Y02374D02*
Y02468D01*
Y02374D02*
X06421D01*
Y02468*
X05139Y02092D02*
Y02375D01*
Y02092D02*
X05234D01*
Y02375*
X05139D02*
X05234D01*
X05149Y0283D02*
Y03114D01*
Y0283D02*
X05244D01*
Y03114*
X05149D02*
X05244D01*
X05566Y03338D02*
X0585D01*
Y03433*
X05566D02*
X0585D01*
X05566Y03338D02*
Y03433D01*
Y02984D02*
X0585D01*
Y03078*
X05566D02*
X0585D01*
X05566Y02984D02*
Y03078D01*
X03224Y02842D02*
X03507D01*
X03224Y02748D02*
Y02842D01*
Y02748D02*
X03507D01*
Y02842*
X05488Y04047D02*
X05771D01*
Y04141*
X05488D02*
X05771D01*
X05488Y04047D02*
Y04141D01*
X03244Y02055D02*
X03527D01*
X03244Y0196D02*
Y02055D01*
Y0196D02*
X03527D01*
Y02055*
X05566Y03692D02*
X0585D01*
Y03787*
X05566D02*
X0585D01*
X05566Y03692D02*
Y03787D01*
X05543Y02574D02*
Y02858D01*
Y02574D02*
X05637D01*
Y02858*
X05543D02*
X05637D01*
X05661Y02574D02*
Y02858D01*
Y02574D02*
X05755D01*
Y02858*
X05661D02*
X05755D01*
X04444Y04496D02*
X04728D01*
X04444Y04401D02*
Y04496D01*
Y04401D02*
X04728D01*
Y04496*
X04799D02*
X05082D01*
X04799Y04401D02*
Y04496D01*
Y04401D02*
X05082D01*
Y04496*
X04444Y03964D02*
X04728D01*
X04444Y0387D02*
Y03964D01*
Y0387D02*
X04728D01*
Y03964*
X04799D02*
X05082D01*
X04799Y0387D02*
Y03964D01*
Y0387D02*
X05082D01*
Y03964*
X05704Y02035D02*
X05988D01*
X05704Y0194D02*
Y02035D01*
Y0194D02*
X05988D01*
Y02035*
X06137D02*
X06421D01*
X06137Y0194D02*
Y02035D01*
Y0194D02*
X06421D01*
Y02035*
X05704Y02468D02*
X05988D01*
X05704Y02374D02*
Y02468D01*
Y02374D02*
X05988D01*
Y02468*
X04602Y01444D02*
X04885D01*
X04602Y0135D02*
Y01444D01*
Y0135D02*
X04885D01*
Y01444*
X06899Y02881D02*
X06919D01*
X06899Y02381D02*
Y02881D01*
Y02381D02*
X06919D01*
Y02322D02*
Y0294D01*
X06702Y02322D02*
Y0294D01*
X06919*
X06702Y02322D02*
X06919D01*
X05917Y01161D02*
Y01399D01*
X06011*
X05917Y01161D02*
X06011D01*
Y01399*
X06094Y01161D02*
Y01399D01*
X06188*
X06094Y01161D02*
X06188D01*
Y01399*
X06271Y01161D02*
Y01399D01*
X06366*
X06271Y01161D02*
X06366D01*
Y01399*
X06448Y01161D02*
Y01399D01*
X06543*
X06448Y01161D02*
X06543D01*
Y01399*
X06625Y01161D02*
Y01399D01*
X0672*
X06625Y01161D02*
X0672D01*
Y01399*
X06476Y04338D02*
X06714D01*
Y04244D02*
Y04338D01*
X06476Y04244D02*
Y04338D01*
Y04244D02*
X06714D01*
X06476Y04181D02*
X06714D01*
Y04086D02*
Y04181D01*
X06476Y04086D02*
Y04181D01*
Y04086D02*
X06714D01*
X06476Y04023D02*
X06714D01*
Y03929D02*
Y04023D01*
X06476Y03929D02*
Y04023D01*
Y03929D02*
X06714D01*
X06476Y03866D02*
X06714D01*
Y03771D02*
Y03866D01*
X06476Y03771D02*
Y03866D01*
Y03771D02*
X06714D01*
X06476Y03708D02*
X06714D01*
Y03614D02*
Y03708D01*
X06476Y03614D02*
Y03708D01*
Y03614D02*
X06714D01*
X05657Y01159D02*
Y01397D01*
X05562Y01159D02*
X05657D01*
X05562Y01397D02*
X05657D01*
X05562Y01159D02*
Y01397D01*
X05834Y01159D02*
Y01397D01*
X0574Y01159D02*
X05834D01*
X0574Y01397D02*
X05834D01*
X0574Y01159D02*
Y01397D01*
X05135Y01055D02*
X05374D01*
X05135D02*
Y01149D01*
X05374Y01055D02*
Y01149D01*
X05135D02*
X05374D01*
X0486Y01055D02*
X05098D01*
X0486D02*
Y01149D01*
X05098Y01055D02*
Y01149D01*
X0486D02*
X05098D01*
X04586D02*
X04824D01*
Y01055D02*
Y01149D01*
X04586Y01055D02*
Y01149D01*
Y01055D02*
X04824D01*
X04311Y01149D02*
X04549D01*
Y01055D02*
Y01149D01*
X04311Y01055D02*
Y01149D01*
Y01055D02*
X04549D01*
X05982Y02984D02*
X0622D01*
X05982D02*
Y03078D01*
X0622Y02984D02*
Y03078D01*
X05982D02*
X0622D01*
X05984Y03433D02*
X06222D01*
Y03338D02*
Y03433D01*
X05984Y03338D02*
Y03433D01*
Y03338D02*
X06222D01*
X05982Y03692D02*
X0622D01*
X05982D02*
Y03787D01*
X0622Y03692D02*
Y03787D01*
X05982D02*
X0622D01*
X05982Y04047D02*
X0622D01*
X05982D02*
Y04141D01*
X0622Y04047D02*
Y04141D01*
X05982D02*
X0622D01*
X03974Y01055D02*
X04212D01*
X03974D02*
Y01149D01*
X04212Y01055D02*
Y01149D01*
X03974D02*
X04212D01*
X03147Y01055D02*
X03385D01*
X03147D02*
Y01149D01*
X03385Y01055D02*
Y01149D01*
X03147D02*
X03385D01*
X03698Y01055D02*
X03937D01*
X03698D02*
Y01149D01*
X03937Y01055D02*
Y01149D01*
X03698D02*
X03937D01*
X02872Y01055D02*
X0311D01*
X02872D02*
Y01149D01*
X0311Y01055D02*
Y01149D01*
X02872D02*
X0311D01*
X03423Y01055D02*
X03661D01*
X03423D02*
Y01149D01*
X03661Y01055D02*
Y01149D01*
X03423D02*
X03661D01*
X02596Y01055D02*
X02834D01*
X02596D02*
Y01149D01*
X02834Y01055D02*
Y01149D01*
X02596D02*
X02834D01*
X04119Y01678D02*
X04174D01*
X04119Y01478D02*
Y01678D01*
X04269Y01478D02*
Y01678D01*
X04214D02*
X04269D01*
X04119Y01478D02*
X04269D01*
X05103Y03187D02*
Y03242D01*
X04903D02*
X05103D01*
X04903Y03092D02*
X05103D01*
Y03147*
X04903Y03092D02*
Y03242D01*
X05103Y02439D02*
Y02494D01*
X04903D02*
X05103D01*
X04903Y02344D02*
X05103D01*
Y02399*
X04903Y02344D02*
Y02494D01*
X03489Y0303D02*
Y03085D01*
X03289D02*
X03489D01*
X03289Y02935D02*
X03489D01*
Y0299*
X03289Y02935D02*
Y03085D01*
X03489Y02242D02*
Y02297D01*
X03289D02*
X03489D01*
X03289Y02147D02*
X03489D01*
Y02202*
X03289Y02147D02*
Y02297D01*
X06728Y01865D02*
X06834D01*
X06653D02*
Y02205D01*
Y01865D02*
X06728D01*
X06834D02*
Y02205D01*
X06769D02*
X06834D01*
X06653D02*
X06719D01*
X06476Y04732D02*
Y04772D01*
X06461Y04601D02*
Y04729D01*
X06003Y04732D02*
Y04772D01*
X05989Y04601D02*
Y04729D01*
X05767Y04732D02*
Y04772D01*
X05753Y04601D02*
Y04729D01*
X0624Y04732D02*
Y04772D01*
X06225Y04601D02*
Y04729D01*
X06023Y03472D02*
Y03635D01*
X05758Y03472D02*
Y03635D01*
Y03472D02*
X06023D01*
X05758Y03635D02*
X06023D01*
Y03118D02*
Y03281D01*
X05758Y03118D02*
Y03281D01*
Y03118D02*
X06023D01*
X05758Y03281D02*
X06023D01*
Y03826D02*
Y03989D01*
X05758Y03826D02*
Y03989D01*
Y03826D02*
X06023D01*
X05758Y03989D02*
X06023D01*
Y04181D02*
Y04344D01*
X05758Y04181D02*
Y04344D01*
Y04181D02*
X06023D01*
X05758Y04344D02*
X06023D01*
X02559Y01299D02*
Y03661D01*
Y01299D02*
X04921D01*
Y03661*
X02559D02*
X04921D01*
X02559D02*
D01*
X06747Y03036D02*
X06727D01*
X06737*
Y02986*
X06727Y02976*
X06717*
X06707Y02986*
X06797Y02976D02*
Y03036D01*
X06767Y03006*
X06807*
X00794Y01737D02*
X00784Y01747D01*
X00764*
X00754Y01737*
Y01727*
X00764Y01717*
X00784*
X00794Y01707*
Y01697*
X00784Y01687*
X00764*
X00754Y01697*
X00814Y01747D02*
Y01687D01*
Y01717*
X00824Y01727*
X00844*
X00854Y01717*
Y01687*
X00884D02*
X00904D01*
X00914Y01697*
Y01717*
X00904Y01727*
X00884*
X00874Y01717*
Y01697*
X00884Y01687*
X00934Y01727D02*
Y01687D01*
Y01707*
X00944Y01717*
X00954Y01727*
X00964*
X01004Y01737D02*
Y01727D01*
X00994*
X01014*
X01004*
Y01697*
X01014Y01687*
X01084D02*
X01044D01*
X01084Y01727*
Y01737*
X01074Y01747*
X01054*
X01044Y01737*
X0099Y02929D02*
X0098Y02939D01*
X0096*
X0095Y02929*
Y02889*
X0096Y02879*
X0098*
X0099Y02889*
X0105Y02879D02*
X0101D01*
X0105Y02919*
Y02929*
X0104Y02939*
X0102*
X0101Y02929*
X0111Y02939D02*
X0109Y02929D01*
X0107Y02909*
Y02889*
X0108Y02879*
X011*
X0111Y02889*
Y02899*
X011Y02909*
X0107*
X05826Y02941D02*
X05806D01*
X05816*
Y02891*
X05806Y02881*
X05796*
X05786Y02891*
X05846Y02881D02*
X05866D01*
X05856*
Y02941*
X05846Y02931*
X03294Y02456D02*
Y02396D01*
X03324*
X03334Y02406*
Y02446*
X03324Y02456*
X03294*
X03354Y02436D02*
Y02396D01*
Y02416*
X03364Y02426*
X03374Y02436*
X03384*
X03414D02*
X03434Y02396D01*
X03454Y02436*
X03474Y02396D02*
X03494D01*
X03484*
Y02456*
X03474Y02446*
X00989Y0224D02*
X00979Y0225D01*
X00959*
X00949Y0224*
Y022*
X00959Y0219*
X00979*
X00989Y022*
X01049Y0219D02*
X01009D01*
X01049Y0223*
Y0224*
X01039Y0225*
X01019*
X01009Y0224*
X01069Y0225D02*
X01109D01*
Y0224*
X01069Y022*
Y0219*
X00794Y0154D02*
X00784Y0155D01*
X00764*
X00754Y0154*
Y0153*
X00764Y0152*
X00784*
X00794Y0151*
Y015*
X00784Y0149*
X00764*
X00754Y015*
X00814Y0155D02*
Y0149D01*
Y0152*
X00824Y0153*
X00844*
X00854Y0152*
Y0149*
X00884D02*
X00904D01*
X00914Y015*
Y0152*
X00904Y0153*
X00884*
X00874Y0152*
Y015*
X00884Y0149*
X00934Y0153D02*
Y0149D01*
Y0151*
X00944Y0152*
X00954Y0153*
X00964*
X01004Y0154D02*
Y0153D01*
X00994*
X01014*
X01004*
Y015*
X01014Y0149*
X01044D02*
X01064D01*
X01054*
Y0155*
X01044Y0154*
X01659Y02929D02*
X01649Y02939D01*
X01629*
X01619Y02929*
Y02889*
X01629Y02879*
X01649*
X01659Y02889*
X01719Y02879D02*
X01679D01*
X01719Y02919*
Y02929*
X01709Y02939*
X01689*
X01679Y02929*
X01779Y02939D02*
X01739D01*
Y02909*
X01759Y02919*
X01769*
X01779Y02909*
Y02889*
X01769Y02879*
X01749*
X01739Y02889*
X01659Y0224D02*
X01649Y0225D01*
X01629*
X01619Y0224*
Y022*
X01629Y0219*
X01649*
X01659Y022*
X01719Y0219D02*
X01679D01*
X01719Y0223*
Y0224*
X01709Y0225*
X01689*
X01679Y0224*
X01769Y0219D02*
Y0225D01*
X01739Y0222*
X01779*
X05758Y04311D02*
X05738D01*
X05728Y04301*
Y04261*
X05738Y04251*
X05758*
X05768Y04261*
Y04301*
X05758Y04311*
X05788Y04231D02*
Y04291D01*
X05818*
X05828Y04281*
Y04261*
X05818Y04251*
X05788*
X05858Y04301D02*
Y04291D01*
X05848*
X05868*
X05858*
Y04261*
X05868Y04251*
X05908D02*
X05928D01*
X05938Y04261*
Y04281*
X05928Y04291*
X05908*
X05898Y04281*
Y04261*
X05908Y04251*
X05998D02*
X05958D01*
X05998Y04291*
Y04301*
X05988Y04311*
X05968*
X05958Y04301*
X02736Y02288D02*
Y02348D01*
X02756Y02328*
X02776Y02348*
Y02288*
X02796D02*
X02816D01*
X02806*
Y02348*
X02796Y02338*
X0532Y04898D02*
X053D01*
X0531*
Y04848*
X053Y04838*
X0529*
X0528Y04848*
X0538Y04838D02*
X0534D01*
X0538Y04878*
Y04888*
X0537Y04898*
X0535*
X0534Y04888*
X04647Y01529D02*
X04637Y01539D01*
X04617*
X04607Y01529*
Y01489*
X04617Y01479*
X04637*
X04647Y01489*
X04707Y01479D02*
X04667D01*
X04707Y01519*
Y01529*
X04697Y01539*
X04677*
X04667Y01529*
X04727D02*
X04737Y01539D01*
X04757*
X04767Y01529*
Y01519*
X04757Y01509*
X04747*
X04757*
X04767Y01499*
Y01489*
X04757Y01479*
X04737*
X04727Y01489*
X0575Y02553D02*
X0574Y02563D01*
X0572*
X0571Y02553*
Y02513*
X0572Y02503*
X0574*
X0575Y02513*
X0581Y02503D02*
X0577D01*
X0581Y02543*
Y02553*
X058Y02563*
X0578*
X0577Y02553*
X0583D02*
X0584Y02563D01*
X0586*
X0587Y02553*
Y02513*
X0586Y02503*
X0584*
X0583Y02513*
Y02553*
X06182Y0212D02*
X06172Y0213D01*
X06152*
X06142Y0212*
Y0208*
X06152Y0207*
X06172*
X06182Y0208*
X06202Y0207D02*
X06222D01*
X06212*
Y0213*
X06202Y0212*
X06292Y0213D02*
X06272Y0212D01*
X06252Y021*
Y0208*
X06262Y0207*
X06282*
X06292Y0208*
Y0209*
X06282Y021*
X06252*
X05749Y0212D02*
X05739Y0213D01*
X05719*
X05709Y0212*
Y0208*
X05719Y0207*
X05739*
X05749Y0208*
X05769Y0207D02*
X05789D01*
X05779*
Y0213*
X05769Y0212*
X05859Y0213D02*
X05819D01*
Y021*
X05839Y0211*
X05849*
X05859Y021*
Y0208*
X05849Y0207*
X05829*
X05819Y0208*
X04844Y04049D02*
X04834Y04059D01*
X04814*
X04804Y04049*
Y04009*
X04814Y03999*
X04834*
X04844Y04009*
X04903Y04059D02*
X04883Y04049D01*
X04863Y04029*
Y04009*
X04873Y03999*
X04893*
X04903Y04009*
Y04019*
X04893Y04029*
X04863*
X0449Y04049D02*
X0448Y04059D01*
X0446*
X0445Y04049*
Y04009*
X0446Y03999*
X0448*
X0449Y04009*
X04549Y04059D02*
X04509D01*
Y04029*
X04529Y04039*
X04539*
X04549Y04029*
Y04009*
X04539Y03999*
X04519*
X04509Y04009*
X04843Y04581D02*
X04833Y04591D01*
X04813*
X04803Y04581*
Y04541*
X04813Y04531*
X04833*
X04843Y04541*
X04893Y04531D02*
Y04591D01*
X04863Y04561*
X04903*
X04489Y04581D02*
X04479Y04591D01*
X04459*
X04449Y04581*
Y04541*
X04459Y04531*
X04479*
X04489Y04541*
X04509Y04581D02*
X04519Y04591D01*
X04539*
X04549Y04581*
Y04571*
X04539Y04561*
X04529*
X04539*
X04549Y04551*
Y04541*
X04539Y04531*
X04519*
X04509Y04541*
X05706Y02942D02*
X05696Y02952D01*
X05676*
X05666Y02942*
Y02902*
X05676Y02892*
X05696*
X05706Y02902*
X05766Y02892D02*
X05726D01*
X05766Y02932*
Y02942*
X05756Y02952*
X05736*
X05726Y02942*
X05588D02*
X05578Y02952D01*
X05558*
X05548Y02942*
Y02902*
X05558Y02892*
X05578*
X05588Y02902*
X05608Y02892D02*
X05628D01*
X05618*
Y02952*
X05608Y02942*
X05624Y0255D02*
X05614Y0256D01*
X05594*
X05584Y0255*
Y0251*
X05594Y025*
X05614*
X05624Y0251*
X05644Y025D02*
X05664D01*
X05654*
Y0256*
X05644Y0255*
X05694Y0256D02*
X05734D01*
Y0255*
X05694Y0251*
Y025*
X06313Y02938D02*
X06303Y02948D01*
X06283*
X06273Y02938*
Y02898*
X06283Y02888*
X06303*
X06313Y02898*
X06333Y02888D02*
X06353D01*
X06343*
Y02948*
X06333Y02938*
X06383D02*
X06393Y02948D01*
X06413*
X06423Y02938*
Y02928*
X06413Y02918*
X06423Y02908*
Y02898*
X06413Y02888*
X06393*
X06383Y02898*
Y02908*
X06393Y02918*
X06383Y02928*
Y02938*
X06393Y02918D02*
X06413D01*
X06471Y02944D02*
X06461Y02954D01*
X06441*
X06431Y02944*
Y02904*
X06441Y02894*
X06461*
X06471Y02904*
X06491Y02894D02*
X06511D01*
X06501*
Y02954*
X06491Y02944*
X06541Y02904D02*
X06551Y02894D01*
X06571*
X06581Y02904*
Y02944*
X06571Y02954*
X06551*
X06541Y02944*
Y02934*
X06551Y02924*
X06581*
X05624Y02117D02*
X05614Y02127D01*
X05594*
X05584Y02117*
Y02077*
X05594Y02067*
X05614*
X05624Y02077*
X05684Y02067D02*
X05644D01*
X05684Y02107*
Y02117*
X05674Y02127*
X05654*
X05644Y02117*
X05744Y02067D02*
X05704D01*
X05744Y02107*
Y02117*
X05734Y02127*
X05714*
X05704Y02117*
X01439Y01572D02*
Y01512D01*
X01469*
X01479Y01522*
Y01562*
X01469Y01572*
X01439*
X01499Y01512D02*
X01519D01*
X01509*
Y01572*
X01499Y01562*
X03294Y03244D02*
Y03184D01*
X03324*
X03334Y03194*
Y03234*
X03324Y03244*
X03294*
X03354Y03224D02*
Y03184D01*
Y03204*
X03364Y03214*
X03374Y03224*
X03384*
X03414D02*
X03434Y03184D01*
X03454Y03224*
X03514Y03184D02*
X03474D01*
X03514Y03224*
Y03234*
X03504Y03244*
X03484*
X03474Y03234*
X04908Y02653D02*
Y02593D01*
X04938*
X04948Y02603*
Y02643*
X04938Y02653*
X04908*
X04968Y02633D02*
Y02593D01*
Y02613*
X04978Y02623*
X04988Y02633*
X04998*
X05028D02*
X05048Y02593D01*
X05068Y02633*
X05088Y02643D02*
X05098Y02653D01*
X05118*
X05128Y02643*
Y02633*
X05118Y02623*
X05108*
X05118*
X05128Y02613*
Y02603*
X05118Y02593*
X05098*
X05088Y02603*
X04908Y03401D02*
Y03341D01*
X04938*
X04948Y03351*
Y03391*
X04938Y03401*
X04908*
X04968Y03381D02*
Y03341D01*
Y03361*
X04978Y03371*
X04988Y03381*
X04998*
X05028D02*
X05048Y03341D01*
X05068Y03381*
X05118Y03341D02*
Y03401D01*
X05088Y03371*
X05128*
X05438Y02335D02*
Y02275D01*
X05468*
X05478Y02285*
Y02325*
X05468Y02335*
X05438*
X05498Y02315D02*
X05538D01*
X05498Y02275*
X05538*
X05558D02*
X05578D01*
X05568*
Y02335*
X05558Y02325*
X05438Y01902D02*
Y01842D01*
X05468*
X05478Y01852*
Y01892*
X05468Y01902*
X05438*
X05498Y01882D02*
X05538D01*
X05498Y01842*
X05538*
X05598D02*
X05558D01*
X05598Y01882*
Y01892*
X05588Y01902*
X05568*
X05558Y01892*
X0406Y01783D02*
X0408D01*
X0407*
Y01723*
X0406*
X0408*
X0411Y01783D02*
Y01723D01*
X0415*
X0417Y01713D02*
X0421D01*
X0423Y01723D02*
X0426D01*
X0427Y01733*
X0426Y01743*
X0424*
X0423Y01753*
X0424Y01763*
X0427*
X0432Y01723D02*
X043D01*
X0429Y01733*
Y01753*
X043Y01763*
X0432*
X0433Y01753*
Y01743*
X0429*
X0435Y01723D02*
Y01763D01*
X0438*
X0439Y01753*
Y01723*
X0441D02*
X0444D01*
X0445Y01733*
X0444Y01743*
X0442*
X0441Y01753*
X0442Y01763*
X0445*
X0447Y01723D02*
X0449D01*
X0448*
Y01783*
X0447Y01773*
X04418Y0488D02*
X04437D01*
X04427*
Y04919*
X04418*
X04467Y0488D02*
Y04919D01*
X04497*
X04507Y04909*
Y0488*
X04527Y0487D02*
X04567D01*
X04587Y04939D02*
X04627D01*
X04607*
Y0488*
X04647D02*
Y04939D01*
X04677*
X04687Y04929*
Y04909*
X04677Y04899*
X04647*
X04667D02*
X04687Y0488D01*
X04707D02*
Y04919D01*
X04727Y04939*
X04747Y04919*
Y0488*
Y04909*
X04707*
X04807Y04929D02*
X04797Y04939D01*
X04777*
X04767Y04929*
Y04889*
X04777Y0488*
X04797*
X04807Y04889*
X04857Y04939D02*
X04837D01*
X04827Y04929*
Y04889*
X04837Y0488*
X04857*
X04867Y04889*
Y04929*
X04857Y04939*
X04887Y0488D02*
X04907D01*
X04897*
Y04939*
X04887Y04929*
X06698Y03677D02*
X06678D01*
X06688*
Y03627*
X06678Y03617*
X06668*
X06658Y03627*
X06718Y03667D02*
X06728Y03677D01*
X06748*
X06758Y03667*
Y03657*
X06748Y03647*
X06738*
X06748*
X06758Y03637*
Y03627*
X06748Y03617*
X06728*
X06718Y03627*
X05053Y01808D02*
X05033D01*
X05043*
Y01758*
X05033Y01748*
X05023*
X05014Y01758*
X05113Y01808D02*
X05073D01*
Y01778*
X05093Y01788*
X05103*
X05113Y01778*
Y01758*
X05103Y01748*
X05083*
X05073Y01758*
X05778Y03957D02*
X05758D01*
X05748Y03947*
Y03907*
X05758Y03897*
X05778*
X05788Y03907*
Y03947*
X05778Y03957*
X05808Y03877D02*
Y03937D01*
X05838*
X05848Y03927*
Y03907*
X05838Y03897*
X05808*
X05877Y03947D02*
Y03937D01*
X05867*
X05887*
X05877*
Y03907*
X05887Y03897*
X05927D02*
X05947D01*
X05957Y03907*
Y03927*
X05947Y03937*
X05927*
X05917Y03927*
Y03907*
X05927Y03897*
X05977D02*
X05997D01*
X05987*
Y03957*
X05977Y03947*
X04427Y04348D02*
X04447D01*
X04457Y04357*
Y04377*
X04447Y04387*
X04427*
X04418Y04377*
Y04357*
X04427Y04348*
X04477Y04387D02*
Y04357D01*
X04487Y04348*
X04517*
Y04387*
X04547Y04397D02*
Y04387D01*
X04537*
X04557*
X04547*
Y04357*
X04557Y04348*
X04587Y04338D02*
X04627D01*
X04647Y04407D02*
X04687D01*
X04667*
Y04348*
X04707D02*
Y04407D01*
X04737*
X04747Y04397*
Y04377*
X04737Y04367*
X04707*
X04727D02*
X04747Y04348D01*
X04767D02*
Y04387D01*
X04787Y04407*
X04807Y04387*
Y04348*
Y04377*
X04767*
X04867Y04397D02*
X04857Y04407D01*
X04837*
X04827Y04397*
Y04357*
X04837Y04348*
X04857*
X04867Y04357*
X04917Y04407D02*
X04897D01*
X04887Y04397*
Y04357*
X04897Y04348*
X04917*
X04927Y04357*
Y04397*
X04917Y04407*
X04947Y04348D02*
X04967D01*
X04957*
Y04407*
X04947Y04397*
X06176Y04057D02*
Y04117D01*
X06206*
X06216Y04107*
Y04087*
X06206Y04077*
X06176*
X06196D02*
X06216Y04057D01*
X06276Y04117D02*
X06236D01*
Y04087*
X06256Y04097*
X06266*
X06276Y04087*
Y04067*
X06266Y04057*
X06246*
X06236Y04067*
X03208Y02303D02*
Y02363D01*
X03238*
X03248Y02353*
Y02333*
X03238Y02323*
X03208*
X03228D02*
X03248Y02303D01*
X03308Y02363D02*
X03288Y02353D01*
X03268Y02333*
Y02313*
X03278Y02303*
X03298*
X03308Y02313*
Y02323*
X03298Y02333*
X03268*
X03125Y02364D02*
Y02424D01*
X03155*
X03165Y02414*
Y02394*
X03155Y02384*
X03125*
X03145D02*
X03165Y02364D01*
X03185Y02424D02*
X03225D01*
Y02414*
X03185Y02374*
Y02364*
X06176Y04411D02*
Y04471D01*
X06206*
X06216Y04461*
Y04441*
X06206Y04431*
X06176*
X06196D02*
X06216Y04411D01*
X06236Y04461D02*
X06246Y04471D01*
X06266*
X06276Y04461*
Y04451*
X06266Y04441*
X06276Y04431*
Y04421*
X06266Y04411*
X06246*
X06236Y04421*
Y04431*
X06246Y04441*
X06236Y04451*
Y04461*
X06246Y04441D02*
X06266D01*
X03267Y0311D02*
X03327D01*
Y0308*
X03317Y0307*
X03297*
X03287Y0308*
Y0311*
Y0309D02*
X03267Y0307D01*
X03277Y0305D02*
X03267Y0304D01*
Y0302*
X03277Y0301*
X03317*
X03327Y0302*
Y0304*
X03317Y0305*
X03307*
X03297Y0304*
Y0301*
X03125Y03151D02*
Y03211D01*
X03155*
X03165Y03201*
Y03181*
X03155Y03171*
X03125*
X03145D02*
X03165Y03151D01*
X03185D02*
X03205D01*
X03195*
Y03211*
X03185Y03201*
X03235D02*
X03245Y03211D01*
X03265*
X03275Y03201*
Y03161*
X03265Y03151*
X03245*
X03235Y03161*
Y03201*
X0624Y03366D02*
Y03426D01*
X0627*
X0628Y03416*
Y03396*
X0627Y03386*
X0624*
X0626D02*
X0628Y03366D01*
X063D02*
X0632D01*
X0631*
Y03426*
X063Y03416*
X0635Y03366D02*
X0637D01*
X0636*
Y03426*
X0635Y03416*
X04818Y02521D02*
Y02581D01*
X04848*
X04858Y02571*
Y02551*
X04848Y02541*
X04818*
X04838D02*
X04858Y02521D01*
X04878D02*
X04898D01*
X04888*
Y02581*
X04878Y02571*
X04968Y02521D02*
X04928D01*
X04968Y02561*
Y02571*
X04958Y02581*
X04938*
X04928Y02571*
X04739Y02522D02*
Y02581D01*
X04769*
X04779Y02571*
Y02551*
X04769Y02541*
X04739*
X04759D02*
X04779Y02522D01*
X04799D02*
X04819D01*
X04809*
Y02581*
X04799Y02571*
X04849D02*
X04859Y02581D01*
X04879*
X04889Y02571*
Y02561*
X04879Y02551*
X04869*
X04879*
X04889Y02541*
Y02531*
X04879Y02522*
X04859*
X04849Y02531*
X06176Y03703D02*
Y03763D01*
X06206*
X06216Y03753*
Y03733*
X06206Y03723*
X06176*
X06196D02*
X06216Y03703D01*
X06236D02*
X06256D01*
X06246*
Y03763*
X06236Y03753*
X06316Y03703D02*
Y03763D01*
X06286Y03733*
X06326*
X04818Y03269D02*
Y03329D01*
X04848*
X04858Y03319*
Y03299*
X04848Y03289*
X04818*
X04838D02*
X04858Y03269D01*
X04878D02*
X04898D01*
X04888*
Y03329*
X04878Y03319*
X04968Y03329D02*
X04928D01*
Y03299*
X04948Y03309*
X04958*
X04968Y03299*
Y03279*
X04958Y03269*
X04938*
X04928Y03279*
X04739Y03308D02*
Y03368D01*
X04769*
X04779Y03358*
Y03338*
X04769Y03328*
X04739*
X04759D02*
X04779Y03308D01*
X04799D02*
X04819D01*
X04809*
Y03368*
X04799Y03358*
X04889Y03368D02*
X04869Y03358D01*
X04849Y03338*
Y03318*
X04859Y03308*
X04879*
X04889Y03318*
Y03328*
X04879Y03338*
X04849*
X0535Y02445D02*
Y02505D01*
X0538*
X0539Y02495*
Y02475*
X0538Y02465*
X0535*
X0537D02*
X0539Y02445D01*
X0541D02*
X0543D01*
X0542*
Y02505*
X0541Y02495*
X0546Y02505D02*
X055D01*
Y02495*
X0546Y02455*
Y02445*
X0535Y02347D02*
Y02407D01*
X0538*
X0539Y02397*
Y02377*
X0538Y02367*
X0535*
X0537D02*
X0539Y02347D01*
X0541D02*
X0543D01*
X0542*
Y02407*
X0541Y02397*
X0546D02*
X0547Y02407D01*
X0549*
X055Y02397*
Y02387*
X0549Y02377*
X055Y02367*
Y02357*
X0549Y02347*
X0547*
X0546Y02357*
Y02367*
X0547Y02377*
X0546Y02387*
Y02397*
X0547Y02377D02*
X0549D01*
X06255Y0215D02*
Y0221D01*
X06285*
X06295Y022*
Y0218*
X06285Y0217*
X06255*
X06275D02*
X06295Y0215D01*
X06315D02*
X06335D01*
X06325*
Y0221*
X06315Y022*
X06365Y0216D02*
X06375Y0215D01*
X06395*
X06405Y0216*
Y022*
X06395Y0221*
X06375*
X06365Y022*
Y0219*
X06375Y0218*
X06405*
X06235Y02347D02*
Y02407D01*
X06265*
X06275Y02397*
Y02377*
X06265Y02367*
X06235*
X06255D02*
X06275Y02347D01*
X06335D02*
X06295D01*
X06335Y02387*
Y02397*
X06325Y02407*
X06305*
X06295Y02397*
X06355D02*
X06365Y02407D01*
X06385*
X06395Y02397*
Y02357*
X06385Y02347*
X06365*
X06355Y02357*
Y02397*
X06356Y02248D02*
Y02308D01*
X06386*
X06396Y02298*
Y02278*
X06386Y02268*
X06356*
X06376D02*
X06396Y02248D01*
X06456D02*
X06416D01*
X06456Y02288*
Y02298*
X06446Y02308*
X06426*
X06416Y02298*
X06476Y02248D02*
X06496D01*
X06486*
Y02308*
X06476Y02298*
X06432Y02426D02*
Y02486D01*
X06462*
X06472Y02476*
Y02456*
X06462Y02446*
X06432*
X06452D02*
X06472Y02426D01*
X06532D02*
X06492D01*
X06532Y02466*
Y02476*
X06522Y02486*
X06502*
X06492Y02476*
X06592Y02426D02*
X06552D01*
X06592Y02466*
Y02476*
X06582Y02486*
X06562*
X06552Y02476*
X0655Y02878D02*
Y02938D01*
X0658*
X0659Y02928*
Y02908*
X0658Y02898*
X0655*
X0657D02*
X0659Y02878D01*
X0665D02*
X0661D01*
X0665Y02918*
Y02928*
X0664Y02938*
X0662*
X0661Y02928*
X067Y02878D02*
Y02938D01*
X0667Y02908*
X0671*
X0655Y02659D02*
Y02719D01*
X0658*
X0659Y02709*
Y02689*
X0658Y02679*
X0655*
X0657D02*
X0659Y02659D01*
X0665D02*
X0661D01*
X0665Y02699*
Y02709*
X0664Y02719*
X0662*
X0661Y02709*
X0671Y02719D02*
X0667D01*
Y02689*
X0669Y02699*
X067*
X0671Y02689*
Y02669*
X067Y02659*
X0668*
X0667Y02669*
X0535Y02013D02*
Y02072D01*
X0538*
X0539Y02062*
Y02043*
X0538Y02033*
X0535*
X0537D02*
X0539Y02013D01*
X0545D02*
X0541D01*
X0545Y02052*
Y02062*
X0544Y02072*
X0542*
X0541Y02062*
X0551Y02072D02*
X0549Y02062D01*
X0547Y02043*
Y02023*
X0548Y02013*
X055*
X0551Y02023*
Y02033*
X055Y02043*
X0547*
X05349Y01914D02*
Y01973D01*
X05379*
X05389Y01963*
Y01943*
X05379Y01934*
X05349*
X05369D02*
X05389Y01914D01*
X05449D02*
X05409D01*
X05449Y01953*
Y01963*
X05439Y01973*
X05419*
X05409Y01963*
X05469Y01973D02*
X05509D01*
Y01963*
X05469Y01924*
Y01914*
X06294Y01914D02*
Y01974D01*
X06324*
X06334Y01964*
Y01944*
X06324Y01934*
X06294*
X06314D02*
X06334Y01914D01*
X06394D02*
X06354D01*
X06394Y01954*
Y01964*
X06384Y01974*
X06364*
X06354Y01964*
X06414D02*
X06424Y01974D01*
X06444*
X06454Y01964*
Y01954*
X06444Y01944*
X06454Y01934*
Y01924*
X06444Y01914*
X06424*
X06414Y01924*
Y01934*
X06424Y01944*
X06414Y01954*
Y01964*
X06424Y01944D02*
X06444D01*
X06295Y01717D02*
Y01777D01*
X06325*
X06335Y01767*
Y01747*
X06325Y01737*
X06295*
X06315D02*
X06335Y01717D01*
X06394D02*
X06354D01*
X06394Y01757*
Y01767*
X06384Y01777*
X06364*
X06354Y01767*
X06414Y01727D02*
X06424Y01717D01*
X06444*
X06454Y01727*
Y01767*
X06444Y01777*
X06424*
X06414Y01767*
Y01757*
X06424Y01747*
X06454*
X06317Y01815D02*
Y01875D01*
X06347*
X06357Y01865*
Y01845*
X06347Y01835*
X06317*
X06337D02*
X06357Y01815D01*
X06377Y01865D02*
X06387Y01875D01*
X06407*
X06417Y01865*
Y01855*
X06407Y01845*
X06397*
X06407*
X06417Y01835*
Y01825*
X06407Y01815*
X06387*
X06377Y01825*
X06437Y01865D02*
X06447Y01875D01*
X06467*
X06477Y01865*
Y01825*
X06467Y01815*
X06447*
X06437Y01825*
Y01865*
X0657Y01852D02*
Y01912D01*
X066*
X0661Y01902*
Y01882*
X066Y01872*
X0657*
X0659D02*
X0661Y01852D01*
X0663Y01902D02*
X0664Y01912D01*
X0666*
X0667Y01902*
Y01892*
X0666Y01882*
X0665*
X0666*
X0667Y01872*
Y01862*
X0666Y01852*
X0664*
X0663Y01862*
X0669Y01852D02*
X0671D01*
X067*
Y01912*
X0669Y01902*
X04998Y01403D02*
Y01463D01*
X05028*
X05038Y01453*
Y01433*
X05028Y01423*
X04998*
X05018D02*
X05038Y01403D01*
X05058Y01453D02*
X05068Y01463D01*
X05088*
X05098Y01453*
Y01443*
X05088Y01433*
X05078*
X05088*
X05098Y01423*
Y01413*
X05088Y01403*
X05068*
X05058Y01413*
X05158Y01403D02*
X05118D01*
X05158Y01443*
Y01453*
X05148Y01463*
X05128*
X05118Y01453*
X04644Y0156D02*
Y0162D01*
X04674*
X04684Y0161*
Y0159*
X04674Y0158*
X04644*
X04664D02*
X04684Y0156D01*
X04704Y0161D02*
X04714Y0162D01*
X04734*
X04744Y0161*
Y016*
X04734Y0159*
X04724*
X04734*
X04744Y0158*
Y0157*
X04734Y0156*
X04714*
X04704Y0157*
X04764Y0161D02*
X04774Y0162D01*
X04794*
X04804Y0161*
Y016*
X04794Y0159*
X04784*
X04794*
X04804Y0158*
Y0157*
X04794Y0156*
X04774*
X04764Y0157*
X02872Y02386D02*
Y02446D01*
X02902*
X02912Y02436*
Y02416*
X02902Y02406*
X02872*
X02892D02*
X02912Y02386D01*
X02932Y02436D02*
X02942Y02446D01*
X02962*
X02972Y02436*
Y02426*
X02962Y02416*
X02952*
X02962*
X02972Y02406*
Y02396*
X02962Y02386*
X02942*
X02932Y02396*
X03022Y02386D02*
Y02446D01*
X02992Y02416*
X03031*
X04486Y02544D02*
Y02604D01*
X04516*
X04526Y02594*
Y02574*
X04516Y02564*
X04486*
X04506D02*
X04526Y02544D01*
X04546Y02594D02*
X04556Y02604D01*
X04576*
X04586Y02594*
Y02584*
X04576Y02574*
X04566*
X04576*
X04586Y02564*
Y02554*
X04576Y02544*
X04556*
X04546Y02554*
X04646Y02604D02*
X04606D01*
Y02574*
X04626Y02584*
X04636*
X04646Y02574*
Y02554*
X04636Y02544*
X04616*
X04606Y02554*
X02872Y03174D02*
Y03233D01*
X02901*
X02911Y03223*
Y03203*
X02901Y03193*
X02872*
X02891D02*
X02911Y03174D01*
X02931Y03223D02*
X02941Y03233D01*
X02961*
X02971Y03223*
Y03213*
X02961Y03203*
X02951*
X02961*
X02971Y03193*
Y03183*
X02961Y03174*
X02941*
X02931Y03183*
X02991Y03223D02*
X03001Y03233D01*
X03021*
X03031Y03223*
Y03213*
X03021Y03203*
X03031Y03193*
Y03183*
X03021Y03174*
X03001*
X02991Y03183*
Y03193*
X03001Y03203*
X02991Y03213*
Y03223*
X03001Y03203D02*
X03021D01*
X04487Y03332D02*
Y03391D01*
X04516*
X04526Y03381*
Y03361*
X04516Y03351*
X04487*
X04506D02*
X04526Y03332D01*
X04546Y03381D02*
X04556Y03391D01*
X04576*
X04586Y03381*
Y03371*
X04576Y03361*
X04566*
X04576*
X04586Y03351*
Y03341*
X04576Y03332*
X04556*
X04546Y03341*
X04606D02*
X04616Y03332D01*
X04636*
X04646Y03341*
Y03381*
X04636Y03391*
X04616*
X04606Y03381*
Y03371*
X04616Y03361*
X04646*
X02599Y01231D02*
X02589Y01241D01*
X02569*
X02559Y01231*
Y01191*
X02569Y01181*
X02589*
X02599Y01191*
Y01211*
X02579*
X02619Y01181D02*
Y01241D01*
X02659Y01181*
Y01241*
X02679D02*
Y01181D01*
X02709*
X02719Y01191*
Y01231*
X02709Y01241*
X02679*
X02738Y01181D02*
X02758D01*
X02748*
Y01221*
X02738*
X02788Y01181D02*
Y01221D01*
X02818*
X02828Y01211*
Y01181*
X03425Y01231D02*
X03415Y01241D01*
X03395*
X03385Y01231*
Y01191*
X03395Y01181*
X03415*
X03425Y01191*
Y01211*
X03405*
X03445Y01181D02*
Y01241D01*
X03485Y01181*
Y01241*
X03505D02*
Y01181D01*
X03535*
X03545Y01191*
Y01231*
X03535Y01241*
X03505*
X03575Y01181D02*
X03595D01*
X03605Y01191*
Y01211*
X03595Y01221*
X03575*
X03565Y01211*
Y01191*
X03575Y01181*
X03625Y01221D02*
Y01191D01*
X03635Y01181*
X03665*
Y01221*
X03695Y01231D02*
Y01221D01*
X03685*
X03705*
X03695*
Y01191*
X03705Y01181*
X02913Y01241D02*
Y01181D01*
X02953*
X02973D02*
X02993D01*
X02983*
Y01221*
X02973*
X03023Y01181D02*
Y01221D01*
X03053*
X03063Y01211*
Y01181*
X0374Y01241D02*
Y01181D01*
X0378*
X0381D02*
X0383D01*
X0384Y01191*
Y01211*
X0383Y01221*
X0381*
X038Y01211*
Y01191*
X0381Y01181*
X0386Y01221D02*
Y01191D01*
X0387Y01181*
X039*
Y01221*
X0393Y01231D02*
Y01221D01*
X0392*
X0394*
X0393*
Y01191*
X0394Y01181*
X03149Y01241D02*
Y01201D01*
X03169Y01181*
X03189Y01201*
Y01241*
X03209Y01181D02*
X03229D01*
X03219*
Y01221*
X03209*
X03259Y01181D02*
Y01221D01*
X03289*
X03299Y01211*
Y01181*
X04015Y01241D02*
Y01201D01*
X04035Y01181*
X04055Y01201*
Y01241*
X04085Y01181D02*
X04105D01*
X04115Y01191*
Y01211*
X04105Y01221*
X04085*
X04075Y01211*
Y01191*
X04085Y01181*
X04135Y01221D02*
Y01191D01*
X04145Y01181*
X04175*
Y01221*
X04205Y01231D02*
Y01221D01*
X04195*
X04215*
X04205*
Y01191*
X04215Y01181*
X06026Y04226D02*
X06016Y04236D01*
X05996*
X05987Y04226*
Y04216*
X05996Y04206*
X06016*
X06026Y04196*
Y04186*
X06016Y04177*
X05996*
X05987Y04186*
X06046Y04177D02*
X06066D01*
X06056*
Y04236*
X06046Y04226*
X06026Y03871D02*
X06016Y03881D01*
X05996*
X05987Y03871*
Y03861*
X05996Y03851*
X06016*
X06026Y03841*
Y03831*
X06016Y03822*
X05996*
X05987Y03831*
X06086Y03822D02*
X06046D01*
X06086Y03861*
Y03871*
X06076Y03881*
X06056*
X06046Y03871*
X06028Y03517D02*
X06018Y03527D01*
X05998*
X05989Y03517*
Y03507*
X05998Y03497*
X06018*
X06028Y03487*
Y03477*
X06018Y03468*
X05998*
X05989Y03477*
X06048Y03517D02*
X06058Y03527D01*
X06078*
X06088Y03517*
Y03507*
X06078Y03497*
X06068*
X06078*
X06088Y03487*
Y03477*
X06078Y03468*
X06058*
X06048Y03477*
X06026Y03163D02*
X06016Y03173D01*
X05996*
X05987Y03163*
Y03153*
X05996Y03143*
X06016*
X06026Y03133*
Y03123*
X06016Y03114*
X05996*
X05987Y03123*
X06076Y03114D02*
Y03173D01*
X06046Y03143*
X06086*
X0437Y01181D02*
Y01241D01*
X0439Y01221*
X0441Y01241*
Y01181*
X0443D02*
X0445D01*
X0444*
Y01241*
X0443Y01231*
X04655Y01181D02*
Y01241D01*
X04675Y01221*
X04695Y01241*
Y01181*
X04755D02*
X04715D01*
X04755Y01221*
Y01231*
X04745Y01241*
X04725*
X04715Y01231*
X04901Y01181D02*
Y01241D01*
X04921Y01221*
X04941Y01241*
Y01181*
X04961Y01231D02*
X04971Y01241D01*
X04991*
X05001Y01231*
Y01221*
X04991Y01211*
X04981*
X04991*
X05001Y01201*
Y01191*
X04991Y01181*
X04971*
X04961Y01191*
X05187Y01181D02*
Y01241D01*
X05207Y01221*
X05226Y01241*
Y01181*
X05276D02*
Y01241D01*
X05246Y01211*
X05286*
X06609Y02299D02*
Y02249D01*
X06619Y02239*
X06639*
X06649Y02249*
Y02299*
X06669Y02239D02*
X06689D01*
X06679*
Y02299*
X06669Y02289*
X05724Y02433D02*
Y02383D01*
X05734Y02373*
X05754*
X05764Y02383*
Y02433*
X05824Y02373D02*
X05784D01*
X05824Y02413*
Y02423*
X05814Y02433*
X05794*
X05784Y02423*
X05724Y02D02*
Y0195D01*
X05734Y0194*
X05754*
X05764Y0195*
Y02*
X05784Y0199D02*
X05794Y02D01*
X05814*
X05824Y0199*
Y0198*
X05814Y0197*
X05804*
X05814*
X05824Y0196*
Y0195*
X05814Y0194*
X05794*
X05784Y0195*
X01107Y01196D02*
Y01156D01*
X01127Y01136*
X01147Y01156*
Y01196*
X01167Y01136D02*
X01187D01*
X01177*
Y01176*
X01167*
X01217Y01136D02*
Y01176D01*
X01247*
X01257Y01166*
Y01136*
X01277Y01166D02*
X01317D01*
X01297Y01186D02*
Y01146D01*
X01337Y01136D02*
X01357D01*
X01347*
Y01196*
X01337Y01186*
X02249Y01196D02*
Y01156D01*
X02269Y01136*
X02289Y01156*
Y01196*
X02309Y01136D02*
X02329D01*
X02319*
Y01176*
X02309*
X02359Y01136D02*
Y01176D01*
X02389*
X02399Y01166*
Y01136*
X02419Y01166D02*
X02459D01*
X02479Y01136D02*
X02499D01*
X02489*
Y01196*
X02479Y01186*
X02682Y04976D02*
Y04936D01*
X02702Y04916*
X02722Y04936*
Y04976*
X02752Y04916D02*
X02772D01*
X02782Y04926*
Y04946*
X02772Y04956*
X02752*
X02742Y04946*
Y04926*
X02752Y04916*
X02802Y04956D02*
Y04926D01*
X02812Y04916*
X02842*
Y04956*
X02872Y04966D02*
Y04956D01*
X02862*
X02882*
X02872*
Y04926*
X02882Y04916*
X02912Y04946D02*
X02952D01*
X02932Y04966D02*
Y04926D01*
X02972Y04916D02*
X02992D01*
X02982*
Y04976*
X02972Y04966*
X01107Y04976D02*
Y04936D01*
X01127Y04916*
X01147Y04936*
Y04976*
X01177Y04916D02*
X01197D01*
X01207Y04926*
Y04946*
X01197Y04956*
X01177*
X01167Y04946*
Y04926*
X01177Y04916*
X01227Y04956D02*
Y04926D01*
X01237Y04916*
X01267*
Y04956*
X01297Y04966D02*
Y04956D01*
X01287*
X01307*
X01297*
Y04926*
X01307Y04916*
X01337Y04946D02*
X01377D01*
X01397Y04916D02*
X01417D01*
X01407*
Y04976*
X01397Y04966*
X05611Y03872D02*
X05601Y03882D01*
X05581*
X05571Y03872*
Y03832*
X05581Y03822*
X05601*
X05611Y03832*
X05631Y03882D02*
X05671D01*
Y03872*
X05631Y03832*
Y03822*
X03289Y02139D02*
X03279Y02149D01*
X03259*
X03249Y02139*
Y02099*
X03259Y02089*
X03279*
X03289Y02099*
X03309Y02139D02*
X03319Y02149D01*
X03339*
X03349Y02139*
Y02129*
X03339Y02119*
X03349Y02109*
Y02099*
X03339Y02089*
X03319*
X03309Y02099*
Y02109*
X03319Y02119*
X03309Y02129*
Y02139*
X03319Y02119D02*
X03339D01*
X05532Y04226D02*
X05522Y04236D01*
X05502*
X05492Y04226*
Y04186*
X05502Y04176*
X05522*
X05532Y04186*
X05552D02*
X05562Y04176D01*
X05582*
X05592Y04186*
Y04226*
X05582Y04236*
X05562*
X05552Y04226*
Y04216*
X05562Y04206*
X05592*
X03269Y02927D02*
X03259Y02937D01*
X03239*
X03229Y02927*
Y02887*
X03239Y02878*
X03259*
X03269Y02887*
X03289Y02878D02*
X03309D01*
X03299*
Y02937*
X03289Y02927*
X03339D02*
X03349Y02937D01*
X03369*
X03379Y02927*
Y02887*
X03369Y02878*
X03349*
X03339Y02887*
Y02927*
X05611Y03163D02*
X05601Y03173D01*
X05581*
X05571Y03163*
Y03123*
X05581Y03113*
X05601*
X05611Y03123*
X05631Y03113D02*
X05651D01*
X05641*
Y03173*
X05631Y03163*
X05681Y03113D02*
X05701D01*
X05691*
Y03173*
X05681Y03163*
X05611Y03518D02*
X05601Y03528D01*
X05581*
X05571Y03518*
Y03478*
X05581Y03468*
X05601*
X05611Y03478*
X05631Y03468D02*
X05651D01*
X05641*
Y03528*
X05631Y03518*
X05681D02*
X05691Y03528D01*
X05711*
X05721Y03518*
Y03508*
X05711Y03498*
X05701*
X05711*
X05721Y03488*
Y03478*
X05711Y03468*
X05691*
X05681Y03478*
X05194Y03198D02*
X05184Y03208D01*
X05164*
X05154Y03198*
Y03158*
X05164Y03148*
X05184*
X05194Y03158*
X05214Y03148D02*
X05234D01*
X05224*
Y03208*
X05214Y03198*
X05294Y03148D02*
Y03208D01*
X05264Y03178*
X05304*
X05186Y01987D02*
X05196Y01977D01*
X05216*
X05226Y01987*
Y02027*
X05216Y02037*
X05196*
X05186Y02027*
X05166Y02037D02*
X05146D01*
X05156*
Y01977*
X05166Y01987*
X05076Y02037D02*
X05116D01*
X05076Y01997*
Y01987*
X05086Y01977*
X05106*
X05116Y01987*
X04351Y03233D02*
Y03293D01*
X04371Y03273*
X04391Y03293*
Y03233*
X0444D02*
Y03293D01*
X04411Y03263*
X0445*
X04351Y02445D02*
Y02505D01*
X04371Y02485*
X04391Y02505*
Y02445*
X04411Y02495D02*
X04421Y02505D01*
X0444*
X0445Y02495*
Y02485*
X0444Y02475*
X0443*
X0444*
X0445Y02465*
Y02455*
X0444Y02445*
X04421*
X04411Y02455*
X02736Y03076D02*
Y03136D01*
X02756Y03116*
X02776Y03136*
Y03076*
X02836D02*
X02796D01*
X02836Y03116*
Y03126*
X02826Y03136*
X02806*
X02796Y03126*
X02326Y01837D02*
X02316Y01847D01*
X02296*
X02287Y01837*
Y01797*
X02296Y01787*
X02316*
X02326Y01797*
X02386Y01787D02*
X02346D01*
X02386Y01827*
Y01837*
X02376Y01847*
X02356*
X02346Y01837*
X02406D02*
X02416Y01847D01*
X02436*
X02446Y01837*
Y01827*
X02436Y01817*
X02446Y01807*
Y01797*
X02436Y01787*
X02416*
X02406Y01797*
Y01807*
X02416Y01817*
X02406Y01827*
Y01837*
X02416Y01817D02*
X02436D01*
X02523Y01837D02*
X02513Y01847D01*
X02493*
X02484Y01837*
Y01797*
X02493Y01787*
X02513*
X02523Y01797*
X02583Y01787D02*
X02543D01*
X02583Y01827*
Y01837*
X02573Y01847*
X02553*
X02543Y01837*
X02603Y01797D02*
X02613Y01787D01*
X02633*
X02643Y01797*
Y01837*
X02633Y01847*
X02613*
X02603Y01837*
Y01827*
X02613Y01817*
X02643*
X04032Y02211D02*
X04022Y02221D01*
X04002*
X03992Y02211*
Y02171*
X04002Y02161*
X04022*
X04032Y02171*
X04052Y02211D02*
X04062Y02221D01*
X04082*
X04092Y02211*
Y02201*
X04082Y02191*
X04072*
X04082*
X04092Y02181*
Y02171*
X04082Y02161*
X04062*
X04052Y02171*
X04112Y02161D02*
X04132D01*
X04122*
Y02221*
X04112Y02211*
X04032Y02014D02*
X04022Y02024D01*
X04002*
X03992Y02014*
Y01974*
X04002Y01964*
X04022*
X04032Y01974*
X04052Y02014D02*
X04062Y02024D01*
X04082*
X04092Y02014*
Y02004*
X04082Y01994*
X04072*
X04082*
X04092Y01984*
Y01974*
X04082Y01964*
X04062*
X04052Y01974*
X04152Y01964D02*
X04112D01*
X04152Y02004*
Y02014*
X04142Y02024*
X04122*
X04112Y02014*
X00813Y01147D02*
X00803Y01157D01*
X00783*
X00773Y01147*
Y01137*
X00783Y01127*
X00803*
X00813Y01117*
Y01107*
X00803Y01097*
X00783*
X00773Y01107*
X00833Y01097D02*
X00853D01*
X00843*
Y01157*
X00833Y01147*
X00813Y04946D02*
X00803Y04956D01*
X00783*
X00773Y04946*
Y04936*
X00783Y04926*
X00803*
X00813Y04916*
Y04906*
X00803Y04896*
X00783*
X00773Y04906*
X00873Y04896D02*
X00833D01*
X00873Y04936*
Y04946*
X00863Y04956*
X00843*
X00833Y04946*
X07034D02*
X07024Y04956D01*
X07004*
X06994Y04946*
Y04936*
X07004Y04926*
X07024*
X07034Y04916*
Y04906*
X07024Y04896*
X07004*
X06994Y04906*
X07054Y04946D02*
X07064Y04956D01*
X07084*
X07094Y04946*
Y04936*
X07084Y04926*
X07074*
X07084*
X07094Y04916*
Y04906*
X07084Y04896*
X07064*
X07054Y04906*
X07034Y01166D02*
X07024Y01176D01*
X07004*
X06994Y01166*
Y01156*
X07004Y01146*
X07024*
X07034Y01136*
Y01126*
X07024Y01116*
X07004*
X06994Y01126*
X07084Y01116D02*
Y01176D01*
X07054Y01146*
X07094*
X05758Y03248D02*
X05738D01*
X05728Y03238*
Y03198*
X05738Y03188*
X05758*
X05768Y03198*
Y03238*
X05758Y03248*
X05788Y03168D02*
Y03228D01*
X05818*
X05828Y03218*
Y03198*
X05818Y03188*
X05788*
X05858Y03238D02*
Y03228D01*
X05848*
X05868*
X05858*
Y03198*
X05868Y03188*
X05908D02*
X05928D01*
X05938Y03198*
Y03218*
X05928Y03228*
X05908*
X05898Y03218*
Y03198*
X05908Y03188*
X05958Y03238D02*
X05968Y03248D01*
X05988*
X05998Y03238*
Y03228*
X05988Y03218*
X05978*
X05988*
X05998Y03208*
Y03198*
X05988Y03188*
X05968*
X05958Y03198*
X05758Y03603D02*
X05738D01*
X05728Y03593*
Y03553*
X05738Y03543*
X05758*
X05768Y03553*
Y03593*
X05758Y03603*
X05788Y03523D02*
Y03583D01*
X05818*
X05828Y03573*
Y03553*
X05818Y03543*
X05788*
X05858Y03593D02*
Y03583D01*
X05848*
X05868*
X05858*
Y03553*
X05868Y03543*
X05908D02*
X05928D01*
X05938Y03553*
Y03573*
X05928Y03583*
X05908*
X05898Y03573*
Y03553*
X05908Y03543*
X05988D02*
Y03603D01*
X05958Y03573*
X05998*
X06076Y04866D02*
Y04806D01*
X06105*
X06115Y04816*
Y04856*
X06105Y04866*
X06076*
X06175Y04856D02*
X06165Y04866D01*
X06145*
X06135Y04856*
Y04846*
X06145Y04836*
X06165*
X06175Y04826*
Y04816*
X06165Y04806*
X06145*
X06135Y04816*
X06195Y04806D02*
X06215D01*
X06205*
Y04866*
X06195Y04856*
X05602Y04866D02*
Y04807D01*
X05632*
X05642Y04816*
Y04856*
X05632Y04866*
X05602*
X05702Y04856D02*
X05692Y04866D01*
X05672*
X05662Y04856*
Y04846*
X05672Y04836*
X05692*
X05702Y04826*
Y04816*
X05692Y04807*
X05672*
X05662Y04816*
X05762Y04807D02*
X05722D01*
X05762Y04846*
Y04856*
X05752Y04866*
X05732*
X05722Y04856*
X05839Y04867D02*
Y04807D01*
X05869*
X05879Y04817*
Y04857*
X05869Y04867*
X05839*
X05939Y04857D02*
X05929Y04867D01*
X05909*
X05899Y04857*
Y04847*
X05909Y04837*
X05929*
X05939Y04827*
Y04817*
X05929Y04807*
X05909*
X05899Y04817*
X05959Y04857D02*
X05969Y04867D01*
X05989*
X05999Y04857*
Y04847*
X05989Y04837*
X05979*
X05989*
X05999Y04827*
Y04817*
X05989Y04807*
X05969*
X05959Y04817*
X06311Y04866D02*
Y04807D01*
X06341*
X06351Y04816*
Y04856*
X06341Y04866*
X06311*
X06411Y04856D02*
X06401Y04866D01*
X06381*
X06371Y04856*
Y04846*
X06381Y04836*
X06401*
X06411Y04826*
Y04816*
X06401Y04807*
X06381*
X06371Y04816*
X06461Y04807D02*
Y04866D01*
X06431Y04836*
X06471*
X06275Y04611D02*
Y04671D01*
X06304*
X06314Y04661*
Y04641*
X06304Y04631*
X06275*
X06294D02*
X06314Y04611D01*
X06334D02*
X06354D01*
X06344*
Y04671*
X06334Y04661*
X05616Y01678D02*
Y01738D01*
X05646*
X05656Y01728*
Y01708*
X05646Y01698*
X05616*
X05636D02*
X05656Y01678D01*
X05716D02*
X05676D01*
X05716Y01718*
Y01728*
X05706Y01738*
X05686*
X05676Y01728*
X05802Y0461D02*
Y0467D01*
X05832*
X05842Y0466*
Y0464*
X05832Y0463*
X05802*
X05822D02*
X05842Y0461D01*
X05862Y0466D02*
X05872Y0467D01*
X05892*
X05902Y0466*
Y0465*
X05892Y0464*
X05882*
X05892*
X05902Y0463*
Y0462*
X05892Y0461*
X05872*
X05862Y0462*
X06039Y0461D02*
Y0467D01*
X06069*
X06079Y0466*
Y0464*
X06069Y0463*
X06039*
X06059D02*
X06079Y0461D01*
X06129D02*
Y0467D01*
X06099Y0464*
X06139*
X06511Y04611D02*
Y04671D01*
X0654*
X0655Y04661*
Y04641*
X0654Y04631*
X06511*
X0653D02*
X0655Y04611D01*
X0661D02*
X0657D01*
X0661Y04651*
Y04661*
X066Y04671*
X0658*
X0657Y04661*
X0663D02*
X0664Y04671D01*
X0666*
X0667Y04661*
Y04651*
X0666Y04641*
X0665*
X0666*
X0667Y04631*
Y04621*
X0666Y04611*
X0664*
X0663Y04621*
X05678Y01191D02*
X05668Y01181D01*
Y01161*
X05678Y01151*
X05718*
X05728Y01161*
Y01181*
X05718Y01191*
X05698*
Y01171*
X05728Y01211D02*
X05688D01*
Y01241*
X05698Y01251*
X05728*
X05668Y01311D02*
X05728D01*
Y01281*
X05718Y01271*
X05698*
X05688Y01281*
Y01311*
X05678Y01371D02*
X05668Y01361D01*
Y01341*
X05678Y01331*
X05688*
X05698Y01341*
Y01361*
X05708Y01371*
X05718*
X05728Y01361*
Y01341*
X05718Y01331*
X05501Y01191D02*
X05491Y01181D01*
Y01161*
X05501Y01151*
X05541*
X05551Y01161*
Y01181*
X05541Y01191*
X05521*
Y01171*
X05551Y01211D02*
X05491D01*
X05551Y01251*
X05491*
Y01271D02*
X05551D01*
Y01301*
X05541Y01311*
X05501*
X05491Y01301*
Y01271*
X05561Y01331D02*
Y01371D01*
X05491Y01391D02*
X05551D01*
Y01431*
X05491Y01451D02*
X05531D01*
X05551Y01471*
X05531Y01491*
X05491*
X0648Y03743D02*
X065D01*
X0649*
Y03803*
X0648Y03793*
X0657Y03743D02*
X0653D01*
X0657Y03783*
Y03793*
X0656Y03803*
X0654*
X0653Y03793*
X0659Y03803D02*
Y03763D01*
X0661Y03743*
X0663Y03763*
Y03803*
X0648Y03901D02*
X065D01*
X0649*
Y03961*
X0648Y03951*
X0657Y03901D02*
X0653D01*
X0657Y03941*
Y03951*
X0656Y03961*
X0654*
X0653Y03951*
X0659Y03901D02*
Y03961D01*
X0661Y03941*
X0663Y03961*
Y03901*
X0665D02*
X0667D01*
X0666*
Y03961*
X0665Y03951*
X0648Y04058D02*
X065D01*
X0649*
Y04118*
X0648Y04108*
X0657Y04058D02*
X0653D01*
X0657Y04098*
Y04108*
X0656Y04118*
X0654*
X0653Y04108*
X0659Y04058D02*
Y04118D01*
X0661Y04098*
X0663Y04118*
Y04058*
X0665Y04108D02*
X0666Y04118D01*
X0668*
X0669Y04108*
Y04098*
X0668Y04088*
X0667*
X0668*
X0669Y04078*
Y04068*
X0668Y04058*
X0666*
X0665Y04068*
X0652Y04276D02*
X0648D01*
Y04246*
X065Y04256*
X0651*
X0652Y04246*
Y04226*
X0651Y04216*
X0649*
X0648Y04226*
X0654Y04276D02*
Y04236D01*
X0656Y04216*
X0658Y04236*
Y04276*
X066Y04216D02*
X0663D01*
X0664Y04226*
X0663Y04236*
X0661*
X066Y04246*
X0661Y04256*
X0664*
X0669Y04216D02*
X0667D01*
X0666Y04226*
Y04246*
X0667Y04256*
X0669*
X067Y04246*
Y04236*
X0666*
X0672Y04216D02*
Y04256D01*
X0675*
X0676Y04246*
Y04216*
X06476Y04508D02*
X06437D01*
Y04478*
X06457Y04488*
X06466*
X06476Y04478*
Y04458*
X06466Y04448*
X06447*
X06437Y04458*
X06496Y04508D02*
Y04468D01*
X06516Y04448*
X06536Y04468*
Y04508*
X06556Y04438D02*
X06596D01*
X06616Y04508D02*
Y04448D01*
X06656*
X06676Y04508D02*
Y04468D01*
X06696Y04448*
X06716Y04468*
Y04508*
X06554Y01151D02*
X06594D01*
X06614Y01171*
X06594Y01191*
X06554*
X06614Y01211D02*
Y01231D01*
Y01221*
X06574*
Y01211*
X06614Y01261D02*
X06574D01*
Y01291*
X06584Y01301*
X06614*
X06564Y01361D02*
X06554Y01351D01*
Y01331*
X06564Y01321*
X06574*
X06584Y01331*
Y01351*
X06594Y01361*
X06604*
X06614Y01351*
Y01331*
X06604Y01321*
X06377Y01151D02*
X06417D01*
X06437Y01171*
X06417Y01191*
X06377*
X06437Y01221D02*
Y01241D01*
X06427Y01251*
X06407*
X06397Y01241*
Y01221*
X06407Y01211*
X06427*
X06437Y01221*
X06397Y01271D02*
X06427D01*
X06437Y01281*
Y01311*
X06397*
X06387Y01341D02*
X06397D01*
Y01331*
Y01351*
Y01341*
X06427*
X06437Y01351*
X06387Y01421D02*
X06377Y01411D01*
Y01391*
X06387Y01381*
X06397*
X06407Y01391*
Y01411*
X06417Y01421*
X06427*
X06437Y01411*
Y01391*
X06427Y01381*
X06199Y01151D02*
Y01171D01*
Y01161*
X06259*
Y01151*
Y01171*
Y01211D02*
Y01231D01*
X06249Y01241*
X06229*
X06219Y01231*
Y01211*
X06229Y01201*
X06249*
X06259Y01211*
X06219Y01261D02*
X06249D01*
X06259Y01271*
Y01301*
X06219*
X06209Y01331D02*
X06219D01*
Y01321*
Y01341*
Y01331*
X06249*
X06259Y01341*
X06209Y01411D02*
X06199Y01401D01*
Y01381*
X06209Y01371*
X06219*
X06229Y01381*
Y01401*
X06239Y01411*
X06249*
X06259Y01401*
Y01381*
X06249Y01371*
X06022Y01151D02*
Y01171D01*
Y01161*
X06082*
Y01151*
Y01171*
X06022Y01201D02*
X06082D01*
Y01241*
Y01271D02*
X06032D01*
X06052*
Y01261*
Y01281*
Y01271*
X06032*
X06022Y01281*
X05845Y01151D02*
Y01171D01*
Y01161*
X05905*
Y01151*
Y01171*
X05845Y01201D02*
X05905D01*
X05875*
Y01241*
X05845*
X05905*
Y01271D02*
X05855D01*
X05875*
Y01261*
Y01281*
Y01271*
X05855*
X05845Y01281*
X02279Y02206D02*
Y02266D01*
X02308*
X02318Y02256*
Y02236*
X02308Y02226*
X02279*
X02298D02*
X02318Y02206D01*
X02338Y02256D02*
X02348Y02266D01*
X02368*
X02378Y02256*
Y02246*
X02368Y02236*
X02358*
X02368*
X02378Y02226*
Y02216*
X02368Y02206*
X02348*
X02338Y02216*
X02438Y02266D02*
X02418Y02256D01*
X02398Y02236*
Y02216*
X02408Y02206*
X02428*
X02438Y02216*
Y02226*
X02428Y02236*
X02398*
X04053Y02268D02*
Y02328D01*
X04083*
X04093Y02318*
Y02298*
X04083Y02288*
X04053*
X04073D02*
X04093Y02268D01*
X04113Y02318D02*
X04123Y02328D01*
X04143*
X04153Y02318*
Y02308*
X04143Y02298*
X04133*
X04143*
X04153Y02288*
Y02278*
X04143Y02268*
X04123*
X04113Y02278*
X04173Y02328D02*
X04213D01*
Y02318*
X04173Y02278*
Y02268*
X06182Y02553D02*
X06172Y02563D01*
X06152*
X06142Y02553*
Y02513*
X06152Y02503*
X06172*
X06182Y02513*
X06242Y02503D02*
X06202D01*
X06242Y02543*
Y02553*
X06232Y02563*
X06212*
X06202Y02553*
X06262Y02503D02*
X06282D01*
X06272*
Y02563*
X06262Y02553*
X00871Y04297D02*
Y04237D01*
X00911*
X00931D02*
X00951D01*
X00941*
Y04297*
X00931Y04287*
G54D90*
X05874Y01874D02*
D01*
X05873Y01874*
X05873Y01875*
X05873Y01876*
X05873Y01877*
X05873Y01878*
X05872Y01878*
X05872Y01879*
X05872Y0188*
X05871Y0188*
X05871Y01881*
X0587Y01882*
X0587Y01882*
X05869Y01883*
X05868Y01883*
X05868Y01884*
X05867Y01884*
X05866Y01884*
X05865Y01885*
X05865Y01885*
X05864Y01885*
X05863Y01885*
X05862Y01885*
X05861*
X0586Y01885*
X0586Y01885*
X05859Y01885*
X05858Y01885*
X05857Y01884*
X05857Y01884*
X05856Y01884*
X05855Y01883*
X05854Y01883*
X05854Y01882*
X05853Y01882*
X05853Y01881*
X05852Y0188*
X05852Y0188*
X05851Y01879*
X05851Y01878*
X05851Y01878*
X0585Y01877*
X0585Y01876*
X0585Y01875*
X0585Y01874*
X0585Y01874*
X0585Y01873*
X0585Y01872*
X0585Y01871*
X0585Y0187*
X05851Y01869*
X05851Y01869*
X05851Y01868*
X05852Y01867*
X05852Y01867*
X05853Y01866*
X05853Y01865*
X05854Y01865*
X05854Y01864*
X05855Y01864*
X05856Y01863*
X05857Y01863*
X05857Y01863*
X05858Y01862*
X05859Y01862*
X0586Y01862*
X0586Y01862*
X05861Y01862*
X05862*
X05863Y01862*
X05864Y01862*
X05865Y01862*
X05865Y01862*
X05866Y01863*
X05867Y01863*
X05868Y01863*
X05868Y01864*
X05869Y01864*
X0587Y01865*
X0587Y01865*
X05871Y01866*
X05871Y01867*
X05872Y01867*
X05872Y01868*
X05872Y01869*
X05873Y01869*
X05873Y0187*
X05873Y01871*
X05873Y01872*
X05873Y01873*
X05874Y01874*
Y02307D02*
D01*
X05873Y02307*
X05873Y02308*
X05873Y02309*
X05873Y0231*
X05873Y02311*
X05872Y02311*
X05872Y02312*
X05872Y02313*
X05871Y02314*
X05871Y02314*
X0587Y02315*
X0587Y02315*
X05869Y02316*
X05868Y02316*
X05868Y02317*
X05867Y02317*
X05866Y02318*
X05865Y02318*
X05865Y02318*
X05864Y02318*
X05863Y02318*
X05862Y02318*
X05861*
X0586Y02318*
X0586Y02318*
X05859Y02318*
X05858Y02318*
X05857Y02318*
X05857Y02317*
X05856Y02317*
X05855Y02316*
X05854Y02316*
X05854Y02315*
X05853Y02315*
X05853Y02314*
X05852Y02314*
X05852Y02313*
X05851Y02312*
X05851Y02311*
X05851Y02311*
X0585Y0231*
X0585Y02309*
X0585Y02308*
X0585Y02307*
X0585Y02307*
X0585Y02306*
X0585Y02305*
X0585Y02304*
X0585Y02303*
X05851Y02303*
X05851Y02302*
X05851Y02301*
X05852Y023*
X05852Y023*
X05853Y02299*
X05853Y02298*
X05854Y02298*
X05854Y02297*
X05855Y02297*
X05856Y02296*
X05857Y02296*
X05857Y02296*
X05858Y02295*
X05859Y02295*
X0586Y02295*
X0586Y02295*
X05861Y02295*
X05862*
X05863Y02295*
X05864Y02295*
X05865Y02295*
X05865Y02295*
X05866Y02296*
X05867Y02296*
X05868Y02296*
X05868Y02297*
X05869Y02297*
X0587Y02298*
X0587Y02298*
X05871Y02299*
X05871Y023*
X05872Y023*
X05872Y02301*
X05872Y02302*
X05873Y02303*
X05873Y02303*
X05873Y02304*
X05873Y02305*
X05873Y02306*
X05874Y02307*
G54D91*
X059Y02584D02*
X06028D01*
X059Y02848D02*
X06028D01*
X059Y02584D02*
Y02848D01*
X06028Y02584D02*
Y02848D01*
X0583Y01906D02*
X06098D01*
Y01676D02*
Y01906D01*
X0583Y01676D02*
X06098D01*
X0583D02*
Y01906D01*
Y02339D02*
X06098D01*
Y02109D02*
Y02339D01*
X0583Y02109D02*
X06098D01*
X0583D02*
Y02339D01*
G54D92*
X03988Y01771D02*
X04086D01*
X03988Y01929D02*
X04086D01*
X04192D02*
X04291D01*
X03988Y01771D02*
Y01929D01*
X04291Y01771D02*
Y01929D01*
X04192Y01771D02*
X04291D01*
X03988Y01968D02*
X04086D01*
X03988Y02125D02*
X04086D01*
X04192D02*
X04291D01*
X03988Y01968D02*
Y02125D01*
X04291Y01968D02*
Y02125D01*
X04192Y01968D02*
X04291D01*
X02637Y01448D02*
Y01547D01*
X0248Y01448D02*
Y01547D01*
Y01653D02*
Y01751D01*
Y01448D02*
X02637D01*
X0248Y01751D02*
X02637D01*
Y01653D02*
Y01751D01*
X0244Y01448D02*
Y01547D01*
X02283Y01448D02*
Y01547D01*
Y01653D02*
Y01751D01*
Y01448D02*
X0244D01*
X02283Y01751D02*
X0244D01*
Y01653D02*
Y01751D01*
X04167Y02229D02*
X04202D01*
X04167Y02179D02*
X04227D01*
X04052D02*
Y02229D01*
X04237Y02179D02*
Y02229D01*
X04052Y02179D02*
X04122D01*
X04052Y02229D02*
X04122D01*
X04202D02*
X04237D01*
X04227Y02179D02*
X04237D01*
X02328Y02017D02*
Y02052D01*
X02278Y01992D02*
Y02052D01*
Y02167D02*
X02328D01*
X02278Y01982D02*
X02328D01*
X02278Y02097D02*
Y02167D01*
X02328Y02097D02*
Y02167D01*
Y01982D02*
Y02017D01*
X02278Y01982D02*
Y01992D01*
X0651Y04502D02*
Y04537D01*
X0656Y04502D02*
Y04562D01*
X0651Y04387D02*
X0656D01*
X0651Y04572D02*
X0656D01*
Y04387D02*
Y04457D01*
X0651Y04387D02*
Y04457D01*
Y04537D02*
Y04572D01*
X0656Y04562D02*
Y04572D01*
X06037Y04502D02*
Y04537D01*
X06087Y04502D02*
Y04562D01*
X06037Y04387D02*
X06087D01*
X06037Y04572D02*
X06087D01*
Y04387D02*
Y04457D01*
X06037Y04387D02*
Y04457D01*
Y04537D02*
Y04572D01*
X06087Y04562D02*
Y04572D01*
X05801Y04502D02*
Y04537D01*
X05851Y04502D02*
Y04562D01*
X05801Y04387D02*
X05851D01*
X05801Y04572D02*
X05851D01*
Y04387D02*
Y04457D01*
X05801Y04387D02*
Y04457D01*
Y04537D02*
Y04572D01*
X05851Y04562D02*
Y04572D01*
X05649Y01589D02*
X05684D01*
X05624Y01639D02*
X05684D01*
X05799Y01589D02*
Y01639D01*
X05614Y01589D02*
Y01639D01*
X05729D02*
X05799D01*
X05729Y01589D02*
X05799D01*
X05614D02*
X05649D01*
X05614Y01639D02*
X05624D01*
X06274Y04502D02*
Y04537D01*
X06324Y04502D02*
Y04562D01*
X06274Y04387D02*
X06324D01*
X06274Y04572D02*
X06324D01*
Y04387D02*
Y04457D01*
X06274Y04387D02*
Y04457D01*
Y04537D02*
Y04572D01*
X06324Y04562D02*
Y04572D01*
X046Y03292D02*
X04635D01*
X046Y03242D02*
X0466D01*
X04485D02*
Y03292D01*
X0467Y03242D02*
Y03292D01*
X04485Y03242D02*
X04555D01*
X04485Y03292D02*
X04555D01*
X04635D02*
X0467D01*
X0466Y03242D02*
X0467D01*
X02986Y03135D02*
X03021D01*
X02986Y03085D02*
X03046D01*
X02871D02*
Y03135D01*
X03056Y03085D02*
Y03135D01*
X02871Y03085D02*
X02941D01*
X02871Y03135D02*
X02941D01*
X03021D02*
X03056D01*
X03046Y03085D02*
X03056D01*
X046Y02505D02*
X04635D01*
X046Y02455D02*
X0466D01*
X04485D02*
Y02505D01*
X0467Y02455D02*
Y02505D01*
X04485Y02455D02*
X04555D01*
X04485Y02505D02*
X04555D01*
X04635D02*
X0467D01*
X0466Y02455D02*
X0467D01*
X02986Y02347D02*
X03021D01*
X02986Y02297D02*
X03046D01*
X02871D02*
Y02347D01*
X03056Y02297D02*
Y02347D01*
X02871Y02297D02*
X02941D01*
X02871Y02347D02*
X02941D01*
X03021D02*
X03056D01*
X03046Y02297D02*
X03056D01*
X04758Y01521D02*
X04793D01*
X04758Y01471D02*
X04818D01*
X04643D02*
Y01521D01*
X04828Y01471D02*
Y01521D01*
X04643Y01471D02*
X04713D01*
X04643Y01521D02*
X04713D01*
X04793D02*
X04828D01*
X04818Y01471D02*
X04828D01*
X05112Y01363D02*
X05147D01*
X05112Y01313D02*
X05172D01*
X04997D02*
Y01363D01*
X05182Y01313D02*
Y01363D01*
X04997Y01313D02*
X05067D01*
X04997Y01363D02*
X05067D01*
X05147D02*
X05182D01*
X05172Y01313D02*
X05182D01*
X06619Y01663D02*
Y01698D01*
X06569Y01638D02*
Y01698D01*
Y01813D02*
X06619D01*
X06569Y01628D02*
X06619D01*
X06569Y01743D02*
Y01813D01*
X06619Y01743D02*
Y01813D01*
Y01628D02*
Y01663D01*
X06569Y01628D02*
Y01638D01*
X06431Y01776D02*
X06466D01*
X06431Y01726D02*
X06491D01*
X06316D02*
Y01776D01*
X06501Y01726D02*
Y01776D01*
X06316Y01726D02*
X06386D01*
X06316Y01776D02*
X06386D01*
X06466D02*
X06501D01*
X06491Y01726D02*
X06501D01*
X06328Y01628D02*
X06363D01*
X06303Y01678D02*
X06363D01*
X06478Y01628D02*
Y01678D01*
X06293Y01628D02*
Y01678D01*
X06408D02*
X06478D01*
X06408Y01628D02*
X06478D01*
X06293D02*
X06328D01*
X06293Y01678D02*
X06303D01*
X06328Y01825D02*
X06363D01*
X06303Y01875D02*
X06363D01*
X06478Y01825D02*
Y01875D01*
X06293Y01825D02*
Y01875D01*
X06408D02*
X06478D01*
X06408Y01825D02*
X06478D01*
X06293D02*
X06328D01*
X06293Y01875D02*
X06303D01*
X05349Y01805D02*
Y0184D01*
X05399Y01805D02*
Y01865D01*
X05349Y0169D02*
X05399D01*
X05349Y01875D02*
X05399D01*
Y0169D02*
Y0176D01*
X05349Y0169D02*
Y0176D01*
Y0184D02*
Y01875D01*
X05399Y01865D02*
Y01875D01*
X05384Y01923D02*
X05419D01*
X05359Y01973D02*
X05419D01*
X05534Y01923D02*
Y01973D01*
X05349Y01923D02*
Y01973D01*
X05464D02*
X05534D01*
X05464Y01923D02*
X05534D01*
X05349D02*
X05384D01*
X05349Y01973D02*
X05359D01*
X06599Y0247D02*
Y02505D01*
X06549Y02445D02*
Y02505D01*
Y0262D02*
X06599D01*
X06549Y02435D02*
X06599D01*
X06549Y0255D02*
Y0262D01*
X06599Y0255D02*
Y0262D01*
Y02435D02*
Y0247D01*
X06549Y02435D02*
Y02445D01*
Y02769D02*
Y02804D01*
X06599Y02769D02*
Y02829D01*
X06549Y02654D02*
X06599D01*
X06549Y02839D02*
X06599D01*
Y02654D02*
Y02724D01*
X06549Y02654D02*
Y02724D01*
Y02804D02*
Y02839D01*
X06599Y02829D02*
Y02839D01*
X06466Y02337D02*
X06501D01*
X06441Y02387D02*
X06501D01*
X06616Y02337D02*
Y02387D01*
X06431Y02337D02*
Y02387D01*
X06546D02*
X06616D01*
X06546Y02337D02*
X06616D01*
X06431D02*
X06466D01*
X06431Y02387D02*
X06441D01*
X0647Y0221D02*
X06505D01*
X0647Y0216D02*
X0653D01*
X06355D02*
Y0221D01*
X0654Y0216D02*
Y0221D01*
X06355Y0216D02*
X06425D01*
X06355Y0221D02*
X06425D01*
X06505D02*
X0654D01*
X0653Y0216D02*
X0654D01*
X06269Y02258D02*
X06304D01*
X06244Y02308D02*
X06304D01*
X06419Y02258D02*
Y02308D01*
X06234Y02258D02*
Y02308D01*
X06349D02*
X06419D01*
X06349Y02258D02*
X06419D01*
X06234D02*
X06269D01*
X06234Y02308D02*
X06244D01*
X06289Y02061D02*
X06324D01*
X06264Y02111D02*
X06324D01*
X06439Y02061D02*
Y02111D01*
X06254Y02061D02*
Y02111D01*
X06369D02*
X06439D01*
X06369Y02061D02*
X06439D01*
X06254D02*
X06289D01*
X06254Y02111D02*
X06264D01*
X05349Y02238D02*
Y02273D01*
X05399Y02238D02*
Y02298D01*
X05349Y02123D02*
X05399D01*
X05349Y02308D02*
X05399D01*
Y02123D02*
Y02193D01*
X05349Y02123D02*
Y02193D01*
Y02273D02*
Y02308D01*
X05399Y02298D02*
Y02308D01*
X05384Y02356D02*
X05419D01*
X05359Y02406D02*
X05419D01*
X05534Y02356D02*
Y02406D01*
X05349Y02356D02*
Y02406D01*
X05464D02*
X05534D01*
X05464Y02356D02*
X05534D01*
X05349D02*
X05384D01*
X05349Y02406D02*
X05359D01*
X04788Y0312D02*
Y03155D01*
X04738Y03095D02*
Y03155D01*
Y0327D02*
X04788D01*
X04738Y03085D02*
X04788D01*
X04738Y032D02*
Y0327D01*
X04788Y032D02*
Y0327D01*
Y03085D02*
Y0312D01*
X04738Y03085D02*
Y03095D01*
X04867Y0308D02*
Y03115D01*
X04817Y03055D02*
Y03115D01*
Y0323D02*
X04867D01*
X04817Y03045D02*
X04867D01*
X04817Y0316D02*
Y0323D01*
X04867Y0316D02*
Y0323D01*
Y03045D02*
Y0308D01*
X04817Y03045D02*
Y03055D01*
X06225Y03513D02*
Y03548D01*
X06175Y03488D02*
Y03548D01*
Y03663D02*
X06225D01*
X06175Y03478D02*
X06225D01*
X06175Y03593D02*
Y03663D01*
X06225Y03593D02*
Y03663D01*
Y03478D02*
Y03513D01*
X06175Y03478D02*
Y03488D01*
X04788Y02332D02*
Y02367D01*
X04738Y02307D02*
Y02367D01*
Y02482D02*
X04788D01*
X04738Y02297D02*
X04788D01*
X04738Y02412D02*
Y02482D01*
X04788Y02412D02*
Y02482D01*
Y02297D02*
Y02332D01*
X04738Y02297D02*
Y02307D01*
X04867Y02332D02*
Y02367D01*
X04817Y02307D02*
Y02367D01*
Y02482D02*
X04867D01*
X04817Y02297D02*
X04867D01*
X04817Y02412D02*
Y02482D01*
X04867Y02412D02*
Y02482D01*
Y02297D02*
Y02332D01*
X04817Y02297D02*
Y02307D01*
X06225Y03159D02*
Y03194D01*
X06175Y03134D02*
Y03194D01*
Y03309D02*
X06225D01*
X06175Y03124D02*
X06225D01*
X06175Y03239D02*
Y03309D01*
X06225Y03239D02*
Y03309D01*
Y03124D02*
Y03159D01*
X06175Y03124D02*
Y03134D01*
X03174Y02962D02*
Y02997D01*
X03124Y02937D02*
Y02997D01*
Y03112D02*
X03174D01*
X03124Y02927D02*
X03174D01*
X03124Y03042D02*
Y03112D01*
X03174Y03042D02*
Y03112D01*
Y02927D02*
Y02962D01*
X03124Y02927D02*
Y02937D01*
X03253Y02962D02*
Y02997D01*
X03203Y02937D02*
Y02997D01*
Y03112D02*
X03253D01*
X03203Y02927D02*
X03253D01*
X03203Y03042D02*
Y03112D01*
X03253Y03042D02*
Y03112D01*
Y02927D02*
Y02962D01*
X03203Y02927D02*
Y02937D01*
X06225Y04222D02*
Y04257D01*
X06175Y04197D02*
Y04257D01*
Y04372D02*
X06225D01*
X06175Y04187D02*
X06225D01*
X06175Y04302D02*
Y04372D01*
X06225Y04302D02*
Y04372D01*
Y04187D02*
Y04222D01*
X06175Y04187D02*
Y04197D01*
X03174Y02175D02*
Y0221D01*
X03124Y0215D02*
Y0221D01*
Y02325D02*
X03174D01*
X03124Y0214D02*
X03174D01*
X03124Y02255D02*
Y02325D01*
X03174Y02255D02*
Y02325D01*
Y0214D02*
Y02175D01*
X03124Y0214D02*
Y0215D01*
X03253Y02175D02*
Y0221D01*
X03203Y0215D02*
Y0221D01*
Y02325D02*
X03253D01*
X03203Y0214D02*
X03253D01*
X03203Y02255D02*
Y02325D01*
X03253Y02255D02*
Y02325D01*
Y0214D02*
Y02175D01*
X03203Y0214D02*
Y0215D01*
X06225Y03868D02*
Y03903D01*
X06175Y03843D02*
Y03903D01*
Y04018D02*
X06225D01*
X06175Y03833D02*
X06225D01*
X06175Y03948D02*
Y04018D01*
X06225Y03948D02*
Y04018D01*
Y03833D02*
Y03868D01*
X06175Y03833D02*
Y03843D01*
M02*