%FSTAX23Y23*%
%MOIN*%
%SFA1B1*%

%IPPOS*%
%ADD9500C,0.023622*%
%ADD9501C,0.025000*%
%ADD9502C,0.028000*%
%ADD9503C,0.029527*%
%ADD9504C,0.031496*%
%ADD9505C,0.039370*%
%ADD9506C,0.059055*%
%ADD9507C,0.078740*%
%ADD9508C,0.086614*%
%ADD9509C,0.137795*%
%ADD9510C,0.157480*%
%LNpcb4-1*%
%LPD*%
G54D9500*
X05649Y04665D03*
X05728D03*
X05885D03*
X05964D03*
X06122D03*
X062D03*
X06358D03*
X06437D03*
G54D9501*
X04665Y01397D03*
X04822D03*
X06358Y01988D03*
Y02421D03*
X06318Y02578D03*
X06476Y02575D03*
Y02775D03*
X06318Y02778D03*
X062Y02421D03*
X05925D03*
X05767D03*
X05629Y02381D03*
Y02181D03*
Y01948D03*
X05767Y01988D03*
X05925D03*
X062D03*
X05629Y01748D03*
X05187Y02155D03*
Y02312D03*
X05196Y02893D03*
Y03051D03*
X05629Y03031D03*
X05787D03*
X05708Y02795D03*
X0559D03*
Y02637D03*
X05708D03*
X03444Y02795D03*
X03287D03*
X03307Y02007D03*
X03464D03*
X04507Y03917D03*
X04665D03*
Y04448D03*
X04507D03*
X04862D03*
X05019D03*
Y03917D03*
X04862D03*
X05551Y04094D03*
X05708D03*
X05787Y0374D03*
X05629D03*
Y03385D03*
X05787D03*
G54D9502*
X03976Y01515D03*
X04192Y01397D03*
X04291D03*
X05216Y01377D03*
X06259Y01751D03*
X06299Y02185D03*
X06633Y02263D03*
X06653Y0246D03*
X06397Y025D03*
X06653Y02795D03*
X06988Y02312D03*
X06929Y02125D03*
Y01988D03*
Y01909D03*
X06161Y02519D03*
Y02598D03*
X0624Y027D03*
X06122Y02893D03*
X05059Y02913D03*
X05157Y0244D03*
X05314Y0246D03*
X05511Y02303D03*
X05492Y02086D03*
X05511Y0187D03*
X05492Y01653D03*
X05433Y01604D03*
X05196Y01889D03*
X05118D03*
X0496Y01988D03*
X04881Y02066D03*
X04803Y01988D03*
Y02145D03*
X05059Y02175D03*
X04881Y01751D03*
X04645Y01574D03*
X04291Y02165D03*
X04251Y02362D03*
Y0248D03*
Y02598D03*
Y02716D03*
Y02834D03*
X03523Y02637D03*
X03543Y02224D03*
X03641Y01909D03*
X03799Y01673D03*
X03228Y02086D03*
X03248Y02874D03*
X02696Y02342D03*
Y02224D03*
X02598Y02165D03*
Y02283D03*
Y02401D03*
Y01968D03*
X01732Y02125D03*
X01614D03*
X01673Y02224D03*
X01555D03*
X01496Y02125D03*
X00925Y02145D03*
Y02263D03*
X00826Y02204D03*
Y02086D03*
Y02322D03*
X03385Y03346D03*
X03996Y03287D03*
X04114D03*
X04055Y03169D03*
X03937D03*
X04173D03*
X05157Y03188D03*
X05236Y03641D03*
X04842Y03779D03*
X05236Y04448D03*
Y04606D03*
X05708Y04527D03*
X05944D03*
X06181D03*
X06417D03*
G54D9503*
X05078Y01453D03*
Y01553D03*
Y01653D03*
G54D9504*
X04507Y04074D03*
X04607D03*
Y04606D03*
X04507D03*
X04807D03*
X05007D03*
Y04074D03*
X04807D03*
G54D9505*
X0682Y02381D03*
Y02481D03*
Y02581D03*
Y02681D03*
Y02781D03*
Y02881D03*
X06751Y0309D03*
X01929Y02677D03*
Y02381D03*
Y01988D03*
Y01692D03*
X01259D03*
Y01988D03*
Y02381D03*
Y02677D03*
X06751Y03228D03*
Y03366D03*
Y03503D03*
X05492Y04704D03*
X05354D03*
G54D9506*
X02716Y01102D03*
X02992D03*
X03267D03*
X03543D03*
X03818D03*
X04094D03*
X04429D03*
X04704D03*
X0498D03*
X05255D03*
X0561Y01279D03*
X05787D03*
X05964D03*
X06141D03*
X06318D03*
X06496D03*
X06673D03*
X06102Y03031D03*
X01496Y03346D03*
Y04055D03*
X06102Y04094D03*
Y0374D03*
Y03385D03*
X06594Y03661D03*
Y03818D03*
Y03976D03*
Y04133D03*
Y04291D03*
G54D9507*
X01062Y0433D03*
X0185D03*
G54D9508*
X02755Y01496D03*
X03582Y04133D03*
Y04527D03*
X04724Y03464D03*
G54D9509*
X00866Y00964D03*
X07086Y00984D03*
Y04763D03*
X00866D03*
G54D9510*
X0122Y00984D03*
X02362D03*
X02795Y04763D03*
X0122D03*
M02*