%FSTAX23Y23*%
%MOIN*%
%SFA1B1*%

%IPPOS*%
%ADD116O,0.078866X0.102488*%
%ADD117R,0.058000X0.108000*%
%ADD118O,0.058000X0.108000*%
%ADD119O,0.126110X0.078866*%
%ADD120O,0.078866X0.126110*%
%ADD121C,0.126110*%
%ADD122R,0.126110X0.126110*%
%ADD123C,0.165480*%
%ADD124R,0.165480X0.165480*%
%ADD125O,0.126110X0.165480*%
%ADD126O,0.128000X0.068000*%
%ADD127O,0.086740X0.055244*%
%ADD128O,0.055244X0.086740*%
%ADD129O,0.110362X0.078866*%
%ADD130O,0.078866X0.224535*%
%ADD131O,0.224535X0.078866*%
%ADD132C,0.244220*%
%ADD133C,0.204850*%
%ADD134R,0.055244X0.086740*%
%ADD135C,0.028000*%
%ADD136C,0.058000*%
%LNpcb4-1*%
%LPD*%
G54D116*
X04507Y04074D03*
X04607D03*
X04807D03*
X05007D03*
Y04606D03*
X04807D03*
X04607D03*
X04507D03*
G54D117*
X05629Y01948D03*
X06476Y02775D03*
X06318Y02578D03*
X05629Y02381D03*
G54D118*
X05629Y01748D03*
X06476Y02575D03*
X06318Y02778D03*
X05629Y02181D03*
G54D119*
X06751Y03503D03*
Y03366D03*
Y03228D03*
Y0309D03*
G54D120*
X05354Y04704D03*
X05492D03*
G54D121*
X01929Y01988D03*
Y02381D03*
X01259Y01988D03*
Y02381D03*
G54D122*
X01929Y01692D03*
Y02677D03*
X01259Y01692D03*
Y02677D03*
G54D123*
X03582Y04133D03*
X0185Y0433D03*
X01062D03*
G54D124*
X03582Y04527D03*
G54D125*
X01496Y04055D03*
Y03346D03*
G54D126*
X05078Y01653D03*
Y01553D03*
Y01453D03*
G54D127*
X062Y02421D03*
X06358D03*
X05787Y03385D03*
X05629D03*
X05787Y03031D03*
X05629D03*
X03287Y02795D03*
X03444D03*
X05708Y04094D03*
X05551D03*
X03307Y02007D03*
X03464D03*
X05787Y0374D03*
X05629D03*
X04507Y04448D03*
X04665D03*
X04862D03*
X05019D03*
X04507Y03917D03*
X04665D03*
X04862D03*
X05019D03*
X05767Y01988D03*
X05925D03*
X062D03*
X06358D03*
X05767Y02421D03*
X05925D03*
X04665Y01397D03*
X04822D03*
G54D128*
X05187Y02155D03*
Y02312D03*
X05196Y02893D03*
Y03051D03*
X0559Y02637D03*
Y02795D03*
X05708Y02637D03*
Y02795D03*
X06437Y04665D03*
X05964D03*
X05728D03*
X062D03*
G54D129*
X0682Y02381D03*
Y02481D03*
Y02581D03*
Y02681D03*
Y02781D03*
Y02881D03*
G54D130*
X05964Y01279D03*
X06141D03*
X06318D03*
X06496D03*
X06673D03*
X0561D03*
X05787D03*
G54D131*
X06594Y04291D03*
Y04133D03*
Y03976D03*
Y03818D03*
Y03661D03*
X05255Y01102D03*
X0498D03*
X04704D03*
X04429D03*
X06102Y03031D03*
Y03385D03*
Y0374D03*
Y04094D03*
X04094Y01102D03*
X03267D03*
X03818D03*
X02992D03*
X03543D03*
X02716D03*
G54D132*
X0122Y04763D03*
X02795D03*
X02362Y00984D03*
X0122D03*
G54D133*
X07086Y00984D03*
Y04763D03*
X00866D03*
Y00964D03*
G54D134*
X06358Y04665D03*
X05885D03*
X05649D03*
X06122D03*
G54D135*
X02755Y01496D03*
X04724Y03464D03*
G54D136*
X03248Y02874D03*
X03228Y02086D03*
X06929Y02125D03*
Y01988D03*
Y01909D03*
X06988Y02312D03*
X04881Y02066D03*
X04803Y02145D03*
X0496Y01988D03*
X04803D03*
X04291Y02165D03*
X04881Y01751D03*
X04251Y02834D03*
Y02716D03*
Y02598D03*
Y0248D03*
Y02362D03*
X04114Y03287D03*
X03996D03*
X03937Y03169D03*
X04055D03*
X04173D03*
X02696Y02342D03*
X02598Y02401D03*
Y02283D03*
Y02165D03*
X02696Y02224D03*
X01673D03*
X01614Y02125D03*
X01555Y02224D03*
X01496Y02125D03*
X01732D03*
X00925Y02145D03*
Y02263D03*
X00826Y02086D03*
Y02204D03*
X03799Y01673D03*
X03976Y01515D03*
X03641Y01909D03*
X06259Y01751D03*
X05492Y02086D03*
X02598Y01968D03*
X04645Y01574D03*
X00826Y02322D03*
X03523Y02637D03*
X03543Y02224D03*
X06299Y02185D03*
X06633Y02263D03*
X05157Y03188D03*
X05059Y02175D03*
X05157Y0244D03*
X05059Y02913D03*
X05236Y04606D03*
Y04448D03*
X05118Y01889D03*
X05196D03*
X05492Y01653D03*
X06122Y02893D03*
X06161Y02598D03*
Y02519D03*
X05708Y04527D03*
X05944D03*
X06181D03*
X06417D03*
X05433Y01604D03*
X04291Y01397D03*
X04192D03*
X05216Y01377D03*
X0624Y027D03*
X06653Y02795D03*
X04842Y03779D03*
X05236Y03641D03*
X03385Y03346D03*
X05511Y02303D03*
Y0187D03*
X05314Y0246D03*
X06653D03*
X06397Y025D03*
M02*