%FSTAX23Y23*%
%MOIN*%
%SFA1B1*%

%IPPOS*%
%AMD97*
4,1,8,-0.082700,0.039400,-0.082700,-0.039400,-0.039400,-0.082700,0.039400,-0.082700,0.082700,-0.039400,0.082700,0.039400,0.039400,0.082700,-0.039400,0.082700,-0.082700,0.039400,0.0*
1,1,0.086772,-0.039400,0.039400*
1,1,0.086772,-0.039400,-0.039400*
1,1,0.086772,0.039400,-0.039400*
1,1,0.086772,0.039400,0.039400*
%
%AMD108*
4,1,8,0.078800,-0.059800,0.078800,0.059800,0.059800,0.078800,-0.059800,0.078800,-0.078800,0.059800,-0.078800,-0.059800,-0.059800,-0.078800,0.059800,-0.078800,0.078800,-0.059800,0.0*
1,1,0.037953,0.059800,-0.059800*
1,1,0.037953,0.059800,0.059800*
1,1,0.037953,-0.059800,0.059800*
1,1,0.037953,-0.059800,-0.059800*
%
%ADD87R,0.067992X0.067992*%
%ADD88R,0.067992X0.067992*%
%ADD89R,0.133976X0.086732*%
%ADD90R,0.086732X0.133976*%
%ADD91O,0.078858X0.031614*%
%ADD92R,0.078858X0.031614*%
%ADD93O,0.083189X0.037992*%
%ADD94R,0.083189X0.037992*%
%ADD95O,0.067992X0.032008*%
%ADD96R,0.067992X0.032008*%
G04~CAMADD=97~8~0.0~0.0~1654.7~1654.7~433.9~0.0~15~0.0~0.0~0.0~0.0~0~0.0~0.0~0.0~0.0~0~0.0~0.0~0.0~90.0~1654.0~1654.0*
%ADD97D97*%
%ADD98R,0.032992X0.087992*%
%ADD99O,0.032992X0.087992*%
%ADD100R,0.087992X0.032992*%
%ADD101O,0.087992X0.032992*%
%ADD102R,0.317991X0.407991*%
%ADD103O,0.107992X0.067992*%
%ADD104O,0.067992X0.107992*%
%ADD105R,0.407991X0.317991*%
%ADD106O,0.132008X0.051299*%
%ADD107O,0.132008X0.051299*%
G04~CAMADD=108~8~0.0~0.0~1576.0~1576.0~189.8~0.0~15~0.0~0.0~0.0~0.0~0~0.0~0.0~0.0~0.0~0~0.0~0.0~0.0~270.0~1576.0~1576.0*
%ADD108D108*%
%ADD109R,0.039488X0.043425*%
%ADD110C,0.027992*%
%ADD111O,0.055236X0.086732*%
%ADD112R,0.055236X0.086732*%
%ADD113C,0.204842*%
%ADD114C,0.244212*%
%ADD115O,0.224527X0.078858*%
%ADD116O,0.078858X0.224527*%
%ADD117O,0.086732X0.055236*%
%ADD118O,0.127992X0.067992*%
%ADD119O,0.078858X0.102480*%
%ADD120R,0.165472X0.165472*%
%ADD121C,0.165472*%
%ADD122R,0.126102X0.126102*%
%ADD123C,0.126102*%
%ADD124O,0.078858X0.126102*%
%ADD125O,0.126102X0.078858*%
%ADD126O,0.110354X0.078858*%
%ADD127O,0.057992X0.107992*%
%ADD128R,0.057992X0.107992*%
%ADD129O,0.126102X0.165472*%
%ADD130C,0.057992*%
%LNpcb4-1*%
%LPD*%
G54D87*
X062Y03858D03*
Y03993D03*
X03228Y02165D03*
Y023D03*
X03149Y02165D03*
Y023D03*
X062Y04212D03*
Y04347D03*
X03228Y02952D03*
Y03087D03*
X03149Y02952D03*
Y03087D03*
X062Y03149D03*
Y03284D03*
X04842Y02322D03*
Y02457D03*
X04763Y02322D03*
Y02457D03*
X062Y03503D03*
Y03638D03*
X04842Y03051D03*
Y03186D03*
X04763Y0311D03*
Y03245D03*
X05374Y02283D03*
Y02148D03*
X06574Y02814D03*
Y02679D03*
Y0246D03*
Y02595D03*
X05374Y0185D03*
Y01715D03*
X06594Y01653D03*
Y01788D03*
X06299Y04547D03*
Y04412D03*
X05826Y04547D03*
Y04412D03*
X06062Y04547D03*
Y04412D03*
X06535Y04547D03*
Y04412D03*
X02303Y02007D03*
Y02142D03*
G54D88*
X05374Y02381D03*
X05509D03*
X06279Y02086D03*
X06414D03*
X06259Y02283D03*
X06394D03*
X06515Y02185D03*
X0638D03*
X06456Y02362D03*
X06591D03*
X05374Y01948D03*
X05509D03*
X06318Y0185D03*
X06453D03*
X06318Y01653D03*
X06453D03*
X06476Y01751D03*
X06341D03*
X05157Y01338D03*
X05022D03*
X04803Y01496D03*
X04668D03*
X03031Y02322D03*
X02896D03*
X04645Y0248D03*
X0451D03*
X03031Y0311D03*
X02896D03*
X04645Y03267D03*
X0451D03*
X05639Y01614D03*
X05774D03*
X04212Y02204D03*
X04077D03*
G54D89*
X02362Y01692D03*
Y01507D03*
X02559Y01692D03*
Y01507D03*
G54D90*
X04251Y02047D03*
X04066D03*
X04251Y0185D03*
X04066D03*
G54D91*
X06175Y02299D03*
Y02249D03*
Y02199D03*
Y02149D03*
X05753D03*
Y02199D03*
Y02249D03*
X06175Y01866D03*
Y01816D03*
Y01766D03*
Y01716D03*
X05753D03*
Y01766D03*
Y01816D03*
G54D92*
X05753Y02299D03*
Y01866D03*
G54D93*
X05679Y04312D03*
Y04262D03*
Y04212D03*
X06102Y04312D03*
Y04262D03*
X05679Y03958D03*
Y03908D03*
Y03858D03*
X06102Y03958D03*
Y03908D03*
X05679Y03249D03*
Y03199D03*
Y03149D03*
X06102Y03249D03*
Y03199D03*
X05679Y03603D03*
Y03553D03*
Y03503D03*
X06102Y03603D03*
Y03553D03*
G54D94*
X06102Y04212D03*
Y03858D03*
Y03149D03*
Y03503D03*
G54D95*
X06833Y02035D03*
Y02135D03*
Y02185D03*
Y02085D03*
Y01985D03*
Y01935D03*
X06633Y01985D03*
Y01935D03*
Y01885D03*
X06833D03*
X06633Y02035D03*
Y02085D03*
Y02135D03*
G54D96*
X06633Y02185D03*
G54D97*
X00826Y01574D03*
Y01377D03*
G54D98*
X03464Y02322D03*
Y0311D03*
X05078Y02519D03*
Y03267D03*
G54D99*
X03414Y02322D03*
X03364D03*
X03314D03*
X03464Y02122D03*
X03414D03*
X03364D03*
X03314D03*
X03414Y0311D03*
X03364D03*
X03314D03*
X03464Y0291D03*
X03414D03*
X03364D03*
X03314D03*
X05028Y02519D03*
X04978D03*
X04928D03*
X05078Y02319D03*
X05028D03*
X04978D03*
X04928D03*
X05028Y03267D03*
X04978D03*
X04928D03*
X05078Y03067D03*
X05028D03*
X04978D03*
X04928D03*
G54D100*
X04094Y01673D03*
G54D101*
X04094Y01623D03*
Y01573D03*
Y01523D03*
X04294Y01673D03*
Y01623D03*
Y01573D03*
Y01523D03*
G54D102*
X01888Y01277D03*
G54D103*
X01483Y01377D03*
Y01177D03*
G54D104*
X02831Y02204D03*
X03031D03*
X04445Y03149D03*
X04645D03*
X04445Y02362D03*
X04645D03*
X02831Y02992D03*
X03031D03*
G54D105*
X02931Y01799D03*
X04545Y02744D03*
Y01957D03*
X02931Y02587D03*
G54D106*
X05842Y02807D03*
Y02625D03*
G54D107*
X05842Y02716D03*
G54D108*
X06086Y02716D03*
G54D109*
X0549Y02224D03*
X05452Y02145D03*
X05527D03*
X0549Y01791D03*
X05452Y01712D03*
X05527D03*
G54D110*
X04724Y03464D03*
X02755Y01496D03*
G54D111*
X062Y04665D03*
X05728D03*
X05964D03*
X06437D03*
X05708Y02795D03*
Y02637D03*
X0559Y02795D03*
Y02637D03*
X05196Y03051D03*
Y02893D03*
X05187Y02312D03*
Y02155D03*
G54D112*
X06122Y04665D03*
X05649D03*
X05885D03*
X06358D03*
G54D113*
X00866Y00964D03*
Y04763D03*
X07086D03*
Y00984D03*
G54D114*
X0122Y00984D03*
X02362D03*
X02795Y04763D03*
X0122D03*
G54D115*
X02716Y01102D03*
X03543D03*
X02992D03*
X03818D03*
X03267D03*
X04094D03*
X06102Y04094D03*
Y0374D03*
Y03385D03*
Y03031D03*
X04429Y01102D03*
X04704D03*
X0498D03*
X05255D03*
X06594Y03661D03*
Y03818D03*
Y03976D03*
Y04133D03*
Y04291D03*
G54D116*
X05787Y01279D03*
X0561D03*
X06673D03*
X06496D03*
X06318D03*
X06141D03*
X05964D03*
G54D117*
X04822Y01397D03*
X04665D03*
X05925Y02421D03*
X05767D03*
X06358Y01988D03*
X062D03*
X05925D03*
X05767D03*
X05019Y03917D03*
X04862D03*
X04665D03*
X04507D03*
X05019Y04448D03*
X04862D03*
X04665D03*
X04507D03*
X05629Y0374D03*
X05787D03*
X03464Y02007D03*
X03307D03*
X05551Y04094D03*
X05708D03*
X03444Y02795D03*
X03287D03*
X05629Y03031D03*
X05787D03*
X05629Y03385D03*
X05787D03*
X06358Y02421D03*
X062D03*
G54D118*
X05078Y01453D03*
Y01553D03*
Y01653D03*
G54D119*
X04507Y04606D03*
X04607D03*
X04807D03*
X04907D03*
X05007D03*
X04507Y04074D03*
X04607D03*
X04807D03*
X04907D03*
X05007D03*
G54D120*
X03582Y04527D03*
G54D121*
X03582Y04133D03*
X01062Y0433D03*
X0185D03*
G54D122*
X01259Y02677D03*
Y01692D03*
X01929Y02677D03*
Y01692D03*
G54D123*
X01259Y02381D03*
Y01988D03*
X01929Y02381D03*
Y01988D03*
G54D124*
X05492Y04704D03*
X05354D03*
G54D125*
X06751Y0309D03*
Y03228D03*
Y03366D03*
Y03503D03*
G54D126*
X0682Y02881D03*
Y02781D03*
Y02681D03*
Y02581D03*
Y02481D03*
Y02381D03*
G54D127*
X05629Y02181D03*
X06318Y02778D03*
X06476Y02575D03*
X05629Y01748D03*
G54D128*
X05629Y02381D03*
X06318Y02578D03*
X06476Y02775D03*
X05629Y01948D03*
G54D129*
X01496Y04055D03*
Y03346D03*
G54D130*
X06397Y025D03*
X06653Y0246D03*
X05314D03*
X05511Y0187D03*
Y02303D03*
X03385Y03346D03*
X05236Y03641D03*
X04842Y03779D03*
X06653Y02795D03*
X0624Y027D03*
X05216Y01377D03*
X04192Y01397D03*
X04291D03*
X05433Y01604D03*
X06417Y04527D03*
X06181D03*
X05944D03*
X05708D03*
X06909Y01909D03*
X06161Y02519D03*
Y02598D03*
X06122Y02893D03*
X05492Y01653D03*
X05196Y01889D03*
X05118D03*
X05236Y04448D03*
Y04606D03*
X05059Y02913D03*
X05157Y0244D03*
X05059Y02175D03*
X05157Y03188D03*
X06909Y01985D03*
Y02125D03*
X06633Y02263D03*
X06299Y02185D03*
X03543Y02224D03*
X03523Y02637D03*
X00826Y02322D03*
X04645Y01574D03*
X02598Y01968D03*
X05492Y02086D03*
X06259Y01751D03*
X03208Y02874D03*
X03641Y01909D03*
X03976Y01515D03*
X03799Y01673D03*
X03228Y02066D03*
X00826Y02204D03*
Y02086D03*
X00925Y02263D03*
Y02145D03*
X01732Y02125D03*
X01496D03*
X01555Y02224D03*
X01614Y02125D03*
X01673Y02224D03*
X02696D03*
X02598Y02165D03*
Y02283D03*
Y02401D03*
X02696Y02342D03*
X04173Y03169D03*
X04055D03*
X03937D03*
X03996Y03287D03*
X04114D03*
X04251Y02362D03*
Y0248D03*
Y02598D03*
Y02716D03*
Y02834D03*
X04881Y01751D03*
X04291Y02165D03*
X04803Y01988D03*
X0496D03*
X04803Y02145D03*
X04881Y02066D03*
X06968Y02312D03*
M02*