%FSTAX23Y23*%
%MOIN*%
%SFA1B1*%

%IPPOS*%
%ADD110C,0.027992*%
%ADD111O,0.055236X0.086732*%
%ADD112R,0.055236X0.086732*%
%ADD113C,0.204842*%
%ADD114C,0.244212*%
%ADD115O,0.224527X0.078858*%
%ADD116O,0.078858X0.224527*%
%ADD117O,0.086732X0.055236*%
%ADD118O,0.127992X0.067992*%
%ADD119O,0.078858X0.102480*%
%ADD120R,0.165472X0.165472*%
%ADD121C,0.165472*%
%ADD122R,0.126102X0.126102*%
%ADD123C,0.126102*%
%ADD124O,0.078858X0.126102*%
%ADD125O,0.126102X0.078858*%
%ADD126O,0.110354X0.078858*%
%ADD127O,0.057992X0.107992*%
%ADD128R,0.057992X0.107992*%
%ADD129O,0.126102X0.165472*%
%ADD130C,0.057992*%
%LNpcb4-1*%
%LPD*%
G54D110*
X04724Y03464D03*
X02755Y01496D03*
G54D111*
X062Y04665D03*
X05728D03*
X05964D03*
X06437D03*
X05708Y02795D03*
Y02637D03*
X0559Y02795D03*
Y02637D03*
X05196Y03051D03*
Y02893D03*
X05187Y02312D03*
Y02155D03*
G54D112*
X06122Y04665D03*
X05649D03*
X05885D03*
X06358D03*
G54D113*
X00866Y00964D03*
Y04763D03*
X07086D03*
Y00984D03*
G54D114*
X0122Y00984D03*
X02362D03*
X02795Y04763D03*
X0122D03*
G54D115*
X02716Y01102D03*
X03543D03*
X02992D03*
X03818D03*
X03267D03*
X04094D03*
X06102Y04094D03*
Y0374D03*
Y03385D03*
Y03031D03*
X04429Y01102D03*
X04704D03*
X0498D03*
X05255D03*
X06594Y03661D03*
Y03818D03*
Y03976D03*
Y04133D03*
Y04291D03*
G54D116*
X05787Y01279D03*
X0561D03*
X06673D03*
X06496D03*
X06318D03*
X06141D03*
X05964D03*
G54D117*
X04822Y01397D03*
X04665D03*
X05925Y02421D03*
X05767D03*
X06358Y01988D03*
X062D03*
X05925D03*
X05767D03*
X05019Y03917D03*
X04862D03*
X04665D03*
X04507D03*
X05019Y04448D03*
X04862D03*
X04665D03*
X04507D03*
X05629Y0374D03*
X05787D03*
X03464Y02007D03*
X03307D03*
X05551Y04094D03*
X05708D03*
X03444Y02795D03*
X03287D03*
X05629Y03031D03*
X05787D03*
X05629Y03385D03*
X05787D03*
X06358Y02421D03*
X062D03*
G54D118*
X05078Y01453D03*
Y01553D03*
Y01653D03*
G54D119*
X04507Y04606D03*
X04607D03*
X04807D03*
X04907D03*
X05007D03*
X04507Y04074D03*
X04607D03*
X04807D03*
X04907D03*
X05007D03*
G54D120*
X03582Y04527D03*
G54D121*
X03582Y04133D03*
X01062Y0433D03*
X0185D03*
G54D122*
X01259Y02677D03*
Y01692D03*
X01929Y02677D03*
Y01692D03*
G54D123*
X01259Y02381D03*
Y01988D03*
X01929Y02381D03*
Y01988D03*
G54D124*
X05492Y04704D03*
X05354D03*
G54D125*
X06751Y0309D03*
Y03228D03*
Y03366D03*
Y03503D03*
G54D126*
X0682Y02881D03*
Y02781D03*
Y02681D03*
Y02581D03*
Y02481D03*
Y02381D03*
G54D127*
X05629Y02181D03*
X06318Y02778D03*
X06476Y02575D03*
X05629Y01748D03*
G54D128*
X05629Y02381D03*
X06318Y02578D03*
X06476Y02775D03*
X05629Y01948D03*
G54D129*
X01496Y04055D03*
Y03346D03*
G54D130*
X06397Y025D03*
X06653Y0246D03*
X05314D03*
X05511Y0187D03*
Y02303D03*
X03385Y03346D03*
X05236Y03641D03*
X04842Y03779D03*
X06653Y02795D03*
X0624Y027D03*
X05216Y01377D03*
X04192Y01397D03*
X04291D03*
X05433Y01604D03*
X06417Y04527D03*
X06181D03*
X05944D03*
X05708D03*
X06909Y01909D03*
X06161Y02519D03*
Y02598D03*
X06122Y02893D03*
X05492Y01653D03*
X05196Y01889D03*
X05118D03*
X05236Y04448D03*
Y04606D03*
X05059Y02913D03*
X05157Y0244D03*
X05059Y02175D03*
X05157Y03188D03*
X06909Y01985D03*
Y02125D03*
X06633Y02263D03*
X06299Y02185D03*
X03543Y02224D03*
X03523Y02637D03*
X00826Y02322D03*
X04645Y01574D03*
X02598Y01968D03*
X05492Y02086D03*
X06259Y01751D03*
X03208Y02874D03*
X03641Y01909D03*
X03976Y01515D03*
X03799Y01673D03*
X03228Y02066D03*
X00826Y02204D03*
Y02086D03*
X00925Y02263D03*
Y02145D03*
X01732Y02125D03*
X01496D03*
X01555Y02224D03*
X01614Y02125D03*
X01673Y02224D03*
X02696D03*
X02598Y02165D03*
Y02283D03*
Y02401D03*
X02696Y02342D03*
X04173Y03169D03*
X04055D03*
X03937D03*
X03996Y03287D03*
X04114D03*
X04251Y02362D03*
Y0248D03*
Y02598D03*
Y02716D03*
Y02834D03*
X04881Y01751D03*
X04291Y02165D03*
X04803Y01988D03*
X0496D03*
X04803Y02145D03*
X04881Y02066D03*
X06968Y02312D03*
M02*