%FSTAX23Y23*%
%MOIN*%
%SFA1B1*%

%IPPOS*%
%ADD33C,0.025000*%
%ADD34C,0.050000*%
%ADD51R,0.314960X0.314960*%
%ADD56C,0.020000*%
%ADD57O,0.047244X0.078740*%
%ADD58R,0.047244X0.078740*%
%ADD59C,0.196850*%
%ADD60C,0.236220*%
%ADD61O,0.216535X0.070866*%
%ADD62O,0.070866X0.216535*%
%ADD63O,0.078740X0.047244*%
%ADD64O,0.120000X0.060000*%
%ADD65O,0.070866X0.094488*%
%ADD66R,0.157480X0.157480*%
%ADD67C,0.157480*%
%ADD68R,0.118110X0.118110*%
%ADD69C,0.118110*%
%ADD70O,0.070866X0.118110*%
%ADD71O,0.118110X0.070866*%
%ADD72O,0.102362X0.070866*%
%ADD73O,0.050000X0.100000*%
%ADD74R,0.050000X0.100000*%
%ADD75O,0.118110X0.157480*%
%ADD76C,0.050000*%
%ADD77C,0.019685*%
%ADD78R,0.157480X0.236220*%
%ADD79R,0.157480X0.236220*%
%ADD80R,0.236220X0.236220*%
%ADD81R,0.236220X0.236220*%
%ADD82R,0.314960X0.314960*%
%LNpcb4-1*%
%LPD*%
G36*
X03271Y02731D02*
X03276D01*
X03407Y026*
X03418Y02592*
X03431Y02587*
X03444Y02585*
X03485*
X03487Y02584*
X03498Y02578*
X0351Y02574*
X03523Y02573*
X03536Y02574*
X03548Y02578*
X03559Y02584*
X03569Y02592*
X03577Y02601*
X03583Y02613*
X03587Y02625*
X03588Y02637*
X03587Y02648*
X03591Y02651*
X03593Y02649*
X03602Y02642*
X03611Y02638*
X03622Y02637*
X04078*
X04133Y02581*
Y02322*
X04134Y02312*
X04138Y02302*
X04145Y02294*
X04195Y02244*
X04145Y02193*
X04138Y02185*
X04134Y02175*
X04133Y02165*
Y01968*
X04134Y01958*
X04138Y01948*
X04145Y0194*
X04158Y01927*
X04156Y01922*
X04095*
X04089Y01928*
X04078Y01936*
X04065Y01941*
X04052Y01943*
X03696*
X03695Y01945*
X03687Y01955*
X03677Y01963*
X03666Y01969*
X03654Y01972*
X03641Y01974*
X03638Y01973*
X03635Y01977*
Y02124*
X03639Y02128*
X03647Y02139*
X03652Y02151*
X03654Y02165*
Y02283*
X03652Y02297*
X03647Y02309*
X03639Y0232*
X0326Y02698*
Y02729*
X03264Y02732*
X03271Y02731*
G37*
G36*
X05699Y01953D02*
X05707Y01943D01*
X05716Y01935*
X05727Y01929*
X05739Y01926*
X05751Y01924*
X05783*
X05795Y01926*
X05807Y01929*
X05818Y01935*
X05822Y01938*
X05826Y01936*
Y01653*
X05776Y01603*
X05498*
X05497Y01604*
X05496Y01613*
X05502Y01613*
X05503Y01614*
X05494Y01623*
X05492Y01629*
X05486Y0164*
X05483Y01644*
X05478Y0165*
X05469Y01658*
X05457Y01664*
X05452Y01665*
X05445Y01667*
X05433Y01669*
X0542Y01667*
X05408Y01664*
X05397Y01658*
X05395Y01656*
X05385*
X05329Y01712*
X05452Y01835*
X05457Y01834*
X05458Y01833*
X05466Y01824*
X05475Y01816*
X05487Y0181*
X05499Y01806*
X05511Y01805*
X05524Y01806*
X05536Y0181*
X05547Y01816*
X05557Y01824*
X05558Y01825*
X05568Y01833*
X05594Y01859*
X05694*
Y01952*
X05699Y01953*
X05699Y01953*
G37*
G36*
X0339Y01983D02*
X03396Y01972D01*
X03404Y01963*
X03413Y01955*
X03424Y01949*
X03436Y01945*
X03448Y01944*
X0348*
X03492Y01945*
X03504Y01949*
X03515Y01955*
X03525Y01963*
X03525Y01963*
X0353Y01962*
Y01889*
X03532Y01876*
X03537Y01863*
X03545Y01852*
X0355Y01848*
X03548Y01843*
X03309*
X0328Y01872*
Y01941*
X03284Y01945*
X03291Y01944*
X03322*
X03335Y01945*
X03347Y01949*
X03357Y01955*
X03367Y01963*
X03375Y01972*
X03381Y01983*
X03383Y01989*
X03388*
X0339Y01983*
G37*
G36*
X05133Y02882D02*
Y02877D01*
X05134Y02865*
X05138Y02853*
X05144Y02842*
X05152Y02833*
X05161Y02825*
X05172Y02819*
X05184Y02815*
X05196Y02814*
X05201Y02815*
X05415Y026*
X05426Y02592*
X05439Y02587*
X05452Y02585*
X05539*
X05545Y02577*
X05555Y02569*
X05566Y02563*
X05578Y02559*
X0559Y02558*
X05602Y02559*
X05614Y02563*
X05625Y02569*
X05635Y02577*
X05643Y02586*
X05646Y02593*
X05652*
X05656Y02586*
X05663Y02577*
X05673Y02569*
X05684Y02563*
X05696Y02559*
X05708Y02558*
X05711Y02559*
X05715Y02555*
Y02472*
X05707Y02466*
X05699Y02456*
X05699Y02456*
X05694Y02457*
Y02471*
X05565*
Y02411*
X05521Y02366*
X05511Y02367*
X05499Y02366*
X05487Y02362*
X05475Y02356*
X05466Y02348*
X05458Y02339*
X05452Y02327*
X05448Y02315*
X05447Y02303*
X05448Y0229*
X05452Y02278*
X05458Y02267*
X05466Y02257*
X05475Y02249*
X05487Y02243*
X05499Y02239*
X05511Y02238*
X05524Y02239*
X05536Y02243*
X05547Y02249*
X05557Y02257*
X05558Y02258*
X05568Y02266*
X05594Y02292*
X05694*
Y02385*
X05699Y02386*
X05699Y02386*
X05707Y02376*
X05715Y02369*
Y02039*
X05707Y02032*
X05699Y02023*
X05699Y02022*
X05694Y02024*
Y02038*
X05565*
Y01978*
X05549Y01961*
X05544Y01963*
Y02035*
X05548Y02036*
X05553Y02038*
X0556Y02041*
X05571Y02049*
X05615Y02093*
X05617Y02093*
X05629Y02092*
X05642Y02093*
X05654Y02097*
X05665Y02103*
X05675Y02111*
X05683Y0212*
X05689Y02132*
X05693Y02144*
X05694Y02156*
Y02206*
X05693Y02219*
X05689Y02231*
X05683Y02242*
X05675Y02252*
X05665Y0226*
X05654Y02266*
X05642Y0227*
X05629Y02271*
X05617Y0227*
X05605Y02266*
X05593Y0226*
X05584Y02252*
X05576Y02242*
X0557Y02231*
X05566Y02219*
X05565Y02206*
Y02191*
X05519Y02145*
X05516Y02146*
X05504Y0215*
X05492Y02151*
X05479Y0215*
X05467Y02146*
X05456Y0214*
X05446Y02132*
X05438Y02122*
X05432Y02111*
X05428Y02099*
X05427Y02086*
X05428Y02073*
X05432Y02061*
X05438Y0205*
X05439Y02048*
Y0197*
X05234Y01764*
X05159*
X0515Y01773*
X05152Y01778*
X05216*
X0523Y0178*
X05235Y01782*
X05242Y01785*
X05253Y01793*
X05351Y01892*
X0536Y01902*
X05365Y01915*
X05367Y01929*
Y02422*
X05368Y02424*
X05374Y02435*
X05378Y02447*
X05379Y0246*
X05378Y02473*
X05374Y02485*
X05368Y02496*
X0536Y02506*
X0535Y02514*
X05339Y0252*
X05327Y02524*
X05314Y02525*
X05302Y02524*
X0529Y0252*
X05279Y02514*
X05269Y02506*
X05261Y02496*
X05255Y02485*
X05251Y02473*
X0525Y0246*
X05251Y02447*
X05255Y02435*
X05261Y02424*
X05262Y02422*
Y02416*
X05258Y02414*
X05221Y02451*
X0522Y02453*
X05217Y02465*
X05211Y02476*
X05203Y02486*
X05193Y02494*
X05182Y025*
X0517Y02504*
X05157Y02505*
X05144Y02504*
X05132Y025*
X05121Y02494*
X05116Y0249*
X05111Y02492*
Y02875*
X05112Y02877*
X05118Y02888*
X05119Y0289*
X05124Y02892*
X05133Y02882*
G37*
G36*
X06607Y02414D02*
X06617Y02406D01*
X06628Y024*
X0664Y02397*
X06653Y02395*
X06665Y02397*
X06669Y02394*
X0667Y02394*
Y02342*
X06671Y02328*
X06676Y02318*
X06671Y02315*
X06669Y02317*
X06658Y02323*
X06646Y02327*
X06633Y02328*
X06621Y02327*
X06609Y02323*
X06597Y02317*
X06588Y02309*
X0658Y02299*
X06574Y02288*
X0657Y02276*
X06569Y02263*
X0657Y02251*
X06574Y02239*
X0658Y02227*
X06588Y02218*
X06597Y0221*
X06609Y02204*
X06621Y022*
X06625Y02199*
X06627Y02198*
X06634Y02195*
X0664Y02193*
X06653Y02191*
X06887*
X06888Y02186*
X06884Y02185*
X06873Y02179*
X06871Y02178*
X06379*
X06362Y02195*
X06362Y02197*
X06358Y02209*
X06352Y0222*
X06344Y0223*
X06335Y02238*
X06323Y02244*
X06311Y02248*
X06299Y02249*
X06296Y02249*
X06292Y02252*
Y02301*
X06349Y02357*
X06374*
X06386Y02359*
X06398Y02362*
X06409Y02368*
X06418Y02376*
X06426Y02386*
X06432Y02397*
X06435Y02408*
X06437Y02408*
X06578*
X06591Y0241*
X06597Y02412*
X06604Y02415*
X06606Y02416*
X06607Y02414*
G37*
G36*
X04734Y04634D02*
X04734Y04632D01*
X04732Y04618*
Y04594*
X04734Y04579*
X04738Y04565*
X04745Y04552*
X04754Y04541*
X04755Y0454*
Y04503*
X04757Y04489*
X04762Y04477*
X0477Y04466*
X04783Y04453*
X04783Y04448*
X04784Y04436*
X04787Y04424*
X04793Y04413*
X04801Y04404*
X04811Y04396*
X04822Y0439*
X04834Y04386*
X04846Y04385*
X04877*
X0489Y04386*
X04902Y0439*
X04913Y04396*
X04922Y04404*
X0493Y04413*
X04936Y04424*
X04938Y0443*
X04943*
X04945Y04424*
X04951Y04413*
X04959Y04404*
X04967Y04397*
Y0435*
X04969Y04336*
X04974Y04324*
X04982Y04313*
X05551Y03744*
X0555Y0374*
X05552Y03727*
X05555Y03715*
X05561Y03705*
X05569Y03695*
X05579Y03687*
X05589Y03681*
X05601Y03678*
X05614Y03676*
X05645*
X05658Y03678*
X05669Y03681*
X0568Y03687*
X0569Y03695*
X05698Y03705*
X05704Y03715*
X05706Y03722*
X05711*
X05713Y03715*
X05719Y03705*
X05726Y03695*
X05736Y03687*
X05747Y03681*
X05759Y03678*
X05771Y03676*
X05803*
X0581Y03677*
X05813Y03674*
Y03429*
X05808Y03424*
X05803Y03425*
X05771*
X05761Y03424*
X05761Y03424*
X05785Y03399*
X05771Y03385*
X05785Y03371*
X05761Y03347*
X05761Y03347*
X05771Y03346*
X05803*
X05808Y03346*
X05813Y03342*
Y03097*
X0581Y03094*
X05803Y03094*
X05771*
X05759Y03093*
X05747Y03089*
X05736Y03084*
X05726Y03076*
X05719Y03066*
X05713Y03055*
X05711Y03049*
X05706*
X05704Y03055*
X05698Y03066*
X0569Y03076*
X05682Y03082*
Y03169*
X0568Y03182*
X05675Y03195*
X05666Y03206*
X05544Y03328*
X05546Y03333*
X05578*
X05579Y03333*
X05589Y03327*
X05601Y03323*
X05614Y03322*
X05645*
X05658Y03323*
X05669Y03327*
X0568Y03333*
X0569Y03341*
X05698Y0335*
X05704Y03361*
X05707Y03373*
X05708Y03385*
X05707Y03398*
X05704Y0341*
X05698Y0342*
X0569Y0343*
X0568Y03438*
X05669Y03444*
X05658Y03447*
X05645Y03449*
X05614*
X05601Y03447*
X05589Y03444*
X05579Y03438*
X05578Y03438*
X05513*
X05299Y03652*
X05299Y03654*
X05295Y03666*
X0529Y03677*
X05281Y03687*
X05272Y03695*
X0526Y03701*
X05248Y03705*
X05236Y03706*
X05223Y03705*
X05211Y03701*
X052Y03695*
X0519Y03687*
X05185Y03687*
X05072Y03801*
Y03865*
X0508Y03872*
X05088Y03882*
X05093Y03893*
X05097Y03904*
X05098Y03917*
X05097Y03929*
X05093Y03941*
X05088Y03952*
X0508Y03962*
X0507Y03969*
X0506Y03975*
Y04009*
X05061Y04009*
X0507Y04021*
X05077Y04034*
X05081Y04048*
X05083Y04062*
Y04086*
X05081Y04101*
X05077Y04115*
X0507Y04128*
X05061Y04139*
X05049Y04149*
X05036Y04156*
X05022Y0416*
X05007Y04161*
X04993Y0416*
X04979Y04156*
X04966Y04149*
X04957Y04142*
X04949Y04149*
X04936Y04156*
X04922Y0416*
X04907Y04161*
X04893Y0416*
X04879Y04156*
X04866Y04149*
X04857Y04142*
X04849Y04149*
X04836Y04156*
X04822Y0416*
X04807Y04161*
X04793Y0416*
X04779Y04156*
X04766Y04149*
X04754Y04139*
X04745Y04128*
X04738Y04115*
X04734Y04101*
X04732Y04086*
Y04062*
X04734Y04048*
X04738Y04034*
X04745Y04021*
X04754Y04009*
X04755Y04009*
Y03971*
X04757Y03958*
X04762Y03945*
X0477Y03934*
X04783Y03921*
X04783Y03917*
X04784Y03904*
X04787Y03893*
X04793Y03882*
X04801Y03872*
X04811Y03864*
X04822Y03858*
X04834Y03855*
X04846Y03854*
X04877*
X0489Y03855*
X04902Y03858*
X04913Y03864*
X04922Y03872*
X0493Y03882*
X04936Y03893*
X04938Y03899*
X04943*
X04945Y03893*
X04951Y03882*
X04959Y03872*
X04967Y03865*
Y03779*
X04969Y03765*
X04974Y03753*
X04982Y03742*
X05577Y03147*
Y03082*
X05569Y03076*
X05561Y03066*
X05555Y03055*
X05552Y03043*
X0555Y03031*
X05552Y03019*
X05555Y03007*
X05561Y02996*
X05569Y02986*
X05579Y02978*
X05589Y02973*
X05601Y02969*
X05614Y02968*
X05645*
X05658Y02969*
X05669Y02973*
X0568Y02978*
X0569Y02986*
X05698Y02996*
X05704Y03007*
X05706Y03013*
X05711*
X05713Y03007*
X05719Y02996*
X05726Y02986*
X05736Y02978*
X05747Y02973*
X05755Y0297*
X05754Y02965*
X05708*
X05695Y02963*
X05682Y02958*
X05671Y0295*
X05612Y02891*
X05604Y0288*
X05601Y02873*
X0559Y02874*
X05578Y02873*
X05566Y02869*
X05555Y02863*
X05545Y02855*
X05537Y02846*
X05532Y02835*
X05528Y02823*
X05527Y02811*
Y02779*
X05528Y02767*
X05532Y02755*
X05537Y02744*
X05545Y02734*
X05555Y02726*
X05566Y02721*
X05572Y02719*
Y02713*
X05566Y02712*
X05555Y02706*
X05545Y02698*
X05539Y0269*
X05474*
X0526Y02904*
Y02909*
X05258Y02921*
X05255Y02933*
X05249Y02944*
X05241Y02954*
X05232Y02962*
X05221Y02967*
X05209Y02971*
X05196Y02972*
X05194Y02972*
X0519Y02976*
Y02992*
X05193Y02996*
X05196Y02995*
X05207Y02997*
X05207Y02997*
X0519Y03014*
Y03028*
X0521Y03049*
X05235Y03025*
X05235Y03025*
X05236Y03035*
Y03066*
X05235Y03077*
X05235Y03077*
X0521Y03052*
X0519Y03073*
Y03088*
X05207Y03105*
X05207Y03105*
X05196Y03106*
X05193Y03106*
X0519Y03109*
Y03133*
X05193Y03135*
X05203Y03143*
X05211Y03153*
X05217Y03164*
X0522Y03176*
X05222Y03188*
X0522Y03201*
X05217Y03213*
X05211Y03224*
X05209Y03226*
Y03267*
X05208Y03281*
X05202Y03293*
X05194Y03304*
X04652Y03846*
X04654Y03851*
X04656Y03851*
X04766Y03742*
X04777Y03734*
X04789Y03728*
X04803Y03727*
X04804*
X04806Y03725*
X04817Y03719*
X04829Y03716*
X04842Y03714*
X04855Y03716*
X04867Y03719*
X04878Y03725*
X04888Y03733*
X04896Y03743*
X04902Y03754*
X04905Y03766*
X04907Y03779*
X04905Y03792*
X04902Y03804*
X04896Y03815*
X04888Y03825*
X04878Y03833*
X04867Y03839*
X04855Y03842*
X04842Y03844*
X04829Y03842*
X04817Y03839*
X04817Y03839*
X04743Y03912*
X04744Y03917*
X04743Y03929*
X04739Y03941*
X04733Y03952*
X04725Y03962*
X04716Y03969*
X04705Y03975*
X04693Y03979*
X04681Y0398*
X04676*
X0466Y03996*
Y04009*
X04661Y04009*
X0467Y04021*
X04677Y04034*
X04681Y04048*
X04683Y04062*
Y04086*
X04681Y04101*
X04677Y04115*
X04672Y04124*
Y04385*
X04681*
X04693Y04386*
X04705Y0439*
X04716Y04396*
X04725Y04404*
X04733Y04413*
X04739Y04424*
X04743Y04436*
X04744Y04448*
X04743Y04461*
X04739Y04473*
X04733Y04483*
X04725Y04493*
X04716Y04501*
X04705Y04507*
X04693Y0451*
X04681Y04512*
X04676*
X04672Y04515*
Y04556*
X04677Y04565*
X04681Y04579*
X04682Y04589*
X0473Y04637*
X04734Y04634*
G37*
G36*
X05286Y01608D02*
X05284Y01603D01*
X05242*
X0519Y01655*
X05191Y0166*
X05234*
X05286Y01608*
G37*
G36*
X03983Y0173D02*
Y01583D01*
X03979Y0158*
X03976Y0158*
X03963Y01579*
X03951Y01575*
X0394Y01569*
X0393Y01561*
X03922Y01551*
X03916Y0154*
X03912Y01528*
X03911Y01515*
X03912Y01503*
X03916Y0149*
X03922Y01479*
X03924Y01478*
Y01417*
X03925Y01403*
X03931Y01391*
X03939Y0138*
X04018Y01301*
X04028Y01293*
X04041Y01288*
X04055Y01286*
X04138*
X0414Y01281*
X04057Y01198*
X04049Y01187*
X04045Y01177*
X04021*
X04007Y01176*
X03992Y01171*
X03979Y01164*
X03968Y01155*
X03959Y01144*
X03956Y01144*
X03953Y01144*
X03944Y01155*
X03933Y01164*
X0392Y01171*
X03906Y01176*
X03891Y01177*
X03871*
Y01572*
X03895Y01596*
X03903Y01607*
X03908Y0162*
X0391Y01633*
Y01712*
X03908Y01726*
X03905Y01734*
X03908Y01739*
X03974*
X03983Y0173*
G37*
G36*
X01877Y02436D02*
X01875Y02435D01*
X01866Y02423*
X01859Y0241*
X01855Y02396*
X01853Y02381*
X01855Y02367*
X01859Y02353*
X01864Y02344*
X01915Y02395*
X01929Y02381*
X01943Y02395*
X01994Y02344*
X01998Y02353*
X02002Y02367*
X02004Y02381*
X02002Y02396*
X02001Y024*
X02005Y02403*
X02559Y0185*
Y00866*
X02519Y00826*
X02165*
X02086Y00905*
Y01771*
X01947Y01911*
X01948Y01915*
X01957Y01918*
X01966Y01923*
X01915Y01974*
X01864Y02025*
X01859Y02016*
X01855Y02002*
X01853Y01988*
X01855Y01973*
X01859Y01959*
X01866Y01946*
X01875Y01935*
X01877Y01933*
X01875Y01929*
X01313*
X01311Y01933*
X01312Y01935*
X01322Y01946*
X01329Y01959*
X01333Y01973*
X01335Y01988*
X01333Y02002*
X01329Y02016*
X01324Y02025*
X01273Y01974*
X01259Y01988*
X01245Y01974*
X01194Y02025*
X0119Y02016*
X01186Y02002*
Y02002*
X01181Y02002*
Y02367*
X01186Y02367*
Y02367*
X0119Y02353*
X01194Y02344*
X01245Y02395*
X01259Y02381*
X01273Y02395*
X01324Y02344*
X01329Y02353*
X01333Y02367*
X01335Y02381*
X01333Y02396*
X01329Y0241*
X01322Y02423*
X01312Y02435*
X01311Y02436*
X01313Y0244*
X01875*
X01877Y02436*
G37*
G36*
X01099Y04488D02*
X01102Y04487D01*
X01575*
X01614Y04448*
Y03976*
X01574Y03937*
X00787*
X00708Y04015*
Y04409*
X00787Y04488*
X01099*
G37*
G36*
X05048Y01728D02*
X05046Y01722D01*
X05035Y01721*
X05022Y01717*
X0501Y01711*
X04999Y01702*
X0499Y01692*
X04987Y01686*
X04903*
X04903Y01691*
X04906Y01692*
X04917Y01698*
X04927Y01706*
X04935Y01716*
X04941Y01727*
X04945Y01739*
X04946Y01751*
X04946Y01755*
X04949Y01758*
X05017*
X05048Y01728*
G37*
G36*
X02097Y02767D02*
D01*
X02322Y02542*
Y02165*
X02323Y02155*
X02327Y02145*
X02329Y02142*
X02326Y02139*
X02034Y02431*
X02033Y02431*
X02033Y02432*
X02029Y02434*
X02028Y02435*
X0203Y0244*
X02047*
X02057Y02441*
X02067Y02445*
X02075Y02452*
X02081Y0246*
X02085Y0247*
X02086Y0248*
Y02771*
X02091Y02773*
X02097Y02767*
G37*
G36*
X03391Y02851D02*
X0339Y02845D01*
X03384Y0284*
X03376Y0283*
X0337Y02819*
X03368Y02813*
X03363*
X03361Y02819*
X03355Y0283*
X03347Y0284*
X03338Y02847*
X03327Y02853*
X03315Y02857*
X03303Y02858*
X03276*
X03275Y02859*
X03272Y02863*
X03273Y02874*
X03272Y02886*
X03268Y02898*
X03262Y02909*
X03254Y02919*
X03244Y02927*
X03233Y02933*
X03221Y02937*
X03208Y02938*
X03196Y02937*
X03187Y02934*
X03182Y02938*
Y03054*
X03186Y03056*
X03391Y02851*
G37*
G36*
X05262Y0215D02*
Y0195D01*
X05247Y01935*
X05242Y01935*
X05241Y01936*
X05233Y01946*
X0517Y02009*
Y02074*
X05173Y02076*
X05175Y02077*
X05187Y02076*
X05199Y02077*
X05211Y02081*
X05222Y02087*
X05231Y02095*
X05239Y02104*
X05245Y02115*
X05249Y02127*
X0525Y02139*
Y02144*
X05258Y02152*
X05262Y0215*
G37*
G36*
X03536Y02706D02*
X03534Y02701D01*
X03523Y02702*
X0351Y02701*
X03498Y02697*
X03487Y02691*
X03485Y0269*
X03466*
X03429Y02726*
X03431Y02731*
X0346*
X03472Y02733*
X03484Y02736*
X03495Y02742*
X03498Y02744*
X03536Y02706*
G37*
G36*
X03522Y02289D02*
X0352Y02284D01*
X03518Y02284*
X03507Y02278*
X03505Y02276*
X03484*
X0347Y02274*
X03458Y02269*
X03447Y02261*
X03287Y02101*
X03283Y02102*
X03281Y02103*
X03274Y02112*
X03264Y0212*
X03253Y02126*
X0324Y0213*
X03228Y02131*
X03215Y0213*
X03203Y02126*
X03192Y0212*
X03187Y02116*
X03182Y02118*
Y02623*
X03186Y02624*
X03522Y02289*
G37*
G36*
X02755Y02716D02*
Y02165D01*
X02677Y02086*
X0244*
X02362Y02165*
Y02559*
X02125Y02795*
X01929Y02992*
X00905*
X00826*
X00708Y0311*
Y03464*
X00787Y03543*
X01929*
X02755Y02716*
G37*
G36*
X00798Y02964D02*
X00806Y02957D01*
X00816Y02953*
X00826Y02952*
X00905*
X01912*
X01946Y02918*
X01944Y02913*
X00826*
X00816Y02912*
X00806Y02908*
X00798Y02902*
X00713Y02816*
X00708Y02818*
Y03047*
X00713Y03049*
X00798Y02964*
G37*
G36*
X00759Y03908D02*
D01*
X00767Y03902*
X00777Y03898*
X00787Y03897*
X01574*
X01585Y03898*
X01594Y03902*
X01602Y03908*
X01633Y03939*
X01664Y03908*
X01673Y03902*
X01682Y03898*
X01692Y03897*
X01991*
X02452Y03436*
X0246Y0343*
X0247Y03426*
X0248Y03424*
X02818*
X03077Y03165*
Y0187*
X03079Y01856*
X03081Y01851*
X03084Y01843*
X03092Y01833*
X0323Y01695*
X03241Y01686*
X03254Y01681*
X03267Y01679*
X03755*
X03758Y01676*
X03758Y01673*
X03759Y01662*
X03759Y01661*
X03778Y01679*
X03792*
X03805Y01666*
Y01655*
X03781Y01631*
X03781Y01631*
X03773Y0162*
X03768Y01608*
X03766Y01594*
Y01177*
X03746*
X03731Y01176*
X03717Y01171*
X03704Y01164*
X03692Y01155*
X03683Y01144*
X03676Y01131*
X03672Y01117*
X03671Y0111*
X03666Y0111*
X03666Y01115*
X03663Y01121*
X03643Y01102*
X03663Y01082*
X03666Y01089*
X03666Y01094*
X03671Y01094*
X03672Y01087*
X03676Y01073*
X03683Y0106*
X03692Y01049*
X03704Y01039*
X03717Y01032*
X03731Y01028*
X03746Y01027*
X03891*
X03906Y01028*
X0392Y01032*
X03933Y01039*
X03944Y01049*
X03953Y0106*
X03956Y0106*
X03959Y0106*
X03968Y01049*
X03979Y01039*
X03992Y01032*
X04007Y01028*
X04021Y01027*
X04167*
X04181Y01028*
X04196Y01032*
X04209Y01039*
X0422Y01049*
X04229Y0106*
X04236Y01073*
X04241Y01087*
X04242Y01102*
X04241Y01117*
X04236Y01131*
X04229Y01144*
X0422Y01155*
X04209Y01164*
X04196Y01171*
X04187Y01174*
X04186Y01179*
X04234Y01227*
X04527*
X04541Y01228*
X04553Y01234*
X04564Y01242*
X04572Y01253*
X04578Y01265*
X04579Y01279*
Y01399*
X04584Y01401*
X04586Y014*
X04586Y01397*
X04587Y01385*
X04591Y01373*
X04596Y01362*
X04604Y01352*
X04614Y01345*
X04625Y01339*
X04637Y01335*
X04649Y01334*
X04681*
X04693Y01335*
X04705Y01339*
X04716Y01345*
X04725Y01352*
X04733Y01362*
X04739Y01373*
X04741Y01379*
X04746*
X04748Y01373*
X04754Y01362*
X04762Y01352*
X04771Y01345*
X04782Y01339*
X04794Y01335*
X04807Y01334*
X04838*
X0485Y01335*
X04862Y01339*
X04873Y01345*
X04883Y01352*
X04891Y01362*
X04897Y01373*
X049Y01385*
X04901Y01397*
X04905Y01401*
X05003*
X0501Y01395*
X05022Y01389*
X05026Y01387*
Y01354*
X05028Y0134*
X05033Y01328*
X05041Y01317*
X05116Y01242*
X05127Y01234*
X0514Y01228*
X05153Y01227*
X05393*
X05395Y01222*
X05393Y0122*
Y01149*
X05388Y01147*
X05381Y01155*
X0537Y01164*
X05357Y01171*
X05343Y01176*
X05328Y01177*
X05183*
X05168Y01176*
X05154Y01171*
X05141Y01164*
X05129Y01155*
X05121Y01144*
X05118Y01144*
X05115Y01144*
X05106Y01155*
X05094Y01164*
X05081Y01171*
X05067Y01176*
X05053Y01177*
X04907*
X04892Y01176*
X04878Y01171*
X04865Y01164*
X04854Y01155*
X04845Y01144*
X04842Y01144*
X04839Y01144*
X0483Y01155*
X04819Y01164*
X04806Y01171*
X04792Y01176*
X04777Y01177*
X04631*
X04617Y01176*
X04603Y01171*
X0459Y01164*
X04578Y01155*
X04569Y01144*
X04566Y01144*
X04564Y01144*
X04555Y01155*
X04543Y01164*
X0453Y01171*
X04516Y01176*
X04501Y01177*
X04356*
X04341Y01176*
X04327Y01171*
X04314Y01164*
X04303Y01155*
X04293Y01144*
X04286Y01131*
X04282Y01117*
X04281Y01102*
X04282Y01087*
X04286Y01073*
X04293Y0106*
X04303Y01049*
X04314Y01039*
X04327Y01032*
X04341Y01028*
X04356Y01027*
X04501*
X04516Y01028*
X0453Y01032*
X04543Y01039*
X04555Y01049*
X04564Y0106*
X04566Y0106*
X04569Y0106*
X04578Y01049*
X0459Y01039*
X04603Y01032*
X04617Y01028*
X04631Y01027*
X04777*
X04792Y01028*
X04806Y01032*
X04819Y01039*
X0483Y01049*
X04839Y0106*
X04842Y0106*
X04845Y0106*
X04854Y01049*
X04865Y01039*
X04878Y01032*
X04892Y01028*
X04907Y01027*
X05053*
X05067Y01028*
X05081Y01032*
X05094Y01039*
X05106Y01049*
X05115Y0106*
X05118Y0106*
X05121Y0106*
X05129Y01049*
X05141Y01039*
X05154Y01032*
X05168Y01028*
X05183Y01027*
X05328*
X05343Y01028*
X05357Y01032*
X0537Y01039*
X05381Y01049*
X05388Y01057*
X05393Y01055*
Y00708*
X00905*
X00708Y00905*
Y01512*
X00713Y01514*
X00759Y01467*
X00767Y01461*
X00777Y01457*
X00787Y01456*
X01968*
X01978Y01457*
X01988Y01461*
X01996Y01467*
X02042Y01513*
X02046Y01511*
Y00905*
X02048Y00895*
X02052Y00885*
X02058Y00877*
X02137Y00798*
X02145Y00792*
X02155Y00788*
X02165Y00787*
X02519*
X02529Y00788*
X02539Y00792*
X02547Y00798*
X02587Y00838*
X02593Y00846*
X02597Y00855*
X02598Y00866*
Y01036*
X02603Y01038*
X02614Y01032*
X02629Y01028*
X02643Y01027*
X02789*
X02804Y01028*
X02818Y01032*
X02831Y01039*
X02842Y01049*
X02851Y0106*
X02854Y0106*
X02857Y0106*
X02866Y01049*
X02877Y01039*
X0289Y01032*
X02904Y01028*
X02919Y01027*
X03064*
X03079Y01028*
X03093Y01032*
X03106Y01039*
X03118Y01049*
X03127Y0106*
X03129Y0106*
X03132Y0106*
X03141Y01049*
X03153Y01039*
X03166Y01032*
X0318Y01028*
X03194Y01027*
X0334*
X03355Y01028*
X03369Y01032*
X03382Y01039*
X03393Y01049*
X03403Y0106*
X0341Y01073*
X03414Y01087*
X03414Y01094*
X03419Y01094*
X0342Y01089*
X03423Y01082*
X03442Y01102*
X03423Y01121*
X0342Y01115*
X03419Y0111*
X03414Y0111*
X03414Y01117*
X0341Y01131*
X03403Y01144*
X03393Y01155*
X03382Y01164*
X03369Y01171*
X03355Y01176*
X0334Y01177*
X0332*
Y01299*
X03318Y01312*
X03313Y01325*
X03304Y01336*
X02662Y01978*
X02661Y01981*
X02658Y01993*
X02652Y02004*
X02644Y02014*
X02634Y02022*
X02623Y02028*
X02611Y02031*
X02598Y02033*
X02585Y02031*
X02573Y02028*
X02562Y02022*
X02552Y02014*
X02548Y02014*
X02519Y02042*
X02521Y02046*
X02677*
X02687Y02048*
X02697Y02052*
X02705Y02058*
X02783Y02137*
X0279Y02145*
X02794Y02155*
X02795Y02165*
Y02716*
X02794Y02726*
X0279Y02736*
X02783Y02744*
X01957Y03571*
X01948Y03577*
X01939Y03581*
X01929Y03583*
X00787*
X00777Y03581*
X00767Y03577*
X00759Y03571*
X00713Y03525*
X00708Y03527*
Y03953*
X00713Y03954*
X00759Y03908*
G37*
G36*
X02047Y02795D02*
Y0248D01*
X01933*
X01929Y0248*
X01924Y0248*
X01878*
X01875Y0248*
X01313*
X0131Y0248*
X01264*
X01259Y0248*
X01255Y0248*
X01181*
X01141Y0244*
Y02369*
X01141Y02367*
Y02002*
X01141Y02*
Y01929*
X01181Y01889*
X01255*
X01259Y01889*
X01264Y01889*
X0131*
X01313Y01889*
X01875*
X01878Y01889*
X01889*
X02046Y01732*
Y01574*
X01968Y01496*
X00787*
X00708Y01574*
Y02755*
X00826Y02874*
X01968*
X02047Y02795*
G37*
G36*
X03507Y0217D02*
X03518Y02164D01*
X03527Y02161*
X0353Y02159*
X03531Y02155*
X0353Y02145*
Y02053*
X03525Y02051*
X03525Y02052*
X03515Y0206*
X03504Y02066*
X03492Y02069*
X0348Y02071*
X03448*
X03436Y02069*
X03424Y02066*
X03413Y0206*
X03404Y02052*
X03396Y02043*
X0339Y02032*
X03388Y02025*
X03383*
X03381Y02032*
X03375Y02042*
X03505Y02171*
X03507Y0217*
G37*
G36*
X07244Y04842D02*
Y00905D01*
X07047Y00708*
X05472*
Y01181*
X05518Y01227*
X05535*
Y01206*
X05536Y01192*
X0554Y01177*
X05547Y01164*
X05557Y01153*
X05568Y01144*
X05581Y01137*
X05595Y01132*
X0561Y01131*
X05624Y01132*
X05639Y01137*
X05652Y01144*
X05663Y01153*
X05672Y01164*
X05679Y01177*
X05683Y01192*
X05685Y01206*
Y01352*
X05683Y01367*
X0568Y01379*
X05682Y01384*
X05714*
X05717Y01379*
X05713Y01367*
X05712Y01352*
Y01206*
X05713Y01192*
X05717Y01177*
X05724Y01164*
X05734Y01153*
X05745Y01144*
X05758Y01137*
X05772Y01132*
X05787Y01131*
X05802Y01132*
X05816Y01137*
X05829Y01144*
X0584Y01153*
X05849Y01164*
X05856Y01177*
X05861Y01192*
X05862Y01206*
Y01352*
X05861Y01367*
X05857Y01379*
X05859Y01384*
X05892*
X05894Y01379*
X0589Y01367*
X05889Y01352*
Y01206*
X0589Y01192*
X05895Y01177*
X05902Y01164*
X05911Y01153*
X05922Y01144*
X05935Y01137*
X05949Y01132*
X05964Y01131*
X05979Y01132*
X05993Y01137*
X06006Y01144*
X06017Y01153*
X06027Y01164*
X06034Y01177*
X06038Y01192*
X06039Y01206*
Y01352*
X06038Y01367*
X06034Y01379*
X06037Y01384*
X06069*
X06071Y01379*
X06067Y01367*
X06066Y01352*
Y01206*
X06067Y01192*
X06072Y01177*
X06079Y01164*
X06088Y01153*
X06099Y01144*
X06112Y01137*
X06127Y01132*
X06141Y01131*
X06156Y01132*
X0617Y01137*
X06183Y01144*
X06194Y01153*
X06204Y01164*
X06211Y01177*
X06215Y01192*
X06216Y01206*
Y01352*
X06215Y01367*
X06211Y01379*
X06214Y01384*
X06246*
X06249Y01379*
X06245Y01367*
X06243Y01352*
Y01206*
X06245Y01192*
X06249Y01177*
X06256Y01164*
X06265Y01153*
X06277Y01144*
X0629Y01137*
X06304Y01132*
X06318Y01131*
X06333Y01132*
X06347Y01137*
X0636Y01144*
X06372Y01153*
X06381Y01164*
X06388Y01177*
X06392Y01192*
X06394Y01206*
Y01352*
X06392Y01367*
X06388Y01381*
X06384Y01388*
X06852Y01857*
X06871*
X06873Y01855*
X06874Y01854*
X06874Y0185*
X06636Y01611*
X06627Y016*
X06622Y01588*
X0662Y01574*
Y01406*
X0662Y01405*
X0661Y01394*
X06603Y01381*
X06599Y01367*
X06598Y01352*
Y01206*
X06599Y01192*
X06603Y01177*
X0661Y01164*
X0662Y01153*
X06631Y01144*
X06644Y01137*
X06658Y01132*
X06673Y01131*
X06687Y01132*
X06702Y01137*
X06715Y01144*
X06726Y01153*
X06735Y01164*
X06742Y01177*
X06746Y01192*
X06748Y01206*
Y01352*
X06746Y01367*
X06742Y01381*
X06735Y01394*
X06726Y01405*
X06725Y01406*
Y01553*
X07084Y01911*
X07092Y01922*
X07097Y01935*
X07099Y01948*
Y02332*
X07097Y02346*
X07092Y02358*
X07084Y02369*
X07025Y02428*
X07014Y02437*
X07006Y0244*
X07001Y02442*
X06988Y02444*
X06906*
X06903Y02448*
X06906Y02453*
X0691Y02467*
X06911Y02481*
X0691Y02496*
X06906Y0251*
X06899Y02523*
X06892Y02531*
X06899Y0254*
X06906Y02553*
X0691Y02567*
X06911Y02581*
X0691Y02596*
X06906Y0261*
X06899Y02623*
X06892Y02631*
X06899Y0264*
X06906Y02653*
X0691Y02667*
X06911Y02681*
X0691Y02696*
X06906Y0271*
X06899Y02723*
X06892Y02731*
X06899Y0274*
X06906Y02753*
X0691Y02767*
X06911Y02781*
X0691Y02796*
X06906Y0281*
X06899Y02823*
X06889Y02835*
X06878Y02844*
X06877Y02844*
X06876Y02849*
X06881Y02856*
X06886Y02868*
X06888Y02881*
X06886Y02895*
X06883Y02901*
X0685Y02867*
X06822Y02895*
X06856Y02929*
X06849Y02931*
X06836Y02933*
X06805*
X06791Y02931*
X06785Y02929*
X06819Y02895*
X06791Y02867*
X06757Y02901*
X06755Y02895*
X06753Y02881*
X06755Y02868*
X0676Y02856*
X06765Y02849*
X06764Y02844*
X06763Y02844*
X06751Y02835*
X06751Y02834*
X06704*
X06699Y02841*
X06689Y02849*
X06678Y02855*
X06666Y02858*
X06653Y02859*
X0664Y02858*
X06628Y02855*
X06617Y02849*
X06615Y02847*
X0654*
Y02864*
X0646*
X06414Y02911*
X06404Y02919*
X06396Y02922*
X06391Y02924*
X06377Y02926*
X06299*
X06285Y02924*
X06273Y02919*
X06262Y02911*
X06124Y02773*
X06116Y02762*
X0611Y02749*
X06109Y02736*
Y02636*
X06107Y02634*
X06101Y02623*
X06097Y02611*
X06096Y02598*
X06097Y02585*
X06101Y02573*
X06107Y02562*
X0611Y02559*
X06107Y02555*
X06101Y02544*
X06097Y02532*
X06096Y02519*
X06097Y02507*
X06101Y02494*
X06107Y02483*
X06115Y02473*
X06125Y02465*
X06136Y02459*
X06148Y02456*
X06156Y02455*
X06158Y0245*
X06156Y02449*
X0615Y02441*
X06146Y02431*
X06145Y02421*
X06146Y0241*
X06146Y0241*
X06171Y02435*
X06198Y02407*
X06174Y02382*
X06174Y02382*
X06185Y02381*
X06216*
X06218Y02381*
X0622Y02377*
X06203Y02359*
X06194Y02348*
X06191Y02341*
X06189Y02336*
X06187Y02322*
Y02086*
X06189Y02073*
X06191Y02067*
X06194Y0206*
X06203Y02049*
X0622Y02032*
X06218Y02027*
X06216Y02027*
X06185*
X06174Y02026*
X06174Y02026*
X06198Y02002*
X06185Y01988*
X06198Y01974*
X06174Y01949*
X06174Y01949*
X06185Y01948*
X06216*
X06226Y01949*
X06226Y01949*
X06202Y01974*
X0623Y02002*
X06254Y01977*
X06254Y01977*
X06256Y01988*
X06255Y0199*
X0626Y01992*
X06281Y0197*
X06284Y01963*
X06289Y01953*
X06297Y01943*
X06305Y01936*
Y01872*
X06249Y01815*
X06247Y01815*
X06235Y01811*
X06223Y01805*
X06214Y01797*
X06206Y01787*
X062Y01776*
X06196Y01764*
X06195Y01751*
X06196Y01739*
X062Y01727*
X06206Y01716*
X06207Y01714*
Y01557*
X06198Y01548*
X05846*
X05844Y01552*
X05905Y01614*
Y01921*
X05909Y01924*
X05909Y01924*
X0594*
X05953Y01926*
X05965Y01929*
X05976Y01935*
X05985Y01943*
X05993Y01953*
X05999Y01963*
X06003Y01975*
X06004Y01988*
X06003Y02*
X05999Y02012*
X05993Y02023*
X05985Y02032*
X05976Y0204*
X05965Y02046*
X05953Y0205*
X0594Y02051*
X05909*
X05909Y02051*
X05905Y02054*
Y02354*
X05909Y02357*
X05909Y02357*
X0594*
X05953Y02359*
X05965Y02362*
X05976Y02368*
X05985Y02376*
X05993Y02386*
X05999Y02397*
X06003Y02408*
X06004Y02421*
X06003Y02433*
X05999Y02445*
X05993Y02456*
X05985Y02466*
X05977Y02472*
Y02578*
X05975Y02592*
X0597Y02604*
X05962Y02615*
X05905Y02672*
Y028*
X05946Y02841*
X06084*
X06086Y02839*
X06097Y02833*
X06109Y0283*
X06122Y02829*
X06134Y0283*
X06146Y02833*
X06157Y02839*
X06167Y02847*
X06175Y02857*
X06181Y02868*
X06185Y02881*
X06186Y02893*
X06185Y02906*
X06181Y02918*
X06175Y02929*
X06167Y02939*
X06157Y02947*
X0615Y02951*
X06152Y02956*
X06175*
X06189Y02957*
X06203Y02962*
X06216Y02969*
X06228Y02978*
X06237Y02989*
X06244Y03002*
X06248Y03016*
X0625Y03031*
X0625Y03034*
X06253Y03038*
X06674*
X06675Y03037*
X06686Y03028*
X06699Y03021*
X06713Y03016*
X06728Y03015*
X06775*
X0679Y03016*
X06804Y03021*
X06817Y03028*
X06828Y03037*
X06838Y03048*
X06845Y03061*
X06849Y03075*
X0685Y0309*
X06849Y03105*
X06845Y03119*
X06838Y03132*
X06828Y03143*
X06817Y03153*
X0681Y03156*
Y03161*
X06817Y03165*
X06828Y03175*
X06838Y03186*
X06845Y03199*
X06849Y03213*
X0685Y03228*
X06849Y03242*
X06845Y03257*
X06838Y0327*
X06828Y03281*
X06817Y0329*
X0681Y03294*
Y03299*
X06817Y03303*
X06828Y03312*
X06838Y03324*
X06845Y03337*
X06849Y03351*
X0685Y03366*
X06849Y0338*
X06845Y03394*
X06838Y03407*
X06828Y03419*
X06817Y03428*
X0681Y03432*
Y03437*
X06817Y03441*
X06828Y0345*
X06838Y03462*
X06845Y03475*
X06849Y03489*
X0685Y03503*
X06849Y03518*
X06845Y03532*
X06838Y03545*
X06828Y03557*
X06817Y03566*
X06804Y03573*
X0679Y03577*
X06775Y03579*
X06728*
X06713Y03577*
X06699Y03573*
X06686Y03566*
X06675Y03557*
X06674Y03556*
X06557*
X06531Y03581*
X06533Y03586*
X06667*
X06681Y03587*
X06696Y03591*
X06709Y03598*
X0672Y03608*
X06729Y03619*
X06736Y03632*
X06741Y03646*
X06742Y03661*
X06741Y03676*
X06736Y0369*
X06736Y0369*
X06946Y039*
X06954Y0391*
X0696Y03923*
X06961Y03937*
Y04566*
X0696Y0458*
X06957Y04585*
X06954Y04593*
X06946Y04603*
X06621Y04928*
X0661Y04937*
X06598Y04942*
X06584Y04944*
X06338*
Y05039*
X07047*
X07244Y04842*
G37*
G36*
X06994Y0197D02*
X0697Y01945D01*
X06964Y01946*
X06963Y01948*
X06963Y01949*
X06969Y0196*
X06972Y01972*
X06974Y01985*
X06972Y01997*
X06969Y02009*
X06963Y0202*
X06955Y0203*
X06945Y02038*
X06934Y02044*
X06922Y02048*
X06909Y02049*
X06896Y02048*
X06884Y02044*
X06873Y02038*
X06871Y02037*
X06807*
X06794Y02035*
X06781Y0203*
X0677Y02022*
X06316Y01567*
X06312Y01569*
Y01714*
X06313Y01716*
X06319Y01727*
X06323Y01739*
X06323Y01741*
X06395Y01813*
X06403Y01824*
X06408Y01836*
X0641Y0185*
Y01936*
X06418Y01943*
X06426Y01953*
X06432Y01963*
X06436Y01975*
X06437Y01988*
X06436Y02*
X06432Y02012*
X06426Y02023*
X06418Y02032*
X0641Y02039*
Y02073*
X06871*
X06873Y02072*
X06884Y02066*
X06896Y02062*
X06909Y02061*
X06922Y02062*
X06934Y02066*
X06945Y02072*
X06955Y0208*
X06963Y0209*
X06969Y02101*
X06972Y02113*
X06974Y02125*
X06972Y02138*
X06969Y0215*
X06963Y02161*
X06955Y02171*
X06945Y02179*
X06934Y02185*
X0693Y02186*
X06931Y02191*
X06994*
Y0197*
G37*
G36*
X05685Y04834D02*
X05612Y04761D01*
X05604Y0475*
X05601Y04744*
X05586*
Y04696*
X05572Y04681*
X05567Y04683*
Y04728*
X05565Y04742*
X05561Y04757*
X0556Y04758*
X05641Y04839*
X05684*
X05685Y04834*
G37*
G36*
X05279Y04688D02*
Y04681D01*
X0528Y04666*
X05281Y04662*
X05278Y04658*
X05273*
X05272Y0466*
X0526Y04666*
X05248Y04669*
X05236Y0467*
X05223Y04669*
X05211Y04666*
X052Y0466*
X0519Y04652*
X05182Y04642*
X05176Y04631*
X05172Y04618*
X05171Y04606*
X05172Y04593*
X05176Y04581*
X05182Y0457*
X0519Y0456*
X052Y04552*
X05211Y04546*
X05223Y04542*
X05236Y04541*
X05248Y04542*
X0526Y04546*
X05272Y04552*
X05273Y04553*
X0557*
X05584Y04555*
X05589Y04557*
X05597Y0456*
X05607Y04569*
X05625Y04586*
X05671*
X05673Y04581*
X05672Y04581*
X05662Y04573*
X05654Y04563*
X05648Y04552*
X05645Y0454*
X05643Y04527*
X05645Y04514*
X05647Y04506*
X05644Y04501*
X05273*
X05272Y04502*
X0526Y04508*
X05248Y04512*
X05236Y04513*
X05223Y04512*
X05211Y04508*
X052Y04502*
X0519Y04494*
X05182Y04484*
X05176Y04473*
X05172Y04461*
X05171Y04448*
X05172Y04436*
X05176Y04424*
X05182Y04412*
X0519Y04403*
X052Y04395*
X05211Y04389*
X05223Y04385*
X05236Y04384*
X05248Y04385*
X0526Y04389*
X05272Y04395*
X05273Y04396*
X05728*
X05741Y04398*
X05754Y04403*
X05765Y04411*
X05876Y04522*
X0588Y0452*
X05881Y04514*
X05885Y04502*
X05891Y04491*
X05899Y04481*
X05908Y04473*
X05909Y04472*
X0591Y04468*
X05829Y04387*
X0582Y04376*
X05817Y04369*
X05815Y04363*
X05813Y0435*
Y03806*
X0581Y03802*
X05803Y03803*
X05798*
X05745Y03855*
X05734Y03864*
X05727Y03867*
X05722Y03869*
X05708Y03871*
X05651*
X0515Y04372*
Y04645*
X05148Y04659*
X05143Y04671*
X05135Y04682*
X05103Y04714*
X05105Y04718*
X05248*
X05279Y04688*
G37*
G36*
X0554Y01379D02*
X05536Y01367D01*
X05536Y01362*
X05505Y01331*
X05268*
X05266Y01336*
X0527Y01342*
X05276Y01353*
X05279Y01365*
X0528Y01367*
X05297Y01384*
X05537*
X0554Y01379*
G37*
G36*
X04711Y01813D02*
X04702Y01804D01*
X04586*
X04573Y01802*
X0456Y01797*
X04549Y01788*
X04431Y0167*
X04423Y0166*
X0442Y01652*
X04417Y01647*
X04416Y01633*
Y01399*
X04407Y0139*
X04359*
X04355Y01394*
X04356Y01397*
X04354Y0141*
X04351Y01422*
X04345Y01433*
X04337Y01443*
X04327Y01451*
X04316Y01457*
X04303Y01461*
X04301Y01461*
X04146Y01616*
Y01791*
X04145Y01804*
X04141Y01812*
X04145Y01817*
X04709*
X04711Y01813*
G37*
G36*
X04121Y01395D02*
X04119Y0139D01*
X04076*
X04028Y01438*
Y01478*
X04029Y01479*
X04031Y0148*
X04035Y01481*
X04121Y01395*
G37*
G36*
X06372Y04635D02*
X06346Y0461D01*
X06384*
Y04583*
X06381Y04581*
X06371Y04573*
X06363Y04563*
X06357Y04552*
X06353Y0454*
X06352Y04527*
X06353Y04514*
X06357Y04502*
X06363Y04491*
X06371Y04481*
X06381Y04473*
X06392Y04467*
X06404Y04464*
X06417Y04462*
X06429Y04464*
X06442Y04467*
X06453Y04473*
X06463Y04481*
X06471Y04491*
X06477Y04502*
X0648Y04514*
X06481Y04519*
X06482Y04521*
X06487Y04533*
X06489Y04547*
Y04614*
X06489Y04614*
X06495Y04625*
X06499Y04637*
X06499Y0464*
X06504Y04642*
X06689Y04456*
Y04341*
X06685Y04339*
X0668Y04341*
X06667Y04342*
X06521*
X06508Y04341*
X06502Y04338*
X06535Y04305*
X06521Y04291*
X06535Y04277*
X06502Y04244*
X06508Y04241*
X06521Y04239*
X06639*
X06641Y04235*
X06615Y04209*
X06521*
X06507Y04207*
X06492Y04203*
X06479Y04196*
X06468Y04187*
X06459Y04175*
X06452Y04162*
X06447Y04148*
X06446Y04133*
X06447Y04119*
X06452Y04105*
X06459Y04092*
X06468Y0408*
X06479Y04071*
X06492Y04064*
X06507Y0406*
X06521Y04058*
X06667*
X06675Y04059*
X06677Y04054*
X06673Y0405*
X06667Y04051*
X06521*
X06507Y0405*
X06492Y04045*
X06479Y04038*
X06468Y04029*
X06459Y04018*
X06452Y04005*
X06447Y03991*
X06446Y03976*
X06447Y03961*
X06452Y03947*
X06459Y03934*
X06468Y03923*
X06479Y03913*
X06492Y03906*
X06507Y03902*
X06521Y03901*
X06652*
X06654Y03896*
X06653Y03894*
X06521*
X06507Y03892*
X06492Y03888*
X06479Y03881*
X06468Y03872*
X06459Y0386*
X06452Y03847*
X06447Y03833*
X06446Y03818*
X06447Y03804*
X06452Y0379*
X06459Y03777*
X06468Y03765*
X06479Y03756*
X06492Y03749*
X06507Y03745*
X06521Y03743*
X06632*
X06635Y03738*
X06633Y03736*
X06521*
X06507Y03735*
X06492Y0373*
X06479Y03723*
X06468Y03714*
X06459Y03703*
X06452Y0369*
X06447Y03676*
X06447Y03672*
X06442Y0367*
X06331Y03781*
Y03917*
X0633Y0393*
X06324Y03943*
X06316Y03954*
X06228Y04041*
X06237Y04052*
X06244Y04065*
X06248Y04079*
X0625Y04094*
X06248Y04109*
X06244Y04123*
X06237Y04136*
X06228Y04147*
X06216Y04156*
X06203Y04163*
X06189Y04168*
X06175Y04169*
X06029*
X06014Y04168*
X06Y04163*
X05987Y04156*
X05976Y04147*
X05967Y04136*
X0596Y04123*
X05955Y04109*
X05954Y04094*
X05955Y04079*
X0596Y04065*
X05967Y04052*
X05976Y04041*
X05987Y04032*
X06Y04025*
X06014Y0402*
X06029Y04019*
X06103*
X06227Y03895*
Y038*
X06222Y03797*
X06216Y03802*
X06203Y03809*
X06189Y03813*
X06175Y03815*
X06029*
X06014Y03813*
X06Y03809*
X05987Y03802*
X05976Y03793*
X05967Y03781*
X0596Y03768*
X05955Y03754*
X05954Y0374*
X05955Y03725*
X0596Y03711*
X05967Y03698*
X05976Y03687*
X05987Y03677*
X06Y0367*
X06014Y03666*
X06029Y03665*
X06103*
X06439Y03329*
X0645Y0332*
X06462Y03315*
X06476Y03313*
X06674*
X06675Y03312*
X06686Y03303*
X06693Y03299*
Y03294*
X06686Y0329*
X06675Y03281*
X06674Y0328*
X06281*
X06228Y03333*
X06237Y03344*
X06244Y03357*
X06248Y03371*
X0625Y03385*
X06248Y034*
X06244Y03414*
X06237Y03427*
X06228Y03438*
X06216Y03448*
X06203Y03455*
X06189Y03459*
X06175Y0346*
X06029*
X06014Y03459*
X06Y03455*
X05987Y03448*
X05976Y03438*
X05967Y03427*
X0596Y03414*
X05955Y034*
X05954Y03385*
X05955Y03371*
X0596Y03357*
X05967Y03344*
X05976Y03332*
X05987Y03323*
X06Y03316*
X06014Y03312*
X06029Y0331*
X06103*
X06222Y03191*
X06233Y03183*
X06246Y03177*
X06259Y03176*
X06674*
X06675Y03175*
X06686Y03165*
X06693Y03161*
Y03156*
X06686Y03153*
X06675Y03143*
X06674Y03142*
X06161*
X06147Y03141*
X06135Y03135*
X06124Y03127*
X06103Y03106*
X06029*
X06014Y03105*
X06Y031*
X05987Y03093*
X05976Y03084*
X05967Y03073*
X0596Y0306*
X05955Y03046*
X05954Y03031*
X05955Y03016*
X0596Y03002*
X05967Y02989*
X05976Y02978*
X05987Y02969*
X06Y02962*
X06014Y02957*
X06029Y02956*
X06092*
X06093Y02951*
X06086Y02947*
X06084Y02946*
X05925*
X05911Y02944*
X0591Y02943*
X05905Y02947*
Y02958*
X05911Y02965*
X05916Y02978*
X05918Y02992*
Y04264*
X06135Y04481*
X06145Y04473*
X06156Y04467*
X06168Y04464*
X06181Y04462*
X06193Y04464*
X06205Y04467*
X06217Y04473*
X06226Y04481*
X06234Y04491*
X0624Y04502*
X06244Y04514*
X06245Y04519*
X06246Y04521*
X06251Y04533*
X06253Y04547*
Y04599*
X06314Y0466*
X06318Y04658*
Y04638*
X06344Y04663*
X06372Y04635*
G37*
G36*
X02939Y01474D02*
Y01177D01*
X02919*
X02904Y01176*
X0289Y01171*
X02877Y01164*
X02866Y01155*
X02857Y01144*
X02854Y01144*
X02851Y01144*
X02842Y01155*
X02831Y01164*
X02818Y01171*
X02804Y01176*
X02789Y01177*
X02643*
X02629Y01176*
X02614Y01171*
X02603Y01165*
X02598Y01168*
Y01808*
X02603Y0181*
X02939Y01474*
G37*
G36*
X05872Y04785D02*
X05848Y04761D01*
X0584Y0475*
X05837Y04744*
X05822*
Y04617*
X05785Y04579*
X0578Y04581*
Y04614*
X0578Y04614*
X05786Y04625*
X0579Y04637*
X05791Y04649*
Y04681*
X0579Y04693*
X05786Y04705*
X0578Y04716*
X05773Y04725*
X05763Y04733*
X05752Y04739*
X05746Y04741*
X05745Y04746*
X05789Y0479*
X05871*
X05872Y04785*
G37*
G36*
X03215Y01277D02*
Y01177D01*
X03194*
X0318Y01176*
X03166Y01171*
X03153Y01164*
X03141Y01155*
X03132Y01144*
X03129Y01144*
X03127Y01144*
X03118Y01155*
X03106Y01164*
X03093Y01171*
X03079Y01176*
X03064Y01177*
X03044*
Y01441*
X03049Y01443*
X03215Y01277*
G37*
G36*
X06059Y04617D02*
X06021Y04579D01*
X06016Y04581*
Y04614*
X06017Y04614*
X06023Y04625*
X06026Y04637*
X06027Y04649*
Y04681*
X06026Y04693*
X06023Y04705*
X06017Y04716*
X06009Y04725*
X05999Y04733*
X05995Y04735*
X05996Y0474*
X06059*
Y04617*
G37*
G36*
X02637Y03858D02*
X02992D01*
X03779Y0307*
X04488*
X04566Y02992*
Y02322*
X04507Y02263*
X04232*
X04173Y02322*
Y02598*
X04094Y02677*
X03622*
X03521Y02777*
X03522Y02782*
X03523Y02795*
X03522Y02807*
X03519Y02819*
X03513Y0283*
X03505Y0284*
X03495Y02847*
X03484Y02853*
X03472Y02857*
X0346Y02858*
X0344*
X02834Y03464*
X0248*
X02007Y03937*
X01692*
X01653Y03976*
Y04448*
X01692Y04488*
X02007*
X02637Y03858*
G37*
G36*
X037Y04921D02*
X04173Y04448D01*
Y04212*
Y03937*
X04641Y03468*
X04641Y03464*
X04642Y03448*
X04647Y03432*
X04655Y03418*
X04665Y03405*
X04678Y03395*
X04692Y03387*
X04708Y03383*
X04724Y03381*
X04728Y03381*
X05Y0311*
Y02939*
X04999Y02938*
X04995Y02926*
X04994Y02913*
X04995Y029*
X04999Y02888*
X05Y02887*
Y02201*
X04999Y02199*
X04995Y02187*
X04994Y02175*
X04995Y02162*
X04999Y0215*
X05Y02149*
Y02047*
X05006Y0204*
Y01948*
X05008Y01937*
X04993Y01922*
X04219*
X04173Y01968*
Y02165*
X04231Y02224*
X04232Y02224*
X04507*
X0451Y02224*
X04547*
X04606Y02283*
Y0232*
X04606Y02322*
Y02992*
X04605Y03002*
X04601Y03011*
X04595Y0302*
X04516Y03098*
X04508Y03105*
X04498Y03109*
X04488Y0311*
X04448*
X03779Y03779*
Y04212*
X03779Y04215*
Y04251*
X037Y0433*
X03664*
X03661Y04331*
X02873*
X02559Y04645*
Y04842*
X02559Y04842*
X02637Y04921*
X037*
G37*
G36*
X06259Y04944D02*
X0562D01*
X05606Y04942*
X05593Y04937*
X05583Y04928*
X0551Y04856*
X05439Y04927*
X05429Y04935*
X05418Y04941*
X05406Y04945*
X05393Y04946*
X04744*
X04731Y04945*
X04719Y04941*
X04708Y04935*
X04698Y04927*
X04462Y04691*
X04454Y04681*
X04448Y0467*
X04444Y04658*
X04444Y04658*
X04438Y04646*
X04434Y04632*
X04432Y04618*
Y04594*
X04434Y04579*
X04438Y04565*
X04443Y04556*
Y04488*
X04439Y04483*
X04433Y04473*
X0443Y04461*
X04428Y04448*
X0443Y04436*
X04433Y04424*
X04439Y04413*
X04443Y04409*
Y04124*
X04438Y04115*
X04434Y04101*
X04432Y04086*
Y04062*
X04434Y04048*
X04438Y04034*
X04445Y04021*
X04454Y04009*
X04455Y04009*
Y03968*
X04447Y03962*
X04439Y03952*
X04433Y03941*
X0443Y03929*
X04428Y03917*
X0443Y03904*
X04433Y03893*
X04439Y03882*
X04447Y03872*
X04456Y03864*
X04467Y03858*
X04479Y03855*
X04492Y03854*
X04497*
X05105Y03246*
Y03226*
X05103Y03224*
X05097Y03213*
X05094Y03201*
X05093Y03196*
X05092Y03195*
X05087Y03182*
X05085Y03169*
Y02977*
X0508Y02974*
X05071Y02976*
X05059Y02978*
X05046Y02976*
X05043Y02975*
X05039Y02978*
Y0311*
X05038Y0312*
X05034Y0313*
X05028Y03138*
X04757Y03409*
X04756Y03412*
X04757Y03415*
X04757Y03415*
X04766Y03422*
X04773Y03431*
X04779Y03441*
X04782Y03452*
X04783Y03464*
X04782Y03476*
X04779Y03487*
X04777Y0349*
X04738Y0345*
X0471Y03478*
X04749Y03517*
X04747Y03519*
X04735Y03522*
X04724Y03523*
X04712Y03522*
X04701Y03519*
X04691Y03513*
X04682Y03506*
X04675Y03497*
X04674Y03497*
X04672Y03497*
X04669Y03497*
X04212Y03953*
Y04212*
Y04448*
X04211Y04459*
X04207Y04468*
X04201Y04476*
X03728Y04949*
X0372Y04955*
X03711Y04959*
X037Y0496*
X02637*
X02627Y04959*
X02617Y04955*
X02609Y04949*
X02531Y0487*
X02529Y04868*
X02527Y04867*
X02526Y04864*
X02524Y04862*
X02523Y0486*
X02522Y04858*
X02522Y04855*
X0252Y04853*
X0252Y0485*
X0252Y04847*
Y04845*
X02519Y04842*
X02519Y04842*
Y04645*
X02521Y04635*
X02525Y04625*
X02531Y04617*
X02845Y04302*
X02853Y04296*
X02863Y04292*
X02873Y04291*
X03661*
X03664Y0429*
X03684*
X03739Y04235*
Y04215*
X0374Y04212*
Y03779*
X03741Y03768*
X03745Y03759*
X03751Y03751*
X04387Y03115*
X04385Y0311*
X03795*
X03756Y03149*
X0302Y03886*
X03011Y03892*
X03002Y03896*
X02992Y03897*
X02676*
X02654*
X02035Y04516*
X02027Y04522*
X02018Y04526*
X0201Y04527*
X02007Y04527*
X01692*
X01682Y04526*
X01673Y04522*
X01664Y04516*
X01633Y04485*
X01603Y04515*
X01595Y04522*
X01585Y04526*
X01575Y04527*
X01107*
X01102*
X01099Y04527*
X00787*
X00777Y04526*
X00767Y04522*
X00759Y04516*
X00713Y0447*
X00708Y04472*
Y04842*
X00905Y05039*
X06259*
Y04944*
G37*
G36*
X04653Y01502D02*
X04666Y01501D01*
X04847*
X04849Y01496*
X04841Y0149*
X04812Y0146*
X04807*
X04794Y01459*
X04782Y01456*
X04771Y0145*
X04762Y01442*
X04754Y01432*
X04748Y01421*
X04746Y01415*
X04741*
X04739Y01421*
X04733Y01432*
X04725Y01442*
X04716Y0145*
X04705Y01456*
X04693Y01459*
X04681Y0146*
X04676*
X04638Y01498*
Y01503*
X04643Y01506*
X04653Y01502*
G37*
%LNpcb4-2*%
%LPC*%
G36*
X05531Y01665D02*
X05519Y01653D01*
X05531Y01642*
X05531Y01642*
X05533Y01653*
X05531Y01664*
X05531Y01665*
G37*
G36*
X05629Y01695D02*
X05618Y01684D01*
X05619Y01684*
X05629Y01682*
X0564Y01684*
X05641Y01684*
X05629Y01695*
G37*
G36*
X0559Y01785D02*
X0559Y01784D01*
X05588Y01773*
Y01723*
X0559Y01713*
X0559Y01712*
X05615Y01737*
X05629Y01723*
X05643Y01737*
X05669Y01712*
X05669Y01713*
X05671Y01723*
Y01773*
X05669Y01784*
X05669Y01785*
X05643Y01759*
X05629Y01773*
X05615Y01759*
X0559Y01785*
G37*
G36*
X05492Y01694D02*
X05481Y01693D01*
X0548Y01692*
X05492Y01681*
X05503Y01692*
X05502Y01693*
X05492Y01694*
G37*
G36*
X05629Y01814D02*
X05619Y01813D01*
X05618Y01813*
X05629Y01801*
X05641Y01813*
X0564Y01813*
X05629Y01814*
G37*
G36*
X05733Y03396D02*
X05733Y03396D01*
X05731Y03385*
X05733Y03375*
X05733Y03375*
X05743Y03385*
X05733Y03396*
G37*
G36*
X01771Y02137D02*
X0176Y02125D01*
X01771Y02114*
X01771Y02115*
X01773Y02125*
X01771Y02136*
X01771Y02137*
G37*
G36*
X01594Y02235D02*
X01582Y02224D01*
X01594Y02212*
X01594Y02213*
X01596Y02224*
X01594Y02235*
X01594Y02235*
G37*
G36*
X01456Y02137D02*
X01456Y02136D01*
X01454Y02125*
X01456Y02115*
X01456Y02114*
X01468Y02125*
X01456Y02137*
G37*
G36*
X01535D02*
X01523Y02125D01*
X01535Y02114*
X01535Y02115*
X01537Y02125*
X01535Y02136*
X01535Y02137*
G37*
G36*
X01692D02*
X01692Y02136D01*
X01691Y02125*
X01692Y02115*
X01692Y02114*
X01704Y02125*
X01692Y02137*
G37*
G36*
X01574D02*
X01574Y02136D01*
X01573Y02125*
X01574Y02115*
X01574Y02114*
X01586Y02125*
X01574Y02137*
G37*
G36*
X01653D02*
X01642Y02125D01*
X01653Y02114*
X01653Y02115*
X01655Y02125*
X01653Y02136*
X01653Y02137*
G37*
G36*
X01673Y02196D02*
X01661Y02185D01*
X01662Y02184*
X01673Y02183*
X01683Y02184*
X01684Y02185*
X01673Y02196*
G37*
G36*
X01555D02*
X01543Y02185D01*
X01544Y02184*
X01555Y02183*
X01565Y02184*
X01566Y02185*
X01555Y02196*
G37*
G36*
X01515Y02235D02*
X01515Y02235D01*
X01514Y02224*
X01515Y02213*
X01515Y02212*
X01527Y02224*
X01515Y02235*
G37*
G36*
X01633D02*
X01633Y02235D01*
X01632Y02224*
X01633Y02213*
X01633Y02212*
X01645Y02224*
X01633Y02235*
G37*
G36*
X01732Y02167D02*
X01721Y02165D01*
X0172Y02165*
X01732Y02153*
X01743Y02165*
X01742Y02165*
X01732Y02167*
G37*
G36*
X01712Y02235D02*
X01701Y02224D01*
X01712Y02212*
X01712Y02213*
X01714Y02224*
X01712Y02235*
X01712Y02235*
G37*
G36*
X01496Y02167D02*
X01485Y02165D01*
X01484Y02165*
X01496Y02153*
X01507Y02165*
X01506Y02165*
X01496Y02167*
G37*
G36*
X01614D02*
X01603Y02165D01*
X01602Y02165*
X01614Y02153*
X01625Y02165*
X01624Y02165*
X01614Y02167*
G37*
G36*
X02362Y00956D02*
X02282Y00876D01*
X02283Y00875*
X02301Y00864*
X0232Y00856*
X02341Y00851*
X02362Y00849*
X02383Y00851*
X02403Y00856*
X02423Y00864*
X02441Y00875*
X02442Y00876*
X02362Y00956*
G37*
G36*
X02254Y01064D02*
X02253Y01063D01*
X02242Y01045*
X02234Y01025*
X02229Y01005*
X02227Y00984*
X02229Y00963*
X02234Y00942*
X02242Y00923*
X02253Y00905*
X02254Y00904*
X02334Y00984*
X02254Y01064*
G37*
G36*
X02469D02*
X0239Y00984D01*
X02469Y00904*
X0247Y00905*
X02481Y00923*
X02489Y00942*
X02494Y00963*
X02496Y00984*
X02494Y01005*
X02489Y01025*
X02481Y01045*
X0247Y01063*
X02469Y01064*
G37*
G36*
X02362Y01118D02*
X02341Y01116D01*
X0232Y01111*
X02301Y01103*
X02283Y01092*
X02282Y01092*
X02362Y01012*
X02442Y01092*
X02441Y01092*
X02423Y01103*
X02403Y01111*
X02383Y01116*
X02362Y01118*
G37*
G36*
X01614Y02098D02*
X01602Y02086D01*
X01603Y02086*
X01614Y02084*
X01624Y02086*
X01625Y02086*
X01614Y02098*
G37*
G36*
X01732D02*
X0172Y02086D01*
X01721Y02086*
X01732Y02084*
X01742Y02086*
X01743Y02086*
X01732Y02098*
G37*
G36*
X01496D02*
X01484Y02086D01*
X01485Y02086*
X01496Y02084*
X01506Y02086*
X01507Y02086*
X01496Y02098*
G37*
G36*
X01994Y02025D02*
X01956Y01988D01*
X01994Y01951*
X01998Y01959*
X02002Y01973*
X02004Y01988*
X02002Y02002*
X01998Y02016*
X01994Y02025*
G37*
G36*
X01929Y02063D02*
X01914Y02061D01*
X019Y02057*
X01892Y02053*
X01929Y02016*
X01966Y02053*
X01957Y02057*
X01943Y02061*
X01929Y02063*
G37*
G36*
X01259D02*
X01245Y02061D01*
X01231Y02057*
X01222Y02053*
X01259Y02016*
X01296Y02053*
X01288Y02057*
X01274Y02061*
X01259Y02063*
G37*
G36*
X01555Y02265D02*
X01544Y02264D01*
X01543Y02263*
X01555Y02252*
X01566Y02263*
X01565Y02264*
X01555Y02265*
G37*
G36*
X01673D02*
X01662Y02264D01*
X01661Y02263*
X01673Y02252*
X01684Y02263*
X01683Y02264*
X01673Y02265*
G37*
G36*
X01929Y02354D02*
X01892Y02316D01*
X019Y02312*
X01914Y02308*
X01929Y02306*
X01943Y02308*
X01957Y02312*
X01966Y02316*
X01929Y02354*
G37*
G36*
X01259D02*
X01222Y02316D01*
X01231Y02312*
X01245Y02308*
X01259Y02306*
X01274Y02308*
X01288Y02312*
X01296Y02316*
X01259Y02354*
G37*
G36*
X01561Y04111D02*
X0151Y0406D01*
X01496Y04074*
X01482Y0406*
X01431Y04111*
X01426Y04103*
X01422Y04089*
X0142Y04074*
Y04035*
X01422Y0402*
X01426Y04006*
X01431Y03998*
X01482Y04049*
X01496Y04035*
X0151Y04049*
X01561Y03998*
X01565Y04006*
X01569Y0402*
X01571Y04035*
Y04074*
X01569Y04089*
X01565Y04103*
X01561Y04111*
G37*
G36*
X01496Y04007D02*
X01458Y0397D01*
X01467Y03965*
X01481Y03961*
X01496Y0396*
X0151Y03961*
X01524Y03965*
X01533Y0397*
X01496Y04007*
G37*
G36*
X01062Y04302D02*
X01011Y04251D01*
X01026Y04242*
X01044Y04237*
X01062Y04235*
X01081Y04237*
X01099Y04242*
X01114Y04251*
X01062Y04302*
G37*
G36*
X01496Y04149D02*
X01481Y04148D01*
X01467Y04144*
X01458Y04139*
X01496Y04102*
X01533Y04139*
X01524Y04144*
X0151Y04148*
X01496Y04149*
G37*
G36*
X01062Y04425D02*
X01044Y04423D01*
X01026Y04418*
X01011Y0441*
X01062Y04358*
X01114Y0441*
X01099Y04418*
X01081Y04423*
X01062Y04425*
G37*
G36*
X00983Y04382D02*
X00975Y04367D01*
X00969Y04349*
X00968Y0433*
X00969Y04312*
X00975Y04294*
X00983Y04279*
X01035Y0433*
X00983Y04382*
G37*
G36*
X01142D02*
X0109Y0433D01*
X01142Y04279*
X0115Y04294*
X01156Y04312*
X01157Y0433*
X01156Y04349*
X0115Y04367*
X01142Y04382*
G37*
G36*
X02598Y02137D02*
X02586Y02126D01*
X02587Y02125*
X02598Y02124*
X02609Y02125*
X02609Y02126*
X02598Y02137*
G37*
G36*
Y02255D02*
X02586Y02244D01*
X02587Y02243*
X02598Y02242*
X02609Y02243*
X02609Y02244*
X02598Y02255*
G37*
G36*
X02696Y02196D02*
X02685Y02185D01*
X02686Y02184*
X02696Y02183*
X02707Y02184*
X02708Y02185*
X02696Y02196*
G37*
G36*
X02598Y02206D02*
X02587Y02205D01*
X02586Y02204*
X02598Y02193*
X02609Y02204*
X02609Y02205*
X02598Y02206*
G37*
G36*
X02657Y02235D02*
X02657Y02235D01*
X02655Y02224*
X02657Y02213*
X02657Y02212*
X02669Y02224*
X02657Y02235*
G37*
G36*
X02736D02*
X02724Y02224D01*
X02736Y02212*
X02736Y02213*
X02737Y02224*
X02736Y02235*
X02736Y02235*
G37*
G36*
X02637Y02176D02*
X02626Y02165D01*
X02637Y02153*
X02638Y02154*
X02639Y02165*
X02638Y02175*
X02637Y02176*
G37*
G36*
X02559D02*
X02558Y02175D01*
X02557Y02165*
X02558Y02154*
X02559Y02153*
X0257Y02165*
X02559Y02176*
G37*
G36*
X01431Y03403D02*
X01426Y03394D01*
X01422Y0338*
X0142Y03366*
Y03326*
X01422Y03312*
X01426Y03297*
X01431Y03289*
X01482Y0334*
X01496Y03326*
X0151Y0334*
X01561Y03289*
X01565Y03297*
X01569Y03312*
X01571Y03326*
Y03366*
X01569Y0338*
X01565Y03394*
X01561Y03403*
X0151Y03352*
X01496Y03366*
X01482Y03352*
X01431Y03403*
G37*
G36*
X01496Y03441D02*
X01481Y03439D01*
X01467Y03435*
X01458Y03431*
X01496Y03393*
X01533Y03431*
X01524Y03435*
X0151Y03439*
X01496Y03441*
G37*
G36*
Y03298D02*
X01458Y03261D01*
X01467Y03257*
X01481Y03253*
X01496Y03251*
X0151Y03253*
X01524Y03257*
X01533Y03261*
X01496Y03298*
G37*
G36*
X02657Y02354D02*
X02657Y02353D01*
X02655Y02342*
X02657Y02331*
X02657Y02331*
X02669Y02342*
X02657Y02354*
G37*
G36*
X02736D02*
X02724Y02342D01*
X02736Y02331*
X02736Y02331*
X02737Y02342*
X02736Y02353*
X02736Y02354*
G37*
G36*
X02598Y02373D02*
X02586Y02362D01*
X02587Y02361*
X02598Y0236*
X02609Y02361*
X02609Y02362*
X02598Y02373*
G37*
G36*
X02637Y02413D02*
X02626Y02401D01*
X02637Y0239*
X02638Y0239*
X02639Y02401*
X02638Y02412*
X02637Y02413*
G37*
G36*
X02598Y02442D02*
X02587Y02441D01*
X02586Y0244*
X02598Y02429*
X02609Y0244*
X02609Y02441*
X02598Y02442*
G37*
G36*
X02696Y02383D02*
X02686Y02382D01*
X02685Y02381*
X02696Y0237*
X02708Y02381*
X02707Y02382*
X02696Y02383*
G37*
G36*
X02559Y02413D02*
X02558Y02412D01*
X02557Y02401*
X02558Y0239*
X02559Y0239*
X0257Y02401*
X02559Y02413*
G37*
G36*
Y02294D02*
X02558Y02294D01*
X02557Y02283*
X02558Y02272*
X02559Y02271*
X0257Y02283*
X02559Y02294*
G37*
G36*
X02637D02*
X02626Y02283D01*
X02637Y02271*
X02638Y02272*
X02639Y02283*
X02638Y02294*
X02637Y02294*
G37*
G36*
X02696Y02265D02*
X02686Y02264D01*
X02685Y02263*
X02696Y02252*
X02708Y02263*
X02707Y02264*
X02696Y02265*
G37*
G36*
X02598Y02324D02*
X02587Y02323D01*
X02586Y02322*
X02598Y02311*
X02609Y02322*
X02609Y02323*
X02598Y02324*
G37*
G36*
X02696Y02314D02*
X02685Y02303D01*
X02686Y02302*
X02696Y02301*
X02707Y02302*
X02708Y02303*
X02696Y02314*
G37*
G36*
X0122Y01142D02*
X01195Y0114D01*
X01171Y01134*
X01148Y01125*
X01127Y01112*
X01108Y01095*
X01092Y01077*
X01079Y01055*
X0107Y01033*
X01064Y01008*
X01062Y00984*
X01064Y00959*
X0107Y00935*
X01079Y00912*
X01092Y00891*
X01108Y00872*
X01127Y00856*
X01148Y00843*
X01171Y00834*
X01195Y00828*
X0122Y00826*
X01245Y00828*
X01269Y00834*
X01292Y00843*
X01313Y00856*
X01332Y00872*
X01348Y00891*
X01361Y00912*
X0137Y00935*
X01376Y00959*
X01378Y00984*
X01376Y01008*
X0137Y01033*
X01361Y01055*
X01348Y01077*
X01332Y01095*
X01313Y01112*
X01292Y01125*
X01269Y01134*
X01245Y0114*
X0122Y01142*
G37*
G36*
X00866Y01102D02*
X00844Y01101D01*
X00823Y01096*
X00803Y01087*
X00784Y01076*
X00768Y01062*
X00754Y01045*
X00742Y01027*
X00734Y01007*
X00729Y00986*
X00727Y00964*
X00729Y00942*
X00734Y00921*
X00742Y00901*
X00754Y00883*
X00768Y00866*
X00784Y00852*
X00803Y00841*
X00823Y00833*
X00844Y00828*
X00866Y00826*
X00887Y00828*
X00908Y00833*
X00928Y00841*
X00947Y00852*
X00963Y00866*
X00977Y00883*
X00989Y00901*
X00997Y00921*
X01002Y00942*
X01004Y00964*
X01002Y00986*
X00997Y01007*
X00989Y01027*
X00977Y01045*
X00963Y01062*
X00947Y01076*
X00928Y01087*
X00908Y01096*
X00887Y01101*
X00866Y01102*
G37*
G36*
X03616Y01153D02*
X0347D01*
X03457Y01152*
X0345Y01149*
X03484Y01116*
X0347Y01102*
X03484Y01088*
X0345Y01055*
X03457Y01052*
X0347Y0105*
X03616*
X03629Y01052*
X03635Y01055*
X03602Y01088*
X03616Y01102*
X03602Y01116*
X03635Y01149*
X03629Y01152*
X03616Y01153*
G37*
G36*
X00885Y02157D02*
X00885Y02156D01*
X00884Y02145*
X00885Y02135*
X00885Y02134*
X00897Y02145*
X00885Y02157*
G37*
G36*
X00925Y02235D02*
X00913Y02224D01*
X00914Y02224*
X00925Y02222*
X00935Y02224*
X00936Y02224*
X00925Y02235*
G37*
G36*
X00826Y02245D02*
X00816Y02244D01*
X00815Y02244*
X00826Y02232*
X00838Y02244*
X00837Y02244*
X00826Y02245*
G37*
G36*
Y02127D02*
X00816Y02126D01*
X00815Y02125*
X00826Y02114*
X00838Y02125*
X00837Y02126*
X00826Y02127*
G37*
G36*
X00925Y02186D02*
X00914Y02185D01*
X00913Y02185*
X00925Y02173*
X00936Y02185*
X00935Y02185*
X00925Y02186*
G37*
G36*
X00787Y02216D02*
X00787Y02215D01*
X00785Y02204*
X00787Y02194*
X00787Y02193*
X00798Y02204*
X00787Y02216*
G37*
G36*
X00866D02*
X00854Y02204D01*
X00866Y02193*
X00866Y02194*
X00867Y02204*
X00866Y02215*
X00866Y02216*
G37*
G36*
X00826Y02176D02*
X00815Y02165D01*
X00816Y02165*
X00826Y02163*
X00837Y02165*
X00838Y02165*
X00826Y02176*
G37*
G36*
X00964Y02157D02*
X00953Y02145D01*
X00964Y02134*
X00964Y02135*
X00966Y02145*
X00964Y02156*
X00964Y02157*
G37*
G36*
X00925Y02117D02*
X00913Y02106D01*
X00914Y02105*
X00925Y02104*
X00935Y02105*
X00936Y02106*
X00925Y02117*
G37*
G36*
X01854Y01739D02*
Y01645D01*
X01901Y01692*
X01854Y01739*
G37*
G36*
X02003D02*
X01956Y01692D01*
X02003Y01645*
Y01739*
G37*
G36*
X01259Y01665D02*
X01212Y01618D01*
X01306*
X01259Y01665*
G37*
G36*
X01929D02*
X01882Y01618D01*
X01976*
X01929Y01665*
G37*
G36*
X01976Y01767D02*
X01882D01*
X01929Y0172*
X01976Y01767*
G37*
G36*
X01334Y01739D02*
X01287Y01692D01*
X01334Y01645*
Y01739*
G37*
G36*
X01185D02*
Y01645D01*
X01232Y01692*
X01185Y01739*
G37*
G36*
X00826Y02058D02*
X00815Y02047D01*
X00816Y02046*
X00826Y02045*
X00837Y02046*
X00838Y02047*
X00826Y02058*
G37*
G36*
X00787Y02098D02*
X00787Y02097D01*
X00785Y02086*
X00787Y02075*
X00787Y02075*
X00798Y02086*
X00787Y02098*
G37*
G36*
X00866D02*
X00854Y02086D01*
X00866Y02075*
X00866Y02075*
X00867Y02086*
X00866Y02097*
X00866Y02098*
G37*
G36*
X01306Y01767D02*
X01212D01*
X01259Y0172*
X01306Y01767*
G37*
G36*
X00826Y02363D02*
X00816Y02362D01*
X00815Y02362*
X00826Y0235*
X00838Y02362*
X00837Y02362*
X00826Y02363*
G37*
G36*
X00866Y02334D02*
X00854Y02322D01*
X00866Y02311*
X00866Y02312*
X00867Y02322*
X00866Y02333*
X00866Y02334*
G37*
G36*
X00964Y02275D02*
X00953Y02263D01*
X00964Y02252*
X00964Y02253*
X00966Y02263*
X00964Y02274*
X00964Y02275*
G37*
G36*
X00885D02*
X00885Y02274D01*
X00884Y02263*
X00885Y02253*
X00885Y02252*
X00897Y02263*
X00885Y02275*
G37*
G36*
X00826Y02295D02*
X00815Y02283D01*
X00816Y02283*
X00826Y02281*
X00837Y02283*
X00838Y02283*
X00826Y02295*
G37*
G36*
X00787Y02334D02*
X00787Y02333D01*
X00785Y02322*
X00787Y02312*
X00787Y02311*
X00798Y02322*
X00787Y02334*
G37*
G36*
X00925Y02304D02*
X00914Y02303D01*
X00913Y02303*
X00925Y02291*
X00936Y02303*
X00935Y02303*
X00925Y02304*
G37*
G36*
X01306Y02751D02*
X01212D01*
X01259Y02705*
X01306Y02751*
G37*
G36*
X01976D02*
X01882D01*
X01929Y02705*
X01976Y02751*
G37*
G36*
X01259Y02649D02*
X01212Y02602D01*
X01306*
X01259Y02649*
G37*
G36*
X01185Y02724D02*
Y0263D01*
X01232Y02677*
X01185Y02724*
G37*
G36*
X01334D02*
X01287Y02677D01*
X01334Y0263*
Y02724*
G37*
G36*
X02003D02*
X01956Y02677D01*
X02003Y0263*
Y02724*
G37*
G36*
X01929Y02649D02*
X01882Y02602D01*
X01976*
X01929Y02649*
G37*
G36*
X01854Y02724D02*
Y0263D01*
X01901Y02677*
X01854Y02724*
G37*
G36*
X07086Y01122D02*
X07065Y0112D01*
X07043Y01115*
X07023Y01107*
X07005Y01096*
X06988Y01082*
X06974Y01065*
X06963Y01047*
X06955Y01026*
X0695Y01005*
X06948Y00984*
X0695Y00962*
X06955Y00941*
X06963Y00921*
X06974Y00902*
X06988Y00886*
X07005Y00872*
X07023Y00861*
X07043Y00852*
X07065Y00847*
X07086Y00846*
X07108Y00847*
X07129Y00852*
X07149Y00861*
X07167Y00872*
X07184Y00886*
X07198Y00902*
X07209Y00921*
X07218Y00941*
X07223Y00962*
X07224Y00984*
X07223Y01005*
X07218Y01026*
X07209Y01047*
X07198Y01065*
X07184Y01082*
X07167Y01096*
X07149Y01107*
X07129Y01115*
X07108Y0112*
X07086Y01122*
G37*
G36*
X06496Y01427D02*
X06481Y01426D01*
X06467Y01421*
X06454Y01414*
X06442Y01405*
X06433Y01394*
X06426Y01381*
X06422Y01367*
X0642Y01352*
Y01206*
X06422Y01192*
X06426Y01177*
X06433Y01164*
X06442Y01153*
X06454Y01144*
X06467Y01137*
X06481Y01132*
X06496Y01131*
X0651Y01132*
X06524Y01137*
X06537Y01144*
X06549Y01153*
X06558Y01164*
X06565Y01177*
X06569Y01192*
X06571Y01206*
Y01352*
X06569Y01367*
X06565Y01381*
X06558Y01394*
X06549Y01405*
X06537Y01414*
X06524Y01421*
X0651Y01426*
X06496Y01427*
G37*
G36*
X06146Y01998D02*
X06146Y01998D01*
X06145Y01988*
X06146Y01977*
X06146Y01977*
X06157Y01988*
X06146Y01998*
G37*
G36*
X07086Y04902D02*
X07065Y049D01*
X07043Y04895*
X07023Y04886*
X07005Y04875*
X06988Y04861*
X06974Y04845*
X06963Y04826*
X06955Y04806*
X0695Y04785*
X06948Y04763*
X0695Y04742*
X06955Y04721*
X06963Y04701*
X06974Y04682*
X06988Y04666*
X07005Y04651*
X07023Y0464*
X07043Y04632*
X07065Y04627*
X07086Y04625*
X07108Y04627*
X07129Y04632*
X07149Y0464*
X07167Y04651*
X07184Y04666*
X07198Y04682*
X07209Y04701*
X07218Y04721*
X07223Y04742*
X07224Y04763*
X07223Y04785*
X07218Y04806*
X07209Y04826*
X07198Y04845*
X07184Y04861*
X07167Y04875*
X07149Y04886*
X07129Y04895*
X07108Y049*
X07086Y04902*
G37*
G36*
X05724Y04157D02*
X05692D01*
X0568Y04156*
X05668Y04152*
X05657Y04147*
X05648Y04139*
X0564Y04129*
X05634Y04118*
X05632Y04112*
X05627*
X05625Y04118*
X05619Y04129*
X05611Y04139*
X05602Y04147*
X05591Y04152*
X05579Y04156*
X05566Y04157*
X05535*
X05523Y04156*
X05511Y04152*
X055Y04147*
X0549Y04139*
X05482Y04129*
X05476Y04118*
X05473Y04106*
X05472Y04094*
X05473Y04082*
X05476Y0407*
X05482Y04059*
X0549Y04049*
X055Y04041*
X05511Y04036*
X05523Y04032*
X05535Y04031*
X05566*
X05579Y04032*
X05591Y04036*
X05602Y04041*
X05611Y04049*
X05619Y04059*
X05625Y0407*
X05627Y04076*
X05632*
X05634Y0407*
X0564Y04059*
X05648Y04049*
X05657Y04041*
X05668Y04036*
X0568Y04032*
X05692Y04031*
X05724*
X05736Y04032*
X05748Y04036*
X05759Y04041*
X05769Y04049*
X05777Y04059*
X05782Y0407*
X05786Y04082*
X05787Y04094*
X05786Y04106*
X05782Y04118*
X05777Y04129*
X05769Y04139*
X05759Y04147*
X05748Y04152*
X05736Y04156*
X05724Y04157*
G37*
G36*
X06474Y0431D02*
X06471Y04304D01*
X0647Y04291*
X06471Y04277*
X06474Y04271*
X06493Y04291*
X06474Y0431*
G37*
G36*
X02755Y01555D02*
X02744Y01554D01*
X02733Y0155*
X0273Y01549*
X02755Y01523*
X02781Y01549*
X02778Y0155*
X02767Y01554*
X02755Y01555*
G37*
G36*
Y01468D02*
X0273Y01442D01*
X02733Y01441*
X02744Y01437*
X02755Y01436*
X02767Y01437*
X02778Y01441*
X02781Y01442*
X02755Y01468*
G37*
G36*
X02702Y01521D02*
X02701Y01518D01*
X02697Y01507*
X02696Y01496*
X02697Y01484*
X02701Y01473*
X02702Y0147*
X02728Y01496*
X02702Y01521*
G37*
G36*
X02809D02*
X02783Y01496D01*
X02809Y0147*
X0281Y01473*
X02814Y01484*
X02815Y01496*
X02814Y01507*
X0281Y01518*
X02809Y01521*
G37*
G36*
X03346Y03357D02*
X03346Y03357D01*
X03344Y03346*
X03346Y03335*
X03346Y03334*
X03357Y03346*
X03346Y03357*
G37*
G36*
X03425D02*
X03413Y03346D01*
X03425Y03334*
X03425Y03335*
X03426Y03346*
X03425Y03357*
X03425Y03357*
G37*
G36*
X03385Y03318D02*
X03374Y03307D01*
X03375Y03306*
X03385Y03305*
X03396Y03306*
X03397Y03307*
X03385Y03318*
G37*
G36*
Y03387D02*
X03375Y03386D01*
X03374Y03385*
X03385Y03374*
X03397Y03385*
X03396Y03386*
X03385Y03387*
G37*
G36*
X0185Y04302D02*
X01798Y04251D01*
X01814Y04242*
X01831Y04237*
X0185Y04235*
X01868Y04237*
X01886Y04242*
X01902Y04251*
X0185Y04302*
G37*
G36*
X01929Y04382D02*
X01878Y0433D01*
X01929Y04279*
X01938Y04294*
X01943Y04312*
X01945Y0433*
X01943Y04349*
X01938Y04367*
X01929Y04382*
G37*
G36*
X0185Y04425D02*
X01831Y04423D01*
X01814Y04418*
X01798Y0441*
X0185Y04358*
X01902Y0441*
X01886Y04418*
X01868Y04423*
X0185Y04425*
G37*
G36*
X0177Y04382D02*
X01762Y04367D01*
X01757Y04349*
X01755Y0433*
X01757Y04312*
X01762Y04294*
X0177Y04279*
X01822Y0433*
X0177Y04382*
G37*
G36*
X04212Y02373D02*
X04212Y02372D01*
X0421Y02362*
X04212Y02351*
X04212Y0235*
X04224Y02362*
X04212Y02373*
G37*
G36*
X04291D02*
X04279Y02362D01*
X04291Y0235*
X04291Y02351*
X04293Y02362*
X04291Y02372*
X04291Y02373*
G37*
G36*
X04251Y02334D02*
X0424Y02322D01*
X04241Y02322*
X04251Y02321*
X04262Y02322*
X04263Y02322*
X04251Y02334*
G37*
G36*
Y02452D02*
X0424Y0244D01*
X04241Y0244*
X04251Y02439*
X04262Y0244*
X04263Y0244*
X04251Y02452*
G37*
G36*
Y02403D02*
X04241Y02401D01*
X0424Y02401*
X04251Y0239*
X04263Y02401*
X04262Y02401*
X04251Y02403*
G37*
G36*
X04291Y02728D02*
X04279Y02716D01*
X04291Y02705*
X04291Y02705*
X04293Y02716*
X04291Y02727*
X04291Y02728*
G37*
G36*
X04251Y02757D02*
X04241Y02756D01*
X0424Y02755*
X04251Y02744*
X04263Y02755*
X04262Y02756*
X04251Y02757*
G37*
G36*
Y02806D02*
X0424Y02795D01*
X04241Y02794*
X04251Y02793*
X04262Y02794*
X04263Y02795*
X04251Y02806*
G37*
G36*
X04212Y02728D02*
X04212Y02727D01*
X0421Y02716*
X04212Y02705*
X04212Y02705*
X04224Y02716*
X04212Y02728*
G37*
G36*
Y02846D02*
X04212Y02845D01*
X0421Y02834*
X04212Y02824*
X04212Y02823*
X04224Y02834*
X04212Y02846*
G37*
G36*
X04291D02*
X04279Y02834D01*
X04291Y02823*
X04291Y02824*
X04293Y02834*
X04291Y02845*
X04291Y02846*
G37*
G36*
X04251Y02875D02*
X04241Y02874D01*
X0424Y02873*
X04251Y02862*
X04263Y02873*
X04262Y02874*
X04251Y02875*
G37*
G36*
Y02688D02*
X0424Y02677D01*
X04241Y02676*
X04251Y02675*
X04262Y02676*
X04263Y02677*
X04251Y02688*
G37*
G36*
Y0257D02*
X0424Y02559D01*
X04241Y02558*
X04251Y02557*
X04262Y02558*
X04263Y02559*
X04251Y0257*
G37*
G36*
X04212Y02609D02*
X04212Y02609D01*
X0421Y02598*
X04212Y02587*
X04212Y02586*
X04224Y02598*
X04212Y02609*
G37*
G36*
X04291D02*
X04279Y02598D01*
X04291Y02586*
X04291Y02587*
X04293Y02598*
X04291Y02609*
X04291Y02609*
G37*
G36*
X04212Y02491D02*
X04212Y0249D01*
X0421Y0248*
X04212Y02469*
X04212Y02468*
X04224Y0248*
X04212Y02491*
G37*
G36*
X04291D02*
X04279Y0248D01*
X04291Y02468*
X04291Y02469*
X04293Y0248*
X04291Y0249*
X04291Y02491*
G37*
G36*
X04251Y02521D02*
X04241Y0252D01*
X0424Y02519*
X04251Y02508*
X04263Y02519*
X04262Y0252*
X04251Y02521*
G37*
G36*
Y02639D02*
X04241Y02638D01*
X0424Y02637*
X04251Y02626*
X04263Y02637*
X04262Y02638*
X04251Y02639*
G37*
G36*
X04803Y02117D02*
X04791Y02106D01*
X04792Y02105*
X04803Y02104*
X04813Y02105*
X04814Y02106*
X04803Y02117*
G37*
G36*
X04763Y02157D02*
X04763Y02156D01*
X04762Y02145*
X04763Y02135*
X04763Y02134*
X04775Y02145*
X04763Y02157*
G37*
G36*
X04842D02*
X0483Y02145D01*
X04842Y02134*
X04842Y02135*
X04844Y02145*
X04842Y02156*
X04842Y02157*
G37*
G36*
X04291Y02137D02*
X04279Y02126D01*
X0428Y02125*
X04291Y02124*
X04301Y02125*
X04302Y02126*
X04291Y02137*
G37*
G36*
X04803Y02186D02*
X04792Y02185D01*
X04791Y02185*
X04803Y02173*
X04814Y02185*
X04813Y02185*
X04803Y02186*
G37*
G36*
X04291Y02206D02*
X0428Y02205D01*
X04279Y02204*
X04291Y02193*
X04302Y02204*
X04301Y02205*
X04291Y02206*
G37*
G36*
X0433Y02176D02*
X04319Y02165D01*
X0433Y02153*
X04331Y02154*
X04332Y02165*
X04331Y02175*
X0433Y02176*
G37*
G36*
X04252D02*
X04251Y02175D01*
X0425Y02165*
X04251Y02154*
X04252Y02153*
X04263Y02165*
X04252Y02176*
G37*
G36*
X04842Y02078D02*
X04842Y02077D01*
X0484Y02066*
X04842Y02056*
X04842Y02055*
X04854Y02066*
X04842Y02078*
G37*
G36*
X04921D02*
X04909Y02066D01*
X04921Y02055*
X04921Y02056*
X04922Y02066*
X04921Y02077*
X04921Y02078*
G37*
G36*
X0496Y02029D02*
X0495Y02027D01*
X04949Y02027*
X0496Y02016*
X04972Y02027*
X04971Y02027*
X0496Y02029*
G37*
G36*
X04803D02*
X04792Y02027D01*
X04791Y02027*
X04803Y02016*
X04814Y02027*
X04813Y02027*
X04803Y02029*
G37*
G36*
X04881Y02039D02*
X0487Y02027D01*
X04871Y02027*
X04881Y02025*
X04892Y02027*
X04893Y02027*
X04881Y02039*
G37*
G36*
Y02108D02*
X04871Y02106D01*
X0487Y02106*
X04881Y02094*
X04893Y02106*
X04892Y02106*
X04881Y02108*
G37*
G36*
X0496Y0196D02*
X04949Y01948D01*
X0495Y01948*
X0496Y01947*
X04971Y01948*
X04972Y01948*
X0496Y0196*
G37*
G36*
X04763Y01999D02*
X04763Y01998D01*
X04762Y01988*
X04763Y01977*
X04763Y01976*
X04775Y01988*
X04763Y01999*
G37*
G36*
X04803Y0196D02*
X04791Y01948D01*
X04792Y01948*
X04803Y01947*
X04813Y01948*
X04814Y01948*
X04803Y0196*
G37*
G36*
X04921Y01999D02*
X0492Y01998D01*
X04919Y01988*
X0492Y01977*
X04921Y01976*
X04932Y01988*
X04921Y01999*
G37*
G36*
X04842D02*
X0483Y01988D01*
X04842Y01976*
X04842Y01977*
X04844Y01988*
X04842Y01998*
X04842Y01999*
G37*
G36*
X04999D02*
X04988Y01988D01*
X04999Y01976*
X05Y01977*
X05001Y01988*
X05Y01998*
X04999Y01999*
G37*
G36*
X03677Y04594D02*
X0361Y04527D01*
X03677Y0446*
Y04594*
G37*
G36*
X03488D02*
Y0446D01*
X03554Y04527*
X03488Y04594*
G37*
G36*
X03649Y04622D02*
X03516D01*
X03582Y04555*
X03649Y04622*
G37*
G36*
X02795Y04735D02*
X02715Y04656D01*
X02716Y04655*
X02734Y04644*
X02753Y04636*
X02774Y04631*
X02795Y04629*
X02816Y04631*
X02836Y04636*
X02856Y04644*
X02874Y04655*
X02875Y04656*
X02795Y04735*
G37*
G36*
X02903Y04843D02*
X02823Y04763D01*
X02903Y04683*
X02903Y04684*
X02914Y04702*
X02922Y04722*
X02927Y04742*
X02929Y04763*
X02927Y04784*
X02922Y04805*
X02914Y04824*
X02903Y04842*
X02903Y04843*
G37*
G36*
X02795Y04898D02*
X02774Y04896D01*
X02753Y04891*
X02734Y04883*
X02716Y04872*
X02715Y04871*
X02795Y04791*
X02875Y04871*
X02874Y04872*
X02856Y04883*
X02836Y04891*
X02816Y04896*
X02795Y04898*
G37*
G36*
X02687Y04843D02*
X02686Y04842D01*
X02675Y04824*
X02667Y04805*
X02662Y04784*
X0266Y04763*
X02662Y04742*
X02667Y04722*
X02675Y04702*
X02686Y04684*
X02687Y04683*
X02767Y04763*
X02687Y04843*
G37*
G36*
X03582Y04499D02*
X03516Y04433D01*
X03649*
X03582Y04499*
G37*
G36*
X04114Y03328D02*
X04103Y03327D01*
X04102Y03326*
X04114Y03315*
X04125Y03326*
X04124Y03327*
X04114Y03328*
G37*
G36*
X03996D02*
X03985Y03327D01*
X03984Y03326*
X03996Y03315*
X04007Y03326*
X04006Y03327*
X03996Y03328*
G37*
G36*
X03582Y04106D02*
X0353Y04054D01*
X03546Y04046*
X03564Y0404*
X03582Y04038*
X03601Y0404*
X03619Y04046*
X03634Y04054*
X03582Y04106*
G37*
G36*
X03662Y04185D02*
X0361Y04133D01*
X03662Y04082*
X0367Y04097*
X03675Y04115*
X03677Y04133*
X03675Y04152*
X0367Y0417*
X03662Y04185*
G37*
G36*
X04153Y03298D02*
X04142Y03287D01*
X04153Y03275*
X04153Y03276*
X04155Y03287*
X04153Y03298*
X04153Y03298*
G37*
G36*
X04212Y0318D02*
X04201Y03169D01*
X04212Y03157*
X04212Y03158*
X04214Y03169*
X04212Y03179*
X04212Y0318*
G37*
G36*
X03937Y0321D02*
X03926Y03208D01*
X03925Y03208*
X03937Y03197*
X03948Y03208*
X03947Y03208*
X03937Y0321*
G37*
G36*
X04055D02*
X04044Y03208D01*
X04043Y03208*
X04055Y03197*
X04066Y03208*
X04065Y03208*
X04055Y0321*
G37*
G36*
X04133Y0318D02*
X04133Y03179D01*
X04132Y03169*
X04133Y03158*
X04133Y03157*
X04145Y03169*
X04133Y0318*
G37*
G36*
X03976D02*
X03964Y03169D01*
X03976Y03157*
X03976Y03158*
X03978Y03169*
X03976Y03179*
X03976Y0318*
G37*
G36*
X04094D02*
X04082Y03169D01*
X04094Y03157*
X04094Y03158*
X04096Y03169*
X04094Y03179*
X04094Y0318*
G37*
G36*
X04173Y0321D02*
X04162Y03208D01*
X04161Y03208*
X04173Y03197*
X04184Y03208*
X04183Y03208*
X04173Y0321*
G37*
G36*
X03956Y03298D02*
X03956Y03298D01*
X03954Y03287*
X03956Y03276*
X03956Y03275*
X03968Y03287*
X03956Y03298*
G37*
G36*
X04074D02*
X04074Y03298D01*
X04073Y03287*
X04074Y03276*
X04074Y03275*
X04086Y03287*
X04074Y03298*
G37*
G36*
X04035D02*
X04023Y03287D01*
X04035Y03275*
X04035Y03276*
X04037Y03287*
X04035Y03298*
X04035Y03298*
G37*
G36*
X03996Y03259D02*
X03984Y03248D01*
X03985Y03247*
X03996Y03246*
X04006Y03247*
X04007Y03248*
X03996Y03259*
G37*
G36*
X04114D02*
X04102Y03248D01*
X04103Y03247*
X04114Y03246*
X04124Y03247*
X04125Y03248*
X04114Y03259*
G37*
G36*
X00866Y04902D02*
X00844Y049D01*
X00823Y04895*
X00803Y04886*
X00784Y04875*
X00768Y04861*
X00754Y04845*
X00742Y04826*
X00734Y04806*
X00729Y04785*
X00727Y04763*
X00729Y04742*
X00734Y04721*
X00742Y04701*
X00754Y04682*
X00768Y04666*
X00784Y04651*
X00803Y0464*
X00823Y04632*
X00844Y04627*
X00866Y04625*
X00887Y04627*
X00908Y04632*
X00928Y0464*
X00947Y04651*
X00963Y04666*
X00977Y04682*
X00989Y04701*
X00997Y04721*
X01002Y04742*
X01004Y04763*
X01002Y04785*
X00997Y04806*
X00989Y04826*
X00977Y04845*
X00963Y04861*
X00947Y04875*
X00928Y04886*
X00908Y04895*
X00887Y049*
X00866Y04902*
G37*
G36*
X0122Y04735D02*
X0114Y04656D01*
X01141Y04655*
X01159Y04644*
X01178Y04636*
X01199Y04631*
X0122Y04629*
X01241Y04631*
X01261Y04636*
X01281Y04644*
X01299Y04655*
X013Y04656*
X0122Y04735*
G37*
G36*
Y04898D02*
X01199Y04896D01*
X01178Y04891*
X01159Y04883*
X01141Y04872*
X0114Y04871*
X0122Y04791*
X013Y04871*
X01299Y04872*
X01281Y04883*
X01261Y04891*
X01241Y04896*
X0122Y04898*
G37*
G36*
X01112Y04843D02*
X01111Y04842D01*
X011Y04824*
X01092Y04805*
X01087Y04784*
X01086Y04763*
X01087Y04742*
X01092Y04722*
X011Y04702*
X01111Y04684*
X01112Y04683*
X01192Y04763*
X01112Y04843*
G37*
G36*
X01328D02*
X01248Y04763D01*
X01328Y04683*
X01329Y04684*
X0134Y04702*
X01348Y04722*
X01353Y04742*
X01354Y04763*
X01353Y04784*
X01348Y04805*
X0134Y04824*
X01329Y04842*
X01328Y04843*
G37*
G36*
X03582Y04228D02*
X03564Y04226D01*
X03546Y04221*
X0353Y04213*
X03582Y04161*
X03634Y04213*
X03619Y04221*
X03601Y04226*
X03582Y04228*
G37*
G36*
X03503Y04185D02*
X03494Y0417D01*
X03489Y04152*
X03487Y04133*
X03489Y04115*
X03494Y04097*
X03503Y04082*
X03554Y04133*
X03503Y04185*
G37*
G36*
X04015Y0318D02*
X04015Y03179D01*
X04014Y03169*
X04015Y03158*
X04015Y03157*
X04027Y03169*
X04015Y0318*
G37*
G36*
X04055Y03141D02*
X04043Y03129D01*
X04044Y03129*
X04055Y03128*
X04065Y03129*
X04066Y03129*
X04055Y03141*
G37*
G36*
X04173D02*
X04161Y03129D01*
X04162Y03129*
X04173Y03128*
X04183Y03129*
X04184Y03129*
X04173Y03141*
G37*
G36*
X03897Y0318D02*
X03897Y03179D01*
X03895Y03169*
X03897Y03158*
X03897Y03157*
X03909Y03169*
X03897Y0318*
G37*
G36*
X03937Y03141D02*
X03925Y03129D01*
X03926Y03129*
X03937Y03128*
X03947Y03129*
X03948Y03129*
X03937Y03141*
G37*
%LNpcb4-3*%
%LPD*%
G54D33*
X06631Y02513D02*
X06647D01*
X06578Y0246D02*
X06631Y02513D01*
X05314Y01929D02*
Y0246D01*
X05511Y0187D02*
X05531D01*
X0561Y01948*
X05511Y02303D02*
X05531D01*
X0561Y02381*
X05236Y03641D02*
X05492Y03385D01*
X05019Y03779D02*
X05629Y03169D01*
X04803Y03779D02*
X04842D01*
X04665Y03917D02*
X04803Y03779D01*
X06437Y0246D02*
X06578D01*
X06476Y02575D02*
X06591D01*
X06496Y02795D02*
X06653D01*
X06476Y02775D02*
X06496Y02795D01*
X0562Y04891D02*
X06584D01*
X05492Y04763D02*
X0562Y04891D01*
X05078Y01453D02*
X05144D01*
X04878D02*
X05078D01*
Y01354D02*
Y01453D01*
X0624Y027D02*
X06318Y02778D01*
X05275Y01437D02*
X06259D01*
X05216Y01377D02*
X05275Y01437D01*
X04666Y01553D02*
X05078D01*
X04645Y01574D02*
X04666Y01553D01*
X05144Y01453D02*
X05187Y01496D01*
X04822Y01397D02*
X04878Y01453D01*
X04212Y01279D02*
X04527D01*
X04094Y01161D02*
X04212Y01279D01*
X04429Y01338D02*
X04468Y01377D01*
X04055Y01338D02*
X04429D01*
X04468Y01377D02*
Y01633D01*
X03976Y01417D02*
X04055Y01338D01*
X04035Y01555D02*
X04192Y01397D01*
X04094Y01594D02*
X04291Y01397D01*
X04035Y01555D02*
Y01751D01*
X04094Y01594D02*
Y01791D01*
X06259Y01437D02*
X06807Y01985D01*
X0622Y01496D02*
X06259Y01535D01*
X05187Y01496D02*
X0622D01*
X0522Y01551D02*
X06177D01*
X062Y01574*
X05364Y01604D02*
X05433D01*
X05255Y01712D02*
X05364Y01604D01*
X05452Y02637D02*
X0559D01*
X05137Y02952D02*
X05452Y02637D01*
X05137Y02952D02*
Y03169D01*
X06358Y0185D02*
Y01988D01*
Y02125*
X06584Y04891D02*
X06909Y04566D01*
X06555Y04842D02*
X0685Y04547D01*
X05767Y04842D02*
X06555D01*
X05649Y04724D02*
X05767Y04842D01*
X06525Y04793D02*
X06791Y04527D01*
X05954Y04793D02*
X06525D01*
X05885Y04724D02*
X05954Y04793D01*
X06742Y04261D02*
Y04478D01*
X06476Y04744D02*
X06742Y04478D01*
X06161Y04744D02*
X06476D01*
X05728Y04665D02*
Y04685D01*
Y04547D02*
Y04665D01*
X06358Y04606D02*
Y04625D01*
X05925Y04173D02*
X06358Y04606D01*
X05925Y03011D02*
Y04173D01*
X06437Y04547D02*
Y04665D01*
X06417Y04527D02*
X06437Y04547D01*
X06122Y04606D02*
Y04625D01*
X05866Y0435D02*
X06122Y04606D01*
X05866Y02992D02*
Y0435D01*
X062Y04547D02*
Y04665D01*
X06181Y04527D02*
X062Y04547D01*
X05885Y04606D02*
Y04665D01*
X05728Y04448D02*
X05885Y04606D01*
X05236Y04448D02*
X05728D01*
X06909Y03937D02*
Y04566D01*
X05649Y04665D02*
Y04724D01*
X0557Y04606D02*
X05649Y04685D01*
X05236Y04606D02*
X0557D01*
X05885Y04665D02*
Y04724D01*
X06633Y03661D02*
X06909Y03937D01*
X06594Y03661D02*
X06633D01*
X06043Y04291D02*
X06594D01*
X06102Y04094D02*
X06279Y03917D01*
Y03759D02*
Y03917D01*
Y03759D02*
X06535Y03503D01*
X06751D01*
X06476Y03366D02*
X06751D01*
X06102Y0374D02*
X06476Y03366D01*
X06259Y03228D02*
X06751D01*
X06102Y03385D02*
X06259Y03228D01*
X06161Y0309D02*
X06751D01*
X06102Y03031D02*
X06161Y0309D01*
X06122Y04704D02*
X06161Y04744D01*
X06122Y04665D02*
Y04704D01*
X05964Y04547D02*
Y04665D01*
X05944Y04527D02*
X05964Y04547D01*
X05708Y04527D02*
X05728Y04547D01*
X0685Y04015D02*
Y04547D01*
X06653Y03818D02*
X0685Y04015D01*
X06594Y03818D02*
X06653D01*
X06791Y04094D02*
Y04527D01*
X06673Y03976D02*
X06791Y04094D01*
X06594Y03976D02*
X06614D01*
Y04133D02*
X06742Y04261D01*
X06594Y04133D02*
X06614D01*
X06259Y02519D02*
X06318Y02578D01*
X06161Y02519D02*
X06259D01*
X06181Y01988D02*
Y02401D01*
X06082Y025D02*
X06181Y02401D01*
X06082Y025D02*
Y02755D01*
X06181Y01988D02*
X062Y01968D01*
X06161Y02598D02*
Y02736D01*
X062Y01574D02*
Y01968D01*
X0624Y02322D02*
X06338Y02421D01*
X0624Y02086D02*
Y02322D01*
X06299Y02874D02*
X06377D01*
X06161Y02736D02*
X06299Y02874D01*
X06377D02*
X06476Y02775D01*
X0624Y02086D02*
X06338Y01988D01*
X06082Y02755D02*
X06267Y0294D01*
X06259Y01751D02*
X06358Y0185D01*
X06255Y02952D02*
X06267Y0294D01*
X05984Y02952D02*
X06255D01*
X05925Y02893D02*
X06122D01*
X05492Y01653D02*
X05534D01*
X04606Y01692D02*
X04744D01*
X04586Y01751D02*
X04724D01*
X05137Y01712D02*
X05255D01*
X05098Y0183D02*
X05216D01*
X05314Y01929*
X05196Y01889D02*
Y01909D01*
X05059Y01948D02*
X05118Y01889D01*
X05059Y01948D02*
Y02175D01*
X05767Y02736D02*
X05925Y02578D01*
X05708Y02795D02*
X05767Y02736D01*
X05925Y02893*
Y03011D02*
X05984Y02952D01*
X05649Y02696D02*
X05708Y02637D01*
X05649Y02696D02*
Y02854D01*
X05708Y02913*
X05787*
X05866Y02992*
X03818Y01102D02*
Y01594D01*
X03858Y01633*
X05059Y02263D02*
Y02913D01*
Y02263D02*
X05118Y02204D01*
Y01988D02*
Y02204D01*
Y01988D02*
X05196Y01909D01*
X05255Y01712D02*
X05492Y01948D01*
Y02086*
X05187Y02155D02*
X05255Y02224D01*
Y02342*
X05157Y0244D02*
X05255Y02342D01*
X05137Y03169D02*
X05157Y03188D01*
X06318Y02755D02*
X06476Y02598D01*
X05157Y03188D02*
Y03267D01*
X05767Y01988D02*
Y02421D01*
Y02578*
X05708Y02637D02*
X05767Y02578D01*
X05925Y02421D02*
Y02578D01*
X05629Y03031D02*
Y03169D01*
X05019Y03779D02*
Y03917D01*
X05007Y03929D02*
Y04074D01*
X05098Y0435D02*
X05629Y03818D01*
X05098Y0435D02*
Y04645D01*
X05629Y03818D02*
X05708D01*
X05039Y04704D02*
X05098Y04645D01*
X05708Y03818D02*
X05787Y0374D01*
X05019Y0435D02*
X05629Y0374D01*
X05019Y0435D02*
Y04448D01*
X04862Y04704D02*
X05039D01*
X04807Y0465D02*
X04862Y04704D01*
X04807Y04606D02*
Y0465D01*
X04665Y03917D02*
D01*
X04507D02*
X05157Y03267D01*
X05492Y03385D02*
X05629D01*
X05007Y0446D02*
X05019Y04448D01*
X05007Y0446D02*
Y04606D01*
X04807Y04503D02*
X04862Y04448D01*
X04807Y04503D02*
Y04606D01*
X04607Y04506D02*
X04665Y04448D01*
X05007Y03929D02*
X05019Y03917D01*
X04807Y03971D02*
X04862Y03917D01*
X04807Y03971D02*
Y04074D01*
X04607Y03974D02*
X04665Y03917D01*
X04607Y03974D02*
Y04074D01*
X04507Y03917D02*
Y04074D01*
X06807Y01985D02*
X06909D01*
X06259Y01535D02*
Y01751D01*
X06358Y02125D02*
X06909D01*
X06299Y02185D02*
X06358Y02125D01*
X03484Y02224D02*
X03543D01*
X03444Y02637D02*
X03523D01*
X03287Y02795D02*
X03444Y02637D01*
X04586Y01476D02*
X04665Y01397D01*
X04586Y01476D02*
Y01594D01*
X04645Y01574D02*
D01*
X03543Y01102D02*
Y01417D01*
X0246Y02027D02*
Y02165D01*
Y02027D02*
X02992Y01496D01*
Y01102D02*
Y01496D01*
X03267Y01102D02*
Y01299D01*
X02598Y01968D02*
X03267Y01299D01*
X0561Y02381D02*
X05629D01*
X05492Y02086D02*
X05534D01*
X05629Y02181*
X0561Y01948D02*
X05629D01*
X05534Y01653D02*
X05629Y01748D01*
X03307Y02047D02*
X03484Y02224D01*
X03307Y02007D02*
Y02047D01*
X03976Y01417D02*
Y01515D01*
X04094Y01102D02*
Y01161D01*
X03582Y02145D02*
X03602Y02165D01*
Y02283*
X03208Y02677D02*
X03602Y02283D01*
X03208Y02677D02*
Y02874D01*
X04527Y01279D02*
Y01614D01*
X04606Y01692*
X04468Y01633D02*
X04586Y01751D01*
X03582Y01889D02*
Y02145D01*
Y01889D02*
X03622Y0185D01*
X04035*
X04094Y01791*
X03228Y0185D02*
X03287Y01791D01*
X03996*
X04035Y01751*
X03543Y01417D02*
X03799Y01673D01*
X03858Y01633D02*
Y01712D01*
X03838Y01732D02*
X03858Y01712D01*
X03267Y01732D02*
X03838D01*
X03228Y0185D02*
Y02066D01*
X03129Y0187D02*
X03267Y01732D01*
X03129Y0187D02*
Y03307D01*
X06476Y02575D02*
Y02598D01*
X06318Y02578D02*
X06437Y0246D01*
X04586Y01594D02*
X04625Y01633D01*
X05137*
X0522Y01551*
X04744Y01692D02*
X04803Y01751D01*
X04881*
X04724D02*
X04783Y01811D01*
X05039*
X05137Y01712*
X03641Y01909D02*
X0366Y01891D01*
X04052*
X04073Y0187*
X05059*
X05098Y0183*
X06673Y01279D02*
Y01574D01*
X0683Y01909D02*
X06909D01*
X06318Y01397D02*
X0683Y01909D01*
X06318Y01279D02*
Y01397D01*
X05078Y01354D02*
X05153Y01279D01*
X0561*
X06673Y01574D02*
X07047Y01948D01*
X06811Y02391D02*
X06988D01*
X07047Y02332*
Y01948D02*
Y02332D01*
X06722Y02342D02*
Y02421D01*
X06783Y02481*
X0682*
X06647Y02513D02*
X06715Y02581D01*
X06811*
X0682Y02591*
X06591Y02575D02*
X06697Y02681D01*
X0682*
X06653Y02781D02*
Y02795D01*
Y02781D02*
X06799D01*
X06811Y02793*
X06267Y0294D02*
X06761D01*
X0682Y02881*
X06842*
X06722Y02342D02*
X06761Y02303D01*
X06958*
X06968Y02312*
X06633Y02263D02*
X06653Y02244D01*
X07047*
G54D34*
X05492Y04763D02*
Y04783D01*
X05393Y04881D02*
X05492Y04783D01*
X04744Y04881D02*
X05393D01*
X04507Y04645D02*
X04744Y04881D01*
X05275Y04783D02*
X05354Y04704D01*
X04785Y04783D02*
X05275D01*
X04607Y04606D02*
X04785Y04783D01*
X04607Y04074D02*
Y04506D01*
X04507Y04074D02*
Y04448D01*
Y04606D02*
Y04645D01*
X04607Y04506D02*
Y04606D01*
X04507Y04448D02*
Y04606D01*
G54D51*
X0122Y04763D03*
G54D56*
X04724Y03464D03*
X02755Y01496D03*
G54D57*
X062Y04665D03*
X05728D03*
X05964D03*
X06437D03*
X05708Y02795D03*
Y02637D03*
X0559Y02795D03*
Y02637D03*
X05196Y03051D03*
Y02893D03*
X05187Y02312D03*
Y02155D03*
G54D58*
X06122Y04665D03*
X05649D03*
X05885D03*
X06358D03*
G54D59*
X00866Y00964D03*
Y04763D03*
X07086D03*
Y00984D03*
G54D60*
X0122Y00984D03*
X02362D03*
X02795Y04763D03*
X0122D03*
G54D61*
X02716Y01102D03*
X03543D03*
X02992D03*
X03818D03*
X03267D03*
X04094D03*
X06102Y04094D03*
Y0374D03*
Y03385D03*
Y03031D03*
X04429Y01102D03*
X04704D03*
X0498D03*
X05255D03*
X06594Y03661D03*
Y03818D03*
Y03976D03*
Y04133D03*
Y04291D03*
G54D62*
X05787Y01279D03*
X0561D03*
X06673D03*
X06496D03*
X06318D03*
X06141D03*
X05964D03*
G54D63*
X04822Y01397D03*
X04665D03*
X05925Y02421D03*
X05767D03*
X06358Y01988D03*
X062D03*
X05925D03*
X05767D03*
X05019Y03917D03*
X04862D03*
X04665D03*
X04507D03*
X05019Y04448D03*
X04862D03*
X04665D03*
X04507D03*
X05629Y0374D03*
X05787D03*
X03464Y02007D03*
X03307D03*
X05551Y04094D03*
X05708D03*
X03444Y02795D03*
X03287D03*
X05629Y03031D03*
X05787D03*
X05629Y03385D03*
X05787D03*
X06358Y02421D03*
X062D03*
G54D64*
X05078Y01453D03*
Y01553D03*
Y01653D03*
G54D65*
X04507Y04606D03*
X04607D03*
X04807D03*
X04907D03*
X05007D03*
X04507Y04074D03*
X04607D03*
X04807D03*
X04907D03*
X05007D03*
G54D66*
X03582Y04527D03*
G54D67*
X03582Y04133D03*
X01062Y0433D03*
X0185D03*
G54D68*
X01259Y02677D03*
Y01692D03*
X01929Y02677D03*
Y01692D03*
G54D69*
X01259Y02381D03*
Y01988D03*
X01929Y02381D03*
Y01988D03*
G54D70*
X05492Y04704D03*
X05354D03*
G54D71*
X06751Y0309D03*
Y03228D03*
Y03366D03*
Y03503D03*
G54D72*
X0682Y02881D03*
Y02781D03*
Y02681D03*
Y02581D03*
Y02481D03*
Y02381D03*
G54D73*
X05629Y02181D03*
X06318Y02778D03*
X06476Y02575D03*
X05629Y01748D03*
G54D74*
X05629Y02381D03*
X06318Y02578D03*
X06476Y02775D03*
X05629Y01948D03*
G54D75*
X01496Y04055D03*
Y03346D03*
G54D76*
X06397Y025D03*
X06653Y0246D03*
X05314D03*
X05511Y0187D03*
Y02303D03*
X03385Y03346D03*
X05236Y03641D03*
X04842Y03779D03*
X06653Y02795D03*
X0624Y027D03*
X05216Y01377D03*
X04192Y01397D03*
X04291D03*
X05433Y01604D03*
X06417Y04527D03*
X06181D03*
X05944D03*
X05708D03*
X06909Y01909D03*
X06161Y02519D03*
Y02598D03*
X06122Y02893D03*
X05492Y01653D03*
X05196Y01889D03*
X05118D03*
X05236Y04448D03*
Y04606D03*
X05059Y02913D03*
X05157Y0244D03*
X05059Y02175D03*
X05157Y03188D03*
X06909Y01985D03*
Y02125D03*
X06633Y02263D03*
X06299Y02185D03*
X03543Y02224D03*
X03523Y02637D03*
X00826Y02322D03*
X04645Y01574D03*
X02598Y01968D03*
X05492Y02086D03*
X06259Y01751D03*
X03208Y02874D03*
X03641Y01909D03*
X03976Y01515D03*
X03799Y01673D03*
X03228Y02066D03*
X00826Y02204D03*
Y02086D03*
X00925Y02263D03*
Y02145D03*
X01732Y02125D03*
X01496D03*
X01555Y02224D03*
X01614Y02125D03*
X01673Y02224D03*
X02696D03*
X02598Y02165D03*
Y02283D03*
Y02401D03*
X02696Y02342D03*
X04173Y03169D03*
X04055D03*
X03937D03*
X03996Y03287D03*
X04114D03*
X04251Y02362D03*
Y0248D03*
Y02598D03*
Y02716D03*
Y02834D03*
X04881Y01751D03*
X04291Y02165D03*
X04803Y01988D03*
X0496D03*
X04803Y02145D03*
X04881Y02066D03*
X06968Y02312D03*
G54D77*
X02854Y01003D02*
Y01397D01*
X02755Y01496D02*
X02854Y01397D01*
G54D78*
X01496Y03346D03*
G54D79*
X01496Y04064D03*
G54D80*
X0185Y0433D03*
G54D81*
X01062Y0433D03*
X03582Y04133D03*
Y04527D03*
G54D82*
X02795Y04763D03*
X02362Y00984D03*
M02*