G04 Layer_Physical_Order=2*
G04 Layer_Color=16711680*
%FSLAX44Y44*%
%MOMM*%
G71*
G01*
G75*
%ADD33C,0.6350*%
%ADD34C,1.2700*%
%ADD48R,8.0000X8.0000*%
%ADD62O,1.8000X2.4000*%
%ADD63R,1.2700X2.5400*%
%ADD64O,1.2700X2.5400*%
%ADD65O,3.0000X1.8000*%
%ADD66O,1.8000X3.0000*%
%ADD67C,3.0000*%
%ADD68R,3.0000X3.0000*%
%ADD69C,4.0000*%
%ADD70R,4.0000X4.0000*%
%ADD71O,3.0000X4.0000*%
%ADD72O,3.0480X1.5240*%
%ADD73O,2.0000X1.2000*%
%ADD74O,1.2000X2.0000*%
%ADD75O,2.6000X1.8000*%
%ADD76O,1.8000X5.5000*%
%ADD77O,5.5000X1.8000*%
%ADD78C,6.0000*%
%ADD79C,5.0000*%
%ADD80R,1.2000X2.0000*%
%ADD81C,0.5080*%
%ADD82C,1.2700*%
%ADD83C,0.5000*%
%ADD84R,8.0000X8.0000*%
%ADD85R,6.0000X6.0000*%
%ADD86R,6.0000X6.0000*%
%ADD87R,4.0000X6.0000*%
%ADD88R,4.0000X6.0000*%
G36*
X1202638Y1177261D02*
X1202475Y1176725D01*
X1202108Y1173000D01*
Y1167000D01*
X1202475Y1163275D01*
X1203561Y1159694D01*
X1205326Y1156393D01*
X1207700Y1153500D01*
X1207911Y1153326D01*
Y1143800D01*
X1208364Y1140361D01*
X1209692Y1137156D01*
X1211804Y1134404D01*
X1215038Y1131169D01*
X1214923Y1130000D01*
X1215231Y1126863D01*
X1216146Y1123847D01*
X1217632Y1121068D01*
X1219632Y1118632D01*
X1222068Y1116632D01*
X1224847Y1115146D01*
X1227863Y1114231D01*
X1231000Y1113923D01*
X1239000D01*
X1242137Y1114231D01*
X1245153Y1115146D01*
X1247932Y1116632D01*
X1250368Y1118632D01*
X1252368Y1121068D01*
X1253854Y1123847D01*
X1254336Y1125439D01*
X1255664D01*
X1256146Y1123847D01*
X1257632Y1121068D01*
X1259632Y1118632D01*
X1261711Y1116925D01*
Y1105000D01*
X1262164Y1101561D01*
X1263492Y1098356D01*
X1265603Y1095603D01*
X1410038Y951169D01*
X1409923Y950000D01*
X1410231Y946863D01*
X1411146Y943847D01*
X1412632Y941068D01*
X1414632Y938632D01*
X1417068Y936632D01*
X1419847Y935146D01*
X1422863Y934231D01*
X1426000Y933923D01*
X1434000D01*
X1437137Y934231D01*
X1440153Y935146D01*
X1442932Y936632D01*
X1445368Y938632D01*
X1447368Y941068D01*
X1448854Y943847D01*
X1449336Y945439D01*
X1450664D01*
X1451146Y943847D01*
X1452632Y941068D01*
X1454632Y938632D01*
X1457068Y936632D01*
X1459847Y935146D01*
X1462863Y934231D01*
X1466000Y933923D01*
X1474000D01*
X1475770Y934097D01*
X1476711Y933244D01*
Y871010D01*
X1475441Y869896D01*
X1474000Y870086D01*
X1466000D01*
X1463389Y869743D01*
X1463346Y869725D01*
X1469536Y863536D01*
X1466000Y860000D01*
X1469536Y856464D01*
X1463346Y850275D01*
X1463389Y850257D01*
X1466000Y849914D01*
X1474000D01*
X1475441Y850104D01*
X1476711Y848990D01*
Y786756D01*
X1475770Y785903D01*
X1474000Y786077D01*
X1466000D01*
X1462863Y785769D01*
X1459847Y784854D01*
X1457068Y783368D01*
X1454632Y781368D01*
X1452632Y778932D01*
X1451146Y776153D01*
X1450664Y774561D01*
X1449336D01*
X1448854Y776153D01*
X1447368Y778932D01*
X1445368Y781368D01*
X1443289Y783075D01*
Y805000D01*
X1442836Y808439D01*
X1441508Y811644D01*
X1439397Y814397D01*
X1408255Y845538D01*
X1408741Y846711D01*
X1416971D01*
X1417068Y846632D01*
X1419847Y845146D01*
X1422863Y844231D01*
X1426000Y843923D01*
X1434000D01*
X1437137Y844231D01*
X1440153Y845146D01*
X1442932Y846632D01*
X1445368Y848632D01*
X1447368Y851068D01*
X1448854Y853847D01*
X1449769Y856863D01*
X1450077Y860000D01*
X1449769Y863137D01*
X1448854Y866153D01*
X1447368Y868932D01*
X1445368Y871368D01*
X1442932Y873368D01*
X1440153Y874854D01*
X1437137Y875769D01*
X1434000Y876077D01*
X1426000D01*
X1422863Y875769D01*
X1419847Y874854D01*
X1417068Y873368D01*
X1416971Y873289D01*
X1400504D01*
X1346171Y927622D01*
X1346113Y928205D01*
X1345179Y931287D01*
X1343660Y934128D01*
X1341617Y936617D01*
X1339128Y938660D01*
X1336287Y940179D01*
X1333205Y941114D01*
X1330000Y941429D01*
X1326795Y941114D01*
X1323713Y940179D01*
X1320872Y938660D01*
X1318383Y936617D01*
X1317232Y936561D01*
X1288289Y965504D01*
Y981925D01*
X1290368Y983632D01*
X1292368Y986068D01*
X1293854Y988847D01*
X1294769Y991863D01*
X1295078Y995000D01*
X1294769Y998137D01*
X1293854Y1001153D01*
X1292368Y1003932D01*
X1290368Y1006368D01*
X1287932Y1008368D01*
X1285289Y1009781D01*
Y1018326D01*
X1285500Y1018500D01*
X1287874Y1021393D01*
X1289639Y1024694D01*
X1290725Y1028275D01*
X1291092Y1032000D01*
Y1038000D01*
X1290725Y1041725D01*
X1289639Y1045306D01*
X1287874Y1048607D01*
X1285500Y1051500D01*
X1282607Y1053874D01*
X1279306Y1055639D01*
X1275725Y1056725D01*
X1272000Y1057092D01*
X1268275Y1056725D01*
X1264694Y1055639D01*
X1261393Y1053874D01*
X1258500Y1051500D01*
X1256126Y1048607D01*
X1254361Y1045306D01*
X1253275Y1041725D01*
X1252908Y1038000D01*
Y1032000D01*
X1253275Y1028275D01*
X1254361Y1024694D01*
X1256126Y1021393D01*
X1258500Y1018500D01*
X1258711Y1018326D01*
Y1005247D01*
X1257632Y1003932D01*
X1256146Y1001153D01*
X1255664Y999561D01*
X1254336D01*
X1253854Y1001153D01*
X1252368Y1003932D01*
X1250368Y1006368D01*
X1247932Y1008368D01*
X1245153Y1009854D01*
X1242137Y1010769D01*
X1239000Y1011077D01*
X1237716D01*
X1234489Y1014304D01*
Y1018326D01*
X1234700Y1018500D01*
X1237074Y1021393D01*
X1238839Y1024694D01*
X1239925Y1028275D01*
X1240292Y1032000D01*
Y1038000D01*
X1239925Y1041725D01*
X1238839Y1045306D01*
X1237074Y1048607D01*
X1234700Y1051500D01*
X1231807Y1053874D01*
X1228506Y1055639D01*
X1224925Y1056725D01*
X1221200Y1057092D01*
X1217475Y1056725D01*
X1213894Y1055639D01*
X1210593Y1053874D01*
X1207700Y1051500D01*
X1205326Y1048607D01*
X1203561Y1045306D01*
X1202475Y1041725D01*
X1202108Y1038000D01*
Y1032000D01*
X1202475Y1028275D01*
X1203561Y1024694D01*
X1205326Y1021393D01*
X1207700Y1018500D01*
X1207911Y1018326D01*
Y1008800D01*
X1208364Y1005361D01*
X1209692Y1002156D01*
X1211804Y999404D01*
X1215038Y996169D01*
X1214923Y995000D01*
X1215231Y991863D01*
X1216146Y988847D01*
X1217632Y986068D01*
X1219632Y983632D01*
X1222068Y981632D01*
X1224847Y980146D01*
X1227863Y979231D01*
X1231000Y978923D01*
X1239000D01*
X1242137Y979231D01*
X1245153Y980146D01*
X1247932Y981632D01*
X1250368Y983632D01*
X1252368Y986068D01*
X1253854Y988847D01*
X1254336Y990439D01*
X1255664D01*
X1256146Y988847D01*
X1257632Y986068D01*
X1259632Y983632D01*
X1261711Y981925D01*
Y960000D01*
X1262164Y956561D01*
X1263492Y953356D01*
X1265603Y950603D01*
X1416711Y799496D01*
Y783075D01*
X1414632Y781368D01*
X1412632Y778932D01*
X1411146Y776153D01*
X1410231Y773137D01*
X1409923Y770000D01*
X1410231Y766863D01*
X1411146Y763847D01*
X1412632Y761068D01*
X1414632Y758632D01*
X1417068Y756632D01*
X1419847Y755146D01*
X1422863Y754231D01*
X1426000Y753923D01*
X1434000D01*
X1437137Y754231D01*
X1440153Y755146D01*
X1442932Y756632D01*
X1445368Y758632D01*
X1447368Y761068D01*
X1448854Y763847D01*
X1449336Y765439D01*
X1450664D01*
X1451146Y763847D01*
X1452632Y761068D01*
X1454632Y758632D01*
X1457068Y756632D01*
X1459847Y755146D01*
X1461785Y754559D01*
X1461597Y753289D01*
X1450000D01*
X1446561Y752836D01*
X1443356Y751508D01*
X1440603Y749397D01*
X1425603Y734397D01*
X1423492Y731644D01*
X1422731Y729808D01*
X1420000Y730077D01*
X1416864Y729769D01*
X1413848Y728854D01*
X1411068Y727368D01*
X1408632Y725368D01*
X1406632Y722932D01*
X1405146Y720153D01*
X1404232Y717137D01*
X1403923Y714000D01*
Y706000D01*
X1404232Y702863D01*
X1405146Y699847D01*
X1406632Y697068D01*
X1408632Y694632D01*
X1411068Y692632D01*
X1413848Y691146D01*
X1415439Y690664D01*
Y689336D01*
X1413848Y688854D01*
X1411068Y687368D01*
X1408632Y685368D01*
X1406925Y683289D01*
X1390504D01*
X1336077Y737716D01*
Y739000D01*
X1335768Y742137D01*
X1334854Y745153D01*
X1333368Y747932D01*
X1331369Y750368D01*
X1328932Y752368D01*
X1326153Y753854D01*
X1323136Y754769D01*
X1320000Y755077D01*
X1319356Y755014D01*
X1318289Y756003D01*
Y760176D01*
X1319244Y761013D01*
X1320000Y760914D01*
X1322610Y761257D01*
X1322654Y761275D01*
X1318289Y765640D01*
Y769289D01*
X1323535Y774536D01*
X1329725Y768346D01*
X1329743Y768390D01*
X1330086Y771000D01*
Y779000D01*
X1329743Y781610D01*
X1329725Y781654D01*
X1323535Y775464D01*
X1318289Y780711D01*
Y784360D01*
X1322654Y788725D01*
X1322610Y788743D01*
X1320000Y789086D01*
X1319244Y788987D01*
X1318289Y789824D01*
Y795891D01*
X1319128Y796340D01*
X1321617Y798383D01*
X1323660Y800872D01*
X1325179Y803713D01*
X1326113Y806795D01*
X1326429Y810000D01*
X1326113Y813205D01*
X1325179Y816287D01*
X1323660Y819128D01*
X1323289Y819580D01*
Y830000D01*
X1322836Y833439D01*
X1321508Y836644D01*
X1319397Y839397D01*
X1181858Y976935D01*
X1182292Y978297D01*
X1182820Y978387D01*
X1210603Y950603D01*
X1213356Y948492D01*
X1216561Y947164D01*
X1220000Y946711D01*
X1220420D01*
X1220872Y946340D01*
X1223713Y944821D01*
X1226795Y943887D01*
X1230000Y943571D01*
X1233205Y943887D01*
X1236287Y944821D01*
X1239128Y946340D01*
X1241617Y948383D01*
X1243660Y950872D01*
X1245179Y953713D01*
X1246114Y956795D01*
X1246429Y960000D01*
X1246114Y963205D01*
X1245179Y966287D01*
X1243660Y969128D01*
X1241617Y971617D01*
X1239128Y973660D01*
X1236287Y975179D01*
X1233205Y976114D01*
X1230000Y976429D01*
X1226795Y976114D01*
X1223713Y975179D01*
X1223649Y975144D01*
X1204962Y993831D01*
X1205078Y995000D01*
X1204769Y998137D01*
X1203854Y1001153D01*
X1202368Y1003932D01*
X1200368Y1006368D01*
X1197932Y1008368D01*
X1195153Y1009854D01*
X1192137Y1010769D01*
X1189000Y1011077D01*
X1187716D01*
X1183689Y1015104D01*
Y1018326D01*
X1183900Y1018500D01*
X1186274Y1021393D01*
X1188039Y1024694D01*
X1189125Y1028275D01*
X1189492Y1032000D01*
Y1038000D01*
X1189125Y1041725D01*
X1188039Y1045306D01*
X1186829Y1047569D01*
Y1113923D01*
X1189000D01*
X1192137Y1114231D01*
X1195153Y1115146D01*
X1197932Y1116632D01*
X1200368Y1118632D01*
X1202368Y1121068D01*
X1203854Y1123847D01*
X1204769Y1126863D01*
X1205078Y1130000D01*
X1204769Y1133137D01*
X1203854Y1136153D01*
X1202368Y1138932D01*
X1200368Y1141368D01*
X1197932Y1143368D01*
X1195153Y1144854D01*
X1192137Y1145769D01*
X1189000Y1146077D01*
X1187716D01*
X1186829Y1146964D01*
Y1157431D01*
X1188039Y1159694D01*
X1189125Y1163275D01*
X1189367Y1165733D01*
X1201548Y1177914D01*
X1202638Y1177261D01*
D02*
G37*
G36*
X279345Y1140000D02*
X280000Y1139914D01*
X400086Y1139914D01*
X410000Y1130000D01*
Y1010000D01*
X400000Y1000000D01*
X200000D01*
X180000Y1020000D01*
Y1120000D01*
X200000Y1140000D01*
X279345D01*
D02*
G37*
G36*
X1303923Y732284D02*
Y731000D01*
X1304232Y727863D01*
X1305146Y724847D01*
X1306632Y722068D01*
X1308631Y719632D01*
X1311068Y717632D01*
X1313847Y716146D01*
X1316864Y715231D01*
X1320000Y714923D01*
X1321169Y715038D01*
X1375603Y660603D01*
X1378356Y658492D01*
X1381561Y657164D01*
X1385000Y656711D01*
X1406925D01*
X1408632Y654632D01*
X1411068Y652632D01*
X1413848Y651146D01*
X1416864Y650231D01*
X1420000Y649923D01*
X1423137Y650231D01*
X1426153Y651146D01*
X1428932Y652632D01*
X1431369Y654632D01*
X1433368Y657068D01*
X1434280Y658774D01*
X1435720D01*
X1436632Y657068D01*
X1438632Y654632D01*
X1441068Y652632D01*
X1443848Y651146D01*
X1446864Y650231D01*
X1450000Y649923D01*
X1450644Y649986D01*
X1451711Y648997D01*
Y628075D01*
X1449632Y626368D01*
X1447632Y623932D01*
X1447582Y623838D01*
X1446350Y624147D01*
Y627700D01*
X1413650D01*
Y612443D01*
X1402400Y601193D01*
X1400000Y601429D01*
X1396795Y601114D01*
X1393713Y600178D01*
X1390872Y598660D01*
X1388383Y596617D01*
X1386340Y594128D01*
X1384821Y591287D01*
X1383887Y588205D01*
X1383571Y585000D01*
X1383887Y581795D01*
X1384821Y578713D01*
X1386340Y575872D01*
X1388383Y573383D01*
X1390872Y571340D01*
X1393713Y569822D01*
X1396795Y568886D01*
X1400000Y568571D01*
X1403205Y568886D01*
X1406287Y569822D01*
X1409128Y571340D01*
X1411617Y573383D01*
X1411812Y573620D01*
X1414397Y575603D01*
X1421093Y582300D01*
X1446350D01*
Y605853D01*
X1447582Y606162D01*
X1447632Y606068D01*
X1449632Y603632D01*
X1451711Y601925D01*
Y518075D01*
X1449632Y516368D01*
X1447632Y513932D01*
X1447582Y513838D01*
X1446350Y514147D01*
Y517700D01*
X1413650D01*
Y502443D01*
X1409462Y498255D01*
X1408289Y498741D01*
Y517039D01*
X1409239Y517164D01*
X1410567Y517714D01*
X1412444Y518492D01*
X1415197Y520603D01*
X1426438Y531845D01*
X1426795Y531737D01*
X1430000Y531421D01*
X1433205Y531737D01*
X1436287Y532672D01*
X1439128Y534190D01*
X1441617Y536233D01*
X1443660Y538722D01*
X1445179Y541563D01*
X1446113Y544645D01*
X1446429Y547850D01*
Y560550D01*
X1446113Y563755D01*
X1445179Y566837D01*
X1443660Y569678D01*
X1441617Y572167D01*
X1439128Y574210D01*
X1436287Y575728D01*
X1433205Y576664D01*
X1430000Y576979D01*
X1426795Y576664D01*
X1423713Y575728D01*
X1420872Y574210D01*
X1418383Y572167D01*
X1416340Y569678D01*
X1414821Y566837D01*
X1413887Y563755D01*
X1413571Y560550D01*
Y556564D01*
X1401873Y544866D01*
X1401287Y545178D01*
X1398205Y546114D01*
X1395000Y546429D01*
X1391795Y546114D01*
X1388713Y545178D01*
X1385872Y543660D01*
X1383383Y541617D01*
X1381340Y539128D01*
X1379821Y536287D01*
X1378887Y533205D01*
X1378571Y530000D01*
X1378887Y526795D01*
X1379821Y523713D01*
X1381340Y520872D01*
X1381711Y520420D01*
Y500504D01*
X1329496Y448289D01*
X1310504D01*
X1308255Y450538D01*
X1308741Y451711D01*
X1325000D01*
X1328439Y452164D01*
X1329767Y452714D01*
X1331644Y453492D01*
X1334397Y455603D01*
X1359397Y480603D01*
X1361508Y483356D01*
X1362836Y486561D01*
X1363289Y490000D01*
Y615420D01*
X1363660Y615872D01*
X1365179Y618713D01*
X1366113Y621795D01*
X1366429Y625000D01*
X1366113Y628205D01*
X1365179Y631287D01*
X1363660Y634128D01*
X1361617Y636617D01*
X1359128Y638660D01*
X1356287Y640179D01*
X1353205Y641113D01*
X1350000Y641429D01*
X1346795Y641113D01*
X1343713Y640179D01*
X1340872Y638660D01*
X1338383Y636617D01*
X1336340Y634128D01*
X1334821Y631287D01*
X1333887Y628205D01*
X1333571Y625000D01*
X1333887Y621795D01*
X1334821Y618713D01*
X1336340Y615872D01*
X1336711Y615420D01*
Y613741D01*
X1335538Y613255D01*
X1326171Y622622D01*
X1326113Y623205D01*
X1325179Y626287D01*
X1323660Y629128D01*
X1321617Y631617D01*
X1319128Y633660D01*
X1316287Y635178D01*
X1313205Y636114D01*
X1310000Y636429D01*
X1306795Y636114D01*
X1303713Y635178D01*
X1300872Y633660D01*
X1299559Y632582D01*
X1298289Y633183D01*
Y730420D01*
X1298660Y730872D01*
X1300179Y733713D01*
X1300359Y734307D01*
X1301591Y734616D01*
X1303923Y732284D01*
D02*
G37*
G36*
X865603Y660603D02*
X868356Y658492D01*
X871561Y657164D01*
X875000Y656711D01*
X885420D01*
X885872Y656340D01*
X888713Y654821D01*
X891795Y653887D01*
X895000Y653571D01*
X898205Y653887D01*
X901287Y654821D01*
X904128Y656340D01*
X906617Y658383D01*
X908660Y660872D01*
X910179Y663713D01*
X911113Y666795D01*
X911429Y670000D01*
X911155Y672785D01*
X912344Y673392D01*
X912868Y672868D01*
X914957Y671265D01*
X917390Y670257D01*
X920000Y669914D01*
X1035822D01*
X1049914Y655822D01*
X1049914Y590000D01*
X1050257Y587389D01*
X1051265Y584957D01*
X1052868Y582868D01*
X1052868Y582868D01*
X1065736Y570000D01*
X1052868Y557132D01*
X1052868Y557132D01*
X1051265Y555043D01*
X1050257Y552611D01*
X1049914Y550000D01*
X1049914Y500000D01*
X1050257Y497389D01*
X1051265Y494957D01*
X1052868Y492868D01*
X1052868Y492868D01*
X1056274Y489462D01*
X1055788Y488289D01*
X1040142D01*
X1038684Y489747D01*
X1035931Y491858D01*
X1032727Y493186D01*
X1029287Y493639D01*
X938922D01*
X938660Y494128D01*
X936617Y496617D01*
X934128Y498660D01*
X931287Y500178D01*
X928205Y501114D01*
X925000Y501429D01*
X924230Y501353D01*
X923289Y502206D01*
Y539496D01*
X924397Y540603D01*
X926508Y543356D01*
X927836Y546561D01*
X928289Y550000D01*
Y580000D01*
X927836Y583439D01*
X926508Y586644D01*
X924397Y589397D01*
X831114Y682679D01*
Y693683D01*
X832384Y693823D01*
X865603Y660603D01*
D02*
G37*
G36*
X476871Y618804D02*
X476500Y618500D01*
X474126Y615607D01*
X472361Y612306D01*
X471275Y608725D01*
X470908Y605000D01*
X471275Y601275D01*
X472361Y597694D01*
X473497Y595569D01*
X486465Y608536D01*
X490000Y605000D01*
X493536Y608536D01*
X506503Y595569D01*
X507639Y597694D01*
X508725Y601275D01*
X509092Y605000D01*
X508725Y608725D01*
X508397Y609807D01*
X509520Y610480D01*
X650000Y470000D01*
Y220000D01*
X640000Y210000D01*
X550000D01*
X530000Y230000D01*
Y450000D01*
X494598Y485402D01*
X494907Y486634D01*
X497306Y487361D01*
X499431Y488497D01*
X486465Y501465D01*
X473497Y514431D01*
X472361Y512306D01*
X471275Y508725D01*
X470908Y505000D01*
X471275Y501275D01*
X472361Y497694D01*
X474126Y494393D01*
X476500Y491500D01*
X476871Y491196D01*
X476443Y490000D01*
X333557D01*
X333129Y491196D01*
X333500Y491500D01*
X335874Y494393D01*
X337639Y497694D01*
X338725Y501275D01*
X339092Y505000D01*
X338725Y508725D01*
X337639Y512306D01*
X336503Y514432D01*
X323535Y501465D01*
X320000Y505000D01*
X316465Y501465D01*
X303497Y514431D01*
X302361Y512306D01*
X301275Y508725D01*
X301270Y508675D01*
X300000Y508737D01*
Y601263D01*
X301270Y601325D01*
X301275Y601275D01*
X302361Y597694D01*
X303497Y595569D01*
X316465Y608535D01*
X320000Y605000D01*
X323535Y608535D01*
X336503Y595569D01*
X337639Y597694D01*
X338725Y601275D01*
X339092Y605000D01*
X338725Y608725D01*
X337639Y612306D01*
X335874Y615607D01*
X333500Y618500D01*
X333129Y618804D01*
X333557Y620000D01*
X476443D01*
X476871Y618804D01*
D02*
G37*
G36*
X1011711Y439496D02*
Y402206D01*
X1010770Y401353D01*
X1010000Y401429D01*
X1006795Y401113D01*
X1003713Y400178D01*
X1000872Y398660D01*
X998383Y396617D01*
X996340Y394128D01*
X994821Y391287D01*
X993887Y388205D01*
X993571Y385000D01*
X993887Y381795D01*
X994821Y378713D01*
X996340Y375872D01*
X996711Y375420D01*
Y360000D01*
X997164Y356561D01*
X998492Y353356D01*
X1000603Y350603D01*
X1020603Y330603D01*
X1023356Y328492D01*
X1026561Y327164D01*
X1030000Y326711D01*
X1051259D01*
X1051745Y325538D01*
X1030603Y304396D01*
X1028492Y301644D01*
X1027434Y299092D01*
X1021500D01*
X1017775Y298725D01*
X1014194Y297639D01*
X1010893Y295874D01*
X1008000Y293500D01*
X1005740Y290746D01*
X1005000Y290653D01*
X1004260Y290746D01*
X1002000Y293500D01*
X999107Y295874D01*
X995806Y297639D01*
X992225Y298725D01*
X988500Y299092D01*
X983289D01*
Y399496D01*
X989397Y405603D01*
X991508Y408356D01*
X992836Y411561D01*
X993289Y415000D01*
Y435000D01*
X992836Y438439D01*
X992007Y440441D01*
X992855Y441711D01*
X1009496D01*
X1011711Y439496D01*
D02*
G37*
G36*
X1447632Y496068D02*
X1449632Y493632D01*
X1452068Y491632D01*
X1454847Y490146D01*
X1457863Y489231D01*
X1461000Y488923D01*
X1469000D01*
X1472137Y489231D01*
X1475153Y490146D01*
X1477932Y491632D01*
X1478852Y492387D01*
X1480000Y491844D01*
Y420000D01*
X1467264Y407264D01*
X1396643D01*
X1396429Y407500D01*
X1396210Y409720D01*
X1397702Y409916D01*
X1397922Y410007D01*
X1395631Y412298D01*
X1395179Y413787D01*
X1393661Y416628D01*
X1392744Y417744D01*
X1391617Y419118D01*
X1389128Y421161D01*
X1386287Y422679D01*
X1385061Y423051D01*
X1385061Y423050D01*
X1383205Y423614D01*
X1380000Y423929D01*
X1376795Y423614D01*
X1373713Y422678D01*
X1370872Y421160D01*
X1370420Y420789D01*
X1368004D01*
X1353793Y435000D01*
X1385003Y466210D01*
X1386097Y466047D01*
X1386395Y465806D01*
X1388383Y463383D01*
X1390872Y461340D01*
X1393713Y459822D01*
X1396795Y458886D01*
X1400000Y458571D01*
X1403205Y458886D01*
X1406287Y459822D01*
X1409128Y461340D01*
X1411617Y463383D01*
X1411812Y463620D01*
X1414397Y465603D01*
X1421093Y472300D01*
X1446350D01*
Y495853D01*
X1447582Y496162D01*
X1447632Y496068D01*
D02*
G37*
G36*
X1678383Y613383D02*
X1680872Y611340D01*
X1683713Y609822D01*
X1686795Y608886D01*
X1690000Y608571D01*
X1692941Y608861D01*
X1694102Y608222D01*
X1694211Y608140D01*
Y595000D01*
X1694664Y591561D01*
X1695730Y588989D01*
X1694678Y588209D01*
X1694128Y588660D01*
X1691287Y590178D01*
X1688205Y591113D01*
X1685000Y591429D01*
X1681795Y591113D01*
X1678713Y590178D01*
X1675872Y588660D01*
X1673383Y586617D01*
X1671340Y584128D01*
X1669821Y581287D01*
X1668887Y578205D01*
X1668571Y575000D01*
X1668887Y571795D01*
X1669821Y568713D01*
X1671340Y565872D01*
X1673383Y563383D01*
X1675872Y561340D01*
X1678713Y559822D01*
X1681795Y558886D01*
X1682995Y558768D01*
X1683356Y558492D01*
X1685233Y557714D01*
X1686561Y557164D01*
X1690000Y556711D01*
X1754391D01*
X1754579Y555441D01*
X1753713Y555178D01*
X1750872Y553660D01*
X1750420Y553289D01*
X1620504D01*
X1616171Y557622D01*
X1616113Y558205D01*
X1615179Y561287D01*
X1613660Y564128D01*
X1611617Y566617D01*
X1609128Y568660D01*
X1606287Y570178D01*
X1603205Y571113D01*
X1600000Y571429D01*
X1599230Y571353D01*
X1598289Y572206D01*
Y584496D01*
X1612716Y598923D01*
X1619000D01*
X1622137Y599231D01*
X1625153Y600146D01*
X1627932Y601632D01*
X1630368Y603632D01*
X1632368Y606068D01*
X1633854Y608847D01*
X1634733Y611746D01*
X1635000Y611711D01*
X1670873D01*
X1674312Y612164D01*
X1675640Y612714D01*
X1677517Y613492D01*
X1677993Y613857D01*
X1678383Y613383D01*
D02*
G37*
G36*
X1840000Y1230000D02*
Y230000D01*
X1790000Y180000D01*
X1390000D01*
Y300000D01*
X1401711Y311711D01*
X1405908D01*
Y306500D01*
X1406275Y302775D01*
X1407361Y299194D01*
X1409126Y295893D01*
X1411500Y293000D01*
X1414393Y290626D01*
X1417694Y288861D01*
X1421275Y287775D01*
X1425000Y287408D01*
X1428725Y287775D01*
X1432306Y288861D01*
X1435607Y290626D01*
X1438500Y293000D01*
X1440874Y295893D01*
X1442639Y299194D01*
X1443725Y302775D01*
X1444092Y306500D01*
Y343500D01*
X1443725Y347225D01*
X1442749Y350441D01*
X1443414Y351711D01*
X1451586D01*
X1452251Y350441D01*
X1451275Y347225D01*
X1450908Y343500D01*
Y306500D01*
X1451275Y302775D01*
X1452361Y299194D01*
X1454126Y295893D01*
X1456500Y293000D01*
X1459393Y290626D01*
X1462694Y288861D01*
X1466275Y287775D01*
X1470000Y287408D01*
X1473725Y287775D01*
X1477306Y288861D01*
X1480607Y290626D01*
X1483500Y293000D01*
X1485874Y295893D01*
X1487639Y299194D01*
X1488725Y302775D01*
X1489092Y306500D01*
Y343500D01*
X1488725Y347225D01*
X1487749Y350441D01*
X1488414Y351711D01*
X1496586D01*
X1497251Y350441D01*
X1496275Y347225D01*
X1495908Y343500D01*
Y306500D01*
X1496275Y302775D01*
X1497361Y299194D01*
X1499126Y295893D01*
X1501500Y293000D01*
X1504393Y290626D01*
X1507694Y288861D01*
X1511275Y287775D01*
X1515000Y287408D01*
X1518725Y287775D01*
X1522306Y288861D01*
X1525607Y290626D01*
X1528500Y293000D01*
X1530874Y295893D01*
X1532639Y299194D01*
X1533725Y302775D01*
X1534092Y306500D01*
Y343500D01*
X1533725Y347225D01*
X1532749Y350441D01*
X1533414Y351711D01*
X1541586D01*
X1542251Y350441D01*
X1541275Y347225D01*
X1540908Y343500D01*
Y306500D01*
X1541275Y302775D01*
X1542361Y299194D01*
X1544126Y295893D01*
X1546500Y293000D01*
X1549393Y290626D01*
X1552694Y288861D01*
X1556275Y287775D01*
X1560000Y287408D01*
X1563725Y287775D01*
X1567306Y288861D01*
X1570607Y290626D01*
X1573500Y293000D01*
X1575874Y295893D01*
X1577639Y299194D01*
X1578725Y302775D01*
X1579092Y306500D01*
Y343500D01*
X1578725Y347225D01*
X1577749Y350441D01*
X1578414Y351711D01*
X1586586D01*
X1587251Y350441D01*
X1586275Y347225D01*
X1585908Y343500D01*
Y306500D01*
X1586275Y302775D01*
X1587361Y299194D01*
X1589126Y295893D01*
X1591500Y293000D01*
X1594393Y290626D01*
X1597694Y288861D01*
X1601275Y287775D01*
X1605000Y287408D01*
X1608725Y287775D01*
X1612306Y288861D01*
X1615607Y290626D01*
X1618500Y293000D01*
X1620874Y295893D01*
X1622639Y299194D01*
X1623725Y302775D01*
X1624092Y306500D01*
Y343500D01*
X1623725Y347225D01*
X1622639Y350806D01*
X1621580Y352787D01*
X1740504Y471711D01*
X1750420D01*
X1750806Y471395D01*
X1751047Y471097D01*
X1751210Y470003D01*
X1685603Y404397D01*
X1683492Y401644D01*
X1682164Y398439D01*
X1681711Y395000D01*
Y357174D01*
X1681500Y357000D01*
X1679126Y354107D01*
X1677361Y350806D01*
X1676275Y347225D01*
X1675908Y343500D01*
Y306500D01*
X1676275Y302775D01*
X1677361Y299194D01*
X1679126Y295893D01*
X1681500Y293000D01*
X1684393Y290626D01*
X1687694Y288861D01*
X1691275Y287775D01*
X1695000Y287408D01*
X1698725Y287775D01*
X1702306Y288861D01*
X1705607Y290626D01*
X1708500Y293000D01*
X1710874Y295893D01*
X1712639Y299194D01*
X1713725Y302775D01*
X1714092Y306500D01*
Y343500D01*
X1713725Y347225D01*
X1712639Y350806D01*
X1710874Y354107D01*
X1708500Y357000D01*
X1708289Y357174D01*
Y389496D01*
X1799397Y480603D01*
X1801508Y483356D01*
X1802836Y486561D01*
X1803289Y490000D01*
Y592500D01*
X1802836Y595939D01*
X1801508Y599144D01*
X1799397Y601897D01*
X1784397Y616897D01*
X1781644Y619008D01*
X1779767Y619786D01*
X1778439Y620336D01*
X1775000Y620789D01*
X1754142D01*
X1753489Y621878D01*
X1754139Y623094D01*
X1755225Y626675D01*
X1755592Y630400D01*
X1755225Y634125D01*
X1754139Y637706D01*
X1752374Y641007D01*
X1750657Y643100D01*
X1752374Y645193D01*
X1754139Y648494D01*
X1755225Y652075D01*
X1755592Y655800D01*
X1755225Y659525D01*
X1754139Y663106D01*
X1752374Y666407D01*
X1750657Y668500D01*
X1752374Y670593D01*
X1754139Y673894D01*
X1755225Y677475D01*
X1755592Y681200D01*
X1755225Y684925D01*
X1754139Y688506D01*
X1752374Y691807D01*
X1750657Y693900D01*
X1752374Y695993D01*
X1754139Y699294D01*
X1755225Y702875D01*
X1755592Y706600D01*
X1755225Y710325D01*
X1754139Y713906D01*
X1752374Y717207D01*
X1750000Y720100D01*
X1747107Y722474D01*
X1746888Y722592D01*
X1746619Y723833D01*
X1747856Y725444D01*
X1749165Y728606D01*
X1749612Y732000D01*
X1749165Y735394D01*
X1748521Y736950D01*
X1740036Y728464D01*
X1732965Y735536D01*
X1741450Y744021D01*
X1739894Y744665D01*
X1736500Y745112D01*
X1728500D01*
X1725106Y744665D01*
X1723550Y744021D01*
X1732036Y735536D01*
X1724964Y728464D01*
X1716479Y736950D01*
X1715835Y735394D01*
X1715388Y732000D01*
X1715835Y728606D01*
X1717144Y725444D01*
X1718381Y723833D01*
X1718112Y722592D01*
X1717893Y722474D01*
X1715000Y720100D01*
X1714827Y719889D01*
X1703036D01*
X1701617Y721617D01*
X1699128Y723660D01*
X1696287Y725179D01*
X1693205Y726114D01*
X1690000Y726429D01*
X1686795Y726114D01*
X1683713Y725179D01*
X1680872Y723660D01*
X1680420Y723289D01*
X1661350D01*
Y727700D01*
X1641093D01*
X1629397Y739397D01*
X1626644Y741508D01*
X1624767Y742286D01*
X1623439Y742836D01*
X1620000Y743289D01*
X1600000D01*
X1596561Y742836D01*
X1593356Y741508D01*
X1590603Y739397D01*
X1555603Y704397D01*
X1553492Y701644D01*
X1552164Y698439D01*
X1551711Y695000D01*
Y669580D01*
X1551340Y669128D01*
X1549821Y666287D01*
X1548887Y663205D01*
X1548571Y660000D01*
X1548887Y656795D01*
X1549821Y653713D01*
X1551340Y650872D01*
X1552056Y650000D01*
X1551340Y649128D01*
X1549821Y646287D01*
X1548887Y643205D01*
X1548571Y640000D01*
X1548887Y636795D01*
X1549821Y633713D01*
X1551340Y630872D01*
X1553383Y628383D01*
X1555872Y626340D01*
X1558713Y624822D01*
X1561795Y623886D01*
X1563810Y623688D01*
X1564185Y622375D01*
X1563868Y622132D01*
X1562265Y620043D01*
X1561257Y617611D01*
X1560914Y615000D01*
X1561257Y612389D01*
X1561275Y612346D01*
X1567464Y618535D01*
X1574535Y611465D01*
X1568346Y605275D01*
X1568389Y605257D01*
X1571000Y604914D01*
X1579000D01*
X1579484Y604977D01*
X1580045Y603838D01*
X1575603Y599397D01*
X1573492Y596644D01*
X1572714Y594767D01*
X1572164Y593439D01*
X1571711Y590000D01*
Y530000D01*
X1572164Y526561D01*
X1572714Y525233D01*
X1573492Y523356D01*
X1575603Y520603D01*
X1580045Y516162D01*
X1579484Y515023D01*
X1579000Y515086D01*
X1571000D01*
X1568389Y514743D01*
X1568346Y514725D01*
X1574535Y508535D01*
X1571000Y505000D01*
X1574535Y501465D01*
X1568346Y495275D01*
X1568389Y495257D01*
X1571000Y494914D01*
X1579000D01*
X1581611Y495257D01*
X1581654Y495275D01*
X1575464Y501465D01*
X1582535Y508535D01*
X1588725Y502346D01*
X1588743Y502389D01*
X1589086Y505000D01*
X1589023Y505484D01*
X1590162Y506045D01*
X1595618Y500589D01*
X1596146Y498847D01*
X1597632Y496068D01*
X1599632Y493632D01*
X1601711Y491925D01*
Y475504D01*
X1587378Y461171D01*
X1586795Y461114D01*
X1583713Y460178D01*
X1580872Y458660D01*
X1578383Y456617D01*
X1576340Y454128D01*
X1574821Y451287D01*
X1573887Y448205D01*
X1573571Y445000D01*
X1573887Y441795D01*
X1574821Y438713D01*
X1576340Y435872D01*
X1576711Y435420D01*
Y395504D01*
X1574496Y393289D01*
X1484948D01*
X1484462Y394462D01*
X1500000Y410000D01*
Y488075D01*
X1500941Y488928D01*
X1501000Y488923D01*
X1509000D01*
X1512137Y489231D01*
X1515153Y490146D01*
X1517932Y491632D01*
X1520368Y493632D01*
X1522368Y496068D01*
X1523854Y498847D01*
X1524769Y501864D01*
X1525077Y505000D01*
X1524769Y508137D01*
X1523854Y511153D01*
X1522368Y513932D01*
X1520368Y516368D01*
X1517932Y518368D01*
X1515153Y519854D01*
X1512137Y520769D01*
X1509000Y521077D01*
X1501000D01*
X1500941Y521072D01*
X1500000Y521925D01*
Y598075D01*
X1500941Y598928D01*
X1501000Y598923D01*
X1509000D01*
X1512137Y599231D01*
X1515153Y600146D01*
X1517932Y601632D01*
X1520368Y603632D01*
X1522368Y606068D01*
X1523854Y608847D01*
X1524769Y611863D01*
X1525077Y615000D01*
X1524769Y618136D01*
X1523854Y621153D01*
X1522368Y623932D01*
X1520368Y626368D01*
X1518289Y628075D01*
Y655000D01*
X1517836Y658439D01*
X1516508Y661644D01*
X1514397Y664397D01*
X1500000Y678793D01*
Y711207D01*
X1510504Y721711D01*
X1545420D01*
X1545872Y721340D01*
X1548713Y719821D01*
X1551795Y718886D01*
X1555000Y718571D01*
X1558205Y718886D01*
X1561287Y719821D01*
X1564128Y721340D01*
X1566617Y723383D01*
X1568660Y725872D01*
X1570179Y728713D01*
X1571113Y731795D01*
X1571429Y735000D01*
X1571113Y738205D01*
X1570179Y741287D01*
X1568660Y744128D01*
X1566617Y746617D01*
X1564128Y748660D01*
X1562298Y749638D01*
X1562616Y750908D01*
X1568500D01*
X1572225Y751275D01*
X1575806Y752361D01*
X1579107Y754126D01*
X1582000Y756500D01*
X1584374Y759393D01*
X1586139Y762694D01*
X1587225Y766275D01*
X1587592Y770000D01*
X1587516Y770770D01*
X1588369Y771711D01*
X1695327D01*
X1695500Y771500D01*
X1698393Y769126D01*
X1701694Y767361D01*
X1705275Y766275D01*
X1709000Y765908D01*
X1721000D01*
X1724725Y766275D01*
X1728306Y767361D01*
X1731607Y769126D01*
X1734500Y771500D01*
X1736874Y774393D01*
X1738639Y777694D01*
X1739725Y781275D01*
X1740092Y785000D01*
X1739725Y788725D01*
X1738639Y792306D01*
X1736874Y795607D01*
X1734500Y798500D01*
X1731607Y800874D01*
X1729754Y801865D01*
Y803135D01*
X1731607Y804126D01*
X1734500Y806500D01*
X1736874Y809393D01*
X1738639Y812694D01*
X1739725Y816275D01*
X1740092Y820000D01*
X1739725Y823725D01*
X1738639Y827306D01*
X1736874Y830607D01*
X1734500Y833500D01*
X1731607Y835874D01*
X1729754Y836865D01*
Y838135D01*
X1731607Y839126D01*
X1734500Y841500D01*
X1736874Y844393D01*
X1738639Y847694D01*
X1739725Y851275D01*
X1740092Y855000D01*
X1739725Y858725D01*
X1738639Y862306D01*
X1736874Y865607D01*
X1734500Y868500D01*
X1731607Y870874D01*
X1729754Y871865D01*
Y873135D01*
X1731607Y874126D01*
X1734500Y876500D01*
X1736874Y879393D01*
X1738639Y882694D01*
X1739725Y886275D01*
X1740092Y890000D01*
X1739725Y893725D01*
X1738639Y897306D01*
X1736874Y900607D01*
X1734500Y903500D01*
X1731607Y905874D01*
X1728306Y907639D01*
X1724725Y908725D01*
X1721000Y909092D01*
X1709000D01*
X1705275Y908725D01*
X1701694Y907639D01*
X1698393Y905874D01*
X1695500Y903500D01*
X1695327Y903289D01*
X1665504D01*
X1659058Y909735D01*
X1659544Y910908D01*
X1693500D01*
X1697225Y911275D01*
X1700806Y912361D01*
X1704107Y914126D01*
X1707000Y916500D01*
X1709374Y919393D01*
X1711139Y922694D01*
X1712225Y926275D01*
X1712592Y930000D01*
X1712225Y933725D01*
X1711139Y937306D01*
X1711125Y937332D01*
X1764397Y990603D01*
X1766508Y993356D01*
X1767836Y996561D01*
X1768289Y1000000D01*
Y1160000D01*
X1767836Y1163439D01*
X1767286Y1164767D01*
X1766508Y1166644D01*
X1764397Y1169397D01*
X1681897Y1251897D01*
X1679144Y1254008D01*
X1675939Y1255336D01*
X1672500Y1255789D01*
X1610000D01*
Y1280000D01*
X1790000D01*
X1840000Y1230000D01*
D02*
G37*
G36*
X700000Y690000D02*
Y550000D01*
X680000Y530000D01*
X620000D01*
X600000Y550000D01*
Y650000D01*
X540000Y710000D01*
X490000Y760000D01*
X230000D01*
X210000Y760000D01*
X180000Y790000D01*
Y880000D01*
X200000Y900000D01*
X490000D01*
X700000Y690000D01*
D02*
G37*
G36*
X894616Y581591D02*
X894307Y580359D01*
X893713Y580178D01*
X890872Y578660D01*
X890420Y578289D01*
X885000D01*
X881561Y577836D01*
X878356Y576508D01*
X875603Y574397D01*
X836591Y535384D01*
X835359Y535692D01*
X835179Y536287D01*
X833660Y539128D01*
X831617Y541617D01*
X829128Y543660D01*
X826287Y545178D01*
X823205Y546114D01*
X820000Y546429D01*
X816795Y546114D01*
X813713Y545178D01*
X810872Y543660D01*
X809559Y542582D01*
X808289Y543183D01*
Y666122D01*
X809559Y666648D01*
X894616Y581591D01*
D02*
G37*
G36*
X202868Y752868D02*
X204957Y751265D01*
X207390Y750257D01*
X210000Y749914D01*
X230000Y749914D01*
X485822D01*
X494476Y741260D01*
X493990Y740086D01*
X210000D01*
X210000Y740086D01*
X207390Y739743D01*
X204957Y738735D01*
X202868Y737132D01*
X181173Y715437D01*
X180000Y715923D01*
Y774077D01*
X181173Y774563D01*
X202868Y752868D01*
D02*
G37*
G36*
X532868Y702868D02*
X532868Y702868D01*
X589914Y645822D01*
Y550000D01*
X589914Y550000D01*
X590257Y547389D01*
X591265Y544957D01*
X591798Y544262D01*
X590841Y543423D01*
X516652Y617612D01*
X516586Y617663D01*
X516534Y617728D01*
X515542Y618464D01*
X515308Y618644D01*
X515739Y619914D01*
X520000D01*
X522611Y620257D01*
X525043Y621265D01*
X527132Y622868D01*
X528735Y624957D01*
X529743Y627389D01*
X530086Y630000D01*
Y703990D01*
X531260Y704476D01*
X532868Y702868D01*
D02*
G37*
G36*
X520000Y710000D02*
Y630000D01*
X491228D01*
X490000Y630121D01*
X488772Y630000D01*
X477098D01*
X476443Y630086D01*
X333557D01*
X332902Y630000D01*
X321228D01*
X320000Y630121D01*
X318772Y630000D01*
X300000D01*
X290000Y620000D01*
Y601918D01*
X289914Y601263D01*
Y508737D01*
X290000Y508082D01*
Y490000D01*
X300000Y480000D01*
X318772D01*
X320000Y479879D01*
X321228Y480000D01*
X332902D01*
X333557Y479914D01*
X476443D01*
X477098Y480000D01*
X480000D01*
X519914Y440086D01*
Y399914D01*
X500000Y380000D01*
X200000D01*
X180000Y400000D01*
Y700000D01*
X210000Y730000D01*
X500000D01*
X520000Y710000D01*
D02*
G37*
G36*
X1776711Y534391D02*
Y510609D01*
X1775441Y510421D01*
X1775179Y511287D01*
X1773660Y514128D01*
X1771617Y516617D01*
X1769128Y518660D01*
X1766287Y520178D01*
X1763205Y521114D01*
X1760000Y521429D01*
X1756795Y521114D01*
X1753713Y520178D01*
X1750872Y518660D01*
X1750420Y518289D01*
X1730000D01*
X1726561Y517836D01*
X1723356Y516508D01*
X1720603Y514397D01*
X1719803Y513596D01*
X1604462Y398255D01*
X1603289Y398741D01*
Y435420D01*
X1603660Y435872D01*
X1605179Y438713D01*
X1606113Y441795D01*
X1606171Y442378D01*
X1624397Y460603D01*
X1626508Y463356D01*
X1627836Y466561D01*
X1628289Y470000D01*
Y491925D01*
X1630368Y493632D01*
X1632368Y496068D01*
X1633854Y498847D01*
X1634769Y501864D01*
X1635077Y505000D01*
X1634769Y508137D01*
X1633854Y511153D01*
X1632368Y513932D01*
X1630368Y516368D01*
X1628289Y518075D01*
Y526711D01*
X1750420D01*
X1750872Y526340D01*
X1753713Y524822D01*
X1756795Y523887D01*
X1760000Y523571D01*
X1763205Y523887D01*
X1766287Y524822D01*
X1769128Y526340D01*
X1771617Y528383D01*
X1773660Y530872D01*
X1775179Y533713D01*
X1775441Y534579D01*
X1776711Y534391D01*
D02*
G37*
G36*
X192868Y992868D02*
X192868Y992868D01*
X194957Y991265D01*
X197390Y990257D01*
X200000Y989914D01*
X400000D01*
X402611Y990257D01*
X405043Y991265D01*
X407132Y992868D01*
X407132Y992868D01*
X415000Y1000736D01*
X422868Y992868D01*
X422868Y992868D01*
X424957Y991265D01*
X427389Y990257D01*
X430000Y989914D01*
X505822Y989914D01*
X622868Y872868D01*
X624957Y871265D01*
X627389Y870257D01*
X630000Y869914D01*
X715822D01*
X781711Y804025D01*
Y475000D01*
X782164Y471561D01*
X782714Y470233D01*
X783492Y468356D01*
X785603Y465603D01*
X820603Y430603D01*
X823356Y428492D01*
X826561Y427164D01*
X830000Y426711D01*
X953823D01*
X954660Y425756D01*
X954561Y425000D01*
X954916Y422298D01*
X955007Y422079D01*
X959640Y426711D01*
X963289D01*
X966711Y423289D01*
Y420504D01*
X960603Y414397D01*
X960515Y414282D01*
X960515Y414281D01*
X958492Y411644D01*
X957164Y408439D01*
X956711Y405000D01*
Y299092D01*
X951500D01*
X947775Y298725D01*
X944194Y297639D01*
X940893Y295874D01*
X938000Y293500D01*
X935626Y290607D01*
X933861Y287306D01*
X932775Y283725D01*
X932616Y282108D01*
X931337Y282087D01*
X931165Y283394D01*
X930521Y284950D01*
X925571Y280000D01*
X930521Y275050D01*
X931165Y276606D01*
X931337Y277913D01*
X932616Y277892D01*
X932775Y276275D01*
X933861Y272694D01*
X935626Y269393D01*
X938000Y266500D01*
X940893Y264126D01*
X944194Y262361D01*
X947775Y261275D01*
X951500Y260908D01*
X988500D01*
X992225Y261275D01*
X995806Y262361D01*
X999107Y264126D01*
X1002000Y266500D01*
X1004260Y269254D01*
X1005000Y269347D01*
X1005740Y269254D01*
X1008000Y266500D01*
X1010893Y264126D01*
X1014194Y262361D01*
X1017775Y261275D01*
X1021500Y260908D01*
X1058500D01*
X1062225Y261275D01*
X1065806Y262361D01*
X1069107Y264126D01*
X1072000Y266500D01*
X1074374Y269393D01*
X1076139Y272694D01*
X1077225Y276275D01*
X1077592Y280000D01*
X1077225Y283725D01*
X1076139Y287306D01*
X1074374Y290607D01*
X1072000Y293500D01*
X1069107Y295874D01*
X1065806Y297639D01*
X1063632Y298298D01*
X1063323Y299530D01*
X1075504Y311711D01*
X1150000D01*
X1153439Y312164D01*
X1156644Y313492D01*
X1159397Y315604D01*
X1161508Y318356D01*
X1162836Y321561D01*
X1163289Y325000D01*
Y355355D01*
X1164559Y355955D01*
X1164982Y355606D01*
X1164923Y355000D01*
X1165231Y351864D01*
X1166146Y348847D01*
X1167632Y346068D01*
X1169632Y343632D01*
X1172068Y341632D01*
X1174847Y340146D01*
X1177863Y339231D01*
X1181000Y338923D01*
X1189000D01*
X1192137Y339231D01*
X1195153Y340146D01*
X1197932Y341632D01*
X1200368Y343632D01*
X1202368Y346068D01*
X1203854Y348847D01*
X1204336Y350439D01*
X1205664D01*
X1206146Y348847D01*
X1207632Y346068D01*
X1209632Y343632D01*
X1212068Y341632D01*
X1214847Y340146D01*
X1217863Y339231D01*
X1221000Y338923D01*
X1229000D01*
X1232137Y339231D01*
X1235153Y340146D01*
X1237932Y341632D01*
X1240368Y343632D01*
X1242368Y346068D01*
X1243854Y348847D01*
X1244769Y351864D01*
X1245077Y355000D01*
X1245903Y355911D01*
X1270798D01*
X1272543Y354479D01*
X1275604Y352842D01*
X1276711Y352507D01*
Y344000D01*
X1277164Y340561D01*
X1278492Y337356D01*
X1280603Y334604D01*
X1299603Y315604D01*
X1302356Y313492D01*
X1305561Y312164D01*
X1309000Y311711D01*
X1370052D01*
X1370538Y310538D01*
X1370000Y310000D01*
Y291847D01*
X1368730Y291392D01*
X1367000Y293500D01*
X1364107Y295874D01*
X1360806Y297639D01*
X1357225Y298725D01*
X1353500Y299092D01*
X1316500D01*
X1312775Y298725D01*
X1309194Y297639D01*
X1305893Y295874D01*
X1303000Y293500D01*
X1300740Y290746D01*
X1300000Y290653D01*
X1299260Y290746D01*
X1297000Y293500D01*
X1294107Y295874D01*
X1290806Y297639D01*
X1287225Y298725D01*
X1283500Y299092D01*
X1246500D01*
X1242775Y298725D01*
X1239194Y297639D01*
X1235893Y295874D01*
X1233000Y293500D01*
X1230740Y290746D01*
X1230000Y290653D01*
X1229260Y290746D01*
X1227000Y293500D01*
X1224107Y295874D01*
X1220806Y297639D01*
X1217225Y298725D01*
X1213500Y299092D01*
X1176500D01*
X1172775Y298725D01*
X1169194Y297639D01*
X1165893Y295874D01*
X1163000Y293500D01*
X1160740Y290746D01*
X1160000Y290653D01*
X1159260Y290746D01*
X1157000Y293500D01*
X1154107Y295874D01*
X1150806Y297639D01*
X1147225Y298725D01*
X1143500Y299092D01*
X1106500D01*
X1102775Y298725D01*
X1099194Y297639D01*
X1095893Y295874D01*
X1093000Y293500D01*
X1090626Y290607D01*
X1088861Y287306D01*
X1087775Y283725D01*
X1087408Y280000D01*
X1087775Y276275D01*
X1088861Y272694D01*
X1090626Y269393D01*
X1093000Y266500D01*
X1095893Y264126D01*
X1099194Y262361D01*
X1102775Y261275D01*
X1106500Y260908D01*
X1143500D01*
X1147225Y261275D01*
X1150806Y262361D01*
X1154107Y264126D01*
X1157000Y266500D01*
X1159260Y269254D01*
X1160000Y269347D01*
X1160740Y269254D01*
X1163000Y266500D01*
X1165893Y264126D01*
X1169194Y262361D01*
X1172775Y261275D01*
X1176500Y260908D01*
X1213500D01*
X1217225Y261275D01*
X1220806Y262361D01*
X1224107Y264126D01*
X1227000Y266500D01*
X1229260Y269254D01*
X1230000Y269347D01*
X1230740Y269254D01*
X1233000Y266500D01*
X1235893Y264126D01*
X1239194Y262361D01*
X1242775Y261275D01*
X1246500Y260908D01*
X1283500D01*
X1287225Y261275D01*
X1290806Y262361D01*
X1294107Y264126D01*
X1297000Y266500D01*
X1299260Y269254D01*
X1300000Y269347D01*
X1300740Y269254D01*
X1303000Y266500D01*
X1305893Y264126D01*
X1309194Y262361D01*
X1312775Y261275D01*
X1316500Y260908D01*
X1353500D01*
X1357225Y261275D01*
X1360806Y262361D01*
X1364107Y264126D01*
X1367000Y266500D01*
X1368730Y268608D01*
X1370000Y268153D01*
Y180000D01*
X230000D01*
X180000Y230000D01*
Y384076D01*
X181173Y384562D01*
X192868Y372868D01*
X194957Y371265D01*
X197390Y370257D01*
X200000Y369914D01*
X500000D01*
X502611Y370257D01*
X505043Y371265D01*
X507132Y372868D01*
X518740Y384476D01*
X519914Y383990D01*
Y230000D01*
X520257Y227390D01*
X521265Y224957D01*
X522868Y222868D01*
X542868Y202868D01*
X544957Y201265D01*
X547389Y200257D01*
X550000Y199914D01*
X640000D01*
X640000Y199914D01*
X642610Y200257D01*
X645043Y201265D01*
X647132Y202868D01*
X647132Y202868D01*
X657132Y212868D01*
X658735Y214957D01*
X659743Y217390D01*
X660086Y220000D01*
Y263259D01*
X661356Y263878D01*
X664194Y262361D01*
X667775Y261275D01*
X671500Y260908D01*
X708500D01*
X712225Y261275D01*
X715806Y262361D01*
X719107Y264126D01*
X722000Y266500D01*
X724260Y269254D01*
X725000Y269347D01*
X725740Y269254D01*
X728000Y266500D01*
X730893Y264126D01*
X734194Y262361D01*
X737775Y261275D01*
X741500Y260908D01*
X778500D01*
X782225Y261275D01*
X785806Y262361D01*
X789107Y264126D01*
X792000Y266500D01*
X794260Y269254D01*
X795000Y269347D01*
X795740Y269254D01*
X798000Y266500D01*
X800893Y264126D01*
X804194Y262361D01*
X807775Y261275D01*
X811500Y260908D01*
X848500D01*
X852225Y261275D01*
X855806Y262361D01*
X859107Y264126D01*
X862000Y266500D01*
X864374Y269393D01*
X866139Y272694D01*
X867225Y276275D01*
X867384Y277892D01*
X868663Y277913D01*
X868835Y276606D01*
X869479Y275050D01*
X874429Y280000D01*
X869479Y284950D01*
X868835Y283394D01*
X868663Y282087D01*
X867384Y282108D01*
X867225Y283725D01*
X866139Y287306D01*
X864374Y290607D01*
X862000Y293500D01*
X859107Y295874D01*
X855806Y297639D01*
X852225Y298725D01*
X848500Y299092D01*
X843289D01*
Y330000D01*
X842836Y333439D01*
X841508Y336644D01*
X839397Y339397D01*
X676171Y502622D01*
X676114Y503205D01*
X675179Y506287D01*
X673660Y509128D01*
X671617Y511617D01*
X669128Y513660D01*
X666287Y515178D01*
X663205Y516113D01*
X660000Y516429D01*
X656795Y516113D01*
X653713Y515178D01*
X650872Y513660D01*
X648383Y511617D01*
X647232Y511561D01*
X640053Y518740D01*
X640539Y519914D01*
X680000D01*
X680000Y519914D01*
X682610Y520257D01*
X685043Y521265D01*
X687132Y522868D01*
X687132Y522868D01*
X707132Y542868D01*
X708735Y544957D01*
X709743Y547389D01*
X710086Y550000D01*
Y690000D01*
X710086Y690000D01*
X709743Y692610D01*
X708735Y695043D01*
X707132Y697132D01*
X497132Y907132D01*
X495043Y908735D01*
X492611Y909743D01*
X490000Y910086D01*
X200000D01*
X200000Y910086D01*
X197390Y909743D01*
X194957Y908735D01*
X192868Y907132D01*
X192868Y907132D01*
X181173Y895437D01*
X180000Y895923D01*
Y1004077D01*
X181173Y1004563D01*
X192868Y992868D01*
D02*
G37*
G36*
X1340908Y1190858D02*
Y1189000D01*
X1341275Y1185275D01*
X1341568Y1184309D01*
X1340812Y1183289D01*
X1339580D01*
X1339128Y1183660D01*
X1336287Y1185179D01*
X1333205Y1186114D01*
X1330000Y1186429D01*
X1326795Y1186114D01*
X1323713Y1185179D01*
X1320872Y1183660D01*
X1318383Y1181617D01*
X1316340Y1179128D01*
X1314821Y1176287D01*
X1313887Y1173205D01*
X1313571Y1170000D01*
X1313887Y1166795D01*
X1314821Y1163713D01*
X1316340Y1160872D01*
X1318383Y1158383D01*
X1320872Y1156340D01*
X1323713Y1154821D01*
X1326795Y1153886D01*
X1330000Y1153571D01*
X1333205Y1153886D01*
X1336287Y1154821D01*
X1339128Y1156340D01*
X1339580Y1156711D01*
X1415000D01*
X1418439Y1157164D01*
X1419767Y1157714D01*
X1421644Y1158492D01*
X1424397Y1160603D01*
X1428793Y1165000D01*
X1440685D01*
X1441003Y1163730D01*
X1440872Y1163660D01*
X1438383Y1161617D01*
X1436340Y1159128D01*
X1434821Y1156287D01*
X1433887Y1153205D01*
X1433571Y1150000D01*
X1433887Y1146795D01*
X1434565Y1144559D01*
X1433652Y1143289D01*
X1339580D01*
X1339128Y1143660D01*
X1336287Y1145179D01*
X1333205Y1146114D01*
X1330000Y1146429D01*
X1326795Y1146114D01*
X1323713Y1145179D01*
X1320872Y1143660D01*
X1318383Y1141617D01*
X1316340Y1139128D01*
X1314821Y1136287D01*
X1313887Y1133205D01*
X1313571Y1130000D01*
X1313887Y1126795D01*
X1314821Y1123713D01*
X1316340Y1120872D01*
X1318383Y1118383D01*
X1320872Y1116340D01*
X1323713Y1114821D01*
X1326795Y1113886D01*
X1330000Y1113571D01*
X1333205Y1113886D01*
X1336287Y1114821D01*
X1339128Y1116340D01*
X1339580Y1116711D01*
X1455000D01*
X1458439Y1117164D01*
X1461644Y1118492D01*
X1464397Y1120603D01*
X1492541Y1148748D01*
X1493736Y1148320D01*
X1493887Y1146795D01*
X1494821Y1143713D01*
X1496340Y1140872D01*
X1498383Y1138383D01*
X1500806Y1136395D01*
X1501047Y1136097D01*
X1501210Y1135003D01*
X1480603Y1114397D01*
X1478492Y1111644D01*
X1477714Y1109767D01*
X1477164Y1108439D01*
X1476711Y1105000D01*
Y966756D01*
X1475770Y965903D01*
X1474000Y966077D01*
X1472716D01*
X1459397Y979397D01*
X1456644Y981508D01*
X1454767Y982286D01*
X1453439Y982836D01*
X1450000Y983289D01*
X1435504D01*
X1308289Y1110504D01*
Y1180000D01*
X1307836Y1183439D01*
X1306508Y1186644D01*
X1304397Y1189397D01*
X1296396Y1197398D01*
X1296882Y1198571D01*
X1333195D01*
X1340908Y1190858D01*
D02*
G37*
G36*
X1196745Y460538D02*
X1194496Y458289D01*
X1165000D01*
X1161561Y457836D01*
X1158356Y456508D01*
X1155603Y454397D01*
X1125603Y424397D01*
X1123492Y421644D01*
X1122714Y419767D01*
X1122164Y418439D01*
X1121711Y415000D01*
Y355504D01*
X1119496Y353289D01*
X1107206D01*
X1106353Y354230D01*
X1106429Y355000D01*
X1106114Y358205D01*
X1105179Y361287D01*
X1103660Y364128D01*
X1101617Y366617D01*
X1099128Y368660D01*
X1096287Y370178D01*
X1093205Y371114D01*
X1092622Y371171D01*
X1053289Y410504D01*
Y455000D01*
X1052836Y458439D01*
X1052007Y460441D01*
X1052855Y461711D01*
X1196259D01*
X1196745Y460538D01*
D02*
G37*
G36*
X1618535Y1177464D02*
X1612071Y1171000D01*
X1621711D01*
Y1164109D01*
X1620872Y1163660D01*
X1618383Y1161617D01*
X1616340Y1159128D01*
X1614821Y1156287D01*
X1613887Y1153205D01*
X1613571Y1150000D01*
X1613887Y1146795D01*
X1614821Y1143713D01*
X1616340Y1140872D01*
X1618383Y1138383D01*
X1620872Y1136340D01*
X1623713Y1134821D01*
X1626795Y1133886D01*
X1630000Y1133571D01*
X1633205Y1133886D01*
X1636287Y1134821D01*
X1639128Y1136340D01*
X1641617Y1138383D01*
X1643660Y1140872D01*
X1645179Y1143713D01*
X1646113Y1146795D01*
X1646232Y1147995D01*
X1646508Y1148356D01*
X1647836Y1151561D01*
X1648289Y1155000D01*
Y1171971D01*
X1648368Y1172068D01*
X1649854Y1174847D01*
X1650768Y1177863D01*
X1650854Y1178729D01*
X1652050Y1179157D01*
X1699211Y1131996D01*
Y1102848D01*
X1698155Y1102143D01*
X1696894Y1102665D01*
X1693500Y1103112D01*
X1656500D01*
X1653106Y1102665D01*
X1651550Y1102021D01*
X1660036Y1093536D01*
X1656500Y1090000D01*
X1660036Y1086464D01*
X1651550Y1077979D01*
X1653106Y1077335D01*
X1656500Y1076888D01*
X1686436D01*
X1686922Y1075714D01*
X1680299Y1069092D01*
X1656500D01*
X1652775Y1068725D01*
X1649194Y1067639D01*
X1645893Y1065874D01*
X1643000Y1063500D01*
X1640626Y1060607D01*
X1638861Y1057306D01*
X1637775Y1053725D01*
X1637408Y1050000D01*
X1637775Y1046275D01*
X1638861Y1042694D01*
X1640626Y1039393D01*
X1643000Y1036500D01*
X1645893Y1034126D01*
X1649194Y1032361D01*
X1652775Y1031275D01*
X1656500Y1030908D01*
X1693500D01*
X1695518Y1031107D01*
X1696094Y1029887D01*
X1695138Y1028931D01*
X1693500Y1029092D01*
X1656500D01*
X1652775Y1028725D01*
X1649194Y1027639D01*
X1645893Y1025874D01*
X1643000Y1023500D01*
X1640626Y1020607D01*
X1638861Y1017306D01*
X1637775Y1013725D01*
X1637408Y1010000D01*
X1637775Y1006275D01*
X1638861Y1002694D01*
X1640626Y999393D01*
X1643000Y996500D01*
X1645893Y994126D01*
X1649194Y992361D01*
X1652775Y991275D01*
X1656500Y990908D01*
X1689726D01*
X1690349Y989638D01*
X1689925Y989092D01*
X1656500D01*
X1652775Y988725D01*
X1649194Y987639D01*
X1645893Y985874D01*
X1643000Y983500D01*
X1640626Y980607D01*
X1638861Y977306D01*
X1637775Y973725D01*
X1637408Y970000D01*
X1637775Y966275D01*
X1638861Y962694D01*
X1640626Y959393D01*
X1643000Y956500D01*
X1645893Y954126D01*
X1649194Y952361D01*
X1652775Y951275D01*
X1656500Y950908D01*
X1684726D01*
X1685349Y949638D01*
X1684925Y949092D01*
X1656500D01*
X1652775Y948725D01*
X1649194Y947639D01*
X1645893Y945874D01*
X1643000Y943500D01*
X1640626Y940607D01*
X1638861Y937306D01*
X1637775Y933725D01*
X1637678Y932739D01*
X1636482Y932311D01*
X1608289Y960504D01*
Y995000D01*
X1607836Y998439D01*
X1606508Y1001644D01*
X1604397Y1004397D01*
X1582132Y1026661D01*
X1584374Y1029393D01*
X1586139Y1032694D01*
X1587225Y1036275D01*
X1587592Y1040000D01*
X1587225Y1043725D01*
X1586139Y1047306D01*
X1584374Y1050607D01*
X1582000Y1053500D01*
X1579107Y1055874D01*
X1575806Y1057639D01*
X1572225Y1058725D01*
X1568500Y1059092D01*
X1531500D01*
X1527775Y1058725D01*
X1524194Y1057639D01*
X1520893Y1055874D01*
X1518000Y1053500D01*
X1515626Y1050607D01*
X1513861Y1047306D01*
X1512775Y1043725D01*
X1512408Y1040000D01*
X1512775Y1036275D01*
X1513861Y1032694D01*
X1515626Y1029393D01*
X1518000Y1026500D01*
X1520893Y1024126D01*
X1524194Y1022361D01*
X1527775Y1021275D01*
X1531500Y1020908D01*
X1550299D01*
X1581711Y989496D01*
Y965222D01*
X1580563Y964679D01*
X1579107Y965874D01*
X1575806Y967639D01*
X1572225Y968725D01*
X1568500Y969092D01*
X1531500D01*
X1527775Y968725D01*
X1524194Y967639D01*
X1520893Y965874D01*
X1518000Y963500D01*
X1515626Y960607D01*
X1513861Y957306D01*
X1512775Y953725D01*
X1512408Y950000D01*
X1512775Y946275D01*
X1513861Y942694D01*
X1515626Y939393D01*
X1518000Y936500D01*
X1520893Y934126D01*
X1524194Y932361D01*
X1527775Y931275D01*
X1531500Y930908D01*
X1550299D01*
X1635603Y845603D01*
X1638356Y843492D01*
X1641561Y842164D01*
X1645000Y841711D01*
X1695327D01*
X1695500Y841500D01*
X1698393Y839126D01*
X1700246Y838135D01*
Y836865D01*
X1698393Y835874D01*
X1695500Y833500D01*
X1695327Y833289D01*
X1595504D01*
X1582132Y846661D01*
X1584374Y849393D01*
X1586139Y852694D01*
X1587225Y856275D01*
X1587592Y860000D01*
X1587225Y863725D01*
X1586139Y867306D01*
X1584374Y870607D01*
X1582000Y873500D01*
X1579107Y875874D01*
X1575806Y877639D01*
X1572225Y878725D01*
X1568500Y879092D01*
X1531500D01*
X1527775Y878725D01*
X1524194Y877639D01*
X1520893Y875874D01*
X1518000Y873500D01*
X1515626Y870607D01*
X1513861Y867306D01*
X1512775Y863725D01*
X1512408Y860000D01*
X1512775Y856275D01*
X1513861Y852694D01*
X1515626Y849393D01*
X1518000Y846500D01*
X1520893Y844126D01*
X1524194Y842361D01*
X1527775Y841275D01*
X1531500Y840908D01*
X1550299D01*
X1580603Y810603D01*
X1583356Y808492D01*
X1586561Y807164D01*
X1590000Y806711D01*
X1695327D01*
X1695500Y806500D01*
X1698393Y804126D01*
X1700246Y803135D01*
Y801865D01*
X1698393Y800874D01*
X1695500Y798500D01*
X1695327Y798289D01*
X1565000D01*
X1561561Y797836D01*
X1558356Y796508D01*
X1555603Y794397D01*
X1550299Y789092D01*
X1531500D01*
X1527775Y788725D01*
X1524194Y787639D01*
X1520893Y785874D01*
X1518000Y783500D01*
X1515626Y780607D01*
X1513861Y777306D01*
X1512775Y773725D01*
X1512408Y770000D01*
X1512775Y766275D01*
X1513861Y762694D01*
X1515626Y759393D01*
X1518000Y756500D01*
X1520893Y754126D01*
X1524194Y752361D01*
X1527775Y751275D01*
X1531500Y750908D01*
X1547384D01*
X1547702Y749638D01*
X1545872Y748660D01*
X1545420Y748289D01*
X1505000D01*
X1501561Y747836D01*
X1501270Y747716D01*
X1500000Y748564D01*
Y751390D01*
X1501508Y753356D01*
X1502836Y756561D01*
X1503289Y760000D01*
Y1083289D01*
X1558383Y1138383D01*
X1558383Y1138383D01*
X1560872Y1136340D01*
X1563713Y1134821D01*
X1566795Y1133886D01*
X1570000Y1133571D01*
X1573205Y1133886D01*
X1576287Y1134821D01*
X1579128Y1136340D01*
X1581617Y1138383D01*
X1583660Y1140872D01*
X1585179Y1143713D01*
X1586113Y1146795D01*
X1586232Y1147995D01*
X1586508Y1148356D01*
X1587836Y1151561D01*
X1588289Y1155000D01*
Y1168289D01*
X1603827Y1183827D01*
X1605000Y1183341D01*
Y1178071D01*
X1611464Y1184536D01*
X1618535Y1177464D01*
D02*
G37*
G36*
X940000Y1250000D02*
X1060000Y1130000D01*
X1060000Y1070000D01*
X1060000Y1000000D01*
X1178997Y881003D01*
X1178898Y880000D01*
X1179304Y875883D01*
X1180505Y871925D01*
X1182455Y868277D01*
X1185079Y865079D01*
X1188277Y862455D01*
X1191925Y860505D01*
X1195883Y859304D01*
X1200000Y858898D01*
X1201003Y858997D01*
X1270000Y790000D01*
Y746621D01*
X1269821Y746287D01*
X1268886Y743205D01*
X1268571Y740000D01*
X1268886Y736795D01*
X1269821Y733713D01*
X1270000Y733379D01*
Y559121D01*
X1269821Y558787D01*
X1268886Y555705D01*
X1268571Y552500D01*
X1268886Y549295D01*
X1269821Y546213D01*
X1270000Y545879D01*
Y520000D01*
X1271711Y518289D01*
Y495000D01*
X1272094Y492094D01*
X1268289Y488289D01*
X1071711D01*
X1060000Y500000D01*
X1060000Y550000D01*
X1074924Y564924D01*
X1075000Y564914D01*
X1145000D01*
X1145656Y565000D01*
X1155000D01*
X1170000Y580000D01*
Y589345D01*
X1170086Y590000D01*
Y760000D01*
X1170086Y760000D01*
X1169743Y762611D01*
X1168735Y765043D01*
X1167132Y767132D01*
X1147132Y787132D01*
X1145043Y788735D01*
X1142610Y789743D01*
X1140000Y790086D01*
X1129914D01*
X960086Y959914D01*
X960086Y1070000D01*
X960086Y1070000D01*
X960000Y1070656D01*
Y1080000D01*
X940000Y1100000D01*
X930656D01*
X930000Y1100086D01*
X930000D01*
D01*
X729914D01*
X650086Y1179914D01*
Y1230000D01*
X650076Y1230076D01*
X670000Y1250000D01*
X940000Y1250000D01*
D02*
G37*
G36*
X746711Y374496D02*
Y299092D01*
X741500D01*
X737775Y298725D01*
X734194Y297639D01*
X730893Y295874D01*
X728000Y293500D01*
X725740Y290746D01*
X725000Y290653D01*
X724260Y290746D01*
X722000Y293500D01*
X719107Y295874D01*
X715806Y297639D01*
X712225Y298725D01*
X708500Y299092D01*
X671500D01*
X667775Y298725D01*
X664194Y297639D01*
X661356Y296122D01*
X660086Y296741D01*
Y459461D01*
X661260Y459947D01*
X746711Y374496D01*
D02*
G37*
G36*
X670000Y980000D02*
X760000Y980000D01*
X960000Y780000D01*
X1140000D01*
X1160000Y760000D01*
Y590000D01*
X1145000Y575000D01*
X1075000D01*
X1060000Y590000D01*
X1060000Y660000D01*
X1040000Y680000D01*
X920000D01*
X894389Y705611D01*
X894769Y706863D01*
X895077Y710000D01*
X894769Y713137D01*
X893854Y716153D01*
X892368Y718932D01*
X890368Y721368D01*
X887932Y723368D01*
X885153Y724854D01*
X882137Y725769D01*
X879000Y726077D01*
X873923D01*
X720000Y880000D01*
X630000D01*
X510000Y1000000D01*
X430000Y1000000D01*
X420000Y1010000D01*
Y1130000D01*
X430000Y1140000D01*
X510000D01*
X670000Y980000D01*
D02*
G37*
G36*
X1590000Y1255789D02*
X1427500D01*
X1424061Y1255336D01*
X1420856Y1254008D01*
X1418103Y1251897D01*
X1399721Y1233514D01*
X1381617Y1251617D01*
X1379128Y1253660D01*
X1376287Y1255179D01*
X1373205Y1256114D01*
X1370000Y1256429D01*
X1205000D01*
X1201795Y1256114D01*
X1198713Y1255179D01*
X1195872Y1253660D01*
X1193383Y1251617D01*
X1133383Y1191617D01*
X1131340Y1189128D01*
X1129821Y1186287D01*
X1128887Y1183205D01*
X1128881Y1183149D01*
X1127361Y1180306D01*
X1126275Y1176725D01*
X1125908Y1173000D01*
Y1167000D01*
X1126275Y1163275D01*
X1127361Y1159694D01*
X1128571Y1157431D01*
Y1140076D01*
X1127632Y1138932D01*
X1126146Y1136153D01*
X1125231Y1133137D01*
X1124923Y1130000D01*
X1125231Y1126863D01*
X1126146Y1123847D01*
X1127632Y1121068D01*
X1128571Y1119924D01*
Y1047569D01*
X1127361Y1045306D01*
X1126275Y1041725D01*
X1125908Y1038000D01*
Y1032000D01*
X1126275Y1028275D01*
X1127361Y1024694D01*
X1129126Y1021393D01*
X1131500Y1018500D01*
X1131711Y1018326D01*
Y1008075D01*
X1129632Y1006368D01*
X1127632Y1003932D01*
X1126146Y1001153D01*
X1125231Y998137D01*
X1124923Y995000D01*
X1125231Y991863D01*
X1126146Y988847D01*
X1127632Y986068D01*
X1129632Y983632D01*
X1132068Y981632D01*
X1134847Y980146D01*
X1137863Y979231D01*
X1141000Y978923D01*
X1142284D01*
X1296711Y824496D01*
Y819580D01*
X1296340Y819128D01*
X1294821Y816287D01*
X1293887Y813205D01*
X1293768Y812005D01*
X1293492Y811644D01*
X1292164Y808439D01*
X1291711Y805000D01*
Y756348D01*
X1290441Y755435D01*
X1288205Y756113D01*
X1285000Y756429D01*
X1281795Y756113D01*
X1281106Y755905D01*
X1280086Y756661D01*
Y790000D01*
X1279743Y792610D01*
X1278735Y795043D01*
X1277132Y797132D01*
X1208285Y865980D01*
X1208239Y866711D01*
X1208366Y867422D01*
X1208451Y867531D01*
X1210658Y869342D01*
X1212532Y871626D01*
X1213925Y874232D01*
X1214783Y877059D01*
X1215073Y880000D01*
X1214783Y882941D01*
X1213925Y885768D01*
X1213547Y886476D01*
X1203536Y876464D01*
X1196464Y883536D01*
X1206476Y893547D01*
X1205768Y893925D01*
X1202941Y894783D01*
X1200000Y895073D01*
X1197059Y894783D01*
X1194232Y893925D01*
X1191626Y892532D01*
X1189342Y890658D01*
X1187531Y888451D01*
X1187422Y888366D01*
X1186711Y888239D01*
X1185980Y888285D01*
X1070086Y1004178D01*
X1070086Y1070000D01*
X1070086Y1130000D01*
X1069743Y1132610D01*
X1068735Y1135043D01*
X1067132Y1137132D01*
X947132Y1257132D01*
X945043Y1258735D01*
X942610Y1259743D01*
X940000Y1260086D01*
X670000Y1260086D01*
X667389Y1259743D01*
X664957Y1258735D01*
X662868Y1257132D01*
X642944Y1237208D01*
X642542Y1236684D01*
X642075Y1236217D01*
X641744Y1235644D01*
X641341Y1235119D01*
X641089Y1234509D01*
X640758Y1233937D01*
X640587Y1233298D01*
X640334Y1232687D01*
X640247Y1232032D01*
X640076Y1231394D01*
X640076Y1230732D01*
X639990Y1230076D01*
X640000Y1230000D01*
Y1179914D01*
X640344Y1177303D01*
X641351Y1174871D01*
X642954Y1172782D01*
X722782Y1092954D01*
X724871Y1091351D01*
X727303Y1090344D01*
X729914Y1090000D01*
X930000D01*
X930000Y1090000D01*
X930000D01*
X930656Y1089914D01*
X935822D01*
X949914Y1075822D01*
Y1070656D01*
X950000Y1070000D01*
X950000Y1070000D01*
Y1069997D01*
X950000Y959914D01*
X950344Y957303D01*
X951351Y954871D01*
X952954Y952782D01*
X1114476Y791260D01*
X1113990Y790086D01*
X964178D01*
X954264Y800000D01*
D01*
X767132Y987132D01*
X765043Y988735D01*
X762610Y989743D01*
X760000Y990086D01*
X679914Y990086D01*
D01*
X674178D01*
X517132Y1147132D01*
X515043Y1148735D01*
X512611Y1149743D01*
X510656Y1150000D01*
D01*
X510000Y1150086D01*
X430000D01*
X427389Y1149743D01*
X424957Y1148735D01*
X422868Y1147132D01*
X422868Y1147132D01*
X415000Y1139264D01*
X407219Y1147046D01*
X407218Y1147046D01*
X405129Y1148649D01*
X402697Y1149656D01*
X400086Y1150000D01*
X281316Y1150000D01*
X280000D01*
D01*
X279345Y1150086D01*
X200000D01*
X200000Y1150086D01*
X197390Y1149743D01*
X194957Y1148735D01*
X192868Y1147132D01*
X181173Y1135437D01*
X180000Y1135923D01*
Y1230000D01*
X230000Y1280000D01*
X1590000D01*
Y1255789D01*
D02*
G37*
G36*
X816711Y324496D02*
Y299092D01*
X811500D01*
X807775Y298725D01*
X804194Y297639D01*
X800893Y295874D01*
X798000Y293500D01*
X795740Y290746D01*
X795000Y290653D01*
X794260Y290746D01*
X792000Y293500D01*
X789107Y295874D01*
X785806Y297639D01*
X782225Y298725D01*
X778500Y299092D01*
X773289D01*
Y366259D01*
X774462Y366745D01*
X816711Y324496D01*
D02*
G37*
%LPC*%
G36*
X1456275Y862654D02*
X1456257Y862610D01*
X1455914Y860000D01*
X1456257Y857390D01*
X1456275Y857346D01*
X1458929Y860000D01*
X1456275Y862654D01*
D02*
G37*
G36*
X396503Y1044432D02*
X383535Y1031464D01*
X380000Y1035000D01*
X376464Y1031464D01*
X363497Y1044432D01*
X362361Y1042306D01*
X361275Y1038725D01*
X360908Y1035000D01*
Y1025000D01*
X361275Y1021275D01*
X362361Y1017694D01*
X363497Y1015568D01*
X376464Y1028536D01*
X380000Y1025000D01*
X383535Y1028536D01*
X396503Y1015568D01*
X397639Y1017694D01*
X398725Y1021275D01*
X399092Y1025000D01*
Y1035000D01*
X398725Y1038725D01*
X397639Y1042306D01*
X396503Y1044432D01*
D02*
G37*
G36*
X380000Y1017929D02*
X370568Y1008497D01*
X372694Y1007361D01*
X376275Y1006275D01*
X380000Y1005908D01*
X383725Y1006275D01*
X387306Y1007361D01*
X389431Y1008497D01*
X380000Y1017929D01*
D02*
G37*
G36*
X270000Y1092929D02*
X256874Y1079803D01*
X260771Y1077720D01*
X265295Y1076347D01*
X270000Y1075884D01*
X274705Y1076347D01*
X279229Y1077720D01*
X283126Y1079803D01*
X270000Y1092929D01*
D02*
G37*
G36*
X380000Y1054092D02*
X376275Y1053725D01*
X372694Y1052639D01*
X370568Y1051503D01*
X380000Y1042071D01*
X389431Y1051503D01*
X387306Y1052639D01*
X383725Y1053725D01*
X380000Y1054092D01*
D02*
G37*
G36*
X249803Y1113126D02*
X247720Y1109229D01*
X246347Y1104705D01*
X245884Y1100000D01*
X246347Y1095295D01*
X247720Y1090771D01*
X249803Y1086874D01*
X262929Y1100000D01*
X249803Y1113126D01*
D02*
G37*
G36*
X270000Y1124116D02*
X265295Y1123653D01*
X260771Y1122280D01*
X256874Y1120197D01*
X270000Y1107071D01*
X283126Y1120197D01*
X279229Y1122280D01*
X274705Y1123653D01*
X270000Y1124116D01*
D02*
G37*
G36*
X290197Y1113126D02*
X277071Y1100000D01*
X290197Y1086874D01*
X292280Y1090771D01*
X293653Y1095295D01*
X294116Y1100000D01*
X293653Y1104705D01*
X292280Y1109229D01*
X290197Y1113126D01*
D02*
G37*
G36*
X395000Y575439D02*
X392298Y575084D01*
X392079Y574993D01*
X395000Y572071D01*
X397922Y574993D01*
X397702Y575084D01*
X395000Y575439D01*
D02*
G37*
G36*
X440000Y550439D02*
X437298Y550084D01*
X437079Y549993D01*
X440000Y547071D01*
X442922Y549993D01*
X442702Y550084D01*
X440000Y550439D01*
D02*
G37*
G36*
X380000D02*
X377298Y550084D01*
X377079Y549993D01*
X380000Y547071D01*
X382922Y549993D01*
X382702Y550084D01*
X380000Y550439D01*
D02*
G37*
G36*
X400007Y542922D02*
X399916Y542702D01*
X399561Y540000D01*
X399916Y537298D01*
X400007Y537079D01*
X402929Y540000D01*
X400007Y542922D01*
D02*
G37*
G36*
X430007D02*
X429916Y542702D01*
X429561Y540000D01*
X429916Y537298D01*
X430007Y537079D01*
X432929Y540000D01*
X430007Y542922D01*
D02*
G37*
G36*
X370007D02*
X369916Y542702D01*
X369561Y540000D01*
X369916Y537298D01*
X370007Y537079D01*
X372929Y540000D01*
X370007Y542922D01*
D02*
G37*
G36*
X425000Y575439D02*
X422298Y575084D01*
X422079Y574993D01*
X425000Y572071D01*
X427921Y574993D01*
X427702Y575084D01*
X425000Y575439D01*
D02*
G37*
G36*
X389993Y542922D02*
X387071Y540000D01*
X389993Y537079D01*
X390084Y537298D01*
X390439Y540000D01*
X390084Y542702D01*
X389993Y542922D01*
D02*
G37*
G36*
X419993D02*
X417071Y540000D01*
X419993Y537079D01*
X420084Y537298D01*
X420439Y540000D01*
X420084Y542702D01*
X419993Y542922D01*
D02*
G37*
G36*
X449993D02*
X447071Y540000D01*
X449993Y537079D01*
X450084Y537298D01*
X450439Y540000D01*
X450084Y542702D01*
X449993Y542922D01*
D02*
G37*
G36*
X410000Y550439D02*
X407298Y550084D01*
X407079Y549993D01*
X410000Y547071D01*
X412922Y549993D01*
X412702Y550084D01*
X410000Y550439D01*
D02*
G37*
G36*
X385007Y567921D02*
X384916Y567702D01*
X384561Y565000D01*
X384916Y562298D01*
X385007Y562078D01*
X387929Y565000D01*
X385007Y567921D01*
D02*
G37*
G36*
X434993D02*
X432071Y565000D01*
X434993Y562079D01*
X435084Y562298D01*
X435439Y565000D01*
X435084Y567702D01*
X434993Y567921D01*
D02*
G37*
G36*
X415007D02*
X414916Y567702D01*
X414561Y565000D01*
X414916Y562298D01*
X415007Y562078D01*
X417929Y565000D01*
X415007Y567921D01*
D02*
G37*
G36*
X404993D02*
X402071Y565000D01*
X404993Y562079D01*
X405084Y562298D01*
X405439Y565000D01*
X405084Y567702D01*
X404993Y567921D01*
D02*
G37*
G36*
X395000Y557929D02*
X392078Y555007D01*
X392298Y554916D01*
X395000Y554561D01*
X397702Y554916D01*
X397922Y555007D01*
X395000Y557929D01*
D02*
G37*
G36*
X425000D02*
X422078Y555007D01*
X422298Y554916D01*
X425000Y554561D01*
X427702Y554916D01*
X427921Y555007D01*
X425000Y557929D01*
D02*
G37*
G36*
X600000Y242929D02*
X579698Y222627D01*
X579953Y222408D01*
X584517Y219612D01*
X589461Y217564D01*
X594665Y216315D01*
X600000Y215895D01*
X605335Y216315D01*
X610539Y217564D01*
X615483Y219612D01*
X620047Y222408D01*
X620302Y222627D01*
X600000Y242929D01*
D02*
G37*
G36*
X572627Y270302D02*
X572408Y270047D01*
X569612Y265483D01*
X567564Y260539D01*
X566315Y255335D01*
X565895Y250000D01*
X566315Y244665D01*
X567564Y239461D01*
X569612Y234517D01*
X572408Y229953D01*
X572627Y229698D01*
X592929Y250000D01*
X572627Y270302D01*
D02*
G37*
G36*
X627373Y270302D02*
X607071Y250000D01*
X627373Y229698D01*
X627592Y229953D01*
X630388Y234517D01*
X632436Y239461D01*
X633685Y244665D01*
X634105Y250000D01*
X633685Y255335D01*
X632436Y260539D01*
X630388Y265483D01*
X627592Y270047D01*
X627373Y270302D01*
D02*
G37*
G36*
X600000Y284105D02*
X594665Y283685D01*
X589461Y282436D01*
X584517Y280388D01*
X579953Y277592D01*
X579698Y277373D01*
X600000Y257071D01*
X620302Y277373D01*
X620047Y277592D01*
X615483Y280388D01*
X610539Y282436D01*
X605335Y283685D01*
X600000Y284105D01*
D02*
G37*
G36*
X380000Y532929D02*
X377078Y530007D01*
X377298Y529916D01*
X380000Y529561D01*
X382702Y529916D01*
X382922Y530007D01*
X380000Y532929D01*
D02*
G37*
G36*
X410000D02*
X407078Y530007D01*
X407298Y529916D01*
X410000Y529561D01*
X412702Y529916D01*
X412922Y530007D01*
X410000Y532929D01*
D02*
G37*
G36*
X440000D02*
X437079Y530007D01*
X437298Y529916D01*
X440000Y529561D01*
X442702Y529916D01*
X442922Y530007D01*
X440000Y532929D01*
D02*
G37*
G36*
X506503Y514431D02*
X497071Y505000D01*
X506503Y495569D01*
X507639Y497694D01*
X508725Y501275D01*
X509092Y505000D01*
X508725Y508725D01*
X507639Y512306D01*
X506503Y514431D01*
D02*
G37*
G36*
X490000Y524092D02*
X486275Y523725D01*
X482694Y522639D01*
X480569Y521503D01*
X490000Y512071D01*
X499432Y521503D01*
X497306Y522639D01*
X493725Y523725D01*
X490000Y524092D01*
D02*
G37*
G36*
X320000D02*
X316275Y523725D01*
X312694Y522639D01*
X310569Y521503D01*
X320000Y512071D01*
X329431Y521503D01*
X327306Y522639D01*
X323725Y523725D01*
X320000Y524092D01*
D02*
G37*
G36*
Y597929D02*
X310569Y588497D01*
X312694Y587361D01*
X316275Y586275D01*
X320000Y585908D01*
X323725Y586275D01*
X327306Y587361D01*
X329431Y588497D01*
X320000Y597929D01*
D02*
G37*
G36*
X490000Y597929D02*
X480569Y588497D01*
X482694Y587361D01*
X486275Y586275D01*
X490000Y585908D01*
X493725Y586275D01*
X497306Y587361D01*
X499432Y588498D01*
X490000Y597929D01*
D02*
G37*
G36*
X1404993Y422922D02*
X1402071Y420000D01*
X1404993Y417079D01*
X1405084Y417298D01*
X1405439Y420000D01*
X1405084Y422702D01*
X1404993Y422922D01*
D02*
G37*
G36*
X1420007Y453471D02*
X1419916Y453252D01*
X1419561Y450550D01*
Y437850D01*
X1419916Y435148D01*
X1420007Y434928D01*
X1426465Y441385D01*
X1430000Y437850D01*
X1433535Y441385D01*
X1439993Y434928D01*
X1440084Y435148D01*
X1440439Y437850D01*
Y450550D01*
X1440084Y453252D01*
X1439993Y453471D01*
X1433535Y447014D01*
X1430000Y450550D01*
X1426465Y447014D01*
X1420007Y453471D01*
D02*
G37*
G36*
X1395000Y430439D02*
X1392298Y430084D01*
X1392079Y429993D01*
X1395000Y427071D01*
X1397922Y429993D01*
X1397702Y430084D01*
X1395000Y430439D01*
D02*
G37*
G36*
X1430000Y430779D02*
X1427079Y427857D01*
X1427298Y427766D01*
X1430000Y427411D01*
X1432702Y427766D01*
X1432921Y427857D01*
X1430000Y430779D01*
D02*
G37*
G36*
Y460989D02*
X1427298Y460634D01*
X1427078Y460543D01*
X1430000Y457621D01*
X1432922Y460543D01*
X1432702Y460634D01*
X1430000Y460989D01*
D02*
G37*
G36*
X1800000Y285108D02*
X1794508Y284676D01*
X1789151Y283390D01*
X1784061Y281282D01*
X1779364Y278403D01*
X1775175Y274825D01*
X1771597Y270636D01*
X1768718Y265939D01*
X1766610Y260849D01*
X1765324Y255492D01*
X1764892Y250000D01*
X1765324Y244508D01*
X1766610Y239151D01*
X1768718Y234061D01*
X1771597Y229364D01*
X1775175Y225175D01*
X1779364Y221597D01*
X1784061Y218718D01*
X1789151Y216610D01*
X1794508Y215324D01*
X1800000Y214892D01*
X1805492Y215324D01*
X1810849Y216610D01*
X1815939Y218718D01*
X1820636Y221597D01*
X1824825Y225175D01*
X1828403Y229364D01*
X1831282Y234061D01*
X1833390Y239151D01*
X1834676Y244508D01*
X1835108Y250000D01*
X1834676Y255492D01*
X1833390Y260849D01*
X1831282Y265939D01*
X1828403Y270636D01*
X1824825Y274825D01*
X1820636Y278403D01*
X1815939Y281282D01*
X1810849Y283390D01*
X1805492Y284676D01*
X1800000Y285108D01*
D02*
G37*
G36*
X1650000Y362592D02*
X1646275Y362225D01*
X1642694Y361139D01*
X1639393Y359374D01*
X1636500Y357000D01*
X1634126Y354107D01*
X1632361Y350806D01*
X1631275Y347225D01*
X1630908Y343500D01*
Y306500D01*
X1631275Y302775D01*
X1632361Y299194D01*
X1634126Y295893D01*
X1636500Y293000D01*
X1639393Y290626D01*
X1642694Y288861D01*
X1646275Y287775D01*
X1650000Y287408D01*
X1653725Y287775D01*
X1657306Y288861D01*
X1660607Y290626D01*
X1663500Y293000D01*
X1665874Y295893D01*
X1667639Y299194D01*
X1668725Y302775D01*
X1669092Y306500D01*
Y343500D01*
X1668725Y347225D01*
X1667639Y350806D01*
X1665874Y354107D01*
X1663500Y357000D01*
X1660607Y359374D01*
X1657306Y361139D01*
X1653725Y362225D01*
X1650000Y362592D01*
D02*
G37*
G36*
X1561275Y507654D02*
X1561257Y507611D01*
X1560914Y505000D01*
X1561257Y502389D01*
X1561275Y502346D01*
X1563929Y505000D01*
X1561275Y507654D01*
D02*
G37*
G36*
X1800000Y1245108D02*
X1794508Y1244676D01*
X1789151Y1243390D01*
X1784061Y1241282D01*
X1779364Y1238403D01*
X1775175Y1234825D01*
X1771597Y1230636D01*
X1768718Y1225939D01*
X1766610Y1220849D01*
X1765324Y1215492D01*
X1764892Y1210000D01*
X1765324Y1204508D01*
X1766610Y1199151D01*
X1768718Y1194061D01*
X1771597Y1189364D01*
X1775175Y1185175D01*
X1779364Y1181597D01*
X1784061Y1178718D01*
X1789151Y1176610D01*
X1794508Y1175324D01*
X1800000Y1174892D01*
X1805492Y1175324D01*
X1810849Y1176610D01*
X1815939Y1178718D01*
X1820636Y1181597D01*
X1824825Y1185175D01*
X1828403Y1189364D01*
X1831282Y1194061D01*
X1833390Y1199151D01*
X1834676Y1204508D01*
X1835108Y1210000D01*
X1834676Y1215492D01*
X1833390Y1220849D01*
X1831282Y1225939D01*
X1828403Y1230636D01*
X1824825Y1234825D01*
X1820636Y1238403D01*
X1815939Y1241282D01*
X1810849Y1243390D01*
X1805492Y1244676D01*
X1800000Y1245108D01*
D02*
G37*
G36*
X660000Y572929D02*
X657078Y570007D01*
X657298Y569916D01*
X660000Y569561D01*
X662702Y569916D01*
X662922Y570007D01*
X660000Y572929D01*
D02*
G37*
G36*
X685000Y575439D02*
X682298Y575084D01*
X682078Y574993D01*
X685000Y572071D01*
X687922Y574993D01*
X687702Y575084D01*
X685000Y575439D01*
D02*
G37*
G36*
X660000Y542929D02*
X657078Y540007D01*
X657298Y539916D01*
X660000Y539561D01*
X662702Y539916D01*
X662922Y540007D01*
X660000Y542929D01*
D02*
G37*
G36*
X685000Y557929D02*
X682078Y555007D01*
X682298Y554916D01*
X685000Y554561D01*
X687702Y554916D01*
X687922Y555007D01*
X685000Y557929D01*
D02*
G37*
G36*
X660000Y560439D02*
X657298Y560084D01*
X657078Y559993D01*
X660000Y557071D01*
X662922Y559993D01*
X662702Y560084D01*
X660000Y560439D01*
D02*
G37*
G36*
X694993Y567921D02*
X692071Y565000D01*
X694993Y562079D01*
X695084Y562298D01*
X695439Y565000D01*
X695084Y567702D01*
X694993Y567921D01*
D02*
G37*
G36*
X675007D02*
X674916Y567702D01*
X674561Y565000D01*
X674916Y562298D01*
X675007Y562078D01*
X677929Y565000D01*
X675007Y567921D01*
D02*
G37*
G36*
X669993Y552922D02*
X667071Y550000D01*
X669993Y547079D01*
X670084Y547298D01*
X670439Y550000D01*
X670084Y552702D01*
X669993Y552922D01*
D02*
G37*
G36*
X650007D02*
X649916Y552702D01*
X649561Y550000D01*
X649916Y547298D01*
X650007Y547078D01*
X652929Y550000D01*
X650007Y552922D01*
D02*
G37*
G36*
X380000Y874092D02*
X376275Y873725D01*
X372694Y872639D01*
X370569Y871503D01*
X380000Y862071D01*
X389431Y871503D01*
X387306Y872639D01*
X383725Y873725D01*
X380000Y874092D01*
D02*
G37*
G36*
X363497Y864432D02*
X362361Y862306D01*
X361275Y858725D01*
X360908Y855000D01*
Y845000D01*
X361275Y841275D01*
X362361Y837694D01*
X363497Y835568D01*
X376465Y848536D01*
X380000Y845000D01*
X383536Y848536D01*
X396503Y835568D01*
X397639Y837694D01*
X398725Y841275D01*
X399092Y845000D01*
Y855000D01*
X398725Y858725D01*
X397639Y862306D01*
X396503Y864432D01*
X383536Y851464D01*
X380000Y855000D01*
X376465Y851464D01*
X363497Y864432D01*
D02*
G37*
G36*
X380000Y837929D02*
X370568Y828497D01*
X372694Y827361D01*
X376275Y826275D01*
X380000Y825908D01*
X383725Y826275D01*
X387306Y827361D01*
X389432Y828497D01*
X380000Y837929D01*
D02*
G37*
G36*
X660000Y602929D02*
X657078Y600007D01*
X657298Y599916D01*
X660000Y599561D01*
X662702Y599916D01*
X662922Y600007D01*
X660000Y602929D01*
D02*
G37*
G36*
X685000Y605439D02*
X682298Y605084D01*
X682078Y604993D01*
X685000Y602071D01*
X687922Y604993D01*
X687702Y605084D01*
X685000Y605439D01*
D02*
G37*
G36*
X650007Y612922D02*
X649916Y612702D01*
X649561Y610000D01*
X649916Y607298D01*
X650007Y607078D01*
X652929Y610000D01*
X650007Y612922D01*
D02*
G37*
G36*
X669993D02*
X667071Y610000D01*
X669993Y607079D01*
X670084Y607298D01*
X670439Y610000D01*
X670084Y612702D01*
X669993Y612922D01*
D02*
G37*
G36*
X660000Y620439D02*
X657298Y620084D01*
X657078Y619993D01*
X660000Y617071D01*
X662922Y619993D01*
X662702Y620084D01*
X660000Y620439D01*
D02*
G37*
G36*
X685000Y587929D02*
X682078Y585007D01*
X682298Y584916D01*
X685000Y584561D01*
X687702Y584916D01*
X687922Y585007D01*
X685000Y587929D01*
D02*
G37*
G36*
X650007Y582922D02*
X649916Y582702D01*
X649561Y580000D01*
X649916Y577298D01*
X650007Y577078D01*
X652929Y580000D01*
X650007Y582922D01*
D02*
G37*
G36*
X669993D02*
X667071Y580000D01*
X669993Y577079D01*
X670084Y577298D01*
X670439Y580000D01*
X670084Y582702D01*
X669993Y582922D01*
D02*
G37*
G36*
X675007Y597922D02*
X674916Y597702D01*
X674561Y595000D01*
X674916Y592298D01*
X675007Y592078D01*
X677929Y595000D01*
X675007Y597922D01*
D02*
G37*
G36*
X694993D02*
X692071Y595000D01*
X694993Y592079D01*
X695084Y592298D01*
X695439Y595000D01*
X695084Y597702D01*
X694993Y597922D01*
D02*
G37*
G36*
X660000Y590439D02*
X657298Y590084D01*
X657078Y589993D01*
X660000Y587071D01*
X662922Y589993D01*
X662702Y590084D01*
X660000Y590439D01*
D02*
G37*
G36*
X225007Y547922D02*
X224916Y547702D01*
X224561Y545000D01*
X224916Y542298D01*
X225007Y542078D01*
X227929Y545000D01*
X225007Y547922D01*
D02*
G37*
G36*
X244993D02*
X242071Y545000D01*
X244993Y542079D01*
X245084Y542298D01*
X245439Y545000D01*
X245084Y547702D01*
X244993Y547922D01*
D02*
G37*
G36*
X225007Y577922D02*
X224916Y577702D01*
X224561Y575000D01*
X224916Y572298D01*
X225007Y572078D01*
X227929Y575000D01*
X225007Y577922D01*
D02*
G37*
G36*
X210000Y540439D02*
X207298Y540084D01*
X207078Y539993D01*
X210000Y537071D01*
X212922Y539993D01*
X212702Y540084D01*
X210000Y540439D01*
D02*
G37*
G36*
X200007Y562922D02*
X199916Y562702D01*
X199561Y560000D01*
X199916Y557298D01*
X200007Y557078D01*
X202929Y560000D01*
X200007Y562922D01*
D02*
G37*
G36*
X219993D02*
X217071Y560000D01*
X219993Y557079D01*
X220084Y557298D01*
X220439Y560000D01*
X220084Y562702D01*
X219993Y562922D01*
D02*
G37*
G36*
X210000Y552929D02*
X207078Y550007D01*
X207298Y549916D01*
X210000Y549561D01*
X212702Y549916D01*
X212922Y550007D01*
X210000Y552929D01*
D02*
G37*
G36*
Y570439D02*
X207298Y570084D01*
X207078Y569993D01*
X210000Y567071D01*
X212922Y569993D01*
X212702Y570084D01*
X210000Y570439D01*
D02*
G37*
G36*
X235000Y567929D02*
X232078Y565007D01*
X232298Y564916D01*
X235000Y564561D01*
X237702Y564916D01*
X237922Y565007D01*
X235000Y567929D01*
D02*
G37*
G36*
Y555439D02*
X232298Y555084D01*
X232078Y554993D01*
X235000Y552071D01*
X237922Y554993D01*
X237702Y555084D01*
X235000Y555439D01*
D02*
G37*
G36*
X471000Y441929D02*
Y418071D01*
X482929Y430000D01*
X471000Y441929D01*
D02*
G37*
G36*
X509000Y441929D02*
X497071Y430000D01*
X509000Y418071D01*
Y441929D01*
D02*
G37*
G36*
X339000Y441929D02*
X327071Y430000D01*
X339000Y418071D01*
Y441929D01*
D02*
G37*
G36*
X320000Y422929D02*
X308071Y411000D01*
X331929D01*
X320000Y422929D01*
D02*
G37*
G36*
X490000Y422929D02*
X478071Y411000D01*
X501929D01*
X490000Y422929D01*
D02*
G37*
G36*
X501929Y449000D02*
X478071D01*
X490000Y437071D01*
X501929Y449000D01*
D02*
G37*
G36*
X331929D02*
X308071D01*
X320000Y437071D01*
X331929Y449000D01*
D02*
G37*
G36*
X301000Y441929D02*
Y418071D01*
X312929Y430000D01*
X301000Y441929D01*
D02*
G37*
G36*
X200007Y532922D02*
X199916Y532702D01*
X199561Y530000D01*
X199916Y527298D01*
X200007Y527078D01*
X202929Y530000D01*
X200007Y532922D01*
D02*
G37*
G36*
X219993D02*
X217071Y530000D01*
X219993Y527079D01*
X220084Y527298D01*
X220439Y530000D01*
X220084Y532702D01*
X219993Y532922D01*
D02*
G37*
G36*
X210000Y522929D02*
X207078Y520007D01*
X207298Y519916D01*
X210000Y519561D01*
X212702Y519916D01*
X212922Y520007D01*
X210000Y522929D01*
D02*
G37*
G36*
X235000Y537929D02*
X232078Y535007D01*
X232298Y534916D01*
X235000Y534561D01*
X237702Y534916D01*
X237922Y535007D01*
X235000Y537929D01*
D02*
G37*
G36*
X244993Y577922D02*
X242071Y575000D01*
X244993Y572079D01*
X245084Y572298D01*
X245439Y575000D01*
X245084Y577702D01*
X244993Y577922D01*
D02*
G37*
G36*
X210000Y600439D02*
X207298Y600084D01*
X207078Y599993D01*
X210000Y597071D01*
X212922Y599993D01*
X212702Y600084D01*
X210000Y600439D01*
D02*
G37*
G36*
X235000Y585439D02*
X232298Y585084D01*
X232078Y584993D01*
X235000Y582071D01*
X237922Y584993D01*
X237702Y585084D01*
X235000Y585439D01*
D02*
G37*
G36*
X210000Y582929D02*
X207078Y580007D01*
X207298Y579916D01*
X210000Y579561D01*
X212702Y579916D01*
X212922Y580007D01*
X210000Y582929D01*
D02*
G37*
G36*
X200007Y592921D02*
X199916Y592702D01*
X199561Y590000D01*
X199916Y587298D01*
X200007Y587078D01*
X202929Y590000D01*
X200007Y592921D01*
D02*
G37*
G36*
X219993D02*
X217071Y590000D01*
X219993Y587079D01*
X220084Y587298D01*
X220439Y590000D01*
X220084Y592702D01*
X219993Y592921D01*
D02*
G37*
G36*
X320000Y672929D02*
X308071Y661000D01*
X331929D01*
X320000Y672929D01*
D02*
G37*
G36*
X490000Y672929D02*
X478071Y661000D01*
X501929D01*
X490000Y672929D01*
D02*
G37*
G36*
X471000Y691929D02*
Y668071D01*
X482929Y680000D01*
X471000Y691929D01*
D02*
G37*
G36*
X331929Y699000D02*
X308071D01*
X320000Y687071D01*
X331929Y699000D01*
D02*
G37*
G36*
X501929D02*
X478071D01*
X490000Y687071D01*
X501929Y699000D01*
D02*
G37*
G36*
X301000Y691929D02*
Y668071D01*
X312929Y680000D01*
X301000Y691929D01*
D02*
G37*
G36*
X339000Y691929D02*
X327071Y680000D01*
X339000Y668071D01*
Y691929D01*
D02*
G37*
G36*
X509000D02*
X497071Y680000D01*
X509000Y668071D01*
Y691929D01*
D02*
G37*
G36*
X310000Y290124D02*
X303723Y289630D01*
X297601Y288160D01*
X291784Y285751D01*
X286416Y282461D01*
X281628Y278372D01*
X277539Y273584D01*
X274249Y268216D01*
X271840Y262399D01*
X270370Y256277D01*
X269876Y250000D01*
X270370Y243723D01*
X271840Y237601D01*
X274249Y231784D01*
X277539Y226416D01*
X281628Y221628D01*
X286416Y217539D01*
X291784Y214249D01*
X297601Y211840D01*
X303723Y210370D01*
X310000Y209876D01*
X316277Y210370D01*
X322399Y211840D01*
X328216Y214249D01*
X333584Y217539D01*
X338372Y221628D01*
X342461Y226416D01*
X345751Y231784D01*
X348160Y237601D01*
X349630Y243723D01*
X350124Y250000D01*
X349630Y256277D01*
X348160Y262399D01*
X345751Y268216D01*
X342461Y273584D01*
X338372Y278372D01*
X333584Y282461D01*
X328216Y285751D01*
X322399Y288160D01*
X316277Y289630D01*
X310000Y290124D01*
D02*
G37*
G36*
X220000Y280108D02*
X214508Y279676D01*
X209151Y278390D01*
X204061Y276282D01*
X199364Y273403D01*
X195175Y269825D01*
X191597Y265636D01*
X188718Y260939D01*
X186610Y255849D01*
X185324Y250492D01*
X184892Y245000D01*
X185324Y239508D01*
X186610Y234151D01*
X188718Y229061D01*
X191597Y224364D01*
X195175Y220175D01*
X199364Y216597D01*
X204061Y213718D01*
X209151Y211610D01*
X214508Y210324D01*
X220000Y209892D01*
X225492Y210324D01*
X230849Y211610D01*
X235939Y213718D01*
X240636Y216597D01*
X244825Y220175D01*
X248403Y224364D01*
X251282Y229061D01*
X253390Y234151D01*
X254676Y239508D01*
X255108Y245000D01*
X254676Y250492D01*
X253390Y255849D01*
X251282Y260939D01*
X248403Y265636D01*
X244825Y269825D01*
X240636Y273403D01*
X235939Y276282D01*
X230849Y278390D01*
X225492Y279676D01*
X220000Y280108D01*
D02*
G37*
G36*
X918500Y293112D02*
X881500D01*
X878106Y292665D01*
X876550Y292021D01*
X885035Y283535D01*
X881500Y280000D01*
X885035Y276464D01*
X876550Y267979D01*
X878106Y267335D01*
X881500Y266888D01*
X918500D01*
X921894Y267335D01*
X923450Y267979D01*
X914965Y276464D01*
X918500Y280000D01*
X914965Y283535D01*
X923450Y292021D01*
X921894Y292665D01*
X918500Y293112D01*
D02*
G37*
G36*
X1454000Y1056077D02*
X1446000D01*
X1442863Y1055769D01*
X1439847Y1054854D01*
X1437068Y1053368D01*
X1434632Y1051368D01*
X1432632Y1048932D01*
X1431146Y1046153D01*
X1430664Y1044561D01*
X1429336D01*
X1428854Y1046153D01*
X1427368Y1048932D01*
X1425368Y1051368D01*
X1422932Y1053368D01*
X1420153Y1054854D01*
X1417137Y1055769D01*
X1414000Y1056077D01*
X1406000D01*
X1402863Y1055769D01*
X1399847Y1054854D01*
X1397068Y1053368D01*
X1394632Y1051368D01*
X1392632Y1048932D01*
X1391146Y1046153D01*
X1390231Y1043137D01*
X1389923Y1040000D01*
X1390231Y1036863D01*
X1391146Y1033847D01*
X1392632Y1031068D01*
X1394632Y1028632D01*
X1397068Y1026632D01*
X1399847Y1025146D01*
X1402863Y1024231D01*
X1406000Y1023923D01*
X1414000D01*
X1417137Y1024231D01*
X1420153Y1025146D01*
X1422932Y1026632D01*
X1425368Y1028632D01*
X1427368Y1031068D01*
X1428854Y1033847D01*
X1429336Y1035439D01*
X1430664D01*
X1431146Y1033847D01*
X1432632Y1031068D01*
X1434632Y1028632D01*
X1437068Y1026632D01*
X1439847Y1025146D01*
X1442863Y1024231D01*
X1446000Y1023923D01*
X1454000D01*
X1457137Y1024231D01*
X1460153Y1025146D01*
X1462932Y1026632D01*
X1465368Y1028632D01*
X1467368Y1031068D01*
X1468854Y1033847D01*
X1469769Y1036863D01*
X1470078Y1040000D01*
X1469769Y1043137D01*
X1468854Y1046153D01*
X1467368Y1048932D01*
X1465368Y1051368D01*
X1462932Y1053368D01*
X1460153Y1054854D01*
X1457137Y1055769D01*
X1454000Y1056077D01*
D02*
G37*
G36*
X1644479Y1094950D02*
X1643835Y1093394D01*
X1643388Y1090000D01*
X1643835Y1086606D01*
X1644479Y1085050D01*
X1649429Y1090000D01*
X1644479Y1094950D01*
D02*
G37*
G36*
X1210007Y547922D02*
X1209916Y547702D01*
X1209561Y545000D01*
X1209916Y542298D01*
X1210007Y542078D01*
X1212929Y545000D01*
X1210007Y547922D01*
D02*
G37*
G36*
X1229993D02*
X1227071Y545000D01*
X1229993Y542079D01*
X1230084Y542298D01*
X1230439Y545000D01*
X1230084Y547702D01*
X1229993Y547922D01*
D02*
G37*
G36*
X1090000Y542929D02*
X1087078Y540007D01*
X1087298Y539916D01*
X1090000Y539561D01*
X1092702Y539916D01*
X1092922Y540007D01*
X1090000Y542929D01*
D02*
G37*
G36*
Y560439D02*
X1087298Y560084D01*
X1087078Y559993D01*
X1090000Y557071D01*
X1092922Y559993D01*
X1092702Y560084D01*
X1090000Y560439D01*
D02*
G37*
G36*
X1099993Y552922D02*
X1097071Y550000D01*
X1099993Y547079D01*
X1100084Y547298D01*
X1100439Y550000D01*
X1100084Y552702D01*
X1099993Y552922D01*
D02*
G37*
G36*
X1080007D02*
X1079916Y552702D01*
X1079561Y550000D01*
X1079916Y547298D01*
X1080007Y547078D01*
X1082929Y550000D01*
X1080007Y552922D01*
D02*
G37*
G36*
X1220000Y555439D02*
X1217298Y555084D01*
X1217078Y554993D01*
X1220000Y552071D01*
X1222922Y554993D01*
X1222702Y555084D01*
X1220000Y555439D01*
D02*
G37*
G36*
X1249993Y527922D02*
X1247071Y525000D01*
X1249993Y522079D01*
X1250084Y522298D01*
X1250439Y525000D01*
X1250084Y527702D01*
X1249993Y527922D01*
D02*
G37*
G36*
X1240000Y517929D02*
X1237078Y515007D01*
X1237298Y514916D01*
X1240000Y514561D01*
X1242702Y514916D01*
X1242922Y515007D01*
X1240000Y517929D01*
D02*
G37*
G36*
X1230007Y527922D02*
X1229916Y527702D01*
X1229561Y525000D01*
X1229916Y522298D01*
X1230007Y522078D01*
X1232929Y525000D01*
X1230007Y527922D01*
D02*
G37*
G36*
X1240000Y535439D02*
X1237298Y535084D01*
X1237078Y534993D01*
X1240000Y532071D01*
X1242922Y534993D01*
X1242702Y535084D01*
X1240000Y535439D01*
D02*
G37*
G36*
X1220000Y537929D02*
X1217078Y535007D01*
X1217298Y534916D01*
X1220000Y534561D01*
X1222702Y534916D01*
X1222922Y535007D01*
X1220000Y537929D01*
D02*
G37*
G36*
Y515439D02*
X1217298Y515084D01*
X1217078Y514993D01*
X1220000Y512071D01*
X1222922Y514993D01*
X1222702Y515084D01*
X1220000Y515439D01*
D02*
G37*
G36*
X1210007Y507922D02*
X1209916Y507702D01*
X1209561Y505000D01*
X1209916Y502298D01*
X1210007Y502078D01*
X1212929Y505000D01*
X1210007Y507922D01*
D02*
G37*
G36*
X1250007D02*
X1249916Y507702D01*
X1249561Y505000D01*
X1249916Y502298D01*
X1250007Y502078D01*
X1252929Y505000D01*
X1250007Y507922D01*
D02*
G37*
G36*
X1220000Y497929D02*
X1217078Y495007D01*
X1217298Y494916D01*
X1220000Y494561D01*
X1222702Y494916D01*
X1222922Y495007D01*
X1220000Y497929D01*
D02*
G37*
G36*
X1260000D02*
X1257078Y495007D01*
X1257298Y494916D01*
X1260000Y494561D01*
X1262702Y494916D01*
X1262922Y495007D01*
X1260000Y497929D01*
D02*
G37*
G36*
Y515439D02*
X1257298Y515084D01*
X1257078Y514993D01*
X1260000Y512071D01*
X1262922Y514993D01*
X1262702Y515084D01*
X1260000Y515439D01*
D02*
G37*
G36*
X1229993Y507922D02*
X1227071Y505000D01*
X1229993Y502079D01*
X1230084Y502298D01*
X1230439Y505000D01*
X1230084Y507702D01*
X1229993Y507922D01*
D02*
G37*
G36*
X1269993D02*
X1267071Y505000D01*
X1269993Y502079D01*
X1270084Y502298D01*
X1270439Y505000D01*
X1270084Y507702D01*
X1269993Y507922D01*
D02*
G37*
G36*
X934000Y1166929D02*
X917071Y1150000D01*
X934000Y1133071D01*
Y1166929D01*
D02*
G37*
G36*
X886000Y1166929D02*
Y1133071D01*
X902929Y1150000D01*
X886000Y1166929D01*
D02*
G37*
G36*
X926929Y1174000D02*
X893071D01*
X910000Y1157071D01*
X926929Y1174000D01*
D02*
G37*
G36*
X710000Y1202929D02*
X689698Y1182627D01*
X689954Y1182408D01*
X694517Y1179612D01*
X699461Y1177564D01*
X704665Y1176315D01*
X710000Y1175895D01*
X715335Y1176315D01*
X720539Y1177564D01*
X725483Y1179612D01*
X730046Y1182408D01*
X730302Y1182627D01*
X710000Y1202929D01*
D02*
G37*
G36*
X737373Y1230302D02*
X717071Y1210000D01*
X737373Y1189698D01*
X737592Y1189954D01*
X740388Y1194517D01*
X742436Y1199461D01*
X743685Y1204665D01*
X744105Y1210000D01*
X743685Y1215335D01*
X742436Y1220539D01*
X740388Y1225483D01*
X737592Y1230046D01*
X737373Y1230302D01*
D02*
G37*
G36*
X710000Y1244105D02*
X704665Y1243685D01*
X699461Y1242436D01*
X694517Y1240388D01*
X689954Y1237592D01*
X689698Y1237373D01*
X710000Y1217071D01*
X730302Y1237373D01*
X730046Y1237592D01*
X725483Y1240388D01*
X720539Y1242436D01*
X715335Y1243685D01*
X710000Y1244105D01*
D02*
G37*
G36*
X682627Y1230302D02*
X682408Y1230046D01*
X679612Y1225483D01*
X677564Y1220539D01*
X676315Y1215335D01*
X675895Y1210000D01*
X676315Y1204665D01*
X677564Y1199461D01*
X679612Y1194517D01*
X682408Y1189954D01*
X682627Y1189698D01*
X702929Y1210000D01*
X682627Y1230302D01*
D02*
G37*
G36*
X910000Y1142929D02*
X893071Y1126000D01*
X926929D01*
X910000Y1142929D01*
D02*
G37*
G36*
X700000Y395073D02*
X697059Y394783D01*
X694232Y393925D01*
X693524Y393547D01*
X700000Y387071D01*
X706476Y393547D01*
X705768Y393925D01*
X702941Y394783D01*
X700000Y395073D01*
D02*
G37*
G36*
Y372929D02*
X693524Y366453D01*
X694232Y366075D01*
X697059Y365217D01*
X700000Y364927D01*
X702941Y365217D01*
X705768Y366075D01*
X706476Y366453D01*
X700000Y372929D01*
D02*
G37*
G36*
X686453Y386476D02*
X686075Y385768D01*
X685217Y382940D01*
X684927Y380000D01*
X685217Y377060D01*
X686075Y374232D01*
X686453Y373524D01*
X692929Y380000D01*
X686453Y386476D01*
D02*
G37*
G36*
X713547D02*
X707071Y380000D01*
X713547Y373524D01*
X713925Y374232D01*
X714783Y377060D01*
X715073Y380000D01*
X714783Y382940D01*
X713925Y385768D01*
X713547Y386476D01*
D02*
G37*
G36*
X850007Y852922D02*
X849916Y852702D01*
X849561Y850000D01*
X849916Y847298D01*
X850007Y847078D01*
X852929Y850000D01*
X850007Y852922D01*
D02*
G37*
G36*
X869993D02*
X867071Y850000D01*
X869993Y847078D01*
X870084Y847298D01*
X870439Y850000D01*
X870084Y852702D01*
X869993Y852922D01*
D02*
G37*
G36*
X860000Y860439D02*
X857298Y860084D01*
X857078Y859993D01*
X860000Y857071D01*
X862922Y859993D01*
X862702Y860084D01*
X860000Y860439D01*
D02*
G37*
G36*
Y842929D02*
X857078Y840007D01*
X857298Y839916D01*
X860000Y839561D01*
X862702Y839916D01*
X862922Y840007D01*
X860000Y842929D01*
D02*
G37*
G36*
X470000Y1092929D02*
X456874Y1079803D01*
X460771Y1077720D01*
X465295Y1076347D01*
X470000Y1075884D01*
X474705Y1076347D01*
X479229Y1077720D01*
X483126Y1079803D01*
X470000Y1092929D01*
D02*
G37*
G36*
Y1124116D02*
X465295Y1123653D01*
X460771Y1122280D01*
X456874Y1120197D01*
X470000Y1107071D01*
X483126Y1120197D01*
X479229Y1122280D01*
X474705Y1123653D01*
X470000Y1124116D01*
D02*
G37*
G36*
X449803Y1113126D02*
X447720Y1109229D01*
X446347Y1104705D01*
X445884Y1100000D01*
X446347Y1095295D01*
X447720Y1090771D01*
X449803Y1086874D01*
X462929Y1100000D01*
X449803Y1113126D01*
D02*
G37*
G36*
X490197D02*
X477071Y1100000D01*
X490197Y1086874D01*
X492280Y1090771D01*
X493653Y1095295D01*
X494116Y1100000D01*
X493653Y1104705D01*
X492280Y1109229D01*
X490197Y1113126D01*
D02*
G37*
G36*
X1080000Y610439D02*
X1077298Y610084D01*
X1077078Y609993D01*
X1080000Y607071D01*
X1082922Y609993D01*
X1082702Y610084D01*
X1080000Y610439D01*
D02*
G37*
G36*
X1070007Y602922D02*
X1069916Y602702D01*
X1069561Y600000D01*
X1069916Y597298D01*
X1070007Y597078D01*
X1072929Y600000D01*
X1070007Y602922D01*
D02*
G37*
G36*
X1089993D02*
X1087071Y600000D01*
X1089993Y597079D01*
X1090084Y597298D01*
X1090439Y600000D01*
X1090084Y602702D01*
X1089993Y602922D01*
D02*
G37*
G36*
X1070007Y632922D02*
X1069916Y632702D01*
X1069561Y630000D01*
X1069916Y627298D01*
X1070007Y627079D01*
X1072929Y630000D01*
X1070007Y632922D01*
D02*
G37*
G36*
X1089993D02*
X1087071Y630000D01*
X1089993Y627079D01*
X1090084Y627298D01*
X1090439Y630000D01*
X1090084Y632702D01*
X1089993Y632922D01*
D02*
G37*
G36*
X1080000Y640439D02*
X1077298Y640084D01*
X1077078Y639993D01*
X1080000Y637071D01*
X1082922Y639993D01*
X1082702Y640084D01*
X1080000Y640439D01*
D02*
G37*
G36*
Y622929D02*
X1077078Y620007D01*
X1077298Y619916D01*
X1080000Y619561D01*
X1082702Y619916D01*
X1082922Y620007D01*
X1080000Y622929D01*
D02*
G37*
G36*
Y592929D02*
X1077078Y590007D01*
X1077298Y589916D01*
X1080000Y589561D01*
X1082702Y589916D01*
X1082922Y590007D01*
X1080000Y592929D01*
D02*
G37*
G36*
Y712929D02*
X1077078Y710007D01*
X1077298Y709916D01*
X1080000Y709561D01*
X1082702Y709916D01*
X1082922Y710007D01*
X1080000Y712929D01*
D02*
G37*
G36*
X1070007Y722922D02*
X1069916Y722702D01*
X1069561Y720000D01*
X1069916Y717298D01*
X1070007Y717078D01*
X1072929Y720000D01*
X1070007Y722922D01*
D02*
G37*
G36*
X1089993D02*
X1087071Y720000D01*
X1089993Y717078D01*
X1090084Y717298D01*
X1090439Y720000D01*
X1090084Y722702D01*
X1089993Y722922D01*
D02*
G37*
G36*
X1070007Y692922D02*
X1069916Y692702D01*
X1069561Y690000D01*
X1069916Y687298D01*
X1070007Y687078D01*
X1072929Y690000D01*
X1070007Y692922D01*
D02*
G37*
G36*
X1089993D02*
X1087071Y690000D01*
X1089993Y687078D01*
X1090084Y687298D01*
X1090439Y690000D01*
X1090084Y692702D01*
X1089993Y692922D01*
D02*
G37*
G36*
X1080000Y700439D02*
X1077298Y700084D01*
X1077078Y699993D01*
X1080000Y697071D01*
X1082922Y699993D01*
X1082702Y700084D01*
X1080000Y700439D01*
D02*
G37*
G36*
Y730439D02*
X1077298Y730084D01*
X1077078Y729993D01*
X1080000Y727071D01*
X1082922Y729993D01*
X1082702Y730084D01*
X1080000Y730439D01*
D02*
G37*
G36*
Y670439D02*
X1077298Y670084D01*
X1077078Y669993D01*
X1080000Y667071D01*
X1082922Y669993D01*
X1082702Y670084D01*
X1080000Y670439D01*
D02*
G37*
G36*
Y652929D02*
X1077078Y650007D01*
X1077298Y649916D01*
X1080000Y649561D01*
X1082702Y649916D01*
X1082922Y650007D01*
X1080000Y652929D01*
D02*
G37*
G36*
X1070007Y662922D02*
X1069916Y662702D01*
X1069561Y660000D01*
X1069916Y657298D01*
X1070007Y657078D01*
X1072929Y660000D01*
X1070007Y662922D01*
D02*
G37*
G36*
X1089993D02*
X1087071Y660000D01*
X1089993Y657078D01*
X1090084Y657298D01*
X1090439Y660000D01*
X1090084Y662702D01*
X1089993Y662922D01*
D02*
G37*
G36*
X1080000Y682929D02*
X1077078Y680007D01*
X1077298Y679916D01*
X1080000Y679561D01*
X1082702Y679916D01*
X1082922Y680007D01*
X1080000Y682929D01*
D02*
G37*
G36*
X1015000Y845439D02*
X1012298Y845084D01*
X1012078Y844993D01*
X1015000Y842071D01*
X1017922Y844993D01*
X1017702Y845084D01*
X1015000Y845439D01*
D02*
G37*
G36*
X1045000D02*
X1042298Y845084D01*
X1042078Y844993D01*
X1045000Y842071D01*
X1047922Y844993D01*
X1047702Y845084D01*
X1045000Y845439D01*
D02*
G37*
G36*
X930197Y1063126D02*
X917071Y1050000D01*
X930197Y1036874D01*
X932280Y1040771D01*
X933653Y1045295D01*
X934116Y1050000D01*
X933653Y1054705D01*
X932280Y1059229D01*
X930197Y1063126D01*
D02*
G37*
G36*
X889803Y1063126D02*
X887720Y1059229D01*
X886347Y1054705D01*
X885884Y1050000D01*
X886347Y1045295D01*
X887720Y1040771D01*
X889803Y1036874D01*
X902929Y1050000D01*
X889803Y1063126D01*
D02*
G37*
G36*
X910000Y1042929D02*
X896874Y1029803D01*
X900771Y1027720D01*
X905295Y1026347D01*
X910000Y1025884D01*
X914705Y1026347D01*
X919229Y1027720D01*
X923126Y1029803D01*
X910000Y1042929D01*
D02*
G37*
G36*
X1030000Y815439D02*
X1027298Y815084D01*
X1027078Y814993D01*
X1030000Y812071D01*
X1032922Y814993D01*
X1032702Y815084D01*
X1030000Y815439D01*
D02*
G37*
G36*
X1060000D02*
X1057298Y815084D01*
X1057078Y814993D01*
X1060000Y812071D01*
X1062922Y814993D01*
X1062702Y815084D01*
X1060000Y815439D01*
D02*
G37*
G36*
X1015000Y827929D02*
X1012078Y825007D01*
X1012298Y824916D01*
X1015000Y824561D01*
X1017702Y824916D01*
X1017922Y825007D01*
X1015000Y827929D01*
D02*
G37*
G36*
X1039993Y807922D02*
X1037071Y805000D01*
X1039993Y802078D01*
X1040084Y802298D01*
X1040439Y805000D01*
X1040084Y807702D01*
X1039993Y807922D01*
D02*
G37*
G36*
X1069993D02*
X1067071Y805000D01*
X1069993Y802078D01*
X1070084Y802298D01*
X1070439Y805000D01*
X1070084Y807702D01*
X1069993Y807922D01*
D02*
G37*
G36*
X1000000Y815439D02*
X997298Y815084D01*
X997078Y814993D01*
X1000000Y812071D01*
X1002922Y814993D01*
X1002702Y815084D01*
X1000000Y815439D01*
D02*
G37*
G36*
X1045000Y827929D02*
X1042078Y825007D01*
X1042298Y824916D01*
X1045000Y824561D01*
X1047702Y824916D01*
X1047922Y825007D01*
X1045000Y827929D01*
D02*
G37*
G36*
X1024993Y837922D02*
X1022071Y835000D01*
X1024993Y832078D01*
X1025084Y832298D01*
X1025439Y835000D01*
X1025084Y837702D01*
X1024993Y837922D01*
D02*
G37*
G36*
X1054993D02*
X1052071Y835000D01*
X1054993Y832078D01*
X1055084Y832298D01*
X1055439Y835000D01*
X1055084Y837702D01*
X1054993Y837922D01*
D02*
G37*
G36*
X1005007D02*
X1004916Y837702D01*
X1004561Y835000D01*
X1004916Y832298D01*
X1005007Y832078D01*
X1007929Y835000D01*
X1005007Y837922D01*
D02*
G37*
G36*
X1035007D02*
X1034916Y837702D01*
X1034561Y835000D01*
X1034916Y832298D01*
X1035007Y832078D01*
X1037929Y835000D01*
X1035007Y837922D01*
D02*
G37*
G36*
X220000Y1245108D02*
X214508Y1244676D01*
X209151Y1243390D01*
X204061Y1241282D01*
X199364Y1238403D01*
X195175Y1234825D01*
X191597Y1230636D01*
X188718Y1225939D01*
X186610Y1220849D01*
X185324Y1215492D01*
X184892Y1210000D01*
X185324Y1204508D01*
X186610Y1199151D01*
X188718Y1194061D01*
X191597Y1189364D01*
X195175Y1185175D01*
X199364Y1181597D01*
X204061Y1178718D01*
X209151Y1176610D01*
X214508Y1175324D01*
X220000Y1174892D01*
X225492Y1175324D01*
X230849Y1176610D01*
X235939Y1178718D01*
X240636Y1181597D01*
X244825Y1185175D01*
X248403Y1189364D01*
X251282Y1194061D01*
X253390Y1199151D01*
X254676Y1204508D01*
X255108Y1210000D01*
X254676Y1215492D01*
X253390Y1220849D01*
X251282Y1225939D01*
X248403Y1230636D01*
X244825Y1234825D01*
X240636Y1238403D01*
X235939Y1241282D01*
X230849Y1243390D01*
X225492Y1244676D01*
X220000Y1245108D01*
D02*
G37*
G36*
X310000Y1202929D02*
X289698Y1182627D01*
X289953Y1182408D01*
X294517Y1179612D01*
X299461Y1177564D01*
X304665Y1176315D01*
X310000Y1175895D01*
X315335Y1176315D01*
X320539Y1177564D01*
X325483Y1179612D01*
X330047Y1182408D01*
X330302Y1182627D01*
X310000Y1202929D01*
D02*
G37*
G36*
Y1244105D02*
X304665Y1243685D01*
X299461Y1242436D01*
X294517Y1240388D01*
X289953Y1237592D01*
X289698Y1237373D01*
X310000Y1217071D01*
X330302Y1237373D01*
X330047Y1237592D01*
X325483Y1240388D01*
X320539Y1242436D01*
X315335Y1243685D01*
X310000Y1244105D01*
D02*
G37*
G36*
X282627Y1230302D02*
X282408Y1230046D01*
X279612Y1225483D01*
X277564Y1220539D01*
X276315Y1215335D01*
X275895Y1210000D01*
X276315Y1204665D01*
X277564Y1199461D01*
X279612Y1194517D01*
X282408Y1189954D01*
X282627Y1189698D01*
X302929Y1210000D01*
X282627Y1230302D01*
D02*
G37*
G36*
X337373Y1230302D02*
X317071Y1210000D01*
X337373Y1189698D01*
X337592Y1189954D01*
X340388Y1194517D01*
X342436Y1199461D01*
X343685Y1204665D01*
X344105Y1210000D01*
X343685Y1215335D01*
X342436Y1220539D01*
X340388Y1225483D01*
X337592Y1230046D01*
X337373Y1230302D01*
D02*
G37*
G36*
X910000Y1074116D02*
X905295Y1073653D01*
X900771Y1072280D01*
X896874Y1070197D01*
X910000Y1057071D01*
X923126Y1070197D01*
X919229Y1072280D01*
X914705Y1073653D01*
X910000Y1074116D01*
D02*
G37*
G36*
X1009993Y807922D02*
X1007071Y805000D01*
X1009993Y802078D01*
X1010084Y802298D01*
X1010439Y805000D01*
X1010084Y807702D01*
X1009993Y807922D01*
D02*
G37*
G36*
X990007D02*
X989916Y807702D01*
X989561Y805000D01*
X989916Y802298D01*
X990007Y802078D01*
X992929Y805000D01*
X990007Y807922D01*
D02*
G37*
G36*
X1020007D02*
X1019916Y807702D01*
X1019561Y805000D01*
X1019916Y802298D01*
X1020007Y802078D01*
X1022929Y805000D01*
X1020007Y807922D01*
D02*
G37*
G36*
X1050007D02*
X1049916Y807702D01*
X1049561Y805000D01*
X1049916Y802298D01*
X1050007Y802078D01*
X1052929Y805000D01*
X1050007Y807922D01*
D02*
G37*
G36*
X1000000Y797929D02*
X997078Y795007D01*
X997298Y794916D01*
X1000000Y794561D01*
X1002702Y794916D01*
X1002922Y795007D01*
X1000000Y797929D01*
D02*
G37*
G36*
X1030000D02*
X1027078Y795007D01*
X1027298Y794916D01*
X1030000Y794561D01*
X1032702Y794916D01*
X1032922Y795007D01*
X1030000Y797929D01*
D02*
G37*
G36*
X1060000D02*
X1057078Y795007D01*
X1057298Y794916D01*
X1060000Y794561D01*
X1062702Y794916D01*
X1062922Y795007D01*
X1060000Y797929D01*
D02*
G37*
%LPD*%
D33*
X817825Y722825D02*
X824998Y729998D01*
X817825Y677175D02*
X915000Y580000D01*
X817825Y677175D02*
Y722825D01*
X820000Y470000D02*
Y530000D01*
X1615000Y540000D02*
X1760000D01*
X1730000Y505000D02*
X1760000D01*
X1729200Y504200D02*
X1730000Y505000D01*
X1735000Y485000D02*
X1760000D01*
X1790000Y490000D02*
Y592500D01*
X1695000Y395000D02*
X1790000Y490000D01*
X1695000Y325000D02*
Y395000D01*
X1772500Y585000D02*
X1775000Y587500D01*
X1717500Y585000D02*
X1772500D01*
X1775000Y607500D02*
X1790000Y592500D01*
X1730000Y607500D02*
X1775000D01*
X1690000Y570000D02*
X1790000D01*
X1685000Y575000D02*
X1690000Y570000D01*
X1707500Y595000D02*
X1717500Y585000D01*
X1732500Y732000D02*
X1738000D01*
X1717500Y747000D02*
X1732500Y732000D01*
X1592000Y747000D02*
X1717500D01*
X1727000Y706600D02*
X1730000Y709600D01*
X1690000Y706600D02*
X1727000D01*
X1690000D02*
Y710000D01*
X1701200Y681200D02*
X1732500D01*
X1674200Y654200D02*
X1701200Y681200D01*
X1730000Y655800D02*
X1732500Y658300D01*
X1705800Y655800D02*
X1730000D01*
X1688525Y638525D02*
X1705800Y655800D01*
X1722900Y630400D02*
X1732500D01*
X1707500Y615000D02*
X1722900Y630400D01*
X1707500Y595000D02*
Y615000D01*
X1309000Y325000D02*
X1425000D01*
X1290000Y344000D02*
X1309000Y325000D01*
X1605000D02*
Y355000D01*
X1735000Y485000D01*
X1285000Y475000D02*
X1295000Y465000D01*
X1034637Y475000D02*
X1285000D01*
X1029287Y480350D02*
X1034637Y475000D01*
X929650Y480350D02*
X1029287D01*
X925000Y485000D02*
X929650Y480350D01*
X1280000Y460000D02*
X1305000Y435000D01*
X1215000Y460000D02*
X1280000D01*
X1200000Y445000D02*
X1215000Y460000D01*
X1220000Y445000D02*
X1240000D01*
X1205000Y430000D02*
X1220000Y445000D01*
X1305000Y415000D02*
X1326025Y393975D01*
X1175000Y415000D02*
X1305000D01*
X1165000Y405000D02*
X1175000Y415000D01*
X1605000Y655000D02*
X1635000Y625000D01*
X1645000Y654200D02*
Y660000D01*
X795000Y475000D02*
Y840000D01*
Y475000D02*
X830000Y440000D01*
X975000D01*
X980000Y435000D01*
Y415000D02*
Y435000D01*
X900000Y360000D02*
X965000Y425000D01*
X1015000Y455000D02*
X1025000Y445000D01*
X835000Y455000D02*
X1015000D01*
X820000Y470000D02*
X835000Y455000D01*
X1025000Y470000D02*
X1040000Y455000D01*
X920000Y470000D02*
X1025000D01*
X910000Y480000D02*
X920000Y470000D01*
X910000Y480000D02*
Y545000D01*
X1135000Y415000D02*
X1165000Y445000D01*
X1150000Y410000D02*
X1170000Y430000D01*
X1150000Y325000D02*
Y410000D01*
X915000Y550000D02*
Y580000D01*
X910000Y545000D02*
X915000Y550000D01*
X1040000Y280000D02*
Y295000D01*
X1010000Y360000D02*
Y385000D01*
X840000Y510000D02*
Y520000D01*
X885000Y565000D01*
X1405800Y420000D02*
X1430000Y444200D01*
X1425000Y495000D02*
X1430000D01*
X1405800Y530000D02*
X1430000Y554200D01*
X1395000Y530000D02*
X1405800D01*
X1425000Y605000D02*
X1430000D01*
X660000Y500000D02*
X830000Y330000D01*
Y280000D02*
Y330000D01*
X760000Y280000D02*
Y380000D01*
X625000Y515000D02*
X760000Y380000D01*
X625000Y515000D02*
Y550000D01*
X900000Y280000D02*
Y360000D01*
X1180000Y400000D02*
Y400000D01*
X1165000Y375000D02*
Y405000D01*
Y375000D02*
X1185000Y355000D01*
X835000Y710000D02*
X875000Y670000D01*
X895000D01*
X885000Y565000D02*
X900000D01*
X1600000Y555000D02*
X1615000Y540000D01*
X1590000Y390000D02*
Y445000D01*
X1145000Y995000D02*
Y1035000D01*
X1170400Y1009600D02*
Y1035000D01*
Y1009600D02*
X1185000Y995000D01*
X1221200Y1008800D02*
Y1035000D01*
Y1008800D02*
X1235000Y995000D01*
X1272000Y998000D02*
X1275000Y995000D01*
X1170400Y1144600D02*
X1185000Y1130000D01*
X1221200Y1143800D02*
Y1170000D01*
Y1143800D02*
X1235000Y1130000D01*
X1272000Y1133000D02*
Y1170000D01*
Y1133000D02*
X1275000Y1130000D01*
X1395000Y860000D02*
X1430000D01*
X1145000Y995000D02*
X1310000Y830000D01*
X1185000Y995000D02*
Y995000D01*
X1221200Y1170000D02*
Y1181200D01*
X1235000Y1195000D01*
X1280000D01*
X1275000Y1105000D02*
Y1130000D01*
Y1105000D02*
X1430000Y950000D01*
X1450000Y970000D02*
X1470000Y950000D01*
X1280000Y1195000D02*
X1295000Y1180000D01*
X1430000Y970000D02*
X1450000D01*
X1295000Y1105000D02*
Y1180000D01*
Y1105000D02*
X1430000Y970000D01*
X1272000Y998000D02*
Y1035000D01*
X1275000Y960000D02*
Y995000D01*
X1430000Y770000D02*
Y805000D01*
X1505000Y615000D02*
Y655000D01*
X1450000Y670000D02*
X1465000Y655000D01*
Y615000D02*
Y655000D01*
Y505000D02*
Y615000D01*
X1310000Y810000D02*
Y830000D01*
X1605000Y700000D02*
X1645000Y660000D01*
X1305000Y805000D02*
X1310000Y810000D01*
Y620000D02*
X1335000Y595000D01*
Y565000D02*
Y595000D01*
X1317500Y547500D02*
X1335000Y565000D01*
X1395000Y495000D02*
Y530000D01*
X1335000Y435000D02*
X1395000Y495000D01*
X1300000Y505000D02*
X1320000Y485000D01*
X1300000Y505000D02*
Y560000D01*
X1285000Y575000D02*
X1300000Y560000D01*
X1285000Y575000D02*
Y740000D01*
X970000Y405000D02*
X980000Y415000D01*
X970000Y280000D02*
Y405000D01*
X1470000Y740000D02*
X1490000Y760000D01*
X1450000Y740000D02*
X1470000D01*
X1435000Y725000D02*
X1450000Y740000D01*
X1435000Y685000D02*
Y725000D01*
Y685000D02*
X1450000Y670000D01*
X1505000Y765000D02*
X1520000Y750000D01*
X1465000Y695000D02*
X1505000Y735000D01*
X1450000Y710000D02*
X1465000Y695000D01*
X1505000Y655000D01*
X1285000Y495000D02*
Y552500D01*
Y495000D02*
X1300000Y480000D01*
X1320000D02*
Y485000D01*
X1325000Y465000D02*
X1350000Y490000D01*
X1295000Y465000D02*
X1325000D01*
X1305000Y435000D02*
X1335000D01*
X1165000Y445000D02*
X1200000D01*
X1170000Y430000D02*
X1205000D01*
X1395000Y420000D02*
X1405800D01*
X1505000Y735000D02*
X1555000D01*
X1520000Y750000D02*
X1589000D01*
X1592000Y747000D01*
X1590000Y445000D02*
X1615000Y470000D01*
X1545000Y700000D02*
X1592000Y747000D01*
X1585000Y530000D02*
X1610000Y505000D01*
X1620000Y730000D02*
X1645000Y705000D01*
X1565000Y695000D02*
X1600000Y730000D01*
X1620000D01*
X1585000Y530000D02*
Y590000D01*
X1610000Y615000D01*
X1575000Y400000D02*
Y500000D01*
X1565000Y660000D02*
Y695000D01*
X1570000Y505000D02*
X1575000Y500000D01*
X1545000Y635000D02*
Y700000D01*
Y635000D02*
X1570000Y610000D01*
Y505000D02*
Y610000D01*
X1565000Y640000D02*
X1590000D01*
X1605000Y655000D01*
X1675000Y1050000D02*
X1680000D01*
X1712500Y1082500D01*
X1675000Y1010000D02*
X1680000D01*
X1695000D02*
X1725000Y1040000D01*
Y1150000D01*
X1675000Y970000D02*
X1690000D01*
X1740000Y1020000D01*
Y1155000D01*
X1450000Y1150000D02*
X1455000Y1155000D01*
X1510000Y1150000D02*
X1515000Y1155000D01*
Y1185000D01*
X1555000D02*
Y1195000D01*
X1565000Y1205000D01*
X1550000Y770000D02*
X1565000Y785000D01*
X1715000D01*
X1550000Y860000D02*
X1590000Y820000D01*
X1715000D01*
X1550000Y950000D02*
X1645000Y855000D01*
X1715000D01*
X1660000Y890000D02*
X1715000D01*
X1595000Y955000D02*
X1660000Y890000D01*
X1595000Y955000D02*
Y995000D01*
X1550000Y1040000D02*
X1595000Y995000D01*
X1535000Y1090000D02*
X1675000D01*
Y930000D02*
X1685000D01*
X1755000Y1000000D01*
X1495000Y1185000D02*
Y1200000D01*
X1330000Y1170000D02*
X1415000D01*
X1435000Y1190000D01*
Y1185000D02*
Y1200000D01*
X1755000Y1000000D02*
Y1160000D01*
X1330000Y1130000D02*
X1455000D01*
X1495000Y1170000D01*
Y1185000D01*
X1570000Y1150000D02*
X1575000Y1155000D01*
Y1185000D01*
X1490000Y760000D02*
Y1105000D01*
X1555000Y1170000D01*
Y1175000D01*
X1630000Y1150000D02*
X1635000Y1155000D01*
Y1185000D01*
X1505000Y765000D02*
Y1060000D01*
X1615000Y1170000D01*
Y1175000D01*
X1455000Y1155000D02*
Y1185000D01*
Y1190000D01*
X1565000Y1205000D02*
X1645000D01*
X1712500Y1137500D01*
Y1082500D02*
Y1137500D01*
X1495000Y1200000D02*
X1512500Y1217500D01*
X1657500D01*
X1725000Y1150000D01*
X1435000Y1200000D02*
X1465000Y1230000D01*
X1665000D01*
X1740000Y1155000D01*
X1672500Y1242500D02*
X1755000Y1160000D01*
X1615000Y505000D02*
Y540000D01*
Y470000D02*
Y505000D01*
X1305000Y750000D02*
Y805000D01*
Y750000D02*
X1385000Y670000D01*
X1420000D01*
X1335000Y435000D02*
X1362500Y407500D01*
X1380000D01*
X1568975Y393975D02*
X1575000Y400000D01*
X1326025Y393975D02*
X1568975D01*
X1317500Y380000D02*
X1580000D01*
X1590000Y390000D01*
X1590000Y365000D02*
X1729200Y504200D01*
X1040000Y405000D02*
Y455000D01*
X1025000Y395000D02*
Y445000D01*
X1040000Y405000D02*
X1090000Y355000D01*
X1025000Y395000D02*
X1065000Y355000D01*
X1010000Y360000D02*
X1030000Y340000D01*
X1135000Y350000D02*
Y415000D01*
X1030000Y340000D02*
X1125000D01*
X1135000Y350000D01*
X1040000Y295000D02*
X1070000Y325000D01*
X1150000D01*
X1225000Y355000D02*
X1239200Y369200D01*
X1306700D02*
X1317500Y380000D01*
X1180000Y400000D02*
X1185400Y394600D01*
X1290000D01*
X1325000Y350000D02*
X1340000Y365000D01*
X1590000D01*
X1585000Y685800D02*
X1605000Y705800D01*
X1290000Y344000D02*
Y369200D01*
X1239200D02*
X1290000D01*
X1306700D01*
X1395000Y1210000D02*
X1427500Y1242500D01*
X1672500D01*
X1645000Y705000D02*
X1650000Y710000D01*
X1690000D01*
X1645000Y654200D02*
X1674200D01*
X1635000Y625000D02*
X1670873D01*
X1185000Y995000D02*
X1220000Y960000D01*
X1230000D01*
X1275000Y960000D02*
X1430000Y805000D01*
X1330000Y925000D02*
X1395000Y860000D01*
X1405000Y585000D02*
X1425000Y605000D01*
X1400000Y585000D02*
X1405000D01*
Y475000D02*
X1425000Y495000D01*
X1400000Y475000D02*
X1405000D01*
X1350000Y490000D02*
Y625000D01*
X1670873D02*
X1684398Y638525D01*
X1688525D01*
D34*
X1145000Y1130000D02*
Y1170000D01*
X1170400Y1144600D02*
Y1170000D01*
X1145000D02*
Y1180000D01*
Y1035000D02*
Y1130000D01*
X1170400Y1035000D02*
Y1144600D01*
Y1170000D02*
X1215400Y1215000D01*
X1340000D01*
X1360000Y1195000D01*
X1145000Y1180000D02*
X1205000Y1240000D01*
X1370000D01*
X1395000Y1215000D01*
Y1210000D02*
Y1215000D01*
D48*
X310000Y1210000D02*
D03*
D62*
X1145000Y1035000D02*
D03*
X1170400D02*
D03*
X1221200D02*
D03*
X1272000D02*
D03*
Y1170000D02*
D03*
X1221200D02*
D03*
X1170400D02*
D03*
X1145000D02*
D03*
D63*
X1430000Y495000D02*
D03*
X1645000Y705000D02*
D03*
X1605000Y655000D02*
D03*
X1430000Y605000D02*
D03*
D64*
Y444200D02*
D03*
X1645000Y654200D02*
D03*
X1605000Y705800D02*
D03*
X1430000Y554200D02*
D03*
D65*
X1715000Y890000D02*
D03*
Y855000D02*
D03*
Y820000D02*
D03*
Y785000D02*
D03*
D66*
X1360000Y1195000D02*
D03*
X1395000D02*
D03*
D67*
X490000Y505000D02*
D03*
Y605000D02*
D03*
X320000Y505000D02*
D03*
Y605000D02*
D03*
D68*
X490000Y430000D02*
D03*
Y680000D02*
D03*
X320000Y430000D02*
D03*
Y680000D02*
D03*
D69*
X910000Y1050000D02*
D03*
X470000Y1100000D02*
D03*
X270000D02*
D03*
D70*
X910000Y1150000D02*
D03*
D71*
X380000Y1030000D02*
D03*
Y850000D02*
D03*
D72*
X1290000Y420000D02*
D03*
Y394600D02*
D03*
Y369200D02*
D03*
D73*
X1575000Y615000D02*
D03*
X1615000D02*
D03*
X1470000Y860000D02*
D03*
X1430000D02*
D03*
X1470000Y770000D02*
D03*
X1430000D02*
D03*
X835000Y710000D02*
D03*
X875000D02*
D03*
X1450000Y1040000D02*
D03*
X1410000D02*
D03*
X840000Y510000D02*
D03*
X880000D02*
D03*
X1470000Y950000D02*
D03*
X1430000D02*
D03*
X1145000Y1130000D02*
D03*
X1185000D02*
D03*
X1235000D02*
D03*
X1275000D02*
D03*
X1145000Y995000D02*
D03*
X1185000D02*
D03*
X1235000D02*
D03*
X1275000D02*
D03*
X1465000Y505000D02*
D03*
X1505000D02*
D03*
X1575000D02*
D03*
X1615000D02*
D03*
X1465000Y615000D02*
D03*
X1505000D02*
D03*
X1185000Y355000D02*
D03*
X1225000D02*
D03*
D74*
X1317500Y547500D02*
D03*
Y587500D02*
D03*
X1320000Y735000D02*
D03*
Y775000D02*
D03*
X1420000Y670000D02*
D03*
Y710000D02*
D03*
X1450000Y670000D02*
D03*
Y710000D02*
D03*
X1635000Y1185000D02*
D03*
X1515000D02*
D03*
X1455000D02*
D03*
X1575000D02*
D03*
D75*
X1732500Y605000D02*
D03*
Y630400D02*
D03*
Y655800D02*
D03*
Y681200D02*
D03*
Y706600D02*
D03*
Y732000D02*
D03*
D76*
X1515000Y325000D02*
D03*
X1560000D02*
D03*
X1605000D02*
D03*
X1650000D02*
D03*
X1695000D02*
D03*
X1425000D02*
D03*
X1470000D02*
D03*
D77*
X1675000Y1090000D02*
D03*
Y1050000D02*
D03*
Y1010000D02*
D03*
Y970000D02*
D03*
Y930000D02*
D03*
X1335000Y280000D02*
D03*
X1265000D02*
D03*
X1195000D02*
D03*
X1125000D02*
D03*
X1550000Y770000D02*
D03*
Y860000D02*
D03*
Y950000D02*
D03*
Y1040000D02*
D03*
X1040000Y280000D02*
D03*
X830000D02*
D03*
X970000D02*
D03*
X760000D02*
D03*
X900000D02*
D03*
X690000D02*
D03*
D78*
X310000Y1210000D02*
D03*
X710000D02*
D03*
X600000Y250000D02*
D03*
X310000D02*
D03*
D79*
X1800000D02*
D03*
Y1210000D02*
D03*
X220000D02*
D03*
Y245000D02*
D03*
D80*
X1615000Y1185000D02*
D03*
X1495000D02*
D03*
X1435000D02*
D03*
X1555000D02*
D03*
D81*
X700000Y380000D02*
D03*
X1200000Y880000D02*
D03*
D82*
X824998Y729998D02*
D03*
X820000Y530000D02*
D03*
X1760000Y540000D02*
D03*
Y505000D02*
D03*
Y485000D02*
D03*
X1775000Y587500D02*
D03*
X1240000Y525000D02*
D03*
X1220000Y545000D02*
D03*
X1260000Y505000D02*
D03*
X1220000D02*
D03*
X1090000Y550000D02*
D03*
X1240000Y445000D02*
D03*
X1080000Y720000D02*
D03*
Y690000D02*
D03*
Y660000D02*
D03*
Y630000D02*
D03*
Y600000D02*
D03*
X1045000Y835000D02*
D03*
X1015000D02*
D03*
X1000000Y805000D02*
D03*
X1030000D02*
D03*
X1060000D02*
D03*
X685000Y595000D02*
D03*
X660000Y610000D02*
D03*
Y580000D02*
D03*
Y550000D02*
D03*
X685000Y565000D02*
D03*
X425000D02*
D03*
X410000Y540000D02*
D03*
X395000Y565000D02*
D03*
X380000Y540000D02*
D03*
X440000D02*
D03*
X235000Y545000D02*
D03*
Y575000D02*
D03*
X210000Y530000D02*
D03*
Y560000D02*
D03*
X965000Y425000D02*
D03*
X1010000Y385000D02*
D03*
X925000Y485000D02*
D03*
X1590000Y445000D02*
D03*
X1395000Y530000D02*
D03*
X660000Y500000D02*
D03*
X1180000Y400000D02*
D03*
X210000Y590000D02*
D03*
X895000Y670000D02*
D03*
X900000Y565000D02*
D03*
X1600000Y555000D02*
D03*
X1685000Y575000D02*
D03*
X1310000Y810000D02*
D03*
X1285000Y552500D02*
D03*
X1310000Y620000D02*
D03*
X1285000Y740000D02*
D03*
X1330000Y1170000D02*
D03*
Y1130000D02*
D03*
X1300000Y480000D02*
D03*
X1320000D02*
D03*
X1395000Y420000D02*
D03*
X1555000Y735000D02*
D03*
X1565000Y660000D02*
D03*
Y640000D02*
D03*
X1450000Y1150000D02*
D03*
X1510000D02*
D03*
X1570000D02*
D03*
X1630000D02*
D03*
X1380000Y407500D02*
D03*
X1090000Y355000D02*
D03*
X1065000D02*
D03*
X1325000Y350000D02*
D03*
X1585000Y685800D02*
D03*
X1690000Y710000D02*
D03*
X1230000Y960000D02*
D03*
X1330000Y925000D02*
D03*
X860000Y850000D02*
D03*
X1400000Y585000D02*
D03*
Y475000D02*
D03*
X1350000Y625000D02*
D03*
X1690000D02*
D03*
X1625000Y635000D02*
D03*
D83*
X700000Y380000D02*
X725000Y355000D01*
Y255000D02*
Y355000D01*
D84*
X600000Y250000D02*
D03*
X710000Y1210000D02*
D03*
D85*
X910000Y1150000D02*
D03*
Y1050000D02*
D03*
X270000Y1100000D02*
D03*
D86*
X470000D02*
D03*
D87*
X380000Y1032500D02*
D03*
D88*
Y850000D02*
D03*
M02*
