M48
;Layer_Color=9474304
;FILE_FORMAT=4:4
METRIC,LZ
;TYPE=PLATED
T1F00S00C0.6000
T2F00S00C0.6350
T3F00S00C0.7112
T4F00S00C0.7500
T5F00S00C0.8000
T6F00S00C1.0000
T7F00S00C1.5000
T8F00S00C2.0000
T9F00S00C2.2000
T10F00S00C3.5000
T11F00S00C4.0000
%
T01
X01435Y01185
X01455
X01495
X01515
X01555
X01575
X01615
X01635
T02
X01185Y00355
X01225
X01615Y00505
Y00615
X01605Y00655
X01645Y006542
Y00705
X01605Y007058
X01575Y00615
X01505
X01465
X0143Y00605
Y005542
Y00495
X01465Y00505
X01505
X01575
X0143Y004442
X013175Y005475
Y005875
X0132Y00735
Y00775
X0143Y0077
X0147
X0145Y0071
X0142
Y0067
X0145
X00875Y0071
X00835
X0084Y0051
X0088
X01145Y00995
X01185
Y0113
X01145
X01235
X01275
Y00995
X01235
X0141Y0104
X0145
X0147Y0095
X0143
Y0086
X0147
T03
X0101Y00385
X01065Y00355
X0109
X01325Y0035
X0159Y00445
X016Y00555
X01625Y00635
X0169Y00625
X01685Y00575
X01769996Y00587499
X01755Y0054
Y005042
Y00485
X0169Y0071
X01585Y006858
X01565Y0066
Y0064
X01555Y00735
X01285Y0074
X0131Y0062
X0135Y00625
X014Y00585
X01395Y0053
X014Y00475
X01395Y0042
X0138Y004075
X0132Y0048
X013
X0126Y00505
X0124Y00525
X0122Y00505
Y00545
X01285Y005525
X0124Y00445
X0118Y004
X0109Y0055
X0108Y006
Y0063
Y0066
Y0069
Y0072
X00895Y0067
X009Y00565
X00925Y00485
X00965Y00425
X0082Y00525
X00815Y0073
X00685Y00595
Y00565
X0066Y0055
Y0058
Y0061
Y005
X0044Y0054
X0041
X00425Y00565
X00395
X0038Y0054
X00235Y00545
Y00575
X0021Y0059
Y0056
Y0053
X0086Y0085
X01015Y00835
X01045
X0106Y00805
X0103
X01
X0131Y0081
X0133Y00925
X0123Y0096
X0133Y0113
Y0117
X0145Y0115
X0151
X0157
X0163
T04
X0129Y003692
Y003946
Y0042
T05
X01145Y01035
X011704
Y0117
X01145
X012212
X012466
X01272
Y01035
X012466
X012212
T06
X017325Y00605
Y006304
Y006558
Y006812
Y007066
Y00732
X01715Y00785
X0049Y0068
Y00605
Y00505
Y0043
X0032
Y00505
Y00605
Y0068
X01715Y0082
Y00855
Y0089
X01395Y01195
X0136
T07
X0069Y0028
X0076
X0083
X009
X0097
X0104
X01125
X01195
X01265
X01335
X01425Y00325
X0147
X01515
X0156
X01605
X0165
X01695
X0155Y0077
X0038Y0085
Y0103
X0155Y0104
Y0095
Y0086
X01675Y0093
Y0097
Y0101
Y0105
Y0109
T08
X0027Y011
X0047
T09
X007Y0038
X0091Y0105
Y0115
X012Y0088
T10
X0022Y00245
X018Y0025
Y0121
X0022
T11
X0031Y0025
X006
X0071Y0121
X0031
M30
