G04 Layer_Physical_Order=2*
G04 Layer_Color=16711680*
%FSLAX43Y43*%
%MOMM*%
G71*
G01*
G75*
%ADD33C,0.635*%
%ADD34C,1.270*%
%ADD51R,8.000X8.000*%
%ADD56C,0.508*%
%ADD57O,1.200X2.000*%
%ADD58R,1.200X2.000*%
%ADD59C,5.000*%
%ADD60C,6.000*%
%ADD61O,5.500X1.800*%
%ADD62O,1.800X5.500*%
%ADD63O,2.000X1.200*%
%ADD64O,3.048X1.524*%
%ADD65O,1.800X2.400*%
%ADD66R,4.000X4.000*%
%ADD67C,4.000*%
%ADD68R,3.000X3.000*%
%ADD69C,3.000*%
%ADD70O,1.800X3.000*%
%ADD71O,3.000X1.800*%
%ADD72O,2.600X1.800*%
%ADD73O,1.270X2.540*%
%ADD74R,1.270X2.540*%
%ADD75O,3.000X4.000*%
%ADD76C,1.270*%
%ADD77C,0.500*%
%ADD78R,4.000X6.000*%
%ADD79R,4.000X6.000*%
%ADD80R,6.000X6.000*%
%ADD81R,6.000X6.000*%
%ADD82R,8.000X8.000*%
G36*
X83100Y69392D02*
X83228D01*
X86560Y66060D01*
X86836Y65849D01*
X87156Y65716D01*
X87500Y65671D01*
X88542D01*
X88587Y65634D01*
X88871Y65482D01*
X89179Y65389D01*
X89500Y65357D01*
X89821Y65389D01*
X90129Y65482D01*
X90413Y65634D01*
X90662Y65838D01*
X90866Y66087D01*
X91018Y66371D01*
X91111Y66679D01*
X91143Y67000D01*
X91115Y67279D01*
X91234Y67339D01*
X91287Y67287D01*
X91496Y67127D01*
X91739Y67026D01*
X92000Y66991D01*
X103582D01*
X104991Y65582D01*
X104991Y59000D01*
X105026Y58739D01*
X105127Y58496D01*
X105287Y58287D01*
X105287Y58287D01*
X106574Y57000D01*
X105287Y55713D01*
X105287Y55713D01*
X105127Y55504D01*
X105026Y55261D01*
X104991Y55000D01*
X104991Y50000D01*
X105026Y49739D01*
X105127Y49496D01*
X105287Y49287D01*
X105287Y49287D01*
X105627Y48946D01*
X105579Y48829D01*
X104014D01*
X103868Y48975D01*
X103593Y49186D01*
X103273Y49319D01*
X102929Y49364D01*
X93892D01*
X93866Y49413D01*
X93662Y49662D01*
X93413Y49866D01*
X93129Y50018D01*
X92821Y50111D01*
X92500Y50143D01*
X92423Y50135D01*
X92329Y50221D01*
Y53950D01*
X92440Y54060D01*
X92651Y54336D01*
X92784Y54656D01*
X92829Y55000D01*
Y58000D01*
X92784Y58344D01*
X92651Y58664D01*
X92440Y58940D01*
X82829Y68550D01*
Y69324D01*
X82923Y69410D01*
X83100Y69392D01*
D02*
G37*
G36*
X144763Y49607D02*
X144963Y49363D01*
X145207Y49163D01*
X145485Y49015D01*
X145786Y48923D01*
X146100Y48892D01*
X146900D01*
X147214Y48923D01*
X147515Y49015D01*
X147793Y49163D01*
X147885Y49239D01*
X148000Y49184D01*
Y42000D01*
X146726Y40726D01*
X139664D01*
X139643Y40750D01*
X139621Y40972D01*
X139770Y40992D01*
X139792Y41001D01*
X139563Y41230D01*
X139518Y41379D01*
X139366Y41663D01*
X139274Y41774D01*
X139162Y41912D01*
X138913Y42116D01*
X138629Y42268D01*
X138506Y42305D01*
X138506Y42305D01*
X138321Y42361D01*
X138000Y42393D01*
X137679Y42361D01*
X137371Y42268D01*
X137087Y42116D01*
X137042Y42079D01*
X136800D01*
X135379Y43500D01*
X138500Y46621D01*
X138610Y46605D01*
X138639Y46581D01*
X138838Y46338D01*
X139087Y46134D01*
X139371Y45982D01*
X139679Y45889D01*
X140000Y45857D01*
X140321Y45889D01*
X140629Y45982D01*
X140913Y46134D01*
X141162Y46338D01*
X141181Y46362D01*
X141440Y46560D01*
X142109Y47230D01*
X144635D01*
Y49585D01*
X144758Y49616D01*
X144763Y49607D01*
D02*
G37*
G36*
X86115Y50385D02*
X86263Y50107D01*
X86463Y49863D01*
X86707Y49663D01*
X86985Y49515D01*
X87286Y49423D01*
X87600Y49392D01*
X88400D01*
X88714Y49423D01*
X89015Y49515D01*
X89293Y49663D01*
X89537Y49863D01*
X89552Y49881D01*
X89671Y49838D01*
Y48000D01*
X89716Y47656D01*
X89849Y47336D01*
X90060Y47060D01*
X90174Y46946D01*
X90126Y46829D01*
X84050D01*
X83329Y47550D01*
Y49324D01*
X83423Y49410D01*
X83600Y49392D01*
X84400D01*
X84714Y49423D01*
X85015Y49515D01*
X85293Y49663D01*
X85537Y49863D01*
X85737Y50107D01*
X85885Y50385D01*
X85934Y50544D01*
X86066D01*
X86115Y50385D01*
D02*
G37*
G36*
X130392Y73228D02*
Y73100D01*
X130423Y72786D01*
X130515Y72485D01*
X130663Y72207D01*
X130863Y71963D01*
X131107Y71763D01*
X131385Y71615D01*
X131686Y71523D01*
X132000Y71492D01*
X132117Y71504D01*
X137560Y66060D01*
X137836Y65849D01*
X138156Y65716D01*
X138500Y65671D01*
X140692D01*
X140863Y65463D01*
X141107Y65263D01*
X141385Y65115D01*
X141686Y65023D01*
X142000Y64992D01*
X142314Y65023D01*
X142615Y65115D01*
X142893Y65263D01*
X143137Y65463D01*
X143337Y65707D01*
X143428Y65877D01*
X143572D01*
X143663Y65707D01*
X143863Y65463D01*
X144107Y65263D01*
X144385Y65115D01*
X144686Y65023D01*
X145000Y64992D01*
X145064Y64999D01*
X145171Y64900D01*
Y62808D01*
X144963Y62637D01*
X144763Y62393D01*
X144758Y62384D01*
X144635Y62415D01*
Y62770D01*
X141365D01*
Y61244D01*
X140240Y60119D01*
X140000Y60143D01*
X139679Y60111D01*
X139371Y60018D01*
X139087Y59866D01*
X138838Y59662D01*
X138634Y59413D01*
X138482Y59129D01*
X138389Y58821D01*
X138357Y58500D01*
X138389Y58179D01*
X138482Y57871D01*
X138634Y57587D01*
X138838Y57338D01*
X139087Y57134D01*
X139371Y56982D01*
X139679Y56889D01*
X140000Y56857D01*
X140321Y56889D01*
X140629Y56982D01*
X140913Y57134D01*
X141162Y57338D01*
X141181Y57362D01*
X141440Y57560D01*
X142109Y58230D01*
X144635D01*
Y60585D01*
X144758Y60616D01*
X144763Y60607D01*
X144963Y60363D01*
X145171Y60192D01*
Y51808D01*
X144963Y51637D01*
X144763Y51393D01*
X144758Y51384D01*
X144635Y51415D01*
Y51770D01*
X141365D01*
Y50244D01*
X140946Y49826D01*
X140829Y49874D01*
Y51704D01*
X140924Y51716D01*
X141057Y51771D01*
X141244Y51849D01*
X141520Y52060D01*
X142644Y53184D01*
X142679Y53174D01*
X143000Y53142D01*
X143321Y53174D01*
X143629Y53267D01*
X143913Y53419D01*
X144162Y53623D01*
X144366Y53872D01*
X144518Y54156D01*
X144611Y54464D01*
X144643Y54785D01*
Y56055D01*
X144611Y56376D01*
X144518Y56684D01*
X144366Y56968D01*
X144162Y57217D01*
X143913Y57421D01*
X143629Y57573D01*
X143321Y57666D01*
X143000Y57698D01*
X142679Y57666D01*
X142371Y57573D01*
X142087Y57421D01*
X141838Y57217D01*
X141634Y56968D01*
X141482Y56684D01*
X141389Y56376D01*
X141357Y56055D01*
Y55656D01*
X140187Y54487D01*
X140129Y54518D01*
X139821Y54611D01*
X139500Y54643D01*
X139179Y54611D01*
X138871Y54518D01*
X138587Y54366D01*
X138338Y54162D01*
X138134Y53913D01*
X137982Y53629D01*
X137889Y53321D01*
X137857Y53000D01*
X137889Y52679D01*
X137982Y52371D01*
X138134Y52087D01*
X138171Y52042D01*
Y50050D01*
X132950Y44829D01*
X131050D01*
X130826Y45054D01*
X130874Y45171D01*
X132500D01*
X132844Y45216D01*
X132977Y45271D01*
X133164Y45349D01*
X133440Y45560D01*
X135940Y48060D01*
X136151Y48336D01*
X136284Y48656D01*
X136329Y49000D01*
Y61542D01*
X136366Y61587D01*
X136518Y61871D01*
X136611Y62179D01*
X136643Y62500D01*
X136611Y62821D01*
X136518Y63129D01*
X136366Y63413D01*
X136162Y63662D01*
X135913Y63866D01*
X135629Y64018D01*
X135321Y64111D01*
X135000Y64143D01*
X134679Y64111D01*
X134371Y64018D01*
X134087Y63866D01*
X133838Y63662D01*
X133634Y63413D01*
X133482Y63129D01*
X133389Y62821D01*
X133357Y62500D01*
X133389Y62179D01*
X133482Y61871D01*
X133634Y61587D01*
X133671Y61542D01*
Y61374D01*
X133554Y61326D01*
X132617Y62262D01*
X132611Y62321D01*
X132518Y62629D01*
X132366Y62913D01*
X132162Y63162D01*
X131913Y63366D01*
X131629Y63518D01*
X131321Y63611D01*
X131000Y63643D01*
X130679Y63611D01*
X130371Y63518D01*
X130087Y63366D01*
X129956Y63258D01*
X129829Y63318D01*
Y73042D01*
X129866Y73087D01*
X130018Y73371D01*
X130036Y73431D01*
X130159Y73462D01*
X130392Y73228D01*
D02*
G37*
G36*
X167838Y61338D02*
X168087Y61134D01*
X168371Y60982D01*
X168679Y60889D01*
X169000Y60857D01*
X169294Y60886D01*
X169410Y60822D01*
X169421Y60814D01*
Y59500D01*
X169466Y59156D01*
X169573Y58899D01*
X169468Y58821D01*
X169413Y58866D01*
X169129Y59018D01*
X168821Y59111D01*
X168500Y59143D01*
X168179Y59111D01*
X167871Y59018D01*
X167587Y58866D01*
X167338Y58662D01*
X167134Y58413D01*
X166982Y58129D01*
X166889Y57821D01*
X166857Y57500D01*
X166889Y57179D01*
X166982Y56871D01*
X167134Y56587D01*
X167338Y56338D01*
X167587Y56134D01*
X167871Y55982D01*
X168179Y55889D01*
X168300Y55877D01*
X168336Y55849D01*
X168523Y55771D01*
X168656Y55716D01*
X169000Y55671D01*
X174939D01*
X174958Y55544D01*
X174871Y55518D01*
X174587Y55366D01*
X174542Y55329D01*
X162050D01*
X161617Y55762D01*
X161611Y55821D01*
X161518Y56129D01*
X161366Y56413D01*
X161162Y56662D01*
X160913Y56866D01*
X160629Y57018D01*
X160321Y57111D01*
X160000Y57143D01*
X159923Y57135D01*
X159829Y57221D01*
Y58450D01*
X161272Y59892D01*
X161900D01*
X162214Y59923D01*
X162515Y60015D01*
X162793Y60163D01*
X163037Y60363D01*
X163237Y60607D01*
X163385Y60885D01*
X163473Y61175D01*
X163500Y61171D01*
X167087D01*
X167431Y61216D01*
X167564Y61271D01*
X167752Y61349D01*
X167799Y61386D01*
X167838Y61338D01*
D02*
G37*
G36*
X120264Y117726D02*
X120247Y117672D01*
X120211Y117300D01*
Y116700D01*
X120247Y116328D01*
X120356Y115969D01*
X120533Y115639D01*
X120770Y115350D01*
X120791Y115333D01*
Y114380D01*
X120836Y114036D01*
X120969Y113716D01*
X121180Y113440D01*
X121504Y113117D01*
X121492Y113000D01*
X121523Y112686D01*
X121615Y112385D01*
X121763Y112107D01*
X121963Y111863D01*
X122207Y111663D01*
X122485Y111515D01*
X122786Y111423D01*
X123100Y111392D01*
X123900D01*
X124214Y111423D01*
X124515Y111515D01*
X124793Y111663D01*
X125037Y111863D01*
X125237Y112107D01*
X125385Y112385D01*
X125434Y112544D01*
X125566D01*
X125615Y112385D01*
X125763Y112107D01*
X125963Y111863D01*
X126171Y111692D01*
Y110500D01*
X126216Y110156D01*
X126349Y109836D01*
X126560Y109560D01*
X141004Y95117D01*
X140992Y95000D01*
X141023Y94686D01*
X141115Y94385D01*
X141263Y94107D01*
X141463Y93863D01*
X141707Y93663D01*
X141985Y93515D01*
X142286Y93423D01*
X142600Y93392D01*
X143400D01*
X143714Y93423D01*
X144015Y93515D01*
X144293Y93663D01*
X144537Y93863D01*
X144737Y94107D01*
X144885Y94385D01*
X144934Y94544D01*
X145066D01*
X145115Y94385D01*
X145263Y94107D01*
X145463Y93863D01*
X145707Y93663D01*
X145985Y93515D01*
X146286Y93423D01*
X146600Y93392D01*
X147400D01*
X147577Y93410D01*
X147671Y93324D01*
Y87101D01*
X147544Y86990D01*
X147400Y87009D01*
X146600D01*
X146339Y86974D01*
X146335Y86972D01*
X146954Y86354D01*
X146600Y86000D01*
X146954Y85646D01*
X146335Y85028D01*
X146339Y85026D01*
X146600Y84991D01*
X147400D01*
X147544Y85010D01*
X147671Y84899D01*
Y78676D01*
X147577Y78590D01*
X147400Y78608D01*
X146600D01*
X146286Y78577D01*
X145985Y78485D01*
X145707Y78337D01*
X145463Y78137D01*
X145263Y77893D01*
X145115Y77615D01*
X145066Y77456D01*
X144934D01*
X144885Y77615D01*
X144737Y77893D01*
X144537Y78137D01*
X144329Y78308D01*
Y80500D01*
X144284Y80844D01*
X144151Y81164D01*
X143940Y81440D01*
X140826Y84554D01*
X140874Y84671D01*
X141697D01*
X141707Y84663D01*
X141985Y84515D01*
X142286Y84423D01*
X142600Y84392D01*
X143400D01*
X143714Y84423D01*
X144015Y84515D01*
X144293Y84663D01*
X144537Y84863D01*
X144737Y85107D01*
X144885Y85385D01*
X144977Y85686D01*
X145008Y86000D01*
X144977Y86314D01*
X144885Y86615D01*
X144737Y86893D01*
X144537Y87137D01*
X144293Y87337D01*
X144015Y87485D01*
X143714Y87577D01*
X143400Y87608D01*
X142600D01*
X142286Y87577D01*
X141985Y87485D01*
X141707Y87337D01*
X141697Y87329D01*
X140050D01*
X134617Y92762D01*
X134611Y92821D01*
X134518Y93129D01*
X134366Y93413D01*
X134162Y93662D01*
X133913Y93866D01*
X133629Y94018D01*
X133321Y94111D01*
X133000Y94143D01*
X132679Y94111D01*
X132371Y94018D01*
X132087Y93866D01*
X131838Y93662D01*
X131723Y93656D01*
X128829Y96550D01*
Y98192D01*
X129037Y98363D01*
X129237Y98607D01*
X129385Y98885D01*
X129477Y99186D01*
X129508Y99500D01*
X129477Y99814D01*
X129385Y100115D01*
X129237Y100393D01*
X129037Y100637D01*
X128793Y100837D01*
X128529Y100978D01*
Y101833D01*
X128550Y101850D01*
X128787Y102139D01*
X128964Y102469D01*
X129073Y102828D01*
X129109Y103200D01*
Y103800D01*
X129073Y104172D01*
X128964Y104531D01*
X128787Y104861D01*
X128550Y105150D01*
X128261Y105387D01*
X127931Y105564D01*
X127572Y105673D01*
X127200Y105709D01*
X126828Y105673D01*
X126469Y105564D01*
X126139Y105387D01*
X125930Y105216D01*
X125721Y105387D01*
X125391Y105564D01*
X125032Y105673D01*
X124660Y105709D01*
X124288Y105673D01*
X123929Y105564D01*
X123599Y105387D01*
X123390Y105216D01*
X123181Y105387D01*
X122851Y105564D01*
X122492Y105673D01*
X122120Y105709D01*
X121748Y105673D01*
X121389Y105564D01*
X121059Y105387D01*
X120770Y105150D01*
X120533Y104861D01*
X120356Y104531D01*
X120247Y104172D01*
X120211Y103800D01*
Y103200D01*
X120247Y102828D01*
X120356Y102469D01*
X120533Y102139D01*
X120770Y101850D01*
X120791Y101833D01*
Y100880D01*
X120836Y100536D01*
X120969Y100216D01*
X121180Y99940D01*
X121504Y99617D01*
X121492Y99500D01*
X121523Y99186D01*
X121615Y98885D01*
X121763Y98607D01*
X121963Y98363D01*
X122207Y98163D01*
X122485Y98015D01*
X122786Y97923D01*
X123100Y97892D01*
X123900D01*
X124214Y97923D01*
X124515Y98015D01*
X124793Y98163D01*
X125037Y98363D01*
X125237Y98607D01*
X125385Y98885D01*
X125434Y99044D01*
X125566D01*
X125615Y98885D01*
X125763Y98607D01*
X125963Y98363D01*
X126171Y98192D01*
Y96000D01*
X126216Y95656D01*
X126349Y95336D01*
X126560Y95060D01*
X141671Y79950D01*
Y78308D01*
X141463Y78137D01*
X141263Y77893D01*
X141115Y77615D01*
X141023Y77314D01*
X140992Y77000D01*
X141023Y76686D01*
X141115Y76385D01*
X141263Y76107D01*
X141463Y75863D01*
X141707Y75663D01*
X141985Y75515D01*
X142286Y75423D01*
X142600Y75392D01*
X143400D01*
X143714Y75423D01*
X144015Y75515D01*
X144293Y75663D01*
X144537Y75863D01*
X144737Y76107D01*
X144885Y76385D01*
X144934Y76544D01*
X145066D01*
X145115Y76385D01*
X145263Y76107D01*
X145463Y75863D01*
X145707Y75663D01*
X145985Y75515D01*
X146178Y75456D01*
X146160Y75329D01*
X145000D01*
X144656Y75284D01*
X144336Y75151D01*
X144060Y74940D01*
X142560Y73440D01*
X142349Y73164D01*
X142273Y72981D01*
X142000Y73008D01*
X141686Y72977D01*
X141385Y72885D01*
X141107Y72737D01*
X140863Y72537D01*
X140663Y72293D01*
X140515Y72015D01*
X140423Y71714D01*
X140392Y71400D01*
Y70600D01*
X140423Y70286D01*
X140515Y69985D01*
X140663Y69707D01*
X140863Y69463D01*
X141107Y69263D01*
X141385Y69115D01*
X141544Y69066D01*
Y68934D01*
X141385Y68885D01*
X141107Y68737D01*
X140863Y68537D01*
X140692Y68329D01*
X139050D01*
X133608Y73772D01*
Y73900D01*
X133577Y74214D01*
X133485Y74515D01*
X133337Y74793D01*
X133137Y75037D01*
X132893Y75237D01*
X132615Y75385D01*
X132314Y75477D01*
X132000Y75508D01*
X131936Y75501D01*
X131829Y75600D01*
Y76018D01*
X131924Y76101D01*
X132000Y76091D01*
X132261Y76126D01*
X132265Y76128D01*
X131829Y76564D01*
Y76929D01*
X132354Y77454D01*
X132972Y76835D01*
X132974Y76839D01*
X133009Y77100D01*
Y77900D01*
X132974Y78161D01*
X132972Y78165D01*
X132354Y77546D01*
X131829Y78071D01*
Y78436D01*
X132265Y78872D01*
X132261Y78874D01*
X132000Y78909D01*
X131924Y78899D01*
X131829Y78982D01*
Y79589D01*
X131913Y79634D01*
X132162Y79838D01*
X132366Y80087D01*
X132518Y80371D01*
X132611Y80679D01*
X132643Y81000D01*
X132611Y81321D01*
X132518Y81629D01*
X132366Y81913D01*
X132329Y81958D01*
Y83000D01*
X132284Y83344D01*
X132151Y83664D01*
X131940Y83940D01*
X118186Y97694D01*
X118229Y97830D01*
X118282Y97839D01*
X121060Y95060D01*
X121336Y94849D01*
X121656Y94716D01*
X122000Y94671D01*
X122042D01*
X122087Y94634D01*
X122371Y94482D01*
X122679Y94389D01*
X123000Y94357D01*
X123321Y94389D01*
X123629Y94482D01*
X123913Y94634D01*
X124162Y94838D01*
X124366Y95087D01*
X124518Y95371D01*
X124611Y95679D01*
X124643Y96000D01*
X124611Y96321D01*
X124518Y96629D01*
X124366Y96913D01*
X124162Y97162D01*
X123913Y97366D01*
X123629Y97518D01*
X123321Y97611D01*
X123000Y97643D01*
X122679Y97611D01*
X122371Y97518D01*
X122365Y97514D01*
X120496Y99383D01*
X120508Y99500D01*
X120477Y99814D01*
X120385Y100115D01*
X120237Y100393D01*
X120037Y100637D01*
X119793Y100837D01*
X119515Y100985D01*
X119214Y101077D01*
X118900Y101108D01*
X118772D01*
X118369Y101510D01*
Y101833D01*
X118390Y101850D01*
X118627Y102139D01*
X118804Y102469D01*
X118913Y102828D01*
X118949Y103200D01*
Y103800D01*
X118913Y104172D01*
X118804Y104531D01*
X118683Y104757D01*
Y111392D01*
X118900D01*
X119214Y111423D01*
X119515Y111515D01*
X119793Y111663D01*
X120037Y111863D01*
X120237Y112107D01*
X120385Y112385D01*
X120477Y112686D01*
X120508Y113000D01*
X120477Y113314D01*
X120385Y113615D01*
X120237Y113893D01*
X120037Y114137D01*
X119793Y114337D01*
X119515Y114485D01*
X119214Y114577D01*
X118900Y114608D01*
X118772D01*
X118683Y114696D01*
Y115743D01*
X118804Y115969D01*
X118913Y116328D01*
X118937Y116573D01*
X120155Y117791D01*
X120264Y117726D01*
D02*
G37*
G36*
X134277Y40844D02*
X134228Y40726D01*
X133153D01*
X131826Y42054D01*
X131874Y42171D01*
X132950D01*
X134277Y40844D01*
D02*
G37*
G36*
X101171Y43950D02*
Y40221D01*
X101077Y40135D01*
X101000Y40143D01*
X100679Y40111D01*
X100371Y40018D01*
X100087Y39866D01*
X99838Y39662D01*
X99634Y39413D01*
X99482Y39129D01*
X99389Y38821D01*
X99357Y38500D01*
X99389Y38179D01*
X99482Y37871D01*
X99634Y37587D01*
X99671Y37542D01*
Y36000D01*
X99716Y35656D01*
X99849Y35336D01*
X100060Y35060D01*
X102060Y33060D01*
X102336Y32849D01*
X102656Y32716D01*
X103000Y32671D01*
X105126D01*
X105174Y32554D01*
X103060Y30440D01*
X102849Y30164D01*
X102743Y29909D01*
X102150D01*
X101778Y29873D01*
X101419Y29764D01*
X101089Y29587D01*
X100800Y29350D01*
X100574Y29075D01*
X100500Y29065D01*
X100426Y29075D01*
X100200Y29350D01*
X99911Y29587D01*
X99581Y29764D01*
X99222Y29873D01*
X98850Y29909D01*
X98329D01*
Y39950D01*
X98940Y40560D01*
X99151Y40836D01*
X99284Y41156D01*
X99329Y41500D01*
Y43500D01*
X99284Y43844D01*
X99201Y44044D01*
X99286Y44171D01*
X100950D01*
X101171Y43950D01*
D02*
G37*
G36*
X47687Y61880D02*
X47650Y61850D01*
X47413Y61561D01*
X47236Y61231D01*
X47127Y60872D01*
X47091Y60500D01*
X47127Y60128D01*
X47236Y59769D01*
X47350Y59557D01*
X48646Y60854D01*
X49000Y60500D01*
X49354Y60854D01*
X50650Y59557D01*
X50764Y59769D01*
X50873Y60128D01*
X50909Y60500D01*
X50873Y60872D01*
X50840Y60981D01*
X50952Y61048D01*
X65000Y47000D01*
Y22000D01*
X64000Y21000D01*
X55000D01*
X53000Y23000D01*
Y45000D01*
X49460Y48540D01*
X49491Y48663D01*
X49731Y48736D01*
X49943Y48850D01*
X48646Y50146D01*
X47350Y51443D01*
X47236Y51231D01*
X47127Y50872D01*
X47091Y50500D01*
X47127Y50128D01*
X47236Y49769D01*
X47413Y49439D01*
X47650Y49150D01*
X47687Y49120D01*
X47644Y49000D01*
X33356D01*
X33313Y49120D01*
X33350Y49150D01*
X33587Y49439D01*
X33764Y49769D01*
X33873Y50128D01*
X33909Y50500D01*
X33873Y50872D01*
X33764Y51231D01*
X33650Y51443D01*
X32354Y50146D01*
X32000Y50500D01*
X31646Y50146D01*
X30350Y51443D01*
X30236Y51231D01*
X30127Y50872D01*
X30127Y50867D01*
X30000Y50874D01*
Y60126D01*
X30127Y60133D01*
X30127Y60128D01*
X30236Y59769D01*
X30350Y59557D01*
X31646Y60854D01*
X32000Y60500D01*
X32354Y60854D01*
X33650Y59557D01*
X33764Y59769D01*
X33873Y60128D01*
X33909Y60500D01*
X33873Y60872D01*
X33764Y61231D01*
X33587Y61561D01*
X33350Y61850D01*
X33313Y61880D01*
X33356Y62000D01*
X47644D01*
X47687Y61880D01*
D02*
G37*
G36*
X27934Y114000D02*
X28000Y113991D01*
X40009Y113991D01*
X41000Y113000D01*
Y101000D01*
X40000Y100000D01*
X20000D01*
X18000Y102000D01*
Y112000D01*
X20000Y114000D01*
X27934D01*
D02*
G37*
G36*
X128224Y43897D02*
X128177Y43764D01*
X127893Y43737D01*
X127560Y43636D01*
X127254Y43472D01*
X126986Y43252D01*
X126766Y42984D01*
X126683Y42829D01*
X124561D01*
X124542Y42956D01*
X124629Y42982D01*
X124913Y43134D01*
X125162Y43338D01*
X125366Y43587D01*
X125518Y43871D01*
X125611Y44179D01*
X125643Y44500D01*
X125635Y44577D01*
X125721Y44671D01*
X127450D01*
X128224Y43897D01*
D02*
G37*
G36*
X53287Y70287D02*
X53287Y70287D01*
X58991Y64582D01*
Y55000D01*
X58991Y55000D01*
X59026Y54739D01*
X59126Y54496D01*
X59180Y54426D01*
X59084Y54342D01*
X51665Y61761D01*
X51659Y61766D01*
X51653Y61773D01*
X51554Y61846D01*
X51531Y61864D01*
X51574Y61991D01*
X52000D01*
X52261Y62026D01*
X52504Y62126D01*
X52713Y62287D01*
X52874Y62496D01*
X52974Y62739D01*
X53009Y63000D01*
Y70399D01*
X53126Y70448D01*
X53287Y70287D01*
D02*
G37*
G36*
X86136Y72438D02*
X86125Y72269D01*
X85963Y72137D01*
X85763Y71893D01*
X85615Y71615D01*
X85566Y71456D01*
X85434D01*
X85385Y71615D01*
X85237Y71893D01*
X85037Y72137D01*
X84793Y72337D01*
X84515Y72485D01*
X84214Y72577D01*
X83900Y72608D01*
X83222D01*
X83192Y72627D01*
X83117Y72735D01*
X83143Y73000D01*
X83111Y73321D01*
X83018Y73629D01*
X82866Y73913D01*
X82662Y74162D01*
X82413Y74366D01*
X82129Y74518D01*
X81821Y74611D01*
X81500Y74643D01*
X81179Y74611D01*
X80956Y74544D01*
X80829Y74635D01*
Y77579D01*
X80946Y77627D01*
X86136Y72438D01*
D02*
G37*
G36*
X133671Y54626D02*
Y49550D01*
X133277Y49156D01*
X133170Y49161D01*
X133131Y49190D01*
X132940Y49440D01*
X131329Y51050D01*
Y52699D01*
X131395Y52748D01*
X131456Y52771D01*
X131750Y52742D01*
X132064Y52773D01*
X132365Y52865D01*
X132643Y53013D01*
X132887Y53213D01*
X133087Y53457D01*
X133235Y53735D01*
X133327Y54036D01*
X133358Y54350D01*
Y54478D01*
X133554Y54674D01*
X133671Y54626D01*
D02*
G37*
G36*
X89839Y68734D02*
X89779Y68615D01*
X89500Y68643D01*
X89179Y68611D01*
X88871Y68518D01*
X88587Y68366D01*
X88542Y68329D01*
X88050D01*
X87114Y69265D01*
X87167Y69392D01*
X87900D01*
X88214Y69423D01*
X88515Y69515D01*
X88793Y69663D01*
X88858Y69716D01*
X89839Y68734D01*
D02*
G37*
G36*
X89462Y58159D02*
X89431Y58036D01*
X89371Y58018D01*
X89087Y57866D01*
X89042Y57829D01*
X88500D01*
X88156Y57784D01*
X87836Y57651D01*
X87560Y57440D01*
X83500Y53379D01*
X83390Y53395D01*
X83361Y53419D01*
X83162Y53662D01*
X82913Y53866D01*
X82629Y54018D01*
X82321Y54111D01*
X82000Y54143D01*
X81679Y54111D01*
X81371Y54018D01*
X81087Y53866D01*
X80956Y53758D01*
X80829Y53818D01*
Y66626D01*
X80946Y66674D01*
X89462Y58159D01*
D02*
G37*
G36*
X70000Y69000D02*
Y55000D01*
X68000Y53000D01*
X62000D01*
X60000Y55000D01*
Y65000D01*
X54000Y71000D01*
X49000Y76000D01*
X23000D01*
X21000Y76000D01*
X18000Y79000D01*
Y88000D01*
X20000Y90000D01*
X49000D01*
X70000Y69000D01*
D02*
G37*
G36*
X20287Y75287D02*
X20496Y75127D01*
X20739Y75026D01*
X21000Y74991D01*
X23000Y74991D01*
X48582D01*
X49448Y74126D01*
X49399Y74009D01*
X21000D01*
X21000Y74009D01*
X20739Y73974D01*
X20496Y73873D01*
X20287Y73713D01*
X18117Y71544D01*
X18000Y71592D01*
Y77408D01*
X18117Y77456D01*
X20287Y75287D01*
D02*
G37*
G36*
X19287Y99287D02*
X19287Y99287D01*
X19496Y99127D01*
X19739Y99026D01*
X20000Y98991D01*
X40000D01*
X40261Y99026D01*
X40504Y99127D01*
X40713Y99287D01*
X40713Y99287D01*
X41500Y100074D01*
X42287Y99287D01*
X42287Y99287D01*
X42496Y99127D01*
X42739Y99026D01*
X43000Y98991D01*
X50582Y98991D01*
X62287Y87287D01*
X62496Y87127D01*
X62739Y87026D01*
X63000Y86991D01*
X71582D01*
X78171Y80402D01*
Y47500D01*
X78216Y47156D01*
X78271Y47023D01*
X78349Y46836D01*
X78560Y46560D01*
X82060Y43060D01*
X82336Y42849D01*
X82656Y42716D01*
X83000Y42671D01*
X95382D01*
X95466Y42576D01*
X95456Y42500D01*
X95492Y42230D01*
X95501Y42208D01*
X95964Y42671D01*
X96329D01*
X96671Y42329D01*
Y42050D01*
X96060Y41440D01*
X96051Y41428D01*
X96051Y41428D01*
X95849Y41164D01*
X95716Y40844D01*
X95671Y40500D01*
Y29909D01*
X95150D01*
X94778Y29873D01*
X94419Y29764D01*
X94089Y29587D01*
X93800Y29350D01*
X93563Y29061D01*
X93386Y28731D01*
X93277Y28372D01*
X93262Y28211D01*
X93134Y28209D01*
X93117Y28339D01*
X93052Y28495D01*
X92557Y28000D01*
X93052Y27505D01*
X93117Y27661D01*
X93134Y27791D01*
X93262Y27789D01*
X93277Y27628D01*
X93386Y27269D01*
X93563Y26939D01*
X93800Y26650D01*
X94089Y26413D01*
X94419Y26236D01*
X94778Y26127D01*
X95150Y26091D01*
X98850D01*
X99222Y26127D01*
X99581Y26236D01*
X99911Y26413D01*
X100200Y26650D01*
X100426Y26925D01*
X100500Y26935D01*
X100574Y26925D01*
X100800Y26650D01*
X101089Y26413D01*
X101419Y26236D01*
X101778Y26127D01*
X102150Y26091D01*
X105850D01*
X106222Y26127D01*
X106581Y26236D01*
X106911Y26413D01*
X107200Y26650D01*
X107437Y26939D01*
X107614Y27269D01*
X107723Y27628D01*
X107759Y28000D01*
X107723Y28372D01*
X107614Y28731D01*
X107437Y29061D01*
X107200Y29350D01*
X106911Y29587D01*
X106581Y29764D01*
X106363Y29830D01*
X106332Y29953D01*
X107550Y31171D01*
X115000D01*
X115344Y31216D01*
X115664Y31349D01*
X115940Y31560D01*
X116151Y31836D01*
X116284Y32156D01*
X116329Y32500D01*
Y35536D01*
X116456Y35595D01*
X116498Y35561D01*
X116492Y35500D01*
X116523Y35186D01*
X116615Y34885D01*
X116763Y34607D01*
X116963Y34363D01*
X117207Y34163D01*
X117485Y34015D01*
X117786Y33923D01*
X118100Y33892D01*
X118900D01*
X119214Y33923D01*
X119515Y34015D01*
X119793Y34163D01*
X120037Y34363D01*
X120237Y34607D01*
X120385Y34885D01*
X120434Y35044D01*
X120566D01*
X120615Y34885D01*
X120763Y34607D01*
X120963Y34363D01*
X121207Y34163D01*
X121485Y34015D01*
X121786Y33923D01*
X122100Y33892D01*
X122900D01*
X123214Y33923D01*
X123515Y34015D01*
X123793Y34163D01*
X124037Y34363D01*
X124237Y34607D01*
X124385Y34885D01*
X124477Y35186D01*
X124508Y35500D01*
X124590Y35591D01*
X127080D01*
X127254Y35448D01*
X127560Y35284D01*
X127671Y35251D01*
Y34400D01*
X127716Y34056D01*
X127849Y33736D01*
X128060Y33460D01*
X129960Y31560D01*
X130236Y31349D01*
X130556Y31216D01*
X130900Y31171D01*
X137005D01*
X137054Y31054D01*
X137000Y31000D01*
Y29185D01*
X136873Y29139D01*
X136700Y29350D01*
X136411Y29587D01*
X136081Y29764D01*
X135722Y29873D01*
X135350Y29909D01*
X131650D01*
X131278Y29873D01*
X130919Y29764D01*
X130589Y29587D01*
X130300Y29350D01*
X130074Y29075D01*
X130000Y29065D01*
X129926Y29075D01*
X129700Y29350D01*
X129411Y29587D01*
X129081Y29764D01*
X128722Y29873D01*
X128350Y29909D01*
X124650D01*
X124278Y29873D01*
X123919Y29764D01*
X123589Y29587D01*
X123300Y29350D01*
X123074Y29075D01*
X123000Y29065D01*
X122926Y29075D01*
X122700Y29350D01*
X122411Y29587D01*
X122081Y29764D01*
X121722Y29873D01*
X121350Y29909D01*
X117650D01*
X117278Y29873D01*
X116919Y29764D01*
X116589Y29587D01*
X116300Y29350D01*
X116074Y29075D01*
X116000Y29065D01*
X115926Y29075D01*
X115700Y29350D01*
X115411Y29587D01*
X115081Y29764D01*
X114722Y29873D01*
X114350Y29909D01*
X110650D01*
X110278Y29873D01*
X109919Y29764D01*
X109589Y29587D01*
X109300Y29350D01*
X109063Y29061D01*
X108886Y28731D01*
X108777Y28372D01*
X108741Y28000D01*
X108777Y27628D01*
X108886Y27269D01*
X109063Y26939D01*
X109300Y26650D01*
X109589Y26413D01*
X109919Y26236D01*
X110278Y26127D01*
X110650Y26091D01*
X114350D01*
X114722Y26127D01*
X115081Y26236D01*
X115411Y26413D01*
X115700Y26650D01*
X115926Y26925D01*
X116000Y26935D01*
X116074Y26925D01*
X116300Y26650D01*
X116589Y26413D01*
X116919Y26236D01*
X117278Y26127D01*
X117650Y26091D01*
X121350D01*
X121722Y26127D01*
X122081Y26236D01*
X122411Y26413D01*
X122700Y26650D01*
X122926Y26925D01*
X123000Y26935D01*
X123074Y26925D01*
X123300Y26650D01*
X123589Y26413D01*
X123919Y26236D01*
X124278Y26127D01*
X124650Y26091D01*
X128350D01*
X128722Y26127D01*
X129081Y26236D01*
X129411Y26413D01*
X129700Y26650D01*
X129926Y26925D01*
X130000Y26935D01*
X130074Y26925D01*
X130300Y26650D01*
X130589Y26413D01*
X130919Y26236D01*
X131278Y26127D01*
X131650Y26091D01*
X135350D01*
X135722Y26127D01*
X136081Y26236D01*
X136411Y26413D01*
X136700Y26650D01*
X136873Y26861D01*
X137000Y26815D01*
Y18000D01*
X23000D01*
X18000Y23000D01*
Y38408D01*
X18117Y38456D01*
X19287Y37287D01*
X19496Y37126D01*
X19739Y37026D01*
X20000Y36991D01*
X50000D01*
X50261Y37026D01*
X50504Y37126D01*
X50713Y37287D01*
X51874Y38448D01*
X51991Y38399D01*
Y23000D01*
X52026Y22739D01*
X52126Y22496D01*
X52287Y22287D01*
X54287Y20287D01*
X54496Y20126D01*
X54739Y20026D01*
X55000Y19991D01*
X64000D01*
X64000Y19991D01*
X64261Y20026D01*
X64504Y20126D01*
X64713Y20287D01*
X64713Y20287D01*
X65713Y21287D01*
X65873Y21496D01*
X65974Y21739D01*
X66009Y22000D01*
Y26326D01*
X66136Y26388D01*
X66419Y26236D01*
X66778Y26127D01*
X67150Y26091D01*
X70850D01*
X71222Y26127D01*
X71581Y26236D01*
X71911Y26413D01*
X72200Y26650D01*
X72426Y26925D01*
X72500Y26935D01*
X72574Y26925D01*
X72800Y26650D01*
X73089Y26413D01*
X73419Y26236D01*
X73778Y26127D01*
X74150Y26091D01*
X77850D01*
X78222Y26127D01*
X78581Y26236D01*
X78911Y26413D01*
X79200Y26650D01*
X79426Y26925D01*
X79500Y26935D01*
X79574Y26925D01*
X79800Y26650D01*
X80089Y26413D01*
X80419Y26236D01*
X80778Y26127D01*
X81150Y26091D01*
X84850D01*
X85222Y26127D01*
X85581Y26236D01*
X85911Y26413D01*
X86200Y26650D01*
X86437Y26939D01*
X86614Y27269D01*
X86723Y27628D01*
X86738Y27789D01*
X86866Y27791D01*
X86883Y27661D01*
X86948Y27505D01*
X87443Y28000D01*
X86948Y28495D01*
X86883Y28339D01*
X86866Y28209D01*
X86738Y28211D01*
X86723Y28372D01*
X86614Y28731D01*
X86437Y29061D01*
X86200Y29350D01*
X85911Y29587D01*
X85581Y29764D01*
X85222Y29873D01*
X84850Y29909D01*
X84329D01*
Y33000D01*
X84284Y33344D01*
X84151Y33664D01*
X83940Y33940D01*
X67617Y50262D01*
X67611Y50321D01*
X67518Y50629D01*
X67366Y50913D01*
X67162Y51162D01*
X66913Y51366D01*
X66629Y51518D01*
X66321Y51611D01*
X66000Y51643D01*
X65679Y51611D01*
X65371Y51518D01*
X65087Y51366D01*
X64838Y51162D01*
X64723Y51156D01*
X64005Y51874D01*
X64054Y51991D01*
X68000D01*
X68000Y51991D01*
X68261Y52026D01*
X68504Y52126D01*
X68713Y52287D01*
X68713Y52287D01*
X70713Y54287D01*
X70873Y54496D01*
X70974Y54739D01*
X71009Y55000D01*
Y69000D01*
X71009Y69000D01*
X70974Y69261D01*
X70873Y69504D01*
X70713Y69713D01*
X49713Y90713D01*
X49504Y90873D01*
X49261Y90974D01*
X49000Y91009D01*
X20000D01*
X20000Y91009D01*
X19739Y90974D01*
X19496Y90873D01*
X19287Y90713D01*
X19287Y90713D01*
X18117Y89544D01*
X18000Y89592D01*
Y100408D01*
X18117Y100456D01*
X19287Y99287D01*
D02*
G37*
G36*
X52000Y71000D02*
Y63000D01*
X49123D01*
X49000Y63012D01*
X48877Y63000D01*
X47710D01*
X47644Y63009D01*
X33356D01*
X33290Y63000D01*
X32123D01*
X32000Y63012D01*
X31877Y63000D01*
X30000D01*
X29000Y62000D01*
Y60192D01*
X28991Y60126D01*
Y50874D01*
X29000Y50808D01*
Y49000D01*
X30000Y48000D01*
X31877D01*
X32000Y47988D01*
X32123Y48000D01*
X33290D01*
X33356Y47991D01*
X47644D01*
X47710Y48000D01*
X48000D01*
X51991Y44009D01*
Y39991D01*
X50000Y38000D01*
X20000D01*
X18000Y40000D01*
Y70000D01*
X21000Y73000D01*
X50000D01*
X52000Y71000D01*
D02*
G37*
G36*
X89087Y55134D02*
X89371Y54982D01*
X89607Y54911D01*
X89684Y54863D01*
X89705Y54759D01*
X89671Y54500D01*
Y52162D01*
X89552Y52119D01*
X89537Y52137D01*
X89293Y52337D01*
X89015Y52485D01*
X88714Y52577D01*
X88400Y52608D01*
X87600D01*
X87286Y52577D01*
X86985Y52485D01*
X86707Y52337D01*
X86463Y52137D01*
X86263Y51893D01*
X86115Y51615D01*
X86066Y51456D01*
X85934D01*
X85885Y51615D01*
X85749Y51870D01*
X89047Y55167D01*
X89087Y55134D01*
D02*
G37*
G36*
X184000Y123000D02*
Y23000D01*
X179000Y18000D01*
X139000D01*
Y30000D01*
X140171Y31171D01*
X140591D01*
Y30650D01*
X140627Y30278D01*
X140736Y29919D01*
X140913Y29589D01*
X141150Y29300D01*
X141439Y29063D01*
X141769Y28886D01*
X142128Y28777D01*
X142500Y28741D01*
X142872Y28777D01*
X143231Y28886D01*
X143561Y29063D01*
X143850Y29300D01*
X144087Y29589D01*
X144264Y29919D01*
X144373Y30278D01*
X144409Y30650D01*
Y34350D01*
X144373Y34722D01*
X144275Y35044D01*
X144341Y35171D01*
X145159D01*
X145225Y35044D01*
X145127Y34722D01*
X145091Y34350D01*
Y30650D01*
X145127Y30278D01*
X145236Y29919D01*
X145413Y29589D01*
X145650Y29300D01*
X145939Y29063D01*
X146269Y28886D01*
X146628Y28777D01*
X147000Y28741D01*
X147372Y28777D01*
X147731Y28886D01*
X148061Y29063D01*
X148350Y29300D01*
X148587Y29589D01*
X148764Y29919D01*
X148873Y30278D01*
X148909Y30650D01*
Y34350D01*
X148873Y34722D01*
X148775Y35044D01*
X148841Y35171D01*
X149659D01*
X149725Y35044D01*
X149627Y34722D01*
X149591Y34350D01*
Y30650D01*
X149627Y30278D01*
X149736Y29919D01*
X149913Y29589D01*
X150150Y29300D01*
X150439Y29063D01*
X150769Y28886D01*
X151128Y28777D01*
X151500Y28741D01*
X151872Y28777D01*
X152231Y28886D01*
X152561Y29063D01*
X152850Y29300D01*
X153087Y29589D01*
X153264Y29919D01*
X153373Y30278D01*
X153409Y30650D01*
Y34350D01*
X153373Y34722D01*
X153275Y35044D01*
X153341Y35171D01*
X154159D01*
X154225Y35044D01*
X154127Y34722D01*
X154091Y34350D01*
Y30650D01*
X154127Y30278D01*
X154236Y29919D01*
X154413Y29589D01*
X154650Y29300D01*
X154939Y29063D01*
X155269Y28886D01*
X155628Y28777D01*
X156000Y28741D01*
X156372Y28777D01*
X156731Y28886D01*
X157061Y29063D01*
X157350Y29300D01*
X157587Y29589D01*
X157764Y29919D01*
X157873Y30278D01*
X157909Y30650D01*
Y34350D01*
X157873Y34722D01*
X157775Y35044D01*
X157841Y35171D01*
X158659D01*
X158725Y35044D01*
X158627Y34722D01*
X158591Y34350D01*
Y30650D01*
X158627Y30278D01*
X158736Y29919D01*
X158913Y29589D01*
X159150Y29300D01*
X159439Y29063D01*
X159769Y28886D01*
X160128Y28777D01*
X160500Y28741D01*
X160872Y28777D01*
X161231Y28886D01*
X161561Y29063D01*
X161850Y29300D01*
X162087Y29589D01*
X162264Y29919D01*
X162372Y30278D01*
X162409Y30650D01*
Y34350D01*
X162372Y34722D01*
X162264Y35081D01*
X162158Y35279D01*
X174050Y47171D01*
X174542D01*
X174581Y47139D01*
X174605Y47110D01*
X174621Y47000D01*
X168560Y40940D01*
X168349Y40664D01*
X168216Y40344D01*
X168171Y40000D01*
Y35717D01*
X168150Y35700D01*
X167913Y35411D01*
X167736Y35081D01*
X167627Y34722D01*
X167591Y34350D01*
Y30650D01*
X167627Y30278D01*
X167736Y29919D01*
X167913Y29589D01*
X168150Y29300D01*
X168439Y29063D01*
X168769Y28886D01*
X169128Y28777D01*
X169500Y28741D01*
X169872Y28777D01*
X170231Y28886D01*
X170561Y29063D01*
X170850Y29300D01*
X171087Y29589D01*
X171264Y29919D01*
X171372Y30278D01*
X171409Y30650D01*
Y34350D01*
X171372Y34722D01*
X171264Y35081D01*
X171087Y35411D01*
X170850Y35700D01*
X170829Y35717D01*
Y39450D01*
X179940Y48560D01*
X180151Y48836D01*
X180284Y49156D01*
X180329Y49500D01*
Y59250D01*
X180284Y59594D01*
X180151Y59914D01*
X179940Y60190D01*
X178440Y61690D01*
X178164Y61901D01*
X177977Y61979D01*
X177844Y62034D01*
X177500Y62079D01*
X175414D01*
X175349Y62188D01*
X175414Y62309D01*
X175523Y62668D01*
X175559Y63040D01*
X175523Y63412D01*
X175414Y63771D01*
X175237Y64101D01*
X175066Y64310D01*
X175237Y64519D01*
X175414Y64849D01*
X175523Y65208D01*
X175559Y65580D01*
X175523Y65952D01*
X175414Y66311D01*
X175237Y66641D01*
X175066Y66850D01*
X175237Y67059D01*
X175414Y67389D01*
X175523Y67748D01*
X175559Y68120D01*
X175523Y68492D01*
X175414Y68851D01*
X175237Y69181D01*
X175066Y69390D01*
X175237Y69599D01*
X175414Y69929D01*
X175523Y70288D01*
X175559Y70660D01*
X175523Y71032D01*
X175414Y71391D01*
X175237Y71721D01*
X175000Y72010D01*
X174711Y72247D01*
X174689Y72259D01*
X174662Y72383D01*
X174786Y72544D01*
X174917Y72861D01*
X174961Y73200D01*
X174917Y73539D01*
X174852Y73695D01*
X174004Y72846D01*
X173296Y73554D01*
X174145Y74402D01*
X173989Y74467D01*
X173650Y74511D01*
X172850D01*
X172511Y74467D01*
X172355Y74402D01*
X173204Y73554D01*
X172496Y72846D01*
X171648Y73695D01*
X171583Y73539D01*
X171539Y73200D01*
X171583Y72861D01*
X171714Y72544D01*
X171838Y72383D01*
X171811Y72259D01*
X171789Y72247D01*
X171500Y72010D01*
X171483Y71989D01*
X170304D01*
X170162Y72162D01*
X169913Y72366D01*
X169629Y72518D01*
X169321Y72611D01*
X169000Y72643D01*
X168679Y72611D01*
X168371Y72518D01*
X168087Y72366D01*
X168042Y72329D01*
X166135D01*
Y72770D01*
X164109D01*
X162940Y73940D01*
X162664Y74151D01*
X162477Y74229D01*
X162344Y74284D01*
X162000Y74329D01*
X160000D01*
X159656Y74284D01*
X159336Y74151D01*
X159060Y73940D01*
X155560Y70440D01*
X155349Y70164D01*
X155216Y69844D01*
X155171Y69500D01*
Y66958D01*
X155134Y66913D01*
X154982Y66629D01*
X154889Y66321D01*
X154857Y66000D01*
X154889Y65679D01*
X154982Y65371D01*
X155134Y65087D01*
X155206Y65000D01*
X155134Y64913D01*
X154982Y64629D01*
X154889Y64321D01*
X154857Y64000D01*
X154889Y63679D01*
X154982Y63371D01*
X155134Y63087D01*
X155338Y62838D01*
X155587Y62634D01*
X155871Y62482D01*
X156179Y62389D01*
X156381Y62369D01*
X156418Y62237D01*
X156387Y62213D01*
X156227Y62004D01*
X156126Y61761D01*
X156091Y61500D01*
X156126Y61239D01*
X156128Y61235D01*
X156746Y61854D01*
X157454Y61146D01*
X156835Y60528D01*
X156839Y60526D01*
X157100Y60491D01*
X157900D01*
X157948Y60498D01*
X158005Y60384D01*
X157560Y59940D01*
X157349Y59664D01*
X157271Y59477D01*
X157216Y59344D01*
X157171Y59000D01*
Y53000D01*
X157216Y52656D01*
X157271Y52523D01*
X157349Y52336D01*
X157560Y52060D01*
X158005Y51616D01*
X157948Y51502D01*
X157900Y51509D01*
X157100D01*
X156839Y51474D01*
X156835Y51472D01*
X157454Y50854D01*
X157100Y50500D01*
X157454Y50146D01*
X156835Y49528D01*
X156839Y49526D01*
X157100Y49491D01*
X157900D01*
X158161Y49526D01*
X158165Y49528D01*
X157546Y50146D01*
X158254Y50854D01*
X158872Y50235D01*
X158874Y50239D01*
X158909Y50500D01*
X158902Y50548D01*
X159016Y50605D01*
X159562Y50059D01*
X159615Y49885D01*
X159763Y49607D01*
X159963Y49363D01*
X160171Y49192D01*
Y47550D01*
X158738Y46117D01*
X158679Y46111D01*
X158371Y46018D01*
X158087Y45866D01*
X157838Y45662D01*
X157634Y45413D01*
X157482Y45129D01*
X157389Y44821D01*
X157357Y44500D01*
X157389Y44179D01*
X157482Y43871D01*
X157634Y43587D01*
X157671Y43542D01*
Y39550D01*
X157450Y39329D01*
X148495D01*
X148446Y39446D01*
X150000Y41000D01*
Y48808D01*
X150094Y48893D01*
X150100Y48892D01*
X150900D01*
X151214Y48923D01*
X151515Y49015D01*
X151793Y49163D01*
X152037Y49363D01*
X152237Y49607D01*
X152385Y49885D01*
X152477Y50186D01*
X152508Y50500D01*
X152477Y50814D01*
X152385Y51115D01*
X152237Y51393D01*
X152037Y51637D01*
X151793Y51837D01*
X151515Y51985D01*
X151214Y52077D01*
X150900Y52108D01*
X150100D01*
X150094Y52107D01*
X150000Y52192D01*
Y59808D01*
X150094Y59893D01*
X150100Y59892D01*
X150900D01*
X151214Y59923D01*
X151515Y60015D01*
X151793Y60163D01*
X152037Y60363D01*
X152237Y60607D01*
X152385Y60885D01*
X152477Y61186D01*
X152508Y61500D01*
X152477Y61814D01*
X152385Y62115D01*
X152237Y62393D01*
X152037Y62637D01*
X151829Y62808D01*
Y65500D01*
X151784Y65844D01*
X151651Y66164D01*
X151440Y66440D01*
X150000Y67879D01*
Y71121D01*
X151050Y72171D01*
X154542D01*
X154587Y72134D01*
X154871Y71982D01*
X155179Y71889D01*
X155500Y71857D01*
X155821Y71889D01*
X156129Y71982D01*
X156413Y72134D01*
X156662Y72338D01*
X156866Y72587D01*
X157018Y72871D01*
X157111Y73179D01*
X157143Y73500D01*
X157111Y73821D01*
X157018Y74129D01*
X156866Y74413D01*
X156662Y74662D01*
X156413Y74866D01*
X156230Y74964D01*
X156262Y75091D01*
X156850D01*
X157222Y75128D01*
X157581Y75236D01*
X157911Y75413D01*
X158200Y75650D01*
X158437Y75939D01*
X158614Y76269D01*
X158723Y76628D01*
X158759Y77000D01*
X158752Y77077D01*
X158837Y77171D01*
X169533D01*
X169550Y77150D01*
X169839Y76913D01*
X170169Y76736D01*
X170528Y76627D01*
X170900Y76591D01*
X172100D01*
X172472Y76627D01*
X172831Y76736D01*
X173161Y76913D01*
X173450Y77150D01*
X173687Y77439D01*
X173864Y77769D01*
X173973Y78128D01*
X174009Y78500D01*
X173973Y78872D01*
X173864Y79231D01*
X173687Y79561D01*
X173450Y79850D01*
X173161Y80087D01*
X172975Y80187D01*
Y80313D01*
X173161Y80413D01*
X173450Y80650D01*
X173687Y80939D01*
X173864Y81269D01*
X173973Y81628D01*
X174009Y82000D01*
X173973Y82372D01*
X173864Y82731D01*
X173687Y83061D01*
X173450Y83350D01*
X173161Y83587D01*
X172975Y83687D01*
Y83813D01*
X173161Y83913D01*
X173450Y84150D01*
X173687Y84439D01*
X173864Y84769D01*
X173973Y85128D01*
X174009Y85500D01*
X173973Y85872D01*
X173864Y86231D01*
X173687Y86561D01*
X173450Y86850D01*
X173161Y87087D01*
X172975Y87187D01*
Y87313D01*
X173161Y87413D01*
X173450Y87650D01*
X173687Y87939D01*
X173864Y88269D01*
X173973Y88628D01*
X174009Y89000D01*
X173973Y89372D01*
X173864Y89731D01*
X173687Y90061D01*
X173450Y90350D01*
X173161Y90587D01*
X172831Y90764D01*
X172472Y90873D01*
X172100Y90909D01*
X170900D01*
X170528Y90873D01*
X170169Y90764D01*
X169839Y90587D01*
X169550Y90350D01*
X169533Y90329D01*
X166550D01*
X165906Y90973D01*
X165954Y91091D01*
X169350D01*
X169722Y91127D01*
X170081Y91236D01*
X170411Y91413D01*
X170700Y91650D01*
X170937Y91939D01*
X171114Y92269D01*
X171223Y92628D01*
X171259Y93000D01*
X171223Y93372D01*
X171114Y93731D01*
X171112Y93733D01*
X176440Y99060D01*
X176651Y99336D01*
X176784Y99656D01*
X176829Y100000D01*
Y116000D01*
X176784Y116344D01*
X176729Y116477D01*
X176651Y116664D01*
X176440Y116940D01*
X168190Y125190D01*
X167914Y125401D01*
X167594Y125534D01*
X167250Y125579D01*
X161000D01*
Y128000D01*
X179000D01*
X184000Y123000D01*
D02*
G37*
G36*
X177671Y50050D02*
X177047Y49426D01*
X176901Y49446D01*
X176874Y49493D01*
X176868Y49511D01*
X177018Y49791D01*
X177111Y50099D01*
X177143Y50420D01*
X177111Y50741D01*
X177018Y51049D01*
X176866Y51333D01*
X176662Y51582D01*
X176413Y51786D01*
X176129Y51938D01*
X175821Y52031D01*
X175500Y52063D01*
X175179Y52031D01*
X174871Y51938D01*
X174587Y51786D01*
X174542Y51749D01*
X172920D01*
X172576Y51704D01*
X172256Y51571D01*
X171980Y51360D01*
X160446Y39826D01*
X160329Y39874D01*
Y43542D01*
X160366Y43587D01*
X160518Y43871D01*
X160611Y44179D01*
X160617Y44238D01*
X162440Y46060D01*
X162651Y46336D01*
X162784Y46656D01*
X162829Y47000D01*
Y49192D01*
X163037Y49363D01*
X163237Y49607D01*
X163385Y49885D01*
X163477Y50186D01*
X163508Y50500D01*
X163477Y50814D01*
X163385Y51115D01*
X163237Y51393D01*
X163037Y51637D01*
X162829Y51808D01*
Y52671D01*
X174542D01*
X174587Y52634D01*
X174871Y52482D01*
X175179Y52389D01*
X175500Y52357D01*
X175821Y52389D01*
X176129Y52482D01*
X176413Y52634D01*
X176662Y52838D01*
X176866Y53087D01*
X177018Y53371D01*
X177111Y53679D01*
X177143Y54000D01*
X177111Y54321D01*
X177018Y54629D01*
X176866Y54913D01*
X176662Y55162D01*
X176413Y55366D01*
X176129Y55518D01*
X176042Y55544D01*
X176061Y55671D01*
X177671D01*
Y50050D01*
D02*
G37*
G36*
X144424Y122804D02*
X142560Y120940D01*
X142560Y120940D01*
X142349Y120664D01*
X142281Y120500D01*
X141900D01*
Y119279D01*
X141536Y118915D01*
X141409Y118968D01*
Y120100D01*
X141373Y120472D01*
X141264Y120831D01*
X141245Y120866D01*
X143300Y122921D01*
X144376D01*
X144424Y122804D01*
D02*
G37*
G36*
X134091Y119086D02*
Y118900D01*
X134127Y118528D01*
X134157Y118431D01*
X134081Y118329D01*
X133958D01*
X133913Y118366D01*
X133629Y118518D01*
X133321Y118611D01*
X133000Y118643D01*
X132679Y118611D01*
X132371Y118518D01*
X132087Y118366D01*
X131838Y118162D01*
X131634Y117913D01*
X131482Y117629D01*
X131389Y117321D01*
X131357Y117000D01*
X131389Y116679D01*
X131482Y116371D01*
X131634Y116087D01*
X131838Y115838D01*
X132087Y115634D01*
X132371Y115482D01*
X132679Y115389D01*
X133000Y115357D01*
X133321Y115389D01*
X133629Y115482D01*
X133913Y115634D01*
X133958Y115671D01*
X141500D01*
X141844Y115716D01*
X141977Y115771D01*
X142164Y115849D01*
X142440Y116060D01*
X142879Y116500D01*
X144068D01*
X144100Y116373D01*
X144087Y116366D01*
X143838Y116162D01*
X143634Y115913D01*
X143482Y115629D01*
X143389Y115321D01*
X143357Y115000D01*
X143389Y114679D01*
X143456Y114456D01*
X143365Y114329D01*
X133958D01*
X133913Y114366D01*
X133629Y114518D01*
X133321Y114611D01*
X133000Y114643D01*
X132679Y114611D01*
X132371Y114518D01*
X132087Y114366D01*
X131838Y114162D01*
X131634Y113913D01*
X131482Y113629D01*
X131389Y113321D01*
X131357Y113000D01*
X131389Y112679D01*
X131482Y112371D01*
X131634Y112087D01*
X131838Y111838D01*
X132087Y111634D01*
X132371Y111482D01*
X132679Y111389D01*
X133000Y111357D01*
X133321Y111389D01*
X133629Y111482D01*
X133913Y111634D01*
X133958Y111671D01*
X145500D01*
X145844Y111716D01*
X146164Y111849D01*
X146440Y112060D01*
X149254Y114875D01*
X149374Y114832D01*
X149389Y114679D01*
X149482Y114371D01*
X149634Y114087D01*
X149838Y113838D01*
X150081Y113639D01*
X150105Y113610D01*
X150121Y113500D01*
X148060Y111440D01*
X147849Y111164D01*
X147771Y110977D01*
X147716Y110844D01*
X147671Y110500D01*
Y96676D01*
X147577Y96590D01*
X147400Y96608D01*
X147272D01*
X145940Y97940D01*
X145664Y98151D01*
X145477Y98229D01*
X145344Y98284D01*
X145000Y98329D01*
X143550D01*
X130829Y111050D01*
Y118000D01*
X130784Y118344D01*
X130651Y118664D01*
X130440Y118940D01*
X129640Y119740D01*
X129688Y119857D01*
X133319D01*
X134091Y119086D01*
D02*
G37*
G36*
X140725Y35044D02*
X140627Y34722D01*
X140617Y34617D01*
X139829Y33829D01*
X133818D01*
X133758Y33956D01*
X133866Y34087D01*
X134018Y34371D01*
X134111Y34679D01*
X134117Y34738D01*
X134550Y35171D01*
X140659D01*
X140725Y35044D01*
D02*
G37*
G36*
X119674Y46054D02*
X119450Y45829D01*
X116500D01*
X116156Y45784D01*
X115836Y45651D01*
X115560Y45440D01*
X112560Y42440D01*
X112349Y42164D01*
X112271Y41977D01*
X112216Y41844D01*
X112171Y41500D01*
Y35550D01*
X111950Y35329D01*
X110721D01*
X110635Y35423D01*
X110643Y35500D01*
X110611Y35821D01*
X110518Y36129D01*
X110366Y36413D01*
X110162Y36662D01*
X109913Y36866D01*
X109629Y37018D01*
X109321Y37111D01*
X109262Y37117D01*
X105329Y41050D01*
Y45500D01*
X105284Y45844D01*
X105201Y46044D01*
X105286Y46171D01*
X119626D01*
X119674Y46054D01*
D02*
G37*
G36*
X104674Y35446D02*
X104626Y35329D01*
X103550D01*
X102329Y36550D01*
Y37542D01*
X102361Y37581D01*
X102390Y37605D01*
X102500Y37621D01*
X104674Y35446D01*
D02*
G37*
G36*
X161854Y117746D02*
X161207Y117100D01*
X162171D01*
Y116411D01*
X162087Y116366D01*
X161838Y116162D01*
X161634Y115913D01*
X161482Y115629D01*
X161389Y115321D01*
X161357Y115000D01*
X161389Y114679D01*
X161482Y114371D01*
X161634Y114087D01*
X161838Y113838D01*
X162087Y113634D01*
X162371Y113482D01*
X162679Y113389D01*
X163000Y113357D01*
X163321Y113389D01*
X163629Y113482D01*
X163913Y113634D01*
X164162Y113838D01*
X164366Y114087D01*
X164518Y114371D01*
X164611Y114679D01*
X164623Y114799D01*
X164651Y114836D01*
X164784Y115156D01*
X164829Y115500D01*
Y117197D01*
X164837Y117207D01*
X164985Y117485D01*
X165077Y117786D01*
X165085Y117873D01*
X165205Y117916D01*
X169921Y113200D01*
Y110285D01*
X169816Y110214D01*
X169689Y110267D01*
X169350Y110311D01*
X165650D01*
X165311Y110267D01*
X165155Y110202D01*
X166004Y109354D01*
X165650Y109000D01*
X166004Y108646D01*
X165155Y107798D01*
X165311Y107733D01*
X165650Y107689D01*
X168644D01*
X168692Y107571D01*
X168030Y106909D01*
X165650D01*
X165278Y106872D01*
X164919Y106764D01*
X164589Y106587D01*
X164300Y106350D01*
X164063Y106061D01*
X163886Y105731D01*
X163777Y105372D01*
X163741Y105000D01*
X163777Y104628D01*
X163886Y104269D01*
X164063Y103939D01*
X164300Y103650D01*
X164589Y103413D01*
X164919Y103236D01*
X165278Y103127D01*
X165650Y103091D01*
X169350D01*
X169552Y103111D01*
X169609Y102989D01*
X169514Y102893D01*
X169350Y102909D01*
X165650D01*
X165278Y102872D01*
X164919Y102764D01*
X164589Y102587D01*
X164300Y102350D01*
X164063Y102061D01*
X163886Y101731D01*
X163777Y101372D01*
X163741Y101000D01*
X163777Y100628D01*
X163886Y100269D01*
X164063Y99939D01*
X164300Y99650D01*
X164589Y99413D01*
X164919Y99236D01*
X165278Y99127D01*
X165650Y99091D01*
X168973D01*
X169035Y98964D01*
X168993Y98909D01*
X165650D01*
X165278Y98872D01*
X164919Y98764D01*
X164589Y98587D01*
X164300Y98350D01*
X164063Y98061D01*
X163886Y97731D01*
X163777Y97372D01*
X163741Y97000D01*
X163777Y96628D01*
X163886Y96269D01*
X164063Y95939D01*
X164300Y95650D01*
X164589Y95413D01*
X164919Y95236D01*
X165278Y95127D01*
X165650Y95091D01*
X168473D01*
X168535Y94964D01*
X168493Y94909D01*
X165650D01*
X165278Y94872D01*
X164919Y94764D01*
X164589Y94587D01*
X164300Y94350D01*
X164063Y94061D01*
X163886Y93731D01*
X163777Y93372D01*
X163768Y93274D01*
X163648Y93231D01*
X160829Y96050D01*
Y99500D01*
X160784Y99844D01*
X160651Y100164D01*
X160440Y100440D01*
X158213Y102666D01*
X158437Y102939D01*
X158614Y103269D01*
X158723Y103628D01*
X158759Y104000D01*
X158723Y104372D01*
X158614Y104731D01*
X158437Y105061D01*
X158200Y105350D01*
X157911Y105587D01*
X157581Y105764D01*
X157222Y105873D01*
X156850Y105909D01*
X153150D01*
X152778Y105873D01*
X152419Y105764D01*
X152089Y105587D01*
X151800Y105350D01*
X151563Y105061D01*
X151386Y104731D01*
X151277Y104372D01*
X151241Y104000D01*
X151277Y103628D01*
X151386Y103269D01*
X151563Y102939D01*
X151800Y102650D01*
X152089Y102413D01*
X152419Y102236D01*
X152778Y102127D01*
X153150Y102091D01*
X155030D01*
X158171Y98950D01*
Y96522D01*
X158056Y96468D01*
X157911Y96587D01*
X157581Y96764D01*
X157222Y96873D01*
X156850Y96909D01*
X153150D01*
X152778Y96873D01*
X152419Y96764D01*
X152089Y96587D01*
X151800Y96350D01*
X151563Y96061D01*
X151386Y95731D01*
X151277Y95372D01*
X151241Y95000D01*
X151277Y94628D01*
X151386Y94269D01*
X151563Y93939D01*
X151800Y93650D01*
X152089Y93413D01*
X152419Y93236D01*
X152778Y93127D01*
X153150Y93091D01*
X155030D01*
X163560Y84560D01*
X163836Y84349D01*
X164156Y84216D01*
X164500Y84171D01*
X169533D01*
X169550Y84150D01*
X169839Y83913D01*
X170025Y83813D01*
Y83687D01*
X169839Y83587D01*
X169550Y83350D01*
X169533Y83329D01*
X159550D01*
X158213Y84666D01*
X158437Y84939D01*
X158614Y85269D01*
X158723Y85628D01*
X158759Y86000D01*
X158723Y86372D01*
X158614Y86731D01*
X158437Y87061D01*
X158200Y87350D01*
X157911Y87587D01*
X157581Y87764D01*
X157222Y87873D01*
X156850Y87909D01*
X153150D01*
X152778Y87873D01*
X152419Y87764D01*
X152089Y87587D01*
X151800Y87350D01*
X151563Y87061D01*
X151386Y86731D01*
X151277Y86372D01*
X151241Y86000D01*
X151277Y85628D01*
X151386Y85269D01*
X151563Y84939D01*
X151800Y84650D01*
X152089Y84413D01*
X152419Y84236D01*
X152778Y84127D01*
X153150Y84091D01*
X155030D01*
X158060Y81060D01*
X158336Y80849D01*
X158656Y80716D01*
X159000Y80671D01*
X169533D01*
X169550Y80650D01*
X169839Y80413D01*
X170025Y80313D01*
Y80187D01*
X169839Y80087D01*
X169550Y79850D01*
X169533Y79829D01*
X156500D01*
X156156Y79784D01*
X155836Y79651D01*
X155560Y79440D01*
X155030Y78909D01*
X153150D01*
X152778Y78873D01*
X152419Y78764D01*
X152089Y78587D01*
X151800Y78350D01*
X151563Y78061D01*
X151386Y77731D01*
X151277Y77372D01*
X151241Y77000D01*
X151277Y76628D01*
X151386Y76269D01*
X151563Y75939D01*
X151800Y75650D01*
X152089Y75413D01*
X152419Y75236D01*
X152778Y75128D01*
X153150Y75091D01*
X154738D01*
X154770Y74964D01*
X154587Y74866D01*
X154542Y74829D01*
X150500D01*
X150156Y74784D01*
X150127Y74772D01*
X150000Y74856D01*
Y75139D01*
X150151Y75336D01*
X150284Y75656D01*
X150329Y76000D01*
Y108329D01*
X155838Y113838D01*
X155838Y113838D01*
X156087Y113634D01*
X156371Y113482D01*
X156679Y113389D01*
X157000Y113357D01*
X157321Y113389D01*
X157629Y113482D01*
X157913Y113634D01*
X158162Y113838D01*
X158366Y114087D01*
X158518Y114371D01*
X158611Y114679D01*
X158623Y114800D01*
X158651Y114836D01*
X158784Y115156D01*
X158829Y115500D01*
Y116829D01*
X160383Y118383D01*
X160500Y118334D01*
Y117807D01*
X161146Y118454D01*
X161854Y117746D01*
D02*
G37*
G36*
X74671Y37450D02*
Y29909D01*
X74150D01*
X73778Y29873D01*
X73419Y29764D01*
X73089Y29587D01*
X72800Y29350D01*
X72574Y29075D01*
X72500Y29065D01*
X72426Y29075D01*
X72200Y29350D01*
X71911Y29587D01*
X71581Y29764D01*
X71222Y29873D01*
X70850Y29909D01*
X67150D01*
X66778Y29873D01*
X66419Y29764D01*
X66136Y29612D01*
X66009Y29674D01*
Y45946D01*
X66126Y45995D01*
X74671Y37450D01*
D02*
G37*
G36*
X149174Y121554D02*
X148560Y120940D01*
X148349Y120664D01*
X148281Y120500D01*
X147900D01*
Y117279D01*
X146946Y116326D01*
X146829Y116374D01*
Y117197D01*
X146837Y117207D01*
X146985Y117485D01*
X147077Y117786D01*
X147108Y118100D01*
Y118900D01*
X147077Y119214D01*
X146985Y119515D01*
X146837Y119793D01*
X146637Y120037D01*
X146393Y120237D01*
X146115Y120385D01*
X145964Y120431D01*
X145934Y120554D01*
X147050Y121671D01*
X149126D01*
X149174Y121554D01*
D02*
G37*
G36*
X81671Y32450D02*
Y29909D01*
X81150D01*
X80778Y29873D01*
X80419Y29764D01*
X80089Y29587D01*
X79800Y29350D01*
X79574Y29075D01*
X79500Y29065D01*
X79426Y29075D01*
X79200Y29350D01*
X78911Y29587D01*
X78581Y29764D01*
X78222Y29873D01*
X77850Y29909D01*
X77329D01*
Y36626D01*
X77446Y36674D01*
X81671Y32450D01*
D02*
G37*
G36*
X153900Y117279D02*
X152946Y116326D01*
X152829Y116374D01*
Y117197D01*
X152837Y117207D01*
X152985Y117485D01*
X153077Y117786D01*
X153108Y118100D01*
Y118900D01*
X153077Y119214D01*
X152985Y119515D01*
X152837Y119793D01*
X152637Y120037D01*
X152393Y120237D01*
X152286Y120294D01*
X152318Y120421D01*
X153900D01*
Y117279D01*
D02*
G37*
G36*
X67000Y98000D02*
X76000Y98000D01*
X96000Y78000D01*
X114000D01*
X116000Y76000D01*
Y59000D01*
X114500Y57500D01*
X107500D01*
X106000Y59000D01*
X106000Y66000D01*
X104000Y68000D01*
X92000D01*
X89439Y70561D01*
X89477Y70686D01*
X89508Y71000D01*
X89477Y71314D01*
X89385Y71615D01*
X89237Y71893D01*
X89037Y72137D01*
X88793Y72337D01*
X88515Y72485D01*
X88214Y72577D01*
X87900Y72608D01*
X87392D01*
X72000Y88000D01*
X63000D01*
X51000Y100000D01*
X43000Y100000D01*
X42000Y101000D01*
Y113000D01*
X43000Y114000D01*
X51000D01*
X67000Y98000D01*
D02*
G37*
G36*
X94000Y125000D02*
X106000Y113000D01*
X106000Y107000D01*
X106000Y100000D01*
X117900Y88100D01*
X117890Y88000D01*
X117930Y87588D01*
X118050Y87192D01*
X118245Y86828D01*
X118508Y86508D01*
X118828Y86245D01*
X119192Y86050D01*
X119588Y85930D01*
X120000Y85890D01*
X120100Y85900D01*
X127000Y79000D01*
Y74662D01*
X126982Y74629D01*
X126889Y74321D01*
X126857Y74000D01*
X126889Y73679D01*
X126982Y73371D01*
X127000Y73338D01*
Y55912D01*
X126982Y55879D01*
X126889Y55571D01*
X126857Y55250D01*
X126889Y54929D01*
X126982Y54621D01*
X127000Y54588D01*
Y52000D01*
X127171Y51829D01*
Y49500D01*
X127209Y49209D01*
X126829Y48829D01*
X107171D01*
X106000Y50000D01*
X106000Y55000D01*
X107492Y56492D01*
X107500Y56491D01*
X114500D01*
X114566Y56500D01*
X115500D01*
X117000Y58000D01*
Y58934D01*
X117009Y59000D01*
Y76000D01*
X117009Y76000D01*
X116974Y76261D01*
X116873Y76504D01*
X116713Y76713D01*
X114713Y78713D01*
X114504Y78873D01*
X114261Y78974D01*
X114000Y79009D01*
X112991D01*
X96009Y95991D01*
X96009Y107000D01*
X96009Y107000D01*
X96000Y107066D01*
Y108000D01*
X94000Y110000D01*
X93066D01*
X93000Y110009D01*
X93000D01*
D01*
X72991D01*
X65009Y117991D01*
Y123000D01*
X65008Y123008D01*
X67000Y125000D01*
X94000Y125000D01*
D02*
G37*
G36*
X159000Y125579D02*
X142750D01*
X142406Y125534D01*
X142086Y125401D01*
X141810Y125190D01*
X139972Y123351D01*
X138162Y125162D01*
X137913Y125366D01*
X137629Y125518D01*
X137321Y125611D01*
X137000Y125643D01*
X120500D01*
X120179Y125611D01*
X119871Y125518D01*
X119587Y125366D01*
X119338Y125162D01*
X113338Y119162D01*
X113134Y118913D01*
X112982Y118629D01*
X112889Y118321D01*
X112888Y118315D01*
X112736Y118031D01*
X112628Y117672D01*
X112591Y117300D01*
Y116700D01*
X112628Y116328D01*
X112736Y115969D01*
X112857Y115743D01*
Y114008D01*
X112763Y113893D01*
X112615Y113615D01*
X112523Y113314D01*
X112492Y113000D01*
X112523Y112686D01*
X112615Y112385D01*
X112763Y112107D01*
X112857Y111992D01*
Y104757D01*
X112736Y104531D01*
X112628Y104172D01*
X112591Y103800D01*
Y103200D01*
X112628Y102828D01*
X112736Y102469D01*
X112913Y102139D01*
X113150Y101850D01*
X113171Y101833D01*
Y100808D01*
X112963Y100637D01*
X112763Y100393D01*
X112615Y100115D01*
X112523Y99814D01*
X112492Y99500D01*
X112523Y99186D01*
X112615Y98885D01*
X112763Y98607D01*
X112963Y98363D01*
X113207Y98163D01*
X113485Y98015D01*
X113786Y97923D01*
X114100Y97892D01*
X114228D01*
X129671Y82450D01*
Y81958D01*
X129634Y81913D01*
X129482Y81629D01*
X129389Y81321D01*
X129377Y81200D01*
X129349Y81164D01*
X129216Y80844D01*
X129171Y80500D01*
Y75635D01*
X129044Y75544D01*
X128821Y75611D01*
X128500Y75643D01*
X128179Y75611D01*
X128111Y75590D01*
X128009Y75666D01*
Y79000D01*
X127974Y79261D01*
X127873Y79504D01*
X127713Y79713D01*
X120828Y86598D01*
X120824Y86671D01*
X120837Y86742D01*
X120845Y86753D01*
X121066Y86934D01*
X121253Y87163D01*
X121393Y87423D01*
X121478Y87706D01*
X121507Y88000D01*
X121478Y88294D01*
X121393Y88577D01*
X121355Y88648D01*
X120354Y87646D01*
X119646Y88354D01*
X120648Y89355D01*
X120577Y89393D01*
X120294Y89478D01*
X120000Y89507D01*
X119706Y89478D01*
X119423Y89393D01*
X119163Y89253D01*
X118934Y89066D01*
X118753Y88845D01*
X118742Y88837D01*
X118671Y88824D01*
X118598Y88828D01*
X107009Y100418D01*
X107009Y107000D01*
X107009Y113000D01*
X106974Y113261D01*
X106873Y113504D01*
X106713Y113713D01*
X94713Y125713D01*
X94504Y125873D01*
X94261Y125974D01*
X94000Y126009D01*
X67000Y126009D01*
X66739Y125974D01*
X66496Y125873D01*
X66287Y125713D01*
X64294Y123721D01*
X64254Y123668D01*
X64207Y123622D01*
X64174Y123564D01*
X64134Y123512D01*
X64109Y123451D01*
X64076Y123394D01*
X64059Y123330D01*
X64033Y123269D01*
X64025Y123203D01*
X64008Y123139D01*
X64008Y123073D01*
X63999Y123008D01*
X64000Y123000D01*
Y117991D01*
X64034Y117730D01*
X64135Y117487D01*
X64295Y117278D01*
X72278Y109295D01*
X72487Y109135D01*
X72730Y109034D01*
X72991Y109000D01*
X93000D01*
X93000Y109000D01*
X93000D01*
X93066Y108991D01*
X93582D01*
X94991Y107582D01*
Y107066D01*
X95000Y107000D01*
X95000Y107000D01*
Y107000D01*
X95000Y95991D01*
X95034Y95730D01*
X95135Y95487D01*
X95295Y95278D01*
X111448Y79126D01*
X111399Y79009D01*
X96418D01*
X95426Y80000D01*
D01*
X76713Y98713D01*
X76504Y98874D01*
X76261Y98974D01*
X76000Y99009D01*
X67991Y99009D01*
D01*
X67418D01*
X51713Y114713D01*
X51504Y114873D01*
X51261Y114974D01*
X51066Y115000D01*
D01*
X51000Y115009D01*
X43000D01*
X42739Y114974D01*
X42496Y114873D01*
X42287Y114713D01*
X42287Y114713D01*
X41500Y113926D01*
X40722Y114705D01*
X40722Y114705D01*
X40513Y114865D01*
X40270Y114966D01*
X40009Y115000D01*
X28132Y115000D01*
X28000D01*
D01*
X27934Y115009D01*
X20000D01*
X20000Y115009D01*
X19739Y114974D01*
X19496Y114873D01*
X19287Y114713D01*
X18117Y113544D01*
X18000Y113592D01*
Y123000D01*
X23000Y128000D01*
X159000D01*
Y125579D01*
D02*
G37*
G36*
X118196Y38176D02*
X118540Y38131D01*
X123126D01*
X123169Y38004D01*
X122980Y37860D01*
X122228Y37108D01*
X122100D01*
X121786Y37077D01*
X121485Y36985D01*
X121207Y36837D01*
X120963Y36637D01*
X120763Y36393D01*
X120615Y36115D01*
X120566Y35956D01*
X120434D01*
X120385Y36115D01*
X120237Y36393D01*
X120037Y36637D01*
X119793Y36837D01*
X119515Y36985D01*
X119214Y37077D01*
X118900Y37108D01*
X118772D01*
X117829Y38050D01*
Y38191D01*
X117956Y38276D01*
X118196Y38176D01*
D02*
G37*
%LPC*%
G36*
X140499Y42292D02*
X140207Y42000D01*
X140499Y41708D01*
X140508Y41730D01*
X140544Y42000D01*
X140508Y42270D01*
X140499Y42292D01*
D02*
G37*
G36*
X143000Y43078D02*
X142708Y42786D01*
X142730Y42777D01*
X143000Y42741D01*
X143270Y42777D01*
X143292Y42786D01*
X143000Y43078D01*
D02*
G37*
G36*
X142001Y45347D02*
X141992Y45325D01*
X141956Y45055D01*
Y43785D01*
X141992Y43515D01*
X142001Y43493D01*
X142646Y44139D01*
X143000Y43785D01*
X143354Y44139D01*
X143999Y43493D01*
X144008Y43515D01*
X144044Y43785D01*
Y45055D01*
X144008Y45325D01*
X143999Y45347D01*
X143354Y44701D01*
X143000Y45055D01*
X142646Y44701D01*
X142001Y45347D01*
D02*
G37*
G36*
X139500Y43044D02*
X139230Y43008D01*
X139208Y42999D01*
X139500Y42707D01*
X139792Y42999D01*
X139770Y43008D01*
X139500Y43044D01*
D02*
G37*
G36*
X143000Y46099D02*
X142730Y46063D01*
X142708Y46054D01*
X143000Y45762D01*
X143292Y46054D01*
X143270Y46063D01*
X143000Y46099D01*
D02*
G37*
G36*
X145628Y86265D02*
X145626Y86261D01*
X145591Y86000D01*
X145626Y85739D01*
X145628Y85735D01*
X145893Y86000D01*
X145628Y86265D01*
D02*
G37*
G36*
X44999Y54292D02*
X44707Y54000D01*
X44999Y53708D01*
X45008Y53730D01*
X45044Y54000D01*
X45008Y54270D01*
X44999Y54292D01*
D02*
G37*
G36*
X40499Y56792D02*
X40207Y56500D01*
X40499Y56208D01*
X40508Y56230D01*
X40544Y56500D01*
X40508Y56770D01*
X40499Y56792D01*
D02*
G37*
G36*
X37001Y54292D02*
X36992Y54270D01*
X36956Y54000D01*
X36992Y53730D01*
X37001Y53708D01*
X37293Y54000D01*
X37001Y54292D01*
D02*
G37*
G36*
X38999D02*
X38707Y54000D01*
X38999Y53708D01*
X39008Y53730D01*
X39044Y54000D01*
X39008Y54270D01*
X38999Y54292D01*
D02*
G37*
G36*
X43001D02*
X42992Y54270D01*
X42956Y54000D01*
X42992Y53730D01*
X43001Y53708D01*
X43293Y54000D01*
X43001Y54292D01*
D02*
G37*
G36*
X40001D02*
X39992Y54270D01*
X39956Y54000D01*
X39992Y53730D01*
X40001Y53708D01*
X40293Y54000D01*
X40001Y54292D01*
D02*
G37*
G36*
X41999D02*
X41707Y54000D01*
X41999Y53708D01*
X42008Y53730D01*
X42044Y54000D01*
X42008Y54270D01*
X41999Y54292D01*
D02*
G37*
G36*
X42500Y55793D02*
X42208Y55501D01*
X42230Y55492D01*
X42500Y55456D01*
X42770Y55492D01*
X42792Y55501D01*
X42500Y55793D01*
D02*
G37*
G36*
X39500D02*
X39208Y55501D01*
X39230Y55492D01*
X39500Y55456D01*
X39770Y55492D01*
X39792Y55501D01*
X39500Y55793D01*
D02*
G37*
G36*
X38501Y56792D02*
X38492Y56770D01*
X38456Y56500D01*
X38492Y56230D01*
X38501Y56208D01*
X38793Y56500D01*
X38501Y56792D01*
D02*
G37*
G36*
X41501D02*
X41492Y56770D01*
X41456Y56500D01*
X41492Y56230D01*
X41501Y56208D01*
X41793Y56500D01*
X41501Y56792D01*
D02*
G37*
G36*
X44000Y55044D02*
X43730Y55008D01*
X43708Y54999D01*
X44000Y54707D01*
X44292Y54999D01*
X44270Y55008D01*
X44000Y55044D01*
D02*
G37*
G36*
X43499Y56792D02*
X43207Y56500D01*
X43499Y56208D01*
X43508Y56230D01*
X43544Y56500D01*
X43508Y56770D01*
X43499Y56792D01*
D02*
G37*
G36*
X38000Y55044D02*
X37730Y55008D01*
X37708Y54999D01*
X38000Y54707D01*
X38292Y54999D01*
X38270Y55008D01*
X38000Y55044D01*
D02*
G37*
G36*
X41000D02*
X40730Y55008D01*
X40708Y54999D01*
X41000Y54707D01*
X41292Y54999D01*
X41270Y55008D01*
X41000Y55044D01*
D02*
G37*
G36*
X60000Y24293D02*
X57970Y22263D01*
X57995Y22241D01*
X58452Y21961D01*
X58946Y21756D01*
X59466Y21631D01*
X60000Y21589D01*
X60534Y21631D01*
X61054Y21756D01*
X61548Y21961D01*
X62005Y22241D01*
X62030Y22263D01*
X60000Y24293D01*
D02*
G37*
G36*
X57263Y27030D02*
X57241Y27005D01*
X56961Y26548D01*
X56756Y26054D01*
X56631Y25534D01*
X56589Y25000D01*
X56631Y24466D01*
X56756Y23946D01*
X56961Y23452D01*
X57241Y22995D01*
X57263Y22970D01*
X59293Y25000D01*
X57263Y27030D01*
D02*
G37*
G36*
X62737Y27030D02*
X60707Y25000D01*
X62737Y22970D01*
X62759Y22995D01*
X63039Y23452D01*
X63244Y23946D01*
X63369Y24466D01*
X63411Y25000D01*
X63369Y25534D01*
X63244Y26054D01*
X63039Y26548D01*
X62759Y27005D01*
X62737Y27030D01*
D02*
G37*
G36*
X60000Y28411D02*
X59466Y28369D01*
X58946Y28244D01*
X58452Y28039D01*
X57995Y27759D01*
X57970Y27737D01*
X60000Y25707D01*
X62030Y27737D01*
X62005Y27759D01*
X61548Y28039D01*
X61054Y28244D01*
X60534Y28369D01*
X60000Y28411D01*
D02*
G37*
G36*
X41000Y53293D02*
X40708Y53001D01*
X40730Y52992D01*
X41000Y52956D01*
X41270Y52992D01*
X41292Y53001D01*
X41000Y53293D01*
D02*
G37*
G36*
X44000D02*
X43708Y53001D01*
X43730Y52992D01*
X44000Y52956D01*
X44270Y52992D01*
X44292Y53001D01*
X44000Y53293D01*
D02*
G37*
G36*
X38000D02*
X37708Y53001D01*
X37730Y52992D01*
X38000Y52956D01*
X38270Y52992D01*
X38292Y53001D01*
X38000Y53293D01*
D02*
G37*
G36*
X50650Y51443D02*
X49707Y50500D01*
X50650Y49557D01*
X50764Y49769D01*
X50873Y50128D01*
X50909Y50500D01*
X50873Y50872D01*
X50764Y51231D01*
X50650Y51443D01*
D02*
G37*
G36*
X49000Y52409D02*
X48628Y52373D01*
X48269Y52264D01*
X48057Y52150D01*
X49000Y51207D01*
X49943Y52150D01*
X49731Y52264D01*
X49372Y52373D01*
X49000Y52409D01*
D02*
G37*
G36*
X32000D02*
X31628Y52373D01*
X31269Y52264D01*
X31057Y52150D01*
X32000Y51207D01*
X32943Y52150D01*
X32731Y52264D01*
X32372Y52373D01*
X32000Y52409D01*
D02*
G37*
G36*
X39500Y57544D02*
X39230Y57508D01*
X39208Y57499D01*
X39500Y57207D01*
X39792Y57499D01*
X39770Y57508D01*
X39500Y57544D01*
D02*
G37*
G36*
X42500D02*
X42230Y57508D01*
X42208Y57499D01*
X42500Y57207D01*
X42792Y57499D01*
X42770Y57508D01*
X42500Y57544D01*
D02*
G37*
G36*
X49000Y59793D02*
X48057Y58850D01*
X48269Y58736D01*
X48628Y58627D01*
X49000Y58591D01*
X49372Y58627D01*
X49731Y58736D01*
X49943Y58850D01*
X49000Y59793D01*
D02*
G37*
G36*
X32000Y59793D02*
X31057Y58850D01*
X31269Y58736D01*
X31628Y58627D01*
X32000Y58591D01*
X32372Y58627D01*
X32731Y58736D01*
X32943Y58850D01*
X32000Y59793D01*
D02*
G37*
G36*
X39650Y104443D02*
X38354Y103146D01*
X38000Y103500D01*
X37646Y103146D01*
X36350Y104443D01*
X36236Y104231D01*
X36127Y103872D01*
X36091Y103500D01*
Y102500D01*
X36127Y102128D01*
X36236Y101769D01*
X36350Y101557D01*
X37646Y102854D01*
X38000Y102500D01*
X38354Y102854D01*
X39650Y101557D01*
X39764Y101769D01*
X39873Y102128D01*
X39909Y102500D01*
Y103500D01*
X39873Y103872D01*
X39764Y104231D01*
X39650Y104443D01*
D02*
G37*
G36*
X38000Y101793D02*
X37057Y100850D01*
X37269Y100736D01*
X37628Y100627D01*
X38000Y100591D01*
X38372Y100627D01*
X38731Y100736D01*
X38943Y100850D01*
X38000Y101793D01*
D02*
G37*
G36*
X27000Y109293D02*
X25687Y107980D01*
X26077Y107772D01*
X26530Y107635D01*
X27000Y107588D01*
X27470Y107635D01*
X27923Y107772D01*
X28313Y107980D01*
X27000Y109293D01*
D02*
G37*
G36*
X38000Y105409D02*
X37628Y105372D01*
X37269Y105264D01*
X37057Y105150D01*
X38000Y104207D01*
X38943Y105150D01*
X38731Y105264D01*
X38372Y105372D01*
X38000Y105409D01*
D02*
G37*
G36*
X27000Y112412D02*
X26530Y112365D01*
X26077Y112228D01*
X25687Y112020D01*
X27000Y110707D01*
X28313Y112020D01*
X27923Y112228D01*
X27470Y112365D01*
X27000Y112412D01*
D02*
G37*
G36*
X24980Y111313D02*
X24772Y110923D01*
X24635Y110470D01*
X24588Y110000D01*
X24635Y109530D01*
X24772Y109077D01*
X24980Y108687D01*
X26293Y110000D01*
X24980Y111313D01*
D02*
G37*
G36*
X29020D02*
X27707Y110000D01*
X29020Y108687D01*
X29228Y109077D01*
X29365Y109530D01*
X29412Y110000D01*
X29365Y110470D01*
X29228Y110923D01*
X29020Y111313D01*
D02*
G37*
G36*
X66000Y54293D02*
X65708Y54001D01*
X65730Y53992D01*
X66000Y53956D01*
X66270Y53992D01*
X66292Y54001D01*
X66000Y54293D01*
D02*
G37*
G36*
Y57293D02*
X65708Y57001D01*
X65730Y56992D01*
X66000Y56956D01*
X66270Y56992D01*
X66292Y57001D01*
X66000Y57293D01*
D02*
G37*
G36*
X68500Y55793D02*
X68208Y55501D01*
X68230Y55492D01*
X68500Y55456D01*
X68770Y55492D01*
X68792Y55501D01*
X68500Y55793D01*
D02*
G37*
G36*
X66000Y56044D02*
X65730Y56008D01*
X65708Y55999D01*
X66000Y55707D01*
X66292Y55999D01*
X66270Y56008D01*
X66000Y56044D01*
D02*
G37*
G36*
X67501Y56792D02*
X67492Y56770D01*
X67456Y56500D01*
X67492Y56230D01*
X67501Y56208D01*
X67793Y56500D01*
X67501Y56792D01*
D02*
G37*
G36*
X69499D02*
X69207Y56500D01*
X69499Y56208D01*
X69508Y56230D01*
X69544Y56500D01*
X69508Y56770D01*
X69499Y56792D01*
D02*
G37*
G36*
X66999Y55292D02*
X66707Y55000D01*
X66999Y54708D01*
X67008Y54730D01*
X67044Y55000D01*
X67008Y55270D01*
X66999Y55292D01*
D02*
G37*
G36*
X65001D02*
X64992Y55270D01*
X64956Y55000D01*
X64992Y54730D01*
X65001Y54708D01*
X65293Y55000D01*
X65001Y55292D01*
D02*
G37*
G36*
X36350Y86443D02*
X36236Y86231D01*
X36127Y85872D01*
X36091Y85500D01*
Y84500D01*
X36127Y84128D01*
X36236Y83769D01*
X36350Y83557D01*
X37646Y84854D01*
X38000Y84500D01*
X38354Y84854D01*
X39650Y83557D01*
X39764Y83769D01*
X39873Y84128D01*
X39909Y84500D01*
Y85500D01*
X39873Y85872D01*
X39764Y86231D01*
X39650Y86443D01*
X38354Y85146D01*
X38000Y85500D01*
X37646Y85146D01*
X36350Y86443D01*
D02*
G37*
G36*
X38000Y87409D02*
X37628Y87372D01*
X37269Y87264D01*
X37057Y87150D01*
X38000Y86207D01*
X38943Y87150D01*
X38731Y87264D01*
X38372Y87372D01*
X38000Y87409D01*
D02*
G37*
G36*
X38000Y83793D02*
X37057Y82850D01*
X37269Y82736D01*
X37628Y82628D01*
X38000Y82591D01*
X38372Y82628D01*
X38731Y82736D01*
X38943Y82850D01*
X38000Y83793D01*
D02*
G37*
G36*
X67501Y59792D02*
X67492Y59770D01*
X67456Y59500D01*
X67492Y59230D01*
X67501Y59208D01*
X67793Y59500D01*
X67501Y59792D01*
D02*
G37*
G36*
X69499D02*
X69207Y59500D01*
X69499Y59208D01*
X69508Y59230D01*
X69544Y59500D01*
X69508Y59770D01*
X69499Y59792D01*
D02*
G37*
G36*
X66000Y60293D02*
X65708Y60001D01*
X65730Y59992D01*
X66000Y59956D01*
X66270Y59992D01*
X66292Y60001D01*
X66000Y60293D01*
D02*
G37*
G36*
X66999Y61292D02*
X66707Y61000D01*
X66999Y60708D01*
X67008Y60730D01*
X67044Y61000D01*
X67008Y61270D01*
X66999Y61292D01*
D02*
G37*
G36*
X66000Y62044D02*
X65730Y62008D01*
X65708Y61999D01*
X66000Y61707D01*
X66292Y61999D01*
X66270Y62008D01*
X66000Y62044D01*
D02*
G37*
G36*
X68500Y60544D02*
X68230Y60508D01*
X68208Y60499D01*
X68500Y60207D01*
X68792Y60499D01*
X68770Y60508D01*
X68500Y60544D01*
D02*
G37*
G36*
X65001Y61292D02*
X64992Y61270D01*
X64956Y61000D01*
X64992Y60730D01*
X65001Y60708D01*
X65293Y61000D01*
X65001Y61292D01*
D02*
G37*
G36*
Y58292D02*
X64992Y58270D01*
X64956Y58000D01*
X64992Y57730D01*
X65001Y57708D01*
X65293Y58000D01*
X65001Y58292D01*
D02*
G37*
G36*
X66999D02*
X66707Y58000D01*
X66999Y57708D01*
X67008Y57730D01*
X67044Y58000D01*
X67008Y58270D01*
X66999Y58292D01*
D02*
G37*
G36*
X68500Y57544D02*
X68230Y57508D01*
X68208Y57499D01*
X68500Y57207D01*
X68792Y57499D01*
X68770Y57508D01*
X68500Y57544D01*
D02*
G37*
G36*
X66000Y59044D02*
X65730Y59008D01*
X65708Y58999D01*
X66000Y58707D01*
X66292Y58999D01*
X66270Y59008D01*
X66000Y59044D01*
D02*
G37*
G36*
X68500Y58793D02*
X68208Y58501D01*
X68230Y58492D01*
X68500Y58456D01*
X68770Y58492D01*
X68792Y58501D01*
X68500Y58793D01*
D02*
G37*
G36*
X31000Y29012D02*
X30372Y28963D01*
X29760Y28816D01*
X29178Y28575D01*
X28642Y28246D01*
X28163Y27837D01*
X27754Y27358D01*
X27425Y26822D01*
X27184Y26240D01*
X27037Y25628D01*
X26988Y25000D01*
X27037Y24372D01*
X27184Y23760D01*
X27425Y23178D01*
X27754Y22642D01*
X28163Y22163D01*
X28642Y21754D01*
X29178Y21425D01*
X29760Y21184D01*
X30372Y21037D01*
X31000Y20988D01*
X31628Y21037D01*
X32240Y21184D01*
X32822Y21425D01*
X33358Y21754D01*
X33837Y22163D01*
X34246Y22642D01*
X34575Y23178D01*
X34816Y23760D01*
X34963Y24372D01*
X35012Y25000D01*
X34963Y25628D01*
X34816Y26240D01*
X34575Y26822D01*
X34246Y27358D01*
X33837Y27837D01*
X33358Y28246D01*
X32822Y28575D01*
X32240Y28816D01*
X31628Y28963D01*
X31000Y29012D01*
D02*
G37*
G36*
X22000Y28011D02*
X21451Y27968D01*
X20915Y27839D01*
X20406Y27628D01*
X19936Y27340D01*
X19517Y26983D01*
X19160Y26564D01*
X18872Y26094D01*
X18661Y25585D01*
X18532Y25049D01*
X18489Y24500D01*
X18532Y23951D01*
X18661Y23415D01*
X18872Y22906D01*
X19160Y22436D01*
X19517Y22017D01*
X19936Y21660D01*
X20406Y21372D01*
X20915Y21161D01*
X21451Y21032D01*
X22000Y20989D01*
X22549Y21032D01*
X23085Y21161D01*
X23594Y21372D01*
X24064Y21660D01*
X24483Y22017D01*
X24840Y22436D01*
X25128Y22906D01*
X25339Y23415D01*
X25468Y23951D01*
X25511Y24500D01*
X25468Y25049D01*
X25339Y25585D01*
X25128Y26094D01*
X24840Y26564D01*
X24483Y26983D01*
X24064Y27340D01*
X23594Y27628D01*
X23085Y27839D01*
X22549Y27968D01*
X22000Y28011D01*
D02*
G37*
G36*
X91850Y29311D02*
X88150D01*
X87811Y29267D01*
X87655Y29202D01*
X88504Y28354D01*
X88150Y28000D01*
X88504Y27646D01*
X87655Y26798D01*
X87811Y26733D01*
X88150Y26689D01*
X91850D01*
X92189Y26733D01*
X92345Y26798D01*
X91496Y27646D01*
X91850Y28000D01*
X91496Y28354D01*
X92345Y29202D01*
X92189Y29267D01*
X91850Y29311D01*
D02*
G37*
G36*
X22501Y54792D02*
X22492Y54770D01*
X22456Y54500D01*
X22492Y54230D01*
X22501Y54208D01*
X22793Y54500D01*
X22501Y54792D01*
D02*
G37*
G36*
X23500Y56793D02*
X23208Y56501D01*
X23230Y56492D01*
X23500Y56456D01*
X23770Y56492D01*
X23792Y56501D01*
X23500Y56793D01*
D02*
G37*
G36*
X21000Y57044D02*
X20730Y57008D01*
X20708Y56999D01*
X21000Y56707D01*
X21292Y56999D01*
X21270Y57008D01*
X21000Y57044D01*
D02*
G37*
G36*
Y54044D02*
X20730Y54008D01*
X20708Y53999D01*
X21000Y53707D01*
X21292Y53999D01*
X21270Y54008D01*
X21000Y54044D01*
D02*
G37*
G36*
X23500Y55544D02*
X23230Y55508D01*
X23208Y55499D01*
X23500Y55207D01*
X23792Y55499D01*
X23770Y55508D01*
X23500Y55544D01*
D02*
G37*
G36*
X20001Y56292D02*
X19992Y56270D01*
X19956Y56000D01*
X19992Y55730D01*
X20001Y55708D01*
X20293Y56000D01*
X20001Y56292D01*
D02*
G37*
G36*
X21999D02*
X21707Y56000D01*
X21999Y55708D01*
X22008Y55730D01*
X22044Y56000D01*
X22008Y56270D01*
X21999Y56292D01*
D02*
G37*
G36*
X21000Y55293D02*
X20708Y55001D01*
X20730Y54992D01*
X21000Y54956D01*
X21270Y54992D01*
X21292Y55001D01*
X21000Y55293D01*
D02*
G37*
G36*
X24499Y54792D02*
X24207Y54500D01*
X24499Y54208D01*
X24508Y54230D01*
X24544Y54500D01*
X24508Y54770D01*
X24499Y54792D01*
D02*
G37*
G36*
X23500Y53793D02*
X23208Y53501D01*
X23230Y53492D01*
X23500Y53456D01*
X23770Y53492D01*
X23792Y53501D01*
X23500Y53793D01*
D02*
G37*
G36*
X47100Y44193D02*
Y41807D01*
X48293Y43000D01*
X47100Y44193D01*
D02*
G37*
G36*
X50900Y44193D02*
X49707Y43000D01*
X50900Y41807D01*
Y44193D01*
D02*
G37*
G36*
X32000Y42293D02*
X30807Y41100D01*
X33193D01*
X32000Y42293D01*
D02*
G37*
G36*
X49000Y42293D02*
X47807Y41100D01*
X50193D01*
X49000Y42293D01*
D02*
G37*
G36*
X50193Y44900D02*
X47807D01*
X49000Y43707D01*
X50193Y44900D01*
D02*
G37*
G36*
X33900Y44193D02*
X32707Y43000D01*
X33900Y41807D01*
Y44193D01*
D02*
G37*
G36*
X30100Y44193D02*
Y41807D01*
X31293Y43000D01*
X30100Y44193D01*
D02*
G37*
G36*
X21000Y52293D02*
X20708Y52001D01*
X20730Y51992D01*
X21000Y51956D01*
X21270Y51992D01*
X21292Y52001D01*
X21000Y52293D01*
D02*
G37*
G36*
X20001Y53292D02*
X19992Y53270D01*
X19956Y53000D01*
X19992Y52730D01*
X20001Y52708D01*
X20293Y53000D01*
X20001Y53292D01*
D02*
G37*
G36*
X21999D02*
X21707Y53000D01*
X21999Y52708D01*
X22008Y52730D01*
X22044Y53000D01*
X22008Y53270D01*
X21999Y53292D01*
D02*
G37*
G36*
X33193Y44900D02*
X30807D01*
X32000Y43707D01*
X33193Y44900D01*
D02*
G37*
G36*
X21000Y60044D02*
X20730Y60008D01*
X20708Y59999D01*
X21000Y59707D01*
X21292Y59999D01*
X21270Y60008D01*
X21000Y60044D01*
D02*
G37*
G36*
X21999Y59292D02*
X21707Y59000D01*
X21999Y58708D01*
X22008Y58730D01*
X22044Y59000D01*
X22008Y59270D01*
X21999Y59292D01*
D02*
G37*
G36*
X24499Y57792D02*
X24207Y57500D01*
X24499Y57208D01*
X24508Y57230D01*
X24544Y57500D01*
X24508Y57770D01*
X24499Y57792D01*
D02*
G37*
G36*
X22501D02*
X22492Y57770D01*
X22456Y57500D01*
X22492Y57230D01*
X22501Y57208D01*
X22793Y57500D01*
X22501Y57792D01*
D02*
G37*
G36*
X21000Y58293D02*
X20708Y58001D01*
X20730Y57992D01*
X21000Y57956D01*
X21270Y57992D01*
X21292Y58001D01*
X21000Y58293D01*
D02*
G37*
G36*
X20001Y59292D02*
X19992Y59270D01*
X19956Y59000D01*
X19992Y58730D01*
X20001Y58708D01*
X20293Y59000D01*
X20001Y59292D01*
D02*
G37*
G36*
X23500Y58544D02*
X23230Y58508D01*
X23208Y58499D01*
X23500Y58207D01*
X23792Y58499D01*
X23770Y58508D01*
X23500Y58544D01*
D02*
G37*
G36*
X33193Y69900D02*
X30807D01*
X32000Y68707D01*
X33193Y69900D01*
D02*
G37*
G36*
X50193D02*
X47807D01*
X49000Y68707D01*
X50193Y69900D01*
D02*
G37*
G36*
X32000Y67293D02*
X30807Y66100D01*
X33193D01*
X32000Y67293D01*
D02*
G37*
G36*
X30100Y69193D02*
Y66807D01*
X31293Y68000D01*
X30100Y69193D01*
D02*
G37*
G36*
X33900Y69193D02*
X32707Y68000D01*
X33900Y66807D01*
Y69193D01*
D02*
G37*
G36*
X50900D02*
X49707Y68000D01*
X50900Y66807D01*
Y69193D01*
D02*
G37*
G36*
X49000Y67293D02*
X47807Y66100D01*
X50193D01*
X49000Y67293D01*
D02*
G37*
G36*
X47100Y69193D02*
Y66807D01*
X48293Y68000D01*
X47100Y69193D01*
D02*
G37*
G36*
X180000Y28511D02*
X179451Y28468D01*
X178915Y28339D01*
X178406Y28128D01*
X177936Y27840D01*
X177517Y27483D01*
X177160Y27064D01*
X176872Y26594D01*
X176661Y26085D01*
X176532Y25549D01*
X176489Y25000D01*
X176532Y24451D01*
X176661Y23915D01*
X176872Y23406D01*
X177160Y22936D01*
X177517Y22517D01*
X177936Y22160D01*
X178406Y21872D01*
X178915Y21661D01*
X179451Y21532D01*
X180000Y21489D01*
X180549Y21532D01*
X181085Y21661D01*
X181594Y21872D01*
X182064Y22160D01*
X182483Y22517D01*
X182840Y22936D01*
X183128Y23406D01*
X183339Y23915D01*
X183468Y24451D01*
X183511Y25000D01*
X183468Y25549D01*
X183339Y26085D01*
X183128Y26594D01*
X182840Y27064D01*
X182483Y27483D01*
X182064Y27840D01*
X181594Y28128D01*
X181085Y28339D01*
X180549Y28468D01*
X180000Y28511D01*
D02*
G37*
G36*
X165000Y36259D02*
X164628Y36223D01*
X164269Y36114D01*
X163939Y35937D01*
X163650Y35700D01*
X163413Y35411D01*
X163236Y35081D01*
X163127Y34722D01*
X163091Y34350D01*
Y30650D01*
X163127Y30278D01*
X163236Y29919D01*
X163413Y29589D01*
X163650Y29300D01*
X163939Y29063D01*
X164269Y28886D01*
X164628Y28777D01*
X165000Y28741D01*
X165372Y28777D01*
X165731Y28886D01*
X166061Y29063D01*
X166350Y29300D01*
X166587Y29589D01*
X166764Y29919D01*
X166873Y30278D01*
X166909Y30650D01*
Y34350D01*
X166873Y34722D01*
X166764Y35081D01*
X166587Y35411D01*
X166350Y35700D01*
X166061Y35937D01*
X165731Y36114D01*
X165372Y36223D01*
X165000Y36259D01*
D02*
G37*
G36*
X156128Y50765D02*
X156126Y50761D01*
X156091Y50500D01*
X156126Y50239D01*
X156128Y50235D01*
X156393Y50500D01*
X156128Y50765D01*
D02*
G37*
G36*
X180000Y124511D02*
X179451Y124468D01*
X178915Y124339D01*
X178406Y124128D01*
X177936Y123840D01*
X177517Y123483D01*
X177160Y123064D01*
X176872Y122594D01*
X176661Y122085D01*
X176532Y121549D01*
X176489Y121000D01*
X176532Y120451D01*
X176661Y119915D01*
X176872Y119406D01*
X177160Y118936D01*
X177517Y118517D01*
X177936Y118160D01*
X178406Y117872D01*
X178915Y117661D01*
X179451Y117532D01*
X180000Y117489D01*
X180549Y117532D01*
X181085Y117661D01*
X181594Y117872D01*
X182064Y118160D01*
X182483Y118517D01*
X182840Y118936D01*
X183128Y119406D01*
X183339Y119915D01*
X183468Y120451D01*
X183511Y121000D01*
X183468Y121549D01*
X183339Y122085D01*
X183128Y122594D01*
X182840Y123064D01*
X182483Y123483D01*
X182064Y123840D01*
X181594Y124128D01*
X181085Y124339D01*
X180549Y124468D01*
X180000Y124511D01*
D02*
G37*
G36*
X145400Y105608D02*
X144600D01*
X144286Y105577D01*
X143985Y105485D01*
X143707Y105337D01*
X143463Y105137D01*
X143263Y104893D01*
X143115Y104615D01*
X143066Y104456D01*
X142934D01*
X142885Y104615D01*
X142737Y104893D01*
X142537Y105137D01*
X142293Y105337D01*
X142015Y105485D01*
X141714Y105577D01*
X141400Y105608D01*
X140600D01*
X140286Y105577D01*
X139985Y105485D01*
X139707Y105337D01*
X139463Y105137D01*
X139263Y104893D01*
X139115Y104615D01*
X139023Y104314D01*
X138992Y104000D01*
X139023Y103686D01*
X139115Y103385D01*
X139263Y103107D01*
X139463Y102863D01*
X139707Y102663D01*
X139985Y102515D01*
X140286Y102423D01*
X140600Y102392D01*
X141400D01*
X141714Y102423D01*
X142015Y102515D01*
X142293Y102663D01*
X142537Y102863D01*
X142737Y103107D01*
X142885Y103385D01*
X142934Y103544D01*
X143066D01*
X143115Y103385D01*
X143263Y103107D01*
X143463Y102863D01*
X143707Y102663D01*
X143985Y102515D01*
X144286Y102423D01*
X144600Y102392D01*
X145400D01*
X145714Y102423D01*
X146015Y102515D01*
X146293Y102663D01*
X146537Y102863D01*
X146737Y103107D01*
X146885Y103385D01*
X146977Y103686D01*
X147008Y104000D01*
X146977Y104314D01*
X146885Y104615D01*
X146737Y104893D01*
X146537Y105137D01*
X146293Y105337D01*
X146015Y105485D01*
X145714Y105577D01*
X145400Y105608D01*
D02*
G37*
G36*
X164448Y109495D02*
X164383Y109339D01*
X164339Y109000D01*
X164383Y108661D01*
X164448Y108505D01*
X164943Y109000D01*
X164448Y109495D01*
D02*
G37*
G36*
X70000Y39507D02*
X69706Y39478D01*
X69423Y39393D01*
X69352Y39355D01*
X70000Y38707D01*
X70648Y39355D01*
X70577Y39393D01*
X70294Y39478D01*
X70000Y39507D01*
D02*
G37*
G36*
Y37293D02*
X69352Y36645D01*
X69423Y36607D01*
X69706Y36522D01*
X70000Y36493D01*
X70294Y36522D01*
X70577Y36607D01*
X70648Y36645D01*
X70000Y37293D01*
D02*
G37*
G36*
X68645Y38648D02*
X68607Y38577D01*
X68522Y38294D01*
X68493Y38000D01*
X68522Y37706D01*
X68607Y37423D01*
X68645Y37352D01*
X69293Y38000D01*
X68645Y38648D01*
D02*
G37*
G36*
X71355D02*
X70707Y38000D01*
X71355Y37352D01*
X71393Y37423D01*
X71478Y37706D01*
X71507Y38000D01*
X71478Y38294D01*
X71393Y38577D01*
X71355Y38648D01*
D02*
G37*
G36*
X85001Y85292D02*
X84992Y85270D01*
X84956Y85000D01*
X84992Y84730D01*
X85001Y84708D01*
X85293Y85000D01*
X85001Y85292D01*
D02*
G37*
G36*
X86999D02*
X86707Y85000D01*
X86999Y84708D01*
X87008Y84730D01*
X87044Y85000D01*
X87008Y85270D01*
X86999Y85292D01*
D02*
G37*
G36*
X86000Y84293D02*
X85708Y84001D01*
X85730Y83992D01*
X86000Y83956D01*
X86270Y83992D01*
X86292Y84001D01*
X86000Y84293D01*
D02*
G37*
G36*
Y86044D02*
X85730Y86008D01*
X85708Y85999D01*
X86000Y85707D01*
X86292Y85999D01*
X86270Y86008D01*
X86000Y86044D01*
D02*
G37*
G36*
X47000Y109293D02*
X45687Y107980D01*
X46077Y107772D01*
X46530Y107635D01*
X47000Y107588D01*
X47470Y107635D01*
X47923Y107772D01*
X48313Y107980D01*
X47000Y109293D01*
D02*
G37*
G36*
X49020Y111313D02*
X47707Y110000D01*
X49020Y108687D01*
X49228Y109077D01*
X49365Y109530D01*
X49412Y110000D01*
X49365Y110470D01*
X49228Y110923D01*
X49020Y111313D01*
D02*
G37*
G36*
X47000Y112412D02*
X46530Y112365D01*
X46077Y112228D01*
X45687Y112020D01*
X47000Y110707D01*
X48313Y112020D01*
X47923Y112228D01*
X47470Y112365D01*
X47000Y112412D01*
D02*
G37*
G36*
X44980Y111313D02*
X44772Y110923D01*
X44635Y110470D01*
X44588Y110000D01*
X44635Y109530D01*
X44772Y109077D01*
X44980Y108687D01*
X46293Y110000D01*
X44980Y111313D01*
D02*
G37*
G36*
X107001Y60292D02*
X106992Y60270D01*
X106956Y60000D01*
X106992Y59730D01*
X107001Y59708D01*
X107293Y60000D01*
X107001Y60292D01*
D02*
G37*
G36*
X108999D02*
X108707Y60000D01*
X108999Y59708D01*
X109008Y59730D01*
X109044Y60000D01*
X109008Y60270D01*
X108999Y60292D01*
D02*
G37*
G36*
X108000Y59293D02*
X107708Y59001D01*
X107730Y58992D01*
X108000Y58956D01*
X108270Y58992D01*
X108292Y59001D01*
X108000Y59293D01*
D02*
G37*
G36*
Y62293D02*
X107708Y62001D01*
X107730Y61992D01*
X108000Y61956D01*
X108270Y61992D01*
X108292Y62001D01*
X108000Y62293D01*
D02*
G37*
G36*
Y61044D02*
X107730Y61008D01*
X107708Y60999D01*
X108000Y60707D01*
X108292Y60999D01*
X108270Y61008D01*
X108000Y61044D01*
D02*
G37*
G36*
X108999Y69292D02*
X108707Y69000D01*
X108999Y68708D01*
X109008Y68730D01*
X109044Y69000D01*
X109008Y69270D01*
X108999Y69292D01*
D02*
G37*
G36*
X108000Y70044D02*
X107730Y70008D01*
X107708Y69999D01*
X108000Y69707D01*
X108292Y69999D01*
X108270Y70008D01*
X108000Y70044D01*
D02*
G37*
G36*
Y71293D02*
X107708Y71001D01*
X107730Y70992D01*
X108000Y70956D01*
X108270Y70992D01*
X108292Y71001D01*
X108000Y71293D01*
D02*
G37*
G36*
X107001Y69292D02*
X106992Y69270D01*
X106956Y69000D01*
X106992Y68730D01*
X107001Y68708D01*
X107293Y69000D01*
X107001Y69292D01*
D02*
G37*
G36*
Y72292D02*
X106992Y72270D01*
X106956Y72000D01*
X106992Y71730D01*
X107001Y71708D01*
X107293Y72000D01*
X107001Y72292D01*
D02*
G37*
G36*
X108999D02*
X108707Y72000D01*
X108999Y71708D01*
X109008Y71730D01*
X109044Y72000D01*
X109008Y72270D01*
X108999Y72292D01*
D02*
G37*
G36*
X108000Y73044D02*
X107730Y73008D01*
X107708Y72999D01*
X108000Y72707D01*
X108292Y72999D01*
X108270Y73008D01*
X108000Y73044D01*
D02*
G37*
G36*
Y68293D02*
X107708Y68001D01*
X107730Y67992D01*
X108000Y67956D01*
X108270Y67992D01*
X108292Y68001D01*
X108000Y68293D01*
D02*
G37*
G36*
Y65293D02*
X107708Y65001D01*
X107730Y64992D01*
X108000Y64956D01*
X108270Y64992D01*
X108292Y65001D01*
X108000Y65293D01*
D02*
G37*
G36*
X107001Y66292D02*
X106992Y66270D01*
X106956Y66000D01*
X106992Y65730D01*
X107001Y65708D01*
X107293Y66000D01*
X107001Y66292D01*
D02*
G37*
G36*
X108999D02*
X108707Y66000D01*
X108999Y65708D01*
X109008Y65730D01*
X109044Y66000D01*
X109008Y66270D01*
X108999Y66292D01*
D02*
G37*
G36*
X107001Y63292D02*
X106992Y63270D01*
X106956Y63000D01*
X106992Y62730D01*
X107001Y62708D01*
X107293Y63000D01*
X107001Y63292D01*
D02*
G37*
G36*
X108999D02*
X108707Y63000D01*
X108999Y62708D01*
X109008Y62730D01*
X109044Y63000D01*
X109008Y63270D01*
X108999Y63292D01*
D02*
G37*
G36*
X108000Y64044D02*
X107730Y64008D01*
X107708Y63999D01*
X108000Y63707D01*
X108292Y63999D01*
X108270Y64008D01*
X108000Y64044D01*
D02*
G37*
G36*
Y67044D02*
X107730Y67008D01*
X107708Y66999D01*
X108000Y66707D01*
X108292Y66999D01*
X108270Y67008D01*
X108000Y67044D01*
D02*
G37*
G36*
X122000Y53793D02*
X121708Y53501D01*
X121730Y53492D01*
X122000Y53456D01*
X122270Y53492D01*
X122292Y53501D01*
X122000Y53793D01*
D02*
G37*
G36*
X121001Y54792D02*
X120992Y54770D01*
X120956Y54500D01*
X120992Y54230D01*
X121001Y54208D01*
X121293Y54500D01*
X121001Y54792D01*
D02*
G37*
G36*
X122999D02*
X122707Y54500D01*
X122999Y54208D01*
X123008Y54230D01*
X123044Y54500D01*
X123008Y54770D01*
X122999Y54792D01*
D02*
G37*
G36*
X109000Y54293D02*
X108708Y54001D01*
X108730Y53992D01*
X109000Y53956D01*
X109270Y53992D01*
X109292Y54001D01*
X109000Y54293D01*
D02*
G37*
G36*
X122000Y55544D02*
X121730Y55508D01*
X121708Y55499D01*
X122000Y55207D01*
X122292Y55499D01*
X122270Y55508D01*
X122000Y55544D01*
D02*
G37*
G36*
X109000Y56044D02*
X108730Y56008D01*
X108708Y55999D01*
X109000Y55707D01*
X109292Y55999D01*
X109270Y56008D01*
X109000Y56044D01*
D02*
G37*
G36*
X109999Y55292D02*
X109707Y55000D01*
X109999Y54708D01*
X110008Y54730D01*
X110044Y55000D01*
X110008Y55270D01*
X109999Y55292D01*
D02*
G37*
G36*
X108001D02*
X107992Y55270D01*
X107956Y55000D01*
X107992Y54730D01*
X108001Y54708D01*
X108293Y55000D01*
X108001Y55292D01*
D02*
G37*
G36*
X123001Y52792D02*
X122992Y52770D01*
X122956Y52500D01*
X122992Y52230D01*
X123001Y52208D01*
X123293Y52500D01*
X123001Y52792D01*
D02*
G37*
G36*
X124999D02*
X124707Y52500D01*
X124999Y52208D01*
X125008Y52230D01*
X125044Y52500D01*
X125008Y52770D01*
X124999Y52792D01*
D02*
G37*
G36*
X126000Y51544D02*
X125730Y51508D01*
X125708Y51499D01*
X126000Y51207D01*
X126292Y51499D01*
X126270Y51508D01*
X126000Y51544D01*
D02*
G37*
G36*
X122000D02*
X121730Y51508D01*
X121708Y51499D01*
X122000Y51207D01*
X122292Y51499D01*
X122270Y51508D01*
X122000Y51544D01*
D02*
G37*
G36*
X124000Y51793D02*
X123708Y51501D01*
X123730Y51492D01*
X124000Y51456D01*
X124270Y51492D01*
X124292Y51501D01*
X124000Y51793D01*
D02*
G37*
G36*
Y53544D02*
X123730Y53508D01*
X123708Y53499D01*
X124000Y53207D01*
X124292Y53499D01*
X124270Y53508D01*
X124000Y53544D01*
D02*
G37*
G36*
X126000Y49793D02*
X125708Y49501D01*
X125730Y49492D01*
X126000Y49456D01*
X126270Y49492D01*
X126292Y49501D01*
X126000Y49793D01*
D02*
G37*
G36*
X121001Y50792D02*
X120992Y50770D01*
X120956Y50500D01*
X120992Y50230D01*
X121001Y50208D01*
X121293Y50500D01*
X121001Y50792D01*
D02*
G37*
G36*
X122000Y49793D02*
X121708Y49501D01*
X121730Y49492D01*
X122000Y49456D01*
X122270Y49492D01*
X122292Y49501D01*
X122000Y49793D01*
D02*
G37*
G36*
X125001Y50792D02*
X124992Y50770D01*
X124956Y50500D01*
X124992Y50230D01*
X125001Y50208D01*
X125293Y50500D01*
X125001Y50792D01*
D02*
G37*
G36*
X122999D02*
X122707Y50500D01*
X122999Y50208D01*
X123008Y50230D01*
X123044Y50500D01*
X123008Y50770D01*
X122999Y50792D01*
D02*
G37*
G36*
X126999D02*
X126707Y50500D01*
X126999Y50208D01*
X127008Y50230D01*
X127044Y50500D01*
X127008Y50770D01*
X126999Y50792D01*
D02*
G37*
G36*
X93400Y116693D02*
X91707Y115000D01*
X93400Y113307D01*
Y116693D01*
D02*
G37*
G36*
X88600Y116693D02*
Y113307D01*
X90293Y115000D01*
X88600Y116693D01*
D02*
G37*
G36*
X92693Y117400D02*
X89307D01*
X91000Y115707D01*
X92693Y117400D01*
D02*
G37*
G36*
X71000Y120293D02*
X68970Y118263D01*
X68995Y118241D01*
X69452Y117961D01*
X69946Y117756D01*
X70466Y117631D01*
X71000Y117589D01*
X71534Y117631D01*
X72054Y117756D01*
X72548Y117961D01*
X73005Y118241D01*
X73030Y118263D01*
X71000Y120293D01*
D02*
G37*
G36*
X73737Y123030D02*
X71707Y121000D01*
X73737Y118970D01*
X73759Y118995D01*
X74039Y119452D01*
X74244Y119946D01*
X74369Y120466D01*
X74411Y121000D01*
X74369Y121534D01*
X74244Y122054D01*
X74039Y122548D01*
X73759Y123005D01*
X73737Y123030D01*
D02*
G37*
G36*
X71000Y124411D02*
X70466Y124369D01*
X69946Y124244D01*
X69452Y124039D01*
X68995Y123759D01*
X68970Y123737D01*
X71000Y121707D01*
X73030Y123737D01*
X73005Y123759D01*
X72548Y124039D01*
X72054Y124244D01*
X71534Y124369D01*
X71000Y124411D01*
D02*
G37*
G36*
X68263Y123030D02*
X68241Y123005D01*
X67961Y122548D01*
X67756Y122054D01*
X67631Y121534D01*
X67589Y121000D01*
X67631Y120466D01*
X67756Y119946D01*
X67961Y119452D01*
X68241Y118995D01*
X68263Y118970D01*
X70293Y121000D01*
X68263Y123030D01*
D02*
G37*
G36*
X91000Y114293D02*
X89307Y112600D01*
X92693D01*
X91000Y114293D01*
D02*
G37*
G36*
X104500Y84544D02*
X104230Y84508D01*
X104208Y84499D01*
X104500Y84207D01*
X104792Y84499D01*
X104770Y84508D01*
X104500Y84544D01*
D02*
G37*
G36*
X101500D02*
X101230Y84508D01*
X101208Y84499D01*
X101500Y84207D01*
X101792Y84499D01*
X101770Y84508D01*
X101500Y84544D01*
D02*
G37*
G36*
X91000Y104293D02*
X89687Y102980D01*
X90077Y102772D01*
X90530Y102635D01*
X91000Y102588D01*
X91470Y102635D01*
X91923Y102772D01*
X92313Y102980D01*
X91000Y104293D01*
D02*
G37*
G36*
X93020Y106313D02*
X91707Y105000D01*
X93020Y103687D01*
X93228Y104077D01*
X93365Y104530D01*
X93412Y105000D01*
X93365Y105470D01*
X93228Y105923D01*
X93020Y106313D01*
D02*
G37*
G36*
X105499Y83792D02*
X105207Y83500D01*
X105499Y83208D01*
X105508Y83230D01*
X105544Y83500D01*
X105508Y83770D01*
X105499Y83792D01*
D02*
G37*
G36*
X106999Y80792D02*
X106707Y80500D01*
X106999Y80208D01*
X107008Y80230D01*
X107044Y80500D01*
X107008Y80770D01*
X106999Y80792D01*
D02*
G37*
G36*
X100000Y81544D02*
X99730Y81508D01*
X99708Y81499D01*
X100000Y81207D01*
X100292Y81499D01*
X100270Y81508D01*
X100000Y81544D01*
D02*
G37*
G36*
X103000D02*
X102730Y81508D01*
X102708Y81499D01*
X103000Y81207D01*
X103292Y81499D01*
X103270Y81508D01*
X103000Y81544D01*
D02*
G37*
G36*
X105001Y80792D02*
X104992Y80770D01*
X104956Y80500D01*
X104992Y80230D01*
X105001Y80208D01*
X105293Y80500D01*
X105001Y80792D01*
D02*
G37*
G36*
X100999D02*
X100707Y80500D01*
X100999Y80208D01*
X101008Y80230D01*
X101044Y80500D01*
X101008Y80770D01*
X100999Y80792D01*
D02*
G37*
G36*
X103999D02*
X103707Y80500D01*
X103999Y80208D01*
X104008Y80230D01*
X104044Y80500D01*
X104008Y80770D01*
X103999Y80792D01*
D02*
G37*
G36*
X106000Y81544D02*
X105730Y81508D01*
X105708Y81499D01*
X106000Y81207D01*
X106292Y81499D01*
X106270Y81508D01*
X106000Y81544D01*
D02*
G37*
G36*
X100501Y83792D02*
X100492Y83770D01*
X100456Y83500D01*
X100492Y83230D01*
X100501Y83208D01*
X100793Y83500D01*
X100501Y83792D01*
D02*
G37*
G36*
X103501D02*
X103492Y83770D01*
X103456Y83500D01*
X103492Y83230D01*
X103501Y83208D01*
X103793Y83500D01*
X103501Y83792D01*
D02*
G37*
G36*
X102499D02*
X102207Y83500D01*
X102499Y83208D01*
X102508Y83230D01*
X102544Y83500D01*
X102508Y83770D01*
X102499Y83792D01*
D02*
G37*
G36*
X101500Y82793D02*
X101208Y82501D01*
X101230Y82492D01*
X101500Y82456D01*
X101770Y82492D01*
X101792Y82501D01*
X101500Y82793D01*
D02*
G37*
G36*
X104500D02*
X104208Y82501D01*
X104230Y82492D01*
X104500Y82456D01*
X104770Y82492D01*
X104792Y82501D01*
X104500Y82793D01*
D02*
G37*
G36*
X22000Y124511D02*
X21451Y124468D01*
X20915Y124339D01*
X20406Y124128D01*
X19936Y123840D01*
X19517Y123483D01*
X19160Y123064D01*
X18872Y122594D01*
X18661Y122085D01*
X18532Y121549D01*
X18489Y121000D01*
X18532Y120451D01*
X18661Y119915D01*
X18872Y119406D01*
X19160Y118936D01*
X19517Y118517D01*
X19936Y118160D01*
X20406Y117872D01*
X20915Y117661D01*
X21451Y117532D01*
X22000Y117489D01*
X22549Y117532D01*
X23085Y117661D01*
X23594Y117872D01*
X24064Y118160D01*
X24483Y118517D01*
X24840Y118936D01*
X25128Y119406D01*
X25339Y119915D01*
X25468Y120451D01*
X25511Y121000D01*
X25468Y121549D01*
X25339Y122085D01*
X25128Y122594D01*
X24840Y123064D01*
X24483Y123483D01*
X24064Y123840D01*
X23594Y124128D01*
X23085Y124339D01*
X22549Y124468D01*
X22000Y124511D01*
D02*
G37*
G36*
X31000Y120293D02*
X28970Y118263D01*
X28995Y118241D01*
X29452Y117961D01*
X29946Y117756D01*
X30466Y117631D01*
X31000Y117589D01*
X31534Y117631D01*
X32054Y117756D01*
X32548Y117961D01*
X33005Y118241D01*
X33030Y118263D01*
X31000Y120293D01*
D02*
G37*
G36*
Y124411D02*
X30466Y124369D01*
X29946Y124244D01*
X29452Y124039D01*
X28995Y123759D01*
X28970Y123737D01*
X31000Y121707D01*
X33030Y123737D01*
X33005Y123759D01*
X32548Y124039D01*
X32054Y124244D01*
X31534Y124369D01*
X31000Y124411D01*
D02*
G37*
G36*
X28263Y123030D02*
X28241Y123005D01*
X27961Y122548D01*
X27756Y122054D01*
X27631Y121534D01*
X27589Y121000D01*
X27631Y120466D01*
X27756Y119946D01*
X27961Y119452D01*
X28241Y118995D01*
X28263Y118970D01*
X30293Y121000D01*
X28263Y123030D01*
D02*
G37*
G36*
X33737Y123030D02*
X31707Y121000D01*
X33737Y118970D01*
X33759Y118995D01*
X34039Y119452D01*
X34244Y119946D01*
X34369Y120466D01*
X34411Y121000D01*
X34369Y121534D01*
X34244Y122054D01*
X34039Y122548D01*
X33759Y123005D01*
X33737Y123030D01*
D02*
G37*
G36*
X91000Y107412D02*
X90530Y107365D01*
X90077Y107228D01*
X89687Y107020D01*
X91000Y105707D01*
X92313Y107020D01*
X91923Y107228D01*
X91470Y107365D01*
X91000Y107412D01*
D02*
G37*
G36*
X88980Y106313D02*
X88772Y105923D01*
X88635Y105470D01*
X88588Y105000D01*
X88635Y104530D01*
X88772Y104077D01*
X88980Y103687D01*
X90293Y105000D01*
X88980Y106313D01*
D02*
G37*
G36*
X102001Y80792D02*
X101992Y80770D01*
X101956Y80500D01*
X101992Y80230D01*
X102001Y80208D01*
X102293Y80500D01*
X102001Y80792D01*
D02*
G37*
G36*
X103000Y79793D02*
X102708Y79501D01*
X102730Y79492D01*
X103000Y79456D01*
X103270Y79492D01*
X103292Y79501D01*
X103000Y79793D01*
D02*
G37*
G36*
X106000D02*
X105708Y79501D01*
X105730Y79492D01*
X106000Y79456D01*
X106270Y79492D01*
X106292Y79501D01*
X106000Y79793D01*
D02*
G37*
G36*
X99001Y80792D02*
X98992Y80770D01*
X98956Y80500D01*
X98992Y80230D01*
X99001Y80208D01*
X99293Y80500D01*
X99001Y80792D01*
D02*
G37*
G36*
X100000Y79793D02*
X99708Y79501D01*
X99730Y79492D01*
X100000Y79456D01*
X100270Y79492D01*
X100292Y79501D01*
X100000Y79793D01*
D02*
G37*
%LPD*%
D33*
X168440Y63853D02*
X168852D01*
X167087Y62500D02*
X168440Y63853D01*
X135000Y49000D02*
Y62500D01*
X140000Y47500D02*
X140500D01*
X142500Y49500D01*
X140000Y58500D02*
X140500D01*
X142500Y60500D01*
X133000Y92500D02*
X139500Y86000D01*
X127500Y96000D02*
X143000Y80500D01*
X122000Y96000D02*
X123000D01*
X118500Y99500D02*
X122000Y96000D01*
X163500Y62500D02*
X167087D01*
X164500Y65420D02*
X167420D01*
X165000Y71000D02*
X169000D01*
X164500Y70500D02*
X165000Y71000D01*
X142750Y124250D02*
X167250D01*
X139500Y121000D02*
X142750Y124250D01*
X129000Y36920D02*
X130670D01*
X123920D02*
X129000D01*
Y34400D02*
Y36920D01*
X158500Y68580D02*
X160500Y70580D01*
X134000Y36500D02*
X159000D01*
X132500Y35000D02*
X134000Y36500D01*
X118540Y39460D02*
X129000D01*
X118000Y40000D02*
X118540Y39460D01*
X130670Y36920D02*
X131750Y38000D01*
X122500Y35500D02*
X123920Y36920D01*
X107000Y32500D02*
X115000D01*
X104000Y29500D02*
X107000Y32500D01*
X112500Y34000D02*
X113500Y35000D01*
X103000Y34000D02*
X112500D01*
X113500Y35000D02*
Y41500D01*
X101000Y36000D02*
X103000Y34000D01*
X102500Y39500D02*
X106500Y35500D01*
X104000Y40500D02*
X109000Y35500D01*
X102500Y39500D02*
Y44500D01*
X104000Y40500D02*
Y45500D01*
X159000Y36500D02*
X172920Y50420D01*
X158000Y38000D02*
X159000Y39000D01*
X131750Y38000D02*
X158000D01*
X132602Y39397D02*
X156898D01*
X157500Y40000D01*
X136250Y40750D02*
X138000D01*
X133500Y43500D02*
X136250Y40750D01*
X138500Y67000D02*
X142000D01*
X130500Y75000D02*
X138500Y67000D01*
X130500Y75000D02*
Y80500D01*
X161500Y47000D02*
Y50500D01*
Y54000D01*
X167250Y124250D02*
X175500Y116000D01*
X166500Y123000D02*
X174000Y115500D01*
X146500Y123000D02*
X166500D01*
X143500Y120000D02*
X146500Y123000D01*
X165750Y121750D02*
X172500Y115000D01*
X151250Y121750D02*
X165750D01*
X149500Y120000D02*
X151250Y121750D01*
X171250Y108250D02*
Y113750D01*
X164500Y120500D02*
X171250Y113750D01*
X156500Y120500D02*
X164500D01*
X145500Y118500D02*
Y119000D01*
Y115500D02*
Y118500D01*
X161500Y117000D02*
Y117500D01*
X150500Y106000D02*
X161500Y117000D01*
X150500Y76500D02*
Y106000D01*
X163500Y115500D02*
Y118500D01*
X163000Y115000D02*
X163500Y115500D01*
X155500Y117000D02*
Y117500D01*
X149000Y110500D02*
X155500Y117000D01*
X149000Y76000D02*
Y110500D01*
X157500Y115500D02*
Y118500D01*
X157000Y115000D02*
X157500Y115500D01*
X149500Y117000D02*
Y118500D01*
X145500Y113000D02*
X149500Y117000D01*
X133000Y113000D02*
X145500D01*
X175500Y100000D02*
Y116000D01*
X143500Y118500D02*
Y120000D01*
X141500Y117000D02*
X143500Y119000D01*
X133000Y117000D02*
X141500D01*
X149500Y118500D02*
Y120000D01*
X168500Y93000D02*
X175500Y100000D01*
X167500Y93000D02*
X168500D01*
X153500Y109000D02*
X167500D01*
X155000Y104000D02*
X159500Y99500D01*
Y95500D02*
Y99500D01*
Y95500D02*
X166000Y89000D01*
X166000D02*
X171500D01*
X164500Y85500D02*
X171500D01*
X155000Y95000D02*
X164500Y85500D01*
X159000Y82000D02*
X171500D01*
X155000Y86000D02*
X159000Y82000D01*
X156500Y78500D02*
X171500D01*
X155000Y77000D02*
X156500Y78500D01*
X155500Y119500D02*
X156500Y120500D01*
X155500Y118500D02*
Y119500D01*
X151500Y115500D02*
Y118500D01*
X151000Y115000D02*
X151500Y115500D01*
X145000Y115000D02*
X145500Y115500D01*
X174000Y102000D02*
Y115500D01*
X169000Y97000D02*
X174000Y102000D01*
X167500Y97000D02*
X169000D01*
X172500Y104000D02*
Y115000D01*
X169500Y101000D02*
X172500Y104000D01*
X167500Y101000D02*
X168000D01*
X168000Y105000D02*
X171250Y108250D01*
X167500Y105000D02*
X168000D01*
X159000Y64000D02*
X160500Y65500D01*
X156500Y64000D02*
X159000D01*
X157000Y50500D02*
Y61000D01*
X154500Y63500D02*
X157000Y61000D01*
X154500Y63500D02*
Y70000D01*
X157000Y50500D02*
X157500Y50000D01*
X156500Y66000D02*
Y69500D01*
X157500Y40000D02*
Y50000D01*
X158500Y59000D02*
X161000Y61500D01*
X158500Y53000D02*
Y59000D01*
X160000Y73000D02*
X162000D01*
X156500Y69500D02*
X160000Y73000D01*
X162000D02*
X164500Y70500D01*
X158500Y53000D02*
X161000Y50500D01*
X154500Y70000D02*
X159200Y74700D01*
X159000Y44500D02*
X161500Y47000D01*
X158900Y75000D02*
X159200Y74700D01*
X152000Y75000D02*
X158900D01*
X150500Y73500D02*
X155500D01*
X139500Y42000D02*
X140580D01*
X117000Y43000D02*
X120500D01*
X116500Y44500D02*
X120000D01*
X130500Y43500D02*
X133500D01*
X129500Y46500D02*
X132500D01*
X135000Y49000D01*
X132000Y48000D02*
Y48500D01*
X128500Y49500D02*
X130000Y48000D01*
X128500Y49500D02*
Y55250D01*
X146500Y69500D02*
X150500Y65500D01*
X145000Y71000D02*
X146500Y69500D01*
X150500Y73500D01*
X150500Y76500D02*
X152000Y75000D01*
X143500Y68500D02*
X145000Y67000D01*
X143500Y68500D02*
Y72500D01*
X145000Y74000D01*
X147000D01*
X149000Y76000D01*
X97000Y28000D02*
Y40500D01*
X98000Y41500D01*
X128500Y57500D02*
Y74000D01*
Y57500D02*
X130000Y56000D01*
Y50500D02*
Y56000D01*
Y50500D02*
X132000Y48500D01*
X133500Y43500D02*
X139500Y49500D01*
Y53000D01*
X131750Y54750D02*
X133500Y56500D01*
Y59500D01*
X131000Y62000D02*
X133500Y59500D01*
X130500Y80500D02*
X131000Y81000D01*
X160500Y70000D02*
X164500Y66000D01*
X131000Y81000D02*
Y83000D01*
X146500Y50500D02*
Y61500D01*
Y65500D01*
X145000Y67000D02*
X146500Y65500D01*
X150500Y61500D02*
Y65500D01*
X143000Y77000D02*
Y80500D01*
X127500Y96000D02*
Y99500D01*
X127200Y99800D02*
Y103500D01*
X129500Y110500D02*
X143000Y97000D01*
X129500Y110500D02*
Y118000D01*
X143000Y97000D02*
X145000D01*
X128000Y119500D02*
X129500Y118000D01*
X145000Y97000D02*
X147000Y95000D01*
X127500Y110500D02*
X143000Y95000D01*
X127500Y110500D02*
Y113000D01*
X123500Y119500D02*
X128000D01*
X122120Y118120D02*
X123500Y119500D01*
X122120Y117000D02*
Y118120D01*
X118500Y99500D02*
Y99500D01*
X114500D02*
X131000Y83000D01*
X139500Y86000D02*
X143000D01*
X127200Y113300D02*
X127500Y113000D01*
X127200Y113300D02*
Y117000D01*
X122120Y114380D02*
X123500Y113000D01*
X122120Y114380D02*
Y117000D01*
X117040Y114460D02*
X118500Y113000D01*
X127200Y99800D02*
X127500Y99500D01*
X122120Y100880D02*
X123500Y99500D01*
X122120Y100880D02*
Y103500D01*
X117040Y100960D02*
X118500Y99500D01*
X117040Y100960D02*
Y103500D01*
X114500Y99500D02*
Y103500D01*
X172920Y50420D02*
X175500D01*
X159000Y39000D02*
Y44500D01*
X161500Y54000D02*
X175500D01*
X160000Y55500D02*
X161500Y54000D01*
X88500Y56500D02*
X90000D01*
X87500Y67000D02*
X89500D01*
X83500Y71000D02*
X87500Y67000D01*
X116500Y37500D02*
X118500Y35500D01*
X116500Y37500D02*
Y40500D01*
X118000Y40000D02*
Y40000D01*
X90000Y28000D02*
Y36000D01*
X62500Y51500D02*
Y55000D01*
Y51500D02*
X76000Y38000D01*
Y28000D02*
Y38000D01*
X83000Y28000D02*
Y33000D01*
X66000Y50000D02*
X83000Y33000D01*
X142500Y60500D02*
X143000D01*
X139500Y53000D02*
X140580D01*
X143000Y55420D01*
X142500Y49500D02*
X143000D01*
X140580Y42000D02*
X143000Y44420D01*
X84000Y52000D02*
X88500Y56500D01*
X84000Y51000D02*
Y52000D01*
X101000Y36000D02*
Y38500D01*
X104000Y28000D02*
Y29500D01*
X91000Y54500D02*
X91500Y55000D01*
Y58000D01*
X81500Y68000D02*
X91500Y58000D01*
X81500Y68000D02*
Y73000D01*
X115000Y32500D02*
Y41000D01*
X117000Y43000D01*
X113500Y41500D02*
X116500Y44500D01*
X91000Y48000D02*
Y54500D01*
Y48000D02*
X92000Y47000D01*
X102500D01*
X104000Y45500D01*
X82000Y47000D02*
X83500Y45500D01*
X101500D01*
X102500Y44500D01*
X90000Y36000D02*
X96500Y42500D01*
X98000Y41500D02*
Y43500D01*
X97500Y44000D02*
X98000Y43500D01*
X83000Y44000D02*
X97500D01*
X82000Y47000D02*
Y52500D01*
X79500Y47500D02*
X83000Y44000D01*
X79500Y47500D02*
Y84000D01*
X164500Y65420D02*
Y66000D01*
X160500Y65500D02*
X163500Y62500D01*
X116500Y40500D02*
X117500Y41500D01*
X130500D01*
X132602Y39397D01*
X120500Y43000D02*
X122000Y44500D01*
X124000D01*
X120000D02*
X121500Y46000D01*
X128000D01*
X130500Y43500D01*
X92500Y48500D02*
X92965Y48035D01*
X102929D01*
X103464Y47500D01*
X128500D01*
X129500Y46500D01*
X169500Y32500D02*
Y40000D01*
X173500Y48500D02*
X175500D01*
X160500Y35500D02*
X173500Y48500D01*
X160500Y32500D02*
Y35500D01*
X129000Y34400D02*
X130900Y32500D01*
X142500D01*
X169500Y40000D02*
X179000Y49500D01*
X173000Y60750D02*
X177500D01*
X179000Y59250D01*
Y49500D02*
Y59250D01*
X170750Y59500D02*
Y61500D01*
X172290Y63040D01*
X173250D01*
X168852Y63853D02*
X170580Y65580D01*
X173000D01*
X173250Y65830D01*
X167420Y65420D02*
X170120Y68120D01*
X173250D01*
X169000Y70660D02*
Y71000D01*
Y70660D02*
X172700D01*
X173000Y70960D01*
X159200Y74700D02*
X171750D01*
X173250Y73200D01*
X173800D01*
X170750Y59500D02*
X171750Y58500D01*
X176750D01*
X177000Y58750D01*
X168500Y57500D02*
X169000Y57000D01*
X179000D01*
D34*
X139500Y121000D02*
Y121500D01*
X137000Y124000D02*
X139500Y121500D01*
X120500Y124000D02*
X137000D01*
X114500Y118000D02*
X120500Y124000D01*
X134000Y121500D02*
X136000Y119500D01*
X121540Y121500D02*
X134000D01*
X117040Y117000D02*
X121540Y121500D01*
X117040Y103500D02*
Y114460D01*
X114500Y103500D02*
Y113000D01*
Y117000D02*
Y118000D01*
X117040Y114460D02*
Y117000D01*
X114500Y113000D02*
Y117000D01*
D51*
X31000Y121000D02*
D03*
D56*
X120000Y88000D02*
D03*
X70000Y38000D02*
D03*
D57*
X157500Y118500D02*
D03*
X145500D02*
D03*
X151500D02*
D03*
X163500D02*
D03*
X145000Y71000D02*
D03*
Y67000D02*
D03*
X142000Y71000D02*
D03*
Y67000D02*
D03*
X132000Y77500D02*
D03*
Y73500D02*
D03*
X131750Y58750D02*
D03*
Y54750D02*
D03*
D58*
X155500Y118500D02*
D03*
X143500D02*
D03*
X149500D02*
D03*
X161500D02*
D03*
D59*
X22000Y24500D02*
D03*
Y121000D02*
D03*
X180000D02*
D03*
Y25000D02*
D03*
D60*
X31000D02*
D03*
X60000D02*
D03*
X71000Y121000D02*
D03*
X31000D02*
D03*
D61*
X69000Y28000D02*
D03*
X90000D02*
D03*
X76000D02*
D03*
X97000D02*
D03*
X83000D02*
D03*
X104000D02*
D03*
X155000Y104000D02*
D03*
Y95000D02*
D03*
Y86000D02*
D03*
Y77000D02*
D03*
X112500Y28000D02*
D03*
X119500D02*
D03*
X126500D02*
D03*
X133500D02*
D03*
X167500Y93000D02*
D03*
Y97000D02*
D03*
Y101000D02*
D03*
Y105000D02*
D03*
Y109000D02*
D03*
D62*
X147000Y32500D02*
D03*
X142500D02*
D03*
X169500D02*
D03*
X165000D02*
D03*
X160500D02*
D03*
X156000D02*
D03*
X151500D02*
D03*
D63*
X122500Y35500D02*
D03*
X118500D02*
D03*
X150500Y61500D02*
D03*
X146500D02*
D03*
X161500Y50500D02*
D03*
X157500D02*
D03*
X150500D02*
D03*
X146500D02*
D03*
X127500Y99500D02*
D03*
X123500D02*
D03*
X118500D02*
D03*
X114500D02*
D03*
X127500Y113000D02*
D03*
X123500D02*
D03*
X118500D02*
D03*
X114500D02*
D03*
X143000Y95000D02*
D03*
X147000D02*
D03*
X88000Y51000D02*
D03*
X84000D02*
D03*
X141000Y104000D02*
D03*
X145000D02*
D03*
X87500Y71000D02*
D03*
X83500D02*
D03*
X143000Y77000D02*
D03*
X147000D02*
D03*
X143000Y86000D02*
D03*
X147000D02*
D03*
X161500Y61500D02*
D03*
X157500D02*
D03*
D64*
X129000Y36920D02*
D03*
Y39460D02*
D03*
Y42000D02*
D03*
D65*
X114500Y117000D02*
D03*
X117040D02*
D03*
X122120D02*
D03*
X124660D02*
D03*
X127200D02*
D03*
X114500Y103500D02*
D03*
X117040D02*
D03*
X122120D02*
D03*
X124660D02*
D03*
X127200D02*
D03*
D66*
X91000Y115000D02*
D03*
D67*
Y105000D02*
D03*
X27000Y110000D02*
D03*
X47000D02*
D03*
D68*
X32000Y68000D02*
D03*
Y43000D02*
D03*
X49000Y68000D02*
D03*
Y43000D02*
D03*
D69*
X32000Y60500D02*
D03*
Y50500D02*
D03*
X49000Y60500D02*
D03*
Y50500D02*
D03*
D70*
X139500Y119500D02*
D03*
X136000D02*
D03*
D71*
X171500Y78500D02*
D03*
Y82000D02*
D03*
Y85500D02*
D03*
Y89000D02*
D03*
D72*
X173250Y73200D02*
D03*
Y70660D02*
D03*
Y68120D02*
D03*
Y65580D02*
D03*
Y63040D02*
D03*
Y60500D02*
D03*
D73*
X143000Y55420D02*
D03*
X160500Y70580D02*
D03*
X164500Y65420D02*
D03*
X143000Y44420D02*
D03*
D74*
Y60500D02*
D03*
X160500Y65500D02*
D03*
X164500Y70500D02*
D03*
X143000Y49500D02*
D03*
D75*
X38000Y103000D02*
D03*
Y85000D02*
D03*
D76*
X162500Y63500D02*
D03*
X169000Y62500D02*
D03*
X135000D02*
D03*
X140000Y47500D02*
D03*
Y58500D02*
D03*
X86000Y85000D02*
D03*
X133000Y92500D02*
D03*
X123000Y96000D02*
D03*
X169000Y71000D02*
D03*
X158500Y68580D02*
D03*
X132500Y35000D02*
D03*
X106500Y35500D02*
D03*
X109000D02*
D03*
X138000Y40750D02*
D03*
X163000Y115000D02*
D03*
X157000D02*
D03*
X151000D02*
D03*
X145000D02*
D03*
X175500Y48500D02*
D03*
X156500Y64000D02*
D03*
Y66000D02*
D03*
X155500Y73500D02*
D03*
X139500Y42000D02*
D03*
X132000Y48000D02*
D03*
X130000D02*
D03*
X133000Y113000D02*
D03*
Y117000D02*
D03*
X128500Y74000D02*
D03*
X131000Y62000D02*
D03*
X128500Y55250D02*
D03*
X131000Y81000D02*
D03*
X175500Y50420D02*
D03*
Y54000D02*
D03*
X168500Y57500D02*
D03*
X160000Y55500D02*
D03*
X90000Y56500D02*
D03*
X89500Y67000D02*
D03*
X21000Y59000D02*
D03*
X118000Y40000D02*
D03*
X66000Y50000D02*
D03*
X139500Y53000D02*
D03*
X159000Y44500D02*
D03*
X81500Y73000D02*
D03*
X92500Y48500D02*
D03*
X101000Y38500D02*
D03*
X96500Y42500D02*
D03*
X82000Y52500D02*
D03*
X21000Y56000D02*
D03*
Y53000D02*
D03*
X23500Y57500D02*
D03*
Y54500D02*
D03*
X44000Y54000D02*
D03*
X38000D02*
D03*
X39500Y56500D02*
D03*
X41000Y54000D02*
D03*
X42500Y56500D02*
D03*
X68500D02*
D03*
X66000Y55000D02*
D03*
Y58000D02*
D03*
Y61000D02*
D03*
X68500Y59500D02*
D03*
X106000Y80500D02*
D03*
X103000D02*
D03*
X100000D02*
D03*
X101500Y83500D02*
D03*
X104500D02*
D03*
X108000Y60000D02*
D03*
Y63000D02*
D03*
Y66000D02*
D03*
Y69000D02*
D03*
Y72000D02*
D03*
X124000Y44500D02*
D03*
X109000Y55000D02*
D03*
X122000Y50500D02*
D03*
X126000D02*
D03*
X122000Y54500D02*
D03*
X124000Y52500D02*
D03*
X177000Y58750D02*
D03*
D77*
X72500Y25500D02*
Y35500D01*
X70000Y38000D02*
X72500Y35500D01*
D78*
X38000Y85000D02*
D03*
D79*
Y103250D02*
D03*
D80*
X47000Y110000D02*
D03*
D81*
X27000D02*
D03*
X91000Y105000D02*
D03*
Y115000D02*
D03*
D82*
X71000Y121000D02*
D03*
X60000Y25000D02*
D03*
M02*
