G04 Layer_Color=128*
%FSLAX43Y43*%
%MOMM*%
G71*
G01*
G75*
%ADD131C,0.051*%
D131*
X118900Y88000D02*
X121100D01*
X120000Y86900D02*
Y89100D01*
X68900Y38000D02*
X71100D01*
X70000Y36900D02*
Y39100D01*
X157200Y118500D02*
X157800D01*
X157500Y118200D02*
Y118800D01*
X155200Y118500D02*
X155800D01*
X155500Y118200D02*
Y118800D01*
X145200Y118500D02*
X145800D01*
X145500Y118200D02*
Y118800D01*
X143200Y118500D02*
X143800D01*
X143500Y118200D02*
Y118800D01*
X151200Y118500D02*
X151800D01*
X151500Y118200D02*
Y118800D01*
X149200Y118500D02*
X149800D01*
X149500Y118200D02*
Y118800D01*
X163200Y118500D02*
X163800D01*
X163500Y118200D02*
Y118800D01*
X161200Y118500D02*
X161800D01*
X161500Y118200D02*
Y118800D01*
X20250Y24500D02*
X23750D01*
X22000Y22750D02*
Y26250D01*
X20250Y121000D02*
X23750D01*
X22000Y119250D02*
Y122750D01*
X178250Y121000D02*
X181750D01*
X180000Y119250D02*
Y122750D01*
X178250Y25000D02*
X181750D01*
X180000Y23250D02*
Y26750D01*
X29000Y25000D02*
X33000D01*
X31000Y23000D02*
Y27000D01*
X58000Y25000D02*
X62000D01*
X60000Y23000D02*
Y27000D01*
X69000Y121000D02*
X73000D01*
X71000Y119000D02*
Y123000D01*
X29000Y121000D02*
X33000D01*
X31000Y119000D02*
Y123000D01*
X68250Y28000D02*
X69750D01*
X69000Y27250D02*
Y28750D01*
X89250Y28000D02*
X90750D01*
X90000Y27250D02*
Y28750D01*
X75250Y28000D02*
X76750D01*
X76000Y27250D02*
Y28750D01*
X96250Y28000D02*
X97750D01*
X97000Y27250D02*
Y28750D01*
X82250Y28000D02*
X83750D01*
X83000Y27250D02*
Y28750D01*
X103250Y28000D02*
X104750D01*
X104000Y27250D02*
Y28750D01*
X154250Y104000D02*
X155750D01*
X155000Y103250D02*
Y104750D01*
X154250Y95000D02*
X155750D01*
X155000Y94250D02*
Y95750D01*
X154250Y86000D02*
X155750D01*
X155000Y85250D02*
Y86750D01*
X154250Y77000D02*
X155750D01*
X155000Y76250D02*
Y77750D01*
X111750Y28000D02*
X113250D01*
X112500Y27250D02*
Y28750D01*
X118750Y28000D02*
X120250D01*
X119500Y27250D02*
Y28750D01*
X125750Y28000D02*
X127250D01*
X126500Y27250D02*
Y28750D01*
X132750Y28000D02*
X134250D01*
X133500Y27250D02*
Y28750D01*
X146250Y32500D02*
X147750D01*
X147000Y31750D02*
Y33250D01*
X141750Y32500D02*
X143250D01*
X142500Y31750D02*
Y33250D01*
X166750Y93000D02*
X168250D01*
X167500Y92250D02*
Y93750D01*
X166750Y97000D02*
X168250D01*
X167500Y96250D02*
Y97750D01*
X166750Y101000D02*
X168250D01*
X167500Y100250D02*
Y101750D01*
X166750Y105000D02*
X168250D01*
X167500Y104250D02*
Y105750D01*
X166750Y109000D02*
X168250D01*
X167500Y108250D02*
Y109750D01*
X168750Y32500D02*
X170250D01*
X169500Y31750D02*
Y33250D01*
X164250Y32500D02*
X165750D01*
X165000Y31750D02*
Y33250D01*
X159750Y32500D02*
X161250D01*
X160500Y31750D02*
Y33250D01*
X155250Y32500D02*
X156750D01*
X156000Y31750D02*
Y33250D01*
X150750Y32500D02*
X152250D01*
X151500Y31750D02*
Y33250D01*
X122183Y35500D02*
X122817D01*
X122500Y35182D02*
Y35818D01*
X118183Y35500D02*
X118817D01*
X118500Y35182D02*
Y35818D01*
X150182Y61500D02*
X150818D01*
X150500Y61182D02*
Y61818D01*
X146182Y61500D02*
X146818D01*
X146500Y61182D02*
Y61818D01*
X161182Y50500D02*
X161818D01*
X161500Y50182D02*
Y50818D01*
X157182Y50500D02*
X157818D01*
X157500Y50182D02*
Y50818D01*
X150182Y50500D02*
X150818D01*
X150500Y50182D02*
Y50818D01*
X146182Y50500D02*
X146818D01*
X146500Y50182D02*
Y50818D01*
X127183Y99500D02*
X127817D01*
X127500Y99183D02*
Y99817D01*
X123183Y99500D02*
X123817D01*
X123500Y99183D02*
Y99817D01*
X118183Y99500D02*
X118817D01*
X118500Y99183D02*
Y99817D01*
X114183Y99500D02*
X114817D01*
X114500Y99183D02*
Y99817D01*
X127183Y113000D02*
X127817D01*
X127500Y112683D02*
Y113317D01*
X123183Y113000D02*
X123817D01*
X123500Y112683D02*
Y113317D01*
X118183Y113000D02*
X118817D01*
X118500Y112683D02*
Y113317D01*
X114183Y113000D02*
X114817D01*
X114500Y112683D02*
Y113317D01*
X144682Y71000D02*
X145318D01*
X145000Y70683D02*
Y71317D01*
X144682Y67000D02*
X145318D01*
X145000Y66683D02*
Y67317D01*
X141682Y71000D02*
X142318D01*
X142000Y70683D02*
Y71317D01*
X141682Y67000D02*
X142318D01*
X142000Y66683D02*
Y67317D01*
X142682Y95000D02*
X143318D01*
X143000Y94683D02*
Y95317D01*
X146682Y95000D02*
X147318D01*
X147000Y94683D02*
Y95317D01*
X87683Y51000D02*
X88317D01*
X88000Y50682D02*
Y51318D01*
X83683Y51000D02*
X84317D01*
X84000Y50682D02*
Y51318D01*
X140682Y104000D02*
X141318D01*
X141000Y103683D02*
Y104317D01*
X144682Y104000D02*
X145318D01*
X145000Y103683D02*
Y104317D01*
X87183Y71000D02*
X87817D01*
X87500Y70683D02*
Y71317D01*
X83183Y71000D02*
X83817D01*
X83500Y70683D02*
Y71317D01*
X142682Y77000D02*
X143318D01*
X143000Y76683D02*
Y77317D01*
X146682Y77000D02*
X147318D01*
X147000Y76683D02*
Y77317D01*
X142682Y86000D02*
X143318D01*
X143000Y85683D02*
Y86317D01*
X146682Y86000D02*
X147318D01*
X147000Y85683D02*
Y86317D01*
X131682Y77500D02*
X132318D01*
X132000Y77183D02*
Y77817D01*
X131682Y73500D02*
X132318D01*
X132000Y73183D02*
Y73817D01*
X131432Y58750D02*
X132068D01*
X131750Y58432D02*
Y59068D01*
X131432Y54750D02*
X132068D01*
X131750Y54432D02*
Y55068D01*
X161182Y61500D02*
X161818D01*
X161500Y61182D02*
Y61818D01*
X157182Y61500D02*
X157818D01*
X157500Y61182D02*
Y61818D01*
X128625Y36920D02*
X129375D01*
X129000Y36545D02*
Y37295D01*
X128625Y39460D02*
X129375D01*
X129000Y39085D02*
Y39835D01*
X128625Y42000D02*
X129375D01*
X129000Y41625D02*
Y42375D01*
X114100Y117000D02*
X114900D01*
X114500Y116600D02*
Y117400D01*
X116640Y117000D02*
X117440D01*
X117040Y116600D02*
Y117400D01*
X121720Y117000D02*
X122520D01*
X122120Y116600D02*
Y117400D01*
X124260Y117000D02*
X125060D01*
X124660Y116600D02*
Y117400D01*
X126800Y117000D02*
X127600D01*
X127200Y116600D02*
Y117400D01*
X114100Y103500D02*
X114900D01*
X114500Y103100D02*
Y103900D01*
X116640Y103500D02*
X117440D01*
X117040Y103100D02*
Y103900D01*
X121720Y103500D02*
X122520D01*
X122120Y103100D02*
Y103900D01*
X124260Y103500D02*
X125060D01*
X124660Y103100D02*
Y103900D01*
X126800Y103500D02*
X127600D01*
X127200Y103100D02*
Y103900D01*
X89900Y115000D02*
X92100D01*
X91000Y113900D02*
Y116100D01*
X89900Y105000D02*
X92100D01*
X91000Y103900D02*
Y106100D01*
X31500Y68000D02*
X32500D01*
X32000Y67500D02*
Y68500D01*
X31500Y60500D02*
X32500D01*
X32000Y60000D02*
Y61000D01*
X31500Y43000D02*
X32500D01*
X32000Y42500D02*
Y43500D01*
X31500Y50500D02*
X32500D01*
X32000Y50000D02*
Y51000D01*
X48500Y68000D02*
X49500D01*
X49000Y67500D02*
Y68500D01*
X48500Y60500D02*
X49500D01*
X49000Y60000D02*
Y61000D01*
X48500Y43000D02*
X49500D01*
X49000Y42500D02*
Y43500D01*
X48500Y50500D02*
X49500D01*
X49000Y50000D02*
Y51000D01*
X139000Y119500D02*
X140000D01*
X139500Y119000D02*
Y120000D01*
X135500Y119500D02*
X136500D01*
X136000Y119000D02*
Y120000D01*
X171000Y78500D02*
X172000D01*
X171500Y78000D02*
Y79000D01*
X171000Y82000D02*
X172000D01*
X171500Y81500D02*
Y82500D01*
X171000Y85500D02*
X172000D01*
X171500Y85000D02*
Y86000D01*
X171000Y89000D02*
X172000D01*
X171500Y88500D02*
Y89500D01*
X172750Y73200D02*
X173750D01*
X173250Y72700D02*
Y73700D01*
X172750Y70660D02*
X173750D01*
X173250Y70160D02*
Y71160D01*
X172750Y68120D02*
X173750D01*
X173250Y67620D02*
Y68620D01*
X172750Y65580D02*
X173750D01*
X173250Y65080D02*
Y66080D01*
X172750Y63040D02*
X173750D01*
X173250Y62540D02*
Y63540D01*
X172750Y60500D02*
X173750D01*
X173250Y60000D02*
Y61000D01*
X142682Y55420D02*
X143318D01*
X143000Y55103D02*
Y55737D01*
X142682Y60500D02*
X143318D01*
X143000Y60182D02*
Y60818D01*
X160182Y70580D02*
X160818D01*
X160500Y70262D02*
Y70897D01*
X160182Y65500D02*
X160818D01*
X160500Y65183D02*
Y65817D01*
X164182Y65420D02*
X164818D01*
X164500Y65103D02*
Y65738D01*
X164182Y70500D02*
X164818D01*
X164500Y70183D02*
Y70817D01*
X142682Y44420D02*
X143318D01*
X143000Y44103D02*
Y44737D01*
X142682Y49500D02*
X143318D01*
X143000Y49182D02*
Y49818D01*
X37250Y103000D02*
X38750D01*
X38000Y102250D02*
Y103750D01*
X37250Y85000D02*
X38750D01*
X38000Y84250D02*
Y85750D01*
X162144Y63500D02*
X162856D01*
X162500Y63144D02*
Y63856D01*
X168644Y62500D02*
X169356D01*
X169000Y62144D02*
Y62856D01*
X134644Y62500D02*
X135356D01*
X135000Y62144D02*
Y62856D01*
X139644Y47500D02*
X140356D01*
X140000Y47144D02*
Y47856D01*
X139644Y58500D02*
X140356D01*
X140000Y58144D02*
Y58856D01*
X85644Y85000D02*
X86356D01*
X86000Y84644D02*
Y85356D01*
X132644Y92500D02*
X133356D01*
X133000Y92144D02*
Y92856D01*
X122644Y96000D02*
X123356D01*
X123000Y95644D02*
Y96356D01*
X168644Y71000D02*
X169356D01*
X169000Y70644D02*
Y71356D01*
X158144Y68580D02*
X158856D01*
X158500Y68224D02*
Y68936D01*
X132144Y35000D02*
X132856D01*
X132500Y34644D02*
Y35356D01*
X106144Y35500D02*
X106856D01*
X106500Y35144D02*
Y35856D01*
X108644Y35500D02*
X109356D01*
X109000Y35144D02*
Y35856D01*
X137644Y40750D02*
X138356D01*
X138000Y40394D02*
Y41106D01*
X162644Y115000D02*
X163356D01*
X163000Y114644D02*
Y115356D01*
X156644Y115000D02*
X157356D01*
X157000Y114644D02*
Y115356D01*
X150644Y115000D02*
X151356D01*
X151000Y114644D02*
Y115356D01*
X144644Y115000D02*
X145356D01*
X145000Y114644D02*
Y115356D01*
X175144Y48500D02*
X175856D01*
X175500Y48144D02*
Y48856D01*
X156144Y64000D02*
X156856D01*
X156500Y63644D02*
Y64356D01*
X156144Y66000D02*
X156856D01*
X156500Y65644D02*
Y66356D01*
X155144Y73500D02*
X155856D01*
X155500Y73144D02*
Y73856D01*
X139144Y42000D02*
X139856D01*
X139500Y41644D02*
Y42356D01*
X131644Y48000D02*
X132356D01*
X132000Y47644D02*
Y48356D01*
X129644Y48000D02*
X130356D01*
X130000Y47644D02*
Y48356D01*
X132644Y113000D02*
X133356D01*
X133000Y112644D02*
Y113356D01*
X132644Y117000D02*
X133356D01*
X133000Y116644D02*
Y117356D01*
X128144Y74000D02*
X128856D01*
X128500Y73644D02*
Y74356D01*
X130644Y62000D02*
X131356D01*
X131000Y61644D02*
Y62356D01*
X128144Y55250D02*
X128856D01*
X128500Y54894D02*
Y55606D01*
X130644Y81000D02*
X131356D01*
X131000Y80644D02*
Y81356D01*
X175144Y50420D02*
X175856D01*
X175500Y50064D02*
Y50776D01*
X175144Y54000D02*
X175856D01*
X175500Y53644D02*
Y54356D01*
X168144Y57500D02*
X168856D01*
X168500Y57144D02*
Y57856D01*
X159644Y55500D02*
X160356D01*
X160000Y55144D02*
Y55856D01*
X89644Y56500D02*
X90356D01*
X90000Y56144D02*
Y56856D01*
X89144Y67000D02*
X89856D01*
X89500Y66644D02*
Y67356D01*
X20644Y59000D02*
X21356D01*
X21000Y58644D02*
Y59356D01*
X117644Y40000D02*
X118356D01*
X118000Y39644D02*
Y40356D01*
X65644Y50000D02*
X66356D01*
X66000Y49644D02*
Y50356D01*
X139144Y53000D02*
X139856D01*
X139500Y52644D02*
Y53356D01*
X158644Y44500D02*
X159356D01*
X159000Y44144D02*
Y44856D01*
X81144Y73000D02*
X81856D01*
X81500Y72644D02*
Y73356D01*
X92144Y48500D02*
X92856D01*
X92500Y48144D02*
Y48856D01*
X100644Y38500D02*
X101356D01*
X101000Y38144D02*
Y38856D01*
X96144Y42500D02*
X96856D01*
X96500Y42144D02*
Y42856D01*
X81644Y52500D02*
X82356D01*
X82000Y52144D02*
Y52856D01*
X20644Y56000D02*
X21356D01*
X21000Y55644D02*
Y56356D01*
X20644Y53000D02*
X21356D01*
X21000Y52644D02*
Y53356D01*
X23144Y57500D02*
X23856D01*
X23500Y57144D02*
Y57856D01*
X23144Y54500D02*
X23856D01*
X23500Y54144D02*
Y54856D01*
X43644Y54000D02*
X44356D01*
X44000Y53644D02*
Y54356D01*
X37644Y54000D02*
X38356D01*
X38000Y53644D02*
Y54356D01*
X39144Y56500D02*
X39856D01*
X39500Y56144D02*
Y56856D01*
X40644Y54000D02*
X41356D01*
X41000Y53644D02*
Y54356D01*
X42144Y56500D02*
X42856D01*
X42500Y56144D02*
Y56856D01*
X68144Y56500D02*
X68856D01*
X68500Y56144D02*
Y56856D01*
X65644Y55000D02*
X66356D01*
X66000Y54644D02*
Y55356D01*
X65644Y58000D02*
X66356D01*
X66000Y57644D02*
Y58356D01*
X65644Y61000D02*
X66356D01*
X66000Y60644D02*
Y61356D01*
X68144Y59500D02*
X68856D01*
X68500Y59144D02*
Y59856D01*
X105644Y80500D02*
X106356D01*
X106000Y80144D02*
Y80856D01*
X102644Y80500D02*
X103356D01*
X103000Y80144D02*
Y80856D01*
X99644Y80500D02*
X100356D01*
X100000Y80144D02*
Y80856D01*
X101144Y83500D02*
X101856D01*
X101500Y83144D02*
Y83856D01*
X104144Y83500D02*
X104856D01*
X104500Y83144D02*
Y83856D01*
X107644Y60000D02*
X108356D01*
X108000Y59644D02*
Y60356D01*
X107644Y63000D02*
X108356D01*
X108000Y62644D02*
Y63356D01*
X107644Y66000D02*
X108356D01*
X108000Y65644D02*
Y66356D01*
X107644Y69000D02*
X108356D01*
X108000Y68644D02*
Y69356D01*
X107644Y72000D02*
X108356D01*
X108000Y71644D02*
Y72356D01*
X123644Y44500D02*
X124356D01*
X124000Y44144D02*
Y44856D01*
X108644Y55000D02*
X109356D01*
X109000Y54644D02*
Y55356D01*
X121644Y50500D02*
X122356D01*
X122000Y50144D02*
Y50856D01*
X125644Y50500D02*
X126356D01*
X126000Y50144D02*
Y50856D01*
X121644Y54500D02*
X122356D01*
X122000Y54144D02*
Y54856D01*
X123644Y52500D02*
X124356D01*
X124000Y52144D02*
Y52856D01*
X26000Y110000D02*
X28000D01*
X27000Y109000D02*
Y111000D01*
X46000Y110000D02*
X48000D01*
X47000Y109000D02*
Y111000D01*
X176644Y58750D02*
X177355D01*
X177000Y58394D02*
Y59105D01*
M02*
