G04 Layer_Color=2752767*
%FSLAX44Y44*%
%MOMM*%
G71*
G01*
G75*
%ADD137C,0.0508*%
%ADD138C,0.0677*%
%ADD139C,0.0339*%
D137*
X1142968Y1032968D02*
Y1037032D01*
X1147032D01*
Y1032968D01*
X1142968D01*
X1168368D02*
Y1037032D01*
X1172432D01*
Y1032968D01*
X1168368D01*
X1219168D02*
Y1037032D01*
X1223232D01*
Y1032968D01*
X1219168D01*
X1269968D02*
Y1037032D01*
X1274032D01*
Y1032968D01*
X1269968D01*
Y1167968D02*
Y1172032D01*
X1274032D01*
Y1167968D01*
X1269968D01*
X1219168D02*
Y1172032D01*
X1223232D01*
Y1167968D01*
X1219168D01*
X1168368D02*
Y1172032D01*
X1172432D01*
Y1167968D01*
X1168368D01*
X1142968D02*
Y1172032D01*
X1147032D01*
Y1167968D01*
X1142968D01*
X1715000Y887968D02*
X1712968Y892032D01*
X1717032D01*
X1715000Y887968D01*
Y852968D02*
X1712968Y857032D01*
X1717032D01*
X1715000Y852968D01*
Y817968D02*
X1712968Y822032D01*
X1717032D01*
X1715000Y817968D01*
Y782968D02*
X1712968Y787032D01*
X1717032D01*
X1715000Y782968D01*
X1360000Y1192968D02*
X1357968Y1197032D01*
X1362032D01*
X1360000Y1192968D01*
X1395000D02*
X1392968Y1197032D01*
X1397032D01*
X1395000Y1192968D01*
X490000Y502968D02*
X487968Y507032D01*
X492032D01*
X490000Y502968D01*
Y427968D02*
X487968Y432032D01*
X492032D01*
X490000Y427968D01*
Y602968D02*
X487968Y607032D01*
X492032D01*
X490000Y602968D01*
Y677968D02*
X487968Y682032D01*
X492032D01*
X490000Y677968D01*
X320000Y502968D02*
X317968Y507032D01*
X322032D01*
X320000Y502968D01*
Y427968D02*
X317968Y432032D01*
X322032D01*
X320000Y427968D01*
Y602968D02*
X317968Y607032D01*
X322032D01*
X320000Y602968D01*
Y677968D02*
X317968Y682032D01*
X322032D01*
X320000Y677968D01*
X910000Y1047968D02*
X911016Y1048984D01*
X912032D01*
X911016Y1050000D01*
X912032Y1051016D01*
X911016D01*
X910000Y1052032D01*
X908984Y1051016D01*
X907968D01*
X908984Y1050000D01*
X907968Y1048984D01*
X908984D01*
X910000Y1047968D01*
Y1147968D02*
X911016Y1148984D01*
X912032D01*
X911016Y1150000D01*
X912032Y1151016D01*
X911016D01*
X910000Y1152032D01*
X908984Y1151016D01*
X907968D01*
X908984Y1150000D01*
X907968Y1148984D01*
X908984D01*
X910000Y1147968D01*
X377968Y1027968D02*
X378984Y1030000D01*
X377968Y1032032D01*
X380000Y1031016D01*
X382032Y1032032D01*
X381016Y1030000D01*
X382032Y1027968D01*
X380000Y1028984D01*
X377968Y1027968D01*
Y847968D02*
X378984Y850000D01*
X377968Y852032D01*
X380000Y851016D01*
X382032Y852032D01*
X381016Y850000D01*
X382032Y847968D01*
X380000Y848984D01*
X377968Y847968D01*
X1288984Y418984D02*
Y417968D01*
X1291016D01*
Y418984D01*
X1292032D01*
Y421016D01*
X1291016D01*
Y422032D01*
X1288984D01*
Y421016D01*
X1287968D01*
Y418984D01*
X1288984D01*
Y393584D02*
Y392568D01*
X1291016D01*
Y393584D01*
X1292032D01*
Y395616D01*
X1291016D01*
Y396632D01*
X1288984D01*
Y395616D01*
X1287968D01*
Y393584D01*
X1288984D01*
Y368184D02*
Y367168D01*
X1291016D01*
Y368184D01*
X1292032D01*
Y370216D01*
X1291016D01*
Y371232D01*
X1288984D01*
Y370216D01*
X1287968D01*
Y368184D01*
X1288984D01*
X1732500Y602968D02*
X1730468Y607032D01*
X1734532D01*
X1732500Y602968D01*
Y628368D02*
X1730468Y632432D01*
X1734532D01*
X1732500Y628368D01*
Y653768D02*
X1730468Y657832D01*
X1734532D01*
X1732500Y653768D01*
Y679168D02*
X1730468Y683232D01*
X1734532D01*
X1732500Y679168D01*
Y704568D02*
X1730468Y708632D01*
X1734532D01*
X1732500Y704568D01*
Y729968D02*
X1730468Y734032D01*
X1734532D01*
X1732500Y729968D01*
X1512968Y322968D02*
X1513984Y325000D01*
X1512968Y327032D01*
X1515000Y326016D01*
X1517032Y327032D01*
X1516016Y325000D01*
X1517032Y322968D01*
X1515000Y323984D01*
X1512968Y322968D01*
X1557968D02*
X1558984Y325000D01*
X1557968Y327032D01*
X1560000Y326016D01*
X1562032Y327032D01*
X1561016Y325000D01*
X1562032Y322968D01*
X1560000Y323984D01*
X1557968Y322968D01*
X1602968D02*
X1603984Y325000D01*
X1602968Y327032D01*
X1605000Y326016D01*
X1607032Y327032D01*
X1606016Y325000D01*
X1607032Y322968D01*
X1605000Y323984D01*
X1602968Y322968D01*
X1647968D02*
X1648984Y325000D01*
X1647968Y327032D01*
X1650000Y326016D01*
X1652032Y327032D01*
X1651016Y325000D01*
X1652032Y322968D01*
X1650000Y323984D01*
X1647968Y322968D01*
X1692968D02*
X1693984Y325000D01*
X1692968Y327032D01*
X1695000Y326016D01*
X1697032Y327032D01*
X1696016Y325000D01*
X1697032Y322968D01*
X1695000Y323984D01*
X1692968Y322968D01*
X1672968Y1087968D02*
X1673984Y1090000D01*
X1672968Y1092032D01*
X1675000Y1091016D01*
X1677032Y1092032D01*
X1676016Y1090000D01*
X1677032Y1087968D01*
X1675000Y1088984D01*
X1672968Y1087968D01*
Y1047968D02*
X1673984Y1050000D01*
X1672968Y1052032D01*
X1675000Y1051016D01*
X1677032Y1052032D01*
X1676016Y1050000D01*
X1677032Y1047968D01*
X1675000Y1048984D01*
X1672968Y1047968D01*
Y1007968D02*
X1673984Y1010000D01*
X1672968Y1012032D01*
X1675000Y1011016D01*
X1677032Y1012032D01*
X1676016Y1010000D01*
X1677032Y1007968D01*
X1675000Y1008984D01*
X1672968Y1007968D01*
Y967968D02*
X1673984Y970000D01*
X1672968Y972032D01*
X1675000Y971016D01*
X1677032Y972032D01*
X1676016Y970000D01*
X1677032Y967968D01*
X1675000Y968984D01*
X1672968Y967968D01*
Y927968D02*
X1673984Y930000D01*
X1672968Y932032D01*
X1675000Y931016D01*
X1677032Y932032D01*
X1676016Y930000D01*
X1677032Y927968D01*
X1675000Y928984D01*
X1672968Y927968D01*
X1422968Y322968D02*
X1423984Y325000D01*
X1422968Y327032D01*
X1425000Y326016D01*
X1427032Y327032D01*
X1426016Y325000D01*
X1427032Y322968D01*
X1425000Y323984D01*
X1422968Y322968D01*
X1467968D02*
X1468984Y325000D01*
X1467968Y327032D01*
X1470000Y326016D01*
X1472032Y327032D01*
X1471016Y325000D01*
X1472032Y322968D01*
X1470000Y323984D01*
X1467968Y322968D01*
X1332968Y277968D02*
X1333984Y280000D01*
X1332968Y282032D01*
X1335000Y281016D01*
X1337032Y282032D01*
X1336016Y280000D01*
X1337032Y277968D01*
X1335000Y278984D01*
X1332968Y277968D01*
X1262968D02*
X1263984Y280000D01*
X1262968Y282032D01*
X1265000Y281016D01*
X1267032Y282032D01*
X1266016Y280000D01*
X1267032Y277968D01*
X1265000Y278984D01*
X1262968Y277968D01*
X1192968D02*
X1193984Y280000D01*
X1192968Y282032D01*
X1195000Y281016D01*
X1197032Y282032D01*
X1196016Y280000D01*
X1197032Y277968D01*
X1195000Y278984D01*
X1192968Y277968D01*
X1122968D02*
X1123984Y280000D01*
X1122968Y282032D01*
X1125000Y281016D01*
X1127032Y282032D01*
X1126016Y280000D01*
X1127032Y277968D01*
X1125000Y278984D01*
X1122968Y277968D01*
X1547968Y767968D02*
X1548984Y770000D01*
X1547968Y772032D01*
X1550000Y771016D01*
X1552032Y772032D01*
X1551016Y770000D01*
X1552032Y767968D01*
X1550000Y768984D01*
X1547968Y767968D01*
Y857968D02*
X1548984Y860000D01*
X1547968Y862032D01*
X1550000Y861016D01*
X1552032Y862032D01*
X1551016Y860000D01*
X1552032Y857968D01*
X1550000Y858984D01*
X1547968Y857968D01*
Y947968D02*
X1548984Y950000D01*
X1547968Y952032D01*
X1550000Y951016D01*
X1552032Y952032D01*
X1551016Y950000D01*
X1552032Y947968D01*
X1550000Y948984D01*
X1547968Y947968D01*
Y1037968D02*
X1548984Y1040000D01*
X1547968Y1042032D01*
X1550000Y1041016D01*
X1552032Y1042032D01*
X1551016Y1040000D01*
X1552032Y1037968D01*
X1550000Y1038984D01*
X1547968Y1037968D01*
X1037968Y277968D02*
X1038984Y280000D01*
X1037968Y282032D01*
X1040000Y281016D01*
X1042032Y282032D01*
X1041016Y280000D01*
X1042032Y277968D01*
X1040000Y278984D01*
X1037968Y277968D01*
X827968D02*
X828984Y280000D01*
X827968Y282032D01*
X830000Y281016D01*
X832032Y282032D01*
X831016Y280000D01*
X832032Y277968D01*
X830000Y278984D01*
X827968Y277968D01*
X967968D02*
X968984Y280000D01*
X967968Y282032D01*
X970000Y281016D01*
X972032Y282032D01*
X971016Y280000D01*
X972032Y277968D01*
X970000Y278984D01*
X967968Y277968D01*
X757968D02*
X758984Y280000D01*
X757968Y282032D01*
X760000Y281016D01*
X762032Y282032D01*
X761016Y280000D01*
X762032Y277968D01*
X760000Y278984D01*
X757968Y277968D01*
X897968D02*
X898984Y280000D01*
X897968Y282032D01*
X900000Y281016D01*
X902032Y282032D01*
X901016Y280000D01*
X902032Y277968D01*
X900000Y278984D01*
X897968Y277968D01*
X687968D02*
X688984Y280000D01*
X687968Y282032D01*
X690000Y281016D01*
X692032Y282032D01*
X691016Y280000D01*
X692032Y277968D01*
X690000Y278984D01*
X687968Y277968D01*
X307968Y1207968D02*
X308984D01*
X310000Y1208984D01*
X311016Y1207968D01*
X312032D01*
Y1208984D01*
X311016Y1210000D01*
X312032Y1211016D01*
Y1212032D01*
X311016D01*
X310000Y1211016D01*
X308984Y1212032D01*
X307968D01*
Y1211016D01*
X308984Y1210000D01*
X307968Y1208984D01*
Y1207968D01*
X707968D02*
X708984D01*
X710000Y1208984D01*
X711016Y1207968D01*
X712032D01*
Y1208984D01*
X711016Y1210000D01*
X712032Y1211016D01*
Y1212032D01*
X711016D01*
X710000Y1211016D01*
X708984Y1212032D01*
X707968D01*
Y1211016D01*
X708984Y1210000D01*
X707968Y1208984D01*
Y1207968D01*
X597968Y247968D02*
X598984D01*
X600000Y248984D01*
X601016Y247968D01*
X602032D01*
Y248984D01*
X601016Y250000D01*
X602032Y251016D01*
Y252032D01*
X601016D01*
X600000Y251016D01*
X598984Y252032D01*
X597968D01*
Y251016D01*
X598984Y250000D01*
X597968Y248984D01*
Y247968D01*
X307968D02*
X308984D01*
X310000Y248984D01*
X311016Y247968D01*
X312032D01*
Y248984D01*
X311016Y250000D01*
X312032Y251016D01*
Y252032D01*
X311016D01*
X310000Y251016D01*
X308984Y252032D01*
X307968D01*
Y251016D01*
X308984Y250000D01*
X307968Y248984D01*
Y247968D01*
X1797968Y250000D02*
X1800000Y252032D01*
X1802032Y250000D01*
X1800000Y247968D01*
X1797968Y250000D01*
Y1210000D02*
X1800000Y1212032D01*
X1802032Y1210000D01*
X1800000Y1207968D01*
X1797968Y1210000D01*
X217968D02*
X220000Y1212032D01*
X222032Y1210000D01*
X220000Y1207968D01*
X217968Y1210000D01*
Y245000D02*
X220000Y247032D01*
X222032Y245000D01*
X220000Y242968D01*
X217968Y245000D01*
X1612968Y1182968D02*
Y1187032D01*
X1617032D01*
Y1182968D01*
X1612968D01*
X1613984Y1183984D02*
Y1186016D01*
X1616016D01*
Y1183984D01*
X1613984D01*
X1632968Y1182968D02*
Y1187032D01*
X1637032D01*
Y1182968D01*
X1632968D01*
X1633984Y1183984D02*
Y1186016D01*
X1636016D01*
Y1183984D01*
X1633984D01*
X1492968Y1182968D02*
Y1187032D01*
X1497032D01*
Y1182968D01*
X1492968D01*
X1493984Y1183984D02*
Y1186016D01*
X1496016D01*
Y1183984D01*
X1493984D01*
X1512968Y1182968D02*
Y1187032D01*
X1517032D01*
Y1182968D01*
X1512968D01*
X1513984Y1183984D02*
Y1186016D01*
X1516016D01*
Y1183984D01*
X1513984D01*
X1432968Y1182968D02*
Y1187032D01*
X1437032D01*
Y1182968D01*
X1432968D01*
X1433984Y1183984D02*
Y1186016D01*
X1436016D01*
Y1183984D01*
X1433984D01*
X1452968Y1182968D02*
Y1187032D01*
X1457032D01*
Y1182968D01*
X1452968D01*
X1453984Y1183984D02*
Y1186016D01*
X1456016D01*
Y1183984D01*
X1453984D01*
X1552968Y1182968D02*
Y1187032D01*
X1557032D01*
Y1182968D01*
X1552968D01*
X1553984Y1183984D02*
Y1186016D01*
X1556016D01*
Y1183984D01*
X1553984D01*
X1572968Y1182968D02*
Y1187032D01*
X1577032D01*
Y1182968D01*
X1572968D01*
X1573984Y1183984D02*
Y1186016D01*
X1576016D01*
Y1183984D01*
X1573984D01*
X700000Y377968D02*
X701016Y378984D01*
X702032D01*
X701016Y380000D01*
X702032Y381016D01*
X701016D01*
X700000Y382032D01*
X698984Y381016D01*
X697968D01*
X698984Y380000D01*
X697968Y378984D01*
X698984D01*
X700000Y377968D01*
X1200000Y877968D02*
X1201016Y878984D01*
X1202032D01*
X1201016Y880000D01*
X1202032Y881016D01*
X1201016D01*
X1200000Y882032D01*
X1198984Y881016D01*
X1197968D01*
X1198984Y880000D01*
X1197968Y878984D01*
X1198984D01*
X1200000Y877968D01*
X470000Y1097968D02*
X467968Y1102032D01*
X472032D01*
X470000Y1097968D01*
Y1098984D02*
X468984Y1101016D01*
X471016D01*
X470000Y1098984D01*
X270000Y1097968D02*
X267968Y1102032D01*
X272032D01*
X270000Y1097968D01*
Y1098984D02*
X268984Y1101016D01*
X271016D01*
X270000Y1098984D01*
D138*
X1432032Y495000D02*
G03*
X1432032Y495000I-2032J0D01*
G01*
Y444200D02*
G03*
X1432032Y444200I-2032J0D01*
G01*
X1647032Y705000D02*
G03*
X1647032Y705000I-2032J0D01*
G01*
Y654200D02*
G03*
X1647032Y654200I-2032J0D01*
G01*
X1607032Y655000D02*
G03*
X1607032Y655000I-2032J0D01*
G01*
Y705800D02*
G03*
X1607032Y705800I-2032J0D01*
G01*
X1432032Y605000D02*
G03*
X1432032Y605000I-2032J0D01*
G01*
Y554200D02*
G03*
X1432032Y554200I-2032J0D01*
G01*
X1577032Y615000D02*
G03*
X1577032Y615000I-2032J0D01*
G01*
X1617032D02*
G03*
X1617032Y615000I-2032J0D01*
G01*
X1319532Y547500D02*
G03*
X1319532Y547500I-2032J0D01*
G01*
Y587500D02*
G03*
X1319532Y587500I-2032J0D01*
G01*
X1322032Y735000D02*
G03*
X1322032Y735000I-2032J0D01*
G01*
Y775000D02*
G03*
X1322032Y775000I-2032J0D01*
G01*
X1472032Y860000D02*
G03*
X1472032Y860000I-2032J0D01*
G01*
X1432032D02*
G03*
X1432032Y860000I-2032J0D01*
G01*
X1472032Y770000D02*
G03*
X1472032Y770000I-2032J0D01*
G01*
X1432032D02*
G03*
X1432032Y770000I-2032J0D01*
G01*
X837032Y710000D02*
G03*
X837032Y710000I-2032J0D01*
G01*
X877032D02*
G03*
X877032Y710000I-2032J0D01*
G01*
X1452032Y1040000D02*
G03*
X1452032Y1040000I-2032J0D01*
G01*
X1412032D02*
G03*
X1412032Y1040000I-2032J0D01*
G01*
X842032Y510000D02*
G03*
X842032Y510000I-2032J0D01*
G01*
X882032D02*
G03*
X882032Y510000I-2032J0D01*
G01*
X1472032Y950000D02*
G03*
X1472032Y950000I-2032J0D01*
G01*
X1432032D02*
G03*
X1432032Y950000I-2032J0D01*
G01*
X1422032Y670000D02*
G03*
X1422032Y670000I-2032J0D01*
G01*
Y710000D02*
G03*
X1422032Y710000I-2032J0D01*
G01*
X1452032Y670000D02*
G03*
X1452032Y670000I-2032J0D01*
G01*
Y710000D02*
G03*
X1452032Y710000I-2032J0D01*
G01*
X1147032Y1130000D02*
G03*
X1147032Y1130000I-2032J0D01*
G01*
X1187032D02*
G03*
X1187032Y1130000I-2032J0D01*
G01*
X1237032D02*
G03*
X1237032Y1130000I-2032J0D01*
G01*
X1277032D02*
G03*
X1277032Y1130000I-2032J0D01*
G01*
X1147032Y995000D02*
G03*
X1147032Y995000I-2032J0D01*
G01*
X1187032D02*
G03*
X1187032Y995000I-2032J0D01*
G01*
X1237032D02*
G03*
X1237032Y995000I-2032J0D01*
G01*
X1277032D02*
G03*
X1277032Y995000I-2032J0D01*
G01*
X1467032Y505000D02*
G03*
X1467032Y505000I-2032J0D01*
G01*
X1507032D02*
G03*
X1507032Y505000I-2032J0D01*
G01*
X1577032D02*
G03*
X1577032Y505000I-2032J0D01*
G01*
X1617032D02*
G03*
X1617032Y505000I-2032J0D01*
G01*
X1467032Y615000D02*
G03*
X1467032Y615000I-2032J0D01*
G01*
X1507032D02*
G03*
X1507032Y615000I-2032J0D01*
G01*
X1187032Y355000D02*
G03*
X1187032Y355000I-2032J0D01*
G01*
X1227032D02*
G03*
X1227032Y355000I-2032J0D01*
G01*
X827030Y729998D02*
G03*
X827030Y729998I-2032J0D01*
G01*
X822032Y530000D02*
G03*
X822032Y530000I-2032J0D01*
G01*
X1762032Y540000D02*
G03*
X1762032Y540000I-2032J0D01*
G01*
Y505000D02*
G03*
X1762032Y505000I-2032J0D01*
G01*
Y485000D02*
G03*
X1762032Y485000I-2032J0D01*
G01*
X1777032Y587500D02*
G03*
X1777032Y587500I-2032J0D01*
G01*
X1242032Y525000D02*
G03*
X1242032Y525000I-2032J0D01*
G01*
X1222032Y545000D02*
G03*
X1222032Y545000I-2032J0D01*
G01*
X1262032Y505000D02*
G03*
X1262032Y505000I-2032J0D01*
G01*
X1222032D02*
G03*
X1222032Y505000I-2032J0D01*
G01*
X1092032Y550000D02*
G03*
X1092032Y550000I-2032J0D01*
G01*
X1242032Y445000D02*
G03*
X1242032Y445000I-2032J0D01*
G01*
X1082032Y720000D02*
G03*
X1082032Y720000I-2032J0D01*
G01*
Y690000D02*
G03*
X1082032Y690000I-2032J0D01*
G01*
Y660000D02*
G03*
X1082032Y660000I-2032J0D01*
G01*
Y630000D02*
G03*
X1082032Y630000I-2032J0D01*
G01*
Y600000D02*
G03*
X1082032Y600000I-2032J0D01*
G01*
X1047032Y835000D02*
G03*
X1047032Y835000I-2032J0D01*
G01*
X1017032D02*
G03*
X1017032Y835000I-2032J0D01*
G01*
X1002032Y805000D02*
G03*
X1002032Y805000I-2032J0D01*
G01*
X1032032D02*
G03*
X1032032Y805000I-2032J0D01*
G01*
X1062032D02*
G03*
X1062032Y805000I-2032J0D01*
G01*
X687032Y595000D02*
G03*
X687032Y595000I-2032J0D01*
G01*
X662032Y610000D02*
G03*
X662032Y610000I-2032J0D01*
G01*
Y580000D02*
G03*
X662032Y580000I-2032J0D01*
G01*
Y550000D02*
G03*
X662032Y550000I-2032J0D01*
G01*
X687032Y565000D02*
G03*
X687032Y565000I-2032J0D01*
G01*
X427032D02*
G03*
X427032Y565000I-2032J0D01*
G01*
X412032Y540000D02*
G03*
X412032Y540000I-2032J0D01*
G01*
X397032Y565000D02*
G03*
X397032Y565000I-2032J0D01*
G01*
X382032Y540000D02*
G03*
X382032Y540000I-2032J0D01*
G01*
X442032D02*
G03*
X442032Y540000I-2032J0D01*
G01*
X237032Y545000D02*
G03*
X237032Y545000I-2032J0D01*
G01*
Y575000D02*
G03*
X237032Y575000I-2032J0D01*
G01*
X212032Y530000D02*
G03*
X212032Y530000I-2032J0D01*
G01*
Y560000D02*
G03*
X212032Y560000I-2032J0D01*
G01*
X967032Y425000D02*
G03*
X967032Y425000I-2032J0D01*
G01*
X1012032Y385000D02*
G03*
X1012032Y385000I-2032J0D01*
G01*
X927032Y485000D02*
G03*
X927032Y485000I-2032J0D01*
G01*
X1592032Y445000D02*
G03*
X1592032Y445000I-2032J0D01*
G01*
X1397032Y530000D02*
G03*
X1397032Y530000I-2032J0D01*
G01*
X662032Y500000D02*
G03*
X662032Y500000I-2032J0D01*
G01*
X1182032Y400000D02*
G03*
X1182032Y400000I-2032J0D01*
G01*
X212032Y590000D02*
G03*
X212032Y590000I-2032J0D01*
G01*
X897032Y670000D02*
G03*
X897032Y670000I-2032J0D01*
G01*
X902032Y565000D02*
G03*
X902032Y565000I-2032J0D01*
G01*
X1602032Y555000D02*
G03*
X1602032Y555000I-2032J0D01*
G01*
X1687032Y575000D02*
G03*
X1687032Y575000I-2032J0D01*
G01*
X1312032Y810000D02*
G03*
X1312032Y810000I-2032J0D01*
G01*
X1287032Y552500D02*
G03*
X1287032Y552500I-2032J0D01*
G01*
X1312032Y620000D02*
G03*
X1312032Y620000I-2032J0D01*
G01*
X1287032Y740000D02*
G03*
X1287032Y740000I-2032J0D01*
G01*
X1332032Y1170000D02*
G03*
X1332032Y1170000I-2032J0D01*
G01*
Y1130000D02*
G03*
X1332032Y1130000I-2032J0D01*
G01*
X1302032Y480000D02*
G03*
X1302032Y480000I-2032J0D01*
G01*
X1322032D02*
G03*
X1322032Y480000I-2032J0D01*
G01*
X1397032Y420000D02*
G03*
X1397032Y420000I-2032J0D01*
G01*
X1557032Y735000D02*
G03*
X1557032Y735000I-2032J0D01*
G01*
X1567032Y660000D02*
G03*
X1567032Y660000I-2032J0D01*
G01*
Y640000D02*
G03*
X1567032Y640000I-2032J0D01*
G01*
X1452032Y1150000D02*
G03*
X1452032Y1150000I-2032J0D01*
G01*
X1512032D02*
G03*
X1512032Y1150000I-2032J0D01*
G01*
X1572032D02*
G03*
X1572032Y1150000I-2032J0D01*
G01*
X1632032D02*
G03*
X1632032Y1150000I-2032J0D01*
G01*
X1382032Y407500D02*
G03*
X1382032Y407500I-2032J0D01*
G01*
X1092032Y355000D02*
G03*
X1092032Y355000I-2032J0D01*
G01*
X1067032D02*
G03*
X1067032Y355000I-2032J0D01*
G01*
X1327032Y350000D02*
G03*
X1327032Y350000I-2032J0D01*
G01*
X1587032Y685800D02*
G03*
X1587032Y685800I-2032J0D01*
G01*
X1692032Y710000D02*
G03*
X1692032Y710000I-2032J0D01*
G01*
X1232032Y960000D02*
G03*
X1232032Y960000I-2032J0D01*
G01*
X1332032Y925000D02*
G03*
X1332032Y925000I-2032J0D01*
G01*
X862032Y850000D02*
G03*
X862032Y850000I-2032J0D01*
G01*
X1402032Y585000D02*
G03*
X1402032Y585000I-2032J0D01*
G01*
Y475000D02*
G03*
X1402032Y475000I-2032J0D01*
G01*
X1352032Y625000D02*
G03*
X1352032Y625000I-2032J0D01*
G01*
X1692032D02*
G03*
X1692032Y625000I-2032J0D01*
G01*
X1627032Y635000D02*
G03*
X1627032Y635000I-2032J0D01*
G01*
D139*
X826014Y729998D02*
G03*
X826014Y729998I-1016J0D01*
G01*
X821016Y530000D02*
G03*
X821016Y530000I-1016J0D01*
G01*
X1761016Y540000D02*
G03*
X1761016Y540000I-1016J0D01*
G01*
Y505000D02*
G03*
X1761016Y505000I-1016J0D01*
G01*
Y485000D02*
G03*
X1761016Y485000I-1016J0D01*
G01*
X1776016Y587500D02*
G03*
X1776016Y587500I-1016J0D01*
G01*
X1241016Y525000D02*
G03*
X1241016Y525000I-1016J0D01*
G01*
X1221016Y545000D02*
G03*
X1221016Y545000I-1016J0D01*
G01*
X1261016Y505000D02*
G03*
X1261016Y505000I-1016J0D01*
G01*
X1221016D02*
G03*
X1221016Y505000I-1016J0D01*
G01*
X1091016Y550000D02*
G03*
X1091016Y550000I-1016J0D01*
G01*
X1241016Y445000D02*
G03*
X1241016Y445000I-1016J0D01*
G01*
X1081016Y720000D02*
G03*
X1081016Y720000I-1016J0D01*
G01*
Y690000D02*
G03*
X1081016Y690000I-1016J0D01*
G01*
Y660000D02*
G03*
X1081016Y660000I-1016J0D01*
G01*
Y630000D02*
G03*
X1081016Y630000I-1016J0D01*
G01*
Y600000D02*
G03*
X1081016Y600000I-1016J0D01*
G01*
X1046016Y835000D02*
G03*
X1046016Y835000I-1016J0D01*
G01*
X1016016D02*
G03*
X1016016Y835000I-1016J0D01*
G01*
X1001016Y805000D02*
G03*
X1001016Y805000I-1016J0D01*
G01*
X1031016D02*
G03*
X1031016Y805000I-1016J0D01*
G01*
X1061016D02*
G03*
X1061016Y805000I-1016J0D01*
G01*
X686016Y595000D02*
G03*
X686016Y595000I-1016J0D01*
G01*
X661016Y610000D02*
G03*
X661016Y610000I-1016J0D01*
G01*
Y580000D02*
G03*
X661016Y580000I-1016J0D01*
G01*
Y550000D02*
G03*
X661016Y550000I-1016J0D01*
G01*
X686016Y565000D02*
G03*
X686016Y565000I-1016J0D01*
G01*
X426016D02*
G03*
X426016Y565000I-1016J0D01*
G01*
X411016Y540000D02*
G03*
X411016Y540000I-1016J0D01*
G01*
X396016Y565000D02*
G03*
X396016Y565000I-1016J0D01*
G01*
X381016Y540000D02*
G03*
X381016Y540000I-1016J0D01*
G01*
X441016D02*
G03*
X441016Y540000I-1016J0D01*
G01*
X236016Y545000D02*
G03*
X236016Y545000I-1016J0D01*
G01*
Y575000D02*
G03*
X236016Y575000I-1016J0D01*
G01*
X211016Y530000D02*
G03*
X211016Y530000I-1016J0D01*
G01*
Y560000D02*
G03*
X211016Y560000I-1016J0D01*
G01*
X966016Y425000D02*
G03*
X966016Y425000I-1016J0D01*
G01*
X1011016Y385000D02*
G03*
X1011016Y385000I-1016J0D01*
G01*
X926016Y485000D02*
G03*
X926016Y485000I-1016J0D01*
G01*
X1591016Y445000D02*
G03*
X1591016Y445000I-1016J0D01*
G01*
X1396016Y530000D02*
G03*
X1396016Y530000I-1016J0D01*
G01*
X661016Y500000D02*
G03*
X661016Y500000I-1016J0D01*
G01*
X1181016Y400000D02*
G03*
X1181016Y400000I-1016J0D01*
G01*
X211016Y590000D02*
G03*
X211016Y590000I-1016J0D01*
G01*
X896016Y670000D02*
G03*
X896016Y670000I-1016J0D01*
G01*
X901016Y565000D02*
G03*
X901016Y565000I-1016J0D01*
G01*
X1601016Y555000D02*
G03*
X1601016Y555000I-1016J0D01*
G01*
X1686016Y575000D02*
G03*
X1686016Y575000I-1016J0D01*
G01*
X1311016Y810000D02*
G03*
X1311016Y810000I-1016J0D01*
G01*
X1286016Y552500D02*
G03*
X1286016Y552500I-1016J0D01*
G01*
X1311016Y620000D02*
G03*
X1311016Y620000I-1016J0D01*
G01*
X1286016Y740000D02*
G03*
X1286016Y740000I-1016J0D01*
G01*
X1331016Y1170000D02*
G03*
X1331016Y1170000I-1016J0D01*
G01*
Y1130000D02*
G03*
X1331016Y1130000I-1016J0D01*
G01*
X1301016Y480000D02*
G03*
X1301016Y480000I-1016J0D01*
G01*
X1321016D02*
G03*
X1321016Y480000I-1016J0D01*
G01*
X1396016Y420000D02*
G03*
X1396016Y420000I-1016J0D01*
G01*
X1556016Y735000D02*
G03*
X1556016Y735000I-1016J0D01*
G01*
X1566016Y660000D02*
G03*
X1566016Y660000I-1016J0D01*
G01*
Y640000D02*
G03*
X1566016Y640000I-1016J0D01*
G01*
X1451016Y1150000D02*
G03*
X1451016Y1150000I-1016J0D01*
G01*
X1511016D02*
G03*
X1511016Y1150000I-1016J0D01*
G01*
X1571016D02*
G03*
X1571016Y1150000I-1016J0D01*
G01*
X1631016D02*
G03*
X1631016Y1150000I-1016J0D01*
G01*
X1381016Y407500D02*
G03*
X1381016Y407500I-1016J0D01*
G01*
X1091016Y355000D02*
G03*
X1091016Y355000I-1016J0D01*
G01*
X1066016D02*
G03*
X1066016Y355000I-1016J0D01*
G01*
X1326016Y350000D02*
G03*
X1326016Y350000I-1016J0D01*
G01*
X1586016Y685800D02*
G03*
X1586016Y685800I-1016J0D01*
G01*
X1691016Y710000D02*
G03*
X1691016Y710000I-1016J0D01*
G01*
X1231016Y960000D02*
G03*
X1231016Y960000I-1016J0D01*
G01*
X1331016Y925000D02*
G03*
X1331016Y925000I-1016J0D01*
G01*
X861016Y850000D02*
G03*
X861016Y850000I-1016J0D01*
G01*
X1401016Y585000D02*
G03*
X1401016Y585000I-1016J0D01*
G01*
Y475000D02*
G03*
X1401016Y475000I-1016J0D01*
G01*
X1351016Y625000D02*
G03*
X1351016Y625000I-1016J0D01*
G01*
X1691016D02*
G03*
X1691016Y625000I-1016J0D01*
G01*
X1626016Y635000D02*
G03*
X1626016Y635000I-1016J0D01*
G01*
M02*
