G04 Layer_Color=16711935*
%FSLAX43Y43*%
%MOMM*%
G71*
G01*
G75*
%ADD110C,0.711*%
%ADD111O,1.403X2.203*%
%ADD112R,1.403X2.203*%
%ADD113C,5.203*%
%ADD114C,6.203*%
%ADD115O,5.703X2.003*%
%ADD116O,2.003X5.703*%
%ADD117O,2.203X1.403*%
%ADD118O,3.251X1.727*%
%ADD119O,2.003X2.603*%
%ADD120R,4.203X4.203*%
%ADD121C,4.203*%
%ADD122R,3.203X3.203*%
%ADD123C,3.203*%
%ADD124O,2.003X3.203*%
%ADD125O,3.203X2.003*%
%ADD126O,2.803X2.003*%
%ADD127O,1.473X2.743*%
%ADD128R,1.473X2.743*%
%ADD129O,3.203X4.203*%
%ADD130C,1.473*%
D110*
X120000Y88000D02*
D03*
X70000Y38000D02*
D03*
D111*
X157500Y118500D02*
D03*
X145500D02*
D03*
X151500D02*
D03*
X163500D02*
D03*
X145000Y71000D02*
D03*
Y67000D02*
D03*
X142000Y71000D02*
D03*
Y67000D02*
D03*
X132000Y77500D02*
D03*
Y73500D02*
D03*
X131750Y58750D02*
D03*
Y54750D02*
D03*
D112*
X155500Y118500D02*
D03*
X143500D02*
D03*
X149500D02*
D03*
X161500D02*
D03*
D113*
X22000Y24500D02*
D03*
Y121000D02*
D03*
X180000D02*
D03*
Y25000D02*
D03*
D114*
X31000D02*
D03*
X60000D02*
D03*
X71000Y121000D02*
D03*
X31000D02*
D03*
D115*
X69000Y28000D02*
D03*
X90000D02*
D03*
X76000D02*
D03*
X97000D02*
D03*
X83000D02*
D03*
X104000D02*
D03*
X155000Y104000D02*
D03*
Y95000D02*
D03*
Y86000D02*
D03*
Y77000D02*
D03*
X112500Y28000D02*
D03*
X119500D02*
D03*
X126500D02*
D03*
X133500D02*
D03*
X167500Y93000D02*
D03*
Y97000D02*
D03*
Y101000D02*
D03*
Y105000D02*
D03*
Y109000D02*
D03*
D116*
X147000Y32500D02*
D03*
X142500D02*
D03*
X169500D02*
D03*
X165000D02*
D03*
X160500D02*
D03*
X156000D02*
D03*
X151500D02*
D03*
D117*
X122500Y35500D02*
D03*
X118500D02*
D03*
X150500Y61500D02*
D03*
X146500D02*
D03*
X161500Y50500D02*
D03*
X157500D02*
D03*
X150500D02*
D03*
X146500D02*
D03*
X127500Y99500D02*
D03*
X123500D02*
D03*
X118500D02*
D03*
X114500D02*
D03*
X127500Y113000D02*
D03*
X123500D02*
D03*
X118500D02*
D03*
X114500D02*
D03*
X143000Y95000D02*
D03*
X147000D02*
D03*
X88000Y51000D02*
D03*
X84000D02*
D03*
X141000Y104000D02*
D03*
X145000D02*
D03*
X87500Y71000D02*
D03*
X83500D02*
D03*
X143000Y77000D02*
D03*
X147000D02*
D03*
X143000Y86000D02*
D03*
X147000D02*
D03*
X161500Y61500D02*
D03*
X157500D02*
D03*
D118*
X129000Y36920D02*
D03*
Y39460D02*
D03*
Y42000D02*
D03*
D119*
X114500Y117000D02*
D03*
X117040D02*
D03*
X122120D02*
D03*
X124660D02*
D03*
X127200D02*
D03*
X114500Y103500D02*
D03*
X117040D02*
D03*
X122120D02*
D03*
X124660D02*
D03*
X127200D02*
D03*
D120*
X91000Y115000D02*
D03*
D121*
Y105000D02*
D03*
X27000Y110000D02*
D03*
X47000D02*
D03*
D122*
X32000Y68000D02*
D03*
Y43000D02*
D03*
X49000Y68000D02*
D03*
Y43000D02*
D03*
D123*
X32000Y60500D02*
D03*
Y50500D02*
D03*
X49000Y60500D02*
D03*
Y50500D02*
D03*
D124*
X139500Y119500D02*
D03*
X136000D02*
D03*
D125*
X171500Y78500D02*
D03*
Y82000D02*
D03*
Y85500D02*
D03*
Y89000D02*
D03*
D126*
X173250Y73200D02*
D03*
Y70660D02*
D03*
Y68120D02*
D03*
Y65580D02*
D03*
Y63040D02*
D03*
Y60500D02*
D03*
D127*
X143000Y55420D02*
D03*
X160500Y70580D02*
D03*
X164500Y65420D02*
D03*
X143000Y44420D02*
D03*
D128*
Y60500D02*
D03*
X160500Y65500D02*
D03*
X164500Y70500D02*
D03*
X143000Y49500D02*
D03*
D129*
X38000Y103000D02*
D03*
Y85000D02*
D03*
D130*
X162500Y63500D02*
D03*
X169000Y62500D02*
D03*
X135000D02*
D03*
X140000Y47500D02*
D03*
Y58500D02*
D03*
X86000Y85000D02*
D03*
X133000Y92500D02*
D03*
X123000Y96000D02*
D03*
X169000Y71000D02*
D03*
X158500Y68580D02*
D03*
X132500Y35000D02*
D03*
X106500Y35500D02*
D03*
X109000D02*
D03*
X138000Y40750D02*
D03*
X163000Y115000D02*
D03*
X157000D02*
D03*
X151000D02*
D03*
X145000D02*
D03*
X175500Y48500D02*
D03*
X156500Y64000D02*
D03*
Y66000D02*
D03*
X155500Y73500D02*
D03*
X139500Y42000D02*
D03*
X132000Y48000D02*
D03*
X130000D02*
D03*
X133000Y113000D02*
D03*
Y117000D02*
D03*
X128500Y74000D02*
D03*
X131000Y62000D02*
D03*
X128500Y55250D02*
D03*
X131000Y81000D02*
D03*
X175500Y50420D02*
D03*
Y54000D02*
D03*
X168500Y57500D02*
D03*
X160000Y55500D02*
D03*
X90000Y56500D02*
D03*
X89500Y67000D02*
D03*
X21000Y59000D02*
D03*
X118000Y40000D02*
D03*
X66000Y50000D02*
D03*
X139500Y53000D02*
D03*
X159000Y44500D02*
D03*
X81500Y73000D02*
D03*
X92500Y48500D02*
D03*
X101000Y38500D02*
D03*
X96500Y42500D02*
D03*
X82000Y52500D02*
D03*
X21000Y56000D02*
D03*
Y53000D02*
D03*
X23500Y57500D02*
D03*
Y54500D02*
D03*
X44000Y54000D02*
D03*
X38000D02*
D03*
X39500Y56500D02*
D03*
X41000Y54000D02*
D03*
X42500Y56500D02*
D03*
X68500D02*
D03*
X66000Y55000D02*
D03*
Y58000D02*
D03*
Y61000D02*
D03*
X68500Y59500D02*
D03*
X106000Y80500D02*
D03*
X103000D02*
D03*
X100000D02*
D03*
X101500Y83500D02*
D03*
X104500D02*
D03*
X108000Y60000D02*
D03*
Y63000D02*
D03*
Y66000D02*
D03*
Y69000D02*
D03*
Y72000D02*
D03*
X124000Y44500D02*
D03*
X109000Y55000D02*
D03*
X122000Y50500D02*
D03*
X126000D02*
D03*
X122000Y54500D02*
D03*
X124000Y52500D02*
D03*
X177000Y58750D02*
D03*
M02*
