G04 Layer_Color=65535*
%FSLAX43Y43*%
%MOMM*%
G71*
G01*
G75*
%ADD83C,0.127*%
%ADD84C,0.254*%
%ADD85C,0.305*%
%ADD86C,0.200*%
G36*
X77948Y126623D02*
X77966Y126620D01*
X77987Y126616D01*
X78010Y126610D01*
X78034Y126603D01*
X78056Y126592D01*
X78058D01*
X78059Y126590D01*
X78066Y126586D01*
X78077Y126579D01*
X78091Y126569D01*
X78107Y126555D01*
X78124Y126540D01*
X78139Y126521D01*
X78155Y126500D01*
X78156Y126497D01*
X78162Y126490D01*
X78168Y126478D01*
X78177Y126459D01*
X78186Y126438D01*
X78197Y126414D01*
X78207Y126386D01*
X78216Y126355D01*
Y126353D01*
X78217Y126351D01*
X78218Y126346D01*
X78220Y126339D01*
X78221Y126331D01*
X78223Y126321D01*
X78225Y126308D01*
X78227Y126294D01*
X78230Y126279D01*
X78231Y126262D01*
X78232Y126242D01*
X78235Y126222D01*
X78237Y126200D01*
Y126177D01*
X78238Y126152D01*
Y126125D01*
Y126124D01*
Y126118D01*
Y126108D01*
Y126097D01*
X78237Y126081D01*
Y126064D01*
X78235Y126046D01*
X78234Y126026D01*
X78230Y125981D01*
X78223Y125935D01*
X78214Y125890D01*
X78208Y125869D01*
X78201Y125847D01*
Y125846D01*
X78200Y125843D01*
X78197Y125838D01*
X78194Y125830D01*
X78192Y125821D01*
X78186Y125811D01*
X78175Y125787D01*
X78161Y125761D01*
X78142Y125733D01*
X78121Y125708D01*
X78096Y125684D01*
X78094D01*
X78093Y125681D01*
X78089Y125678D01*
X78083Y125675D01*
X78076Y125671D01*
X78069Y125666D01*
X78048Y125656D01*
X78022Y125646D01*
X77993Y125636D01*
X77958Y125630D01*
X77920Y125627D01*
X77905D01*
X77896Y125629D01*
X77884Y125630D01*
X77870Y125633D01*
X77855Y125636D01*
X77838Y125640D01*
X77821Y125646D01*
X77802Y125651D01*
X77784Y125660D01*
X77766Y125670D01*
X77748Y125681D01*
X77729Y125695D01*
X77712Y125711D01*
X77697Y125728D01*
X77695Y125729D01*
X77693Y125733D01*
X77688Y125740D01*
X77681Y125752D01*
X77674Y125764D01*
X77667Y125781D01*
X77657Y125801D01*
X77649Y125823D01*
X77640Y125849D01*
X77632Y125878D01*
X77623Y125911D01*
X77616Y125947D01*
X77609Y125987D01*
X77605Y126029D01*
X77602Y126076D01*
X77601Y126125D01*
Y126127D01*
Y126132D01*
Y126142D01*
Y126153D01*
X77602Y126169D01*
Y126186D01*
X77604Y126204D01*
X77605Y126225D01*
X77609Y126269D01*
X77616Y126315D01*
X77625Y126362D01*
X77631Y126383D01*
X77636Y126404D01*
Y126406D01*
X77638Y126408D01*
X77640Y126414D01*
X77643Y126421D01*
X77646Y126431D01*
X77652Y126441D01*
X77663Y126465D01*
X77677Y126490D01*
X77695Y126517D01*
X77717Y126544D01*
X77742Y126566D01*
X77743D01*
X77745Y126569D01*
X77749Y126572D01*
X77755Y126575D01*
X77762Y126580D01*
X77770Y126585D01*
X77791Y126596D01*
X77817Y126606D01*
X77846Y126616D01*
X77881Y126621D01*
X77920Y126624D01*
X77932D01*
X77948Y126623D01*
D02*
G37*
G36*
X77178D02*
X77196Y126620D01*
X77219Y126616D01*
X77244Y126609D01*
X77270Y126600D01*
X77295Y126589D01*
X77296D01*
X77298Y126587D01*
X77306Y126583D01*
X77319Y126575D01*
X77333Y126565D01*
X77350Y126551D01*
X77367Y126535D01*
X77384Y126517D01*
X77398Y126496D01*
X77399Y126493D01*
X77404Y126486D01*
X77409Y126473D01*
X77416Y126458D01*
X77423Y126439D01*
X77429Y126418D01*
X77433Y126394D01*
X77435Y126370D01*
Y126368D01*
Y126359D01*
X77433Y126348D01*
X77430Y126332D01*
X77426Y126314D01*
X77419Y126294D01*
X77411Y126275D01*
X77399Y126255D01*
X77398Y126252D01*
X77394Y126246D01*
X77385Y126236D01*
X77374Y126225D01*
X77360Y126213D01*
X77343Y126198D01*
X77323Y126186D01*
X77299Y126173D01*
X77301D01*
X77303Y126172D01*
X77308Y126170D01*
X77313Y126169D01*
X77329Y126163D01*
X77349Y126155D01*
X77371Y126143D01*
X77394Y126129D01*
X77415Y126111D01*
X77435Y126090D01*
X77436Y126087D01*
X77442Y126079D01*
X77450Y126064D01*
X77459Y126046D01*
X77467Y126024D01*
X77475Y125997D01*
X77481Y125966D01*
X77482Y125932D01*
Y125931D01*
Y125926D01*
Y125919D01*
X77481Y125911D01*
X77480Y125900D01*
X77477Y125887D01*
X77474Y125873D01*
X77471Y125857D01*
X77460Y125823D01*
X77451Y125805D01*
X77443Y125788D01*
X77432Y125770D01*
X77419Y125752D01*
X77405Y125733D01*
X77388Y125716D01*
X77387Y125715D01*
X77384Y125712D01*
X77378Y125708D01*
X77371Y125702D01*
X77363Y125695D01*
X77351Y125688D01*
X77339Y125680D01*
X77323Y125673D01*
X77308Y125664D01*
X77289Y125656D01*
X77271Y125649D01*
X77250Y125642D01*
X77227Y125636D01*
X77203Y125632D01*
X77179Y125629D01*
X77153Y125627D01*
X77140D01*
X77131Y125629D01*
X77120Y125630D01*
X77108Y125632D01*
X77093Y125635D01*
X77078Y125637D01*
X77044Y125646D01*
X77009Y125660D01*
X76991Y125668D01*
X76974Y125678D01*
X76957Y125691D01*
X76940Y125704D01*
X76938Y125705D01*
X76936Y125708D01*
X76931Y125712D01*
X76927Y125718D01*
X76920Y125725D01*
X76913Y125735D01*
X76905Y125744D01*
X76896Y125757D01*
X76888Y125771D01*
X76879Y125785D01*
X76864Y125819D01*
X76851Y125859D01*
X76847Y125880D01*
X76844Y125902D01*
X76964Y125918D01*
Y125916D01*
X76965Y125914D01*
X76967Y125908D01*
X76968Y125901D01*
X76969Y125893D01*
X76972Y125883D01*
X76979Y125862D01*
X76989Y125836D01*
X77002Y125812D01*
X77016Y125790D01*
X77033Y125770D01*
X77036Y125768D01*
X77041Y125763D01*
X77053Y125756D01*
X77067Y125749D01*
X77084Y125740D01*
X77105Y125733D01*
X77129Y125728D01*
X77154Y125726D01*
X77162D01*
X77168Y125728D01*
X77184Y125729D01*
X77203Y125733D01*
X77226Y125740D01*
X77250Y125750D01*
X77274Y125764D01*
X77296Y125784D01*
X77299Y125787D01*
X77306Y125795D01*
X77315Y125808D01*
X77326Y125825D01*
X77337Y125846D01*
X77346Y125870D01*
X77353Y125898D01*
X77356Y125929D01*
Y125931D01*
Y125933D01*
Y125938D01*
X77354Y125943D01*
X77353Y125959D01*
X77349Y125977D01*
X77343Y126000D01*
X77333Y126022D01*
X77319Y126045D01*
X77301Y126066D01*
X77298Y126069D01*
X77291Y126074D01*
X77280Y126083D01*
X77264Y126093D01*
X77244Y126103D01*
X77220Y126111D01*
X77194Y126117D01*
X77164Y126119D01*
X77151D01*
X77141Y126118D01*
X77129Y126117D01*
X77115Y126114D01*
X77098Y126111D01*
X77079Y126107D01*
X77093Y126213D01*
X77100D01*
X77106Y126211D01*
X77124D01*
X77140Y126214D01*
X77158Y126217D01*
X77179Y126221D01*
X77203Y126228D01*
X77226Y126238D01*
X77250Y126251D01*
X77251D01*
X77253Y126252D01*
X77260Y126258D01*
X77270Y126267D01*
X77281Y126280D01*
X77292Y126299D01*
X77302Y126320D01*
X77309Y126344D01*
X77312Y126358D01*
Y126373D01*
Y126375D01*
Y126376D01*
Y126384D01*
X77309Y126396D01*
X77306Y126411D01*
X77301Y126428D01*
X77294Y126447D01*
X77282Y126465D01*
X77267Y126482D01*
X77265Y126483D01*
X77258Y126489D01*
X77248Y126496D01*
X77236Y126504D01*
X77219Y126511D01*
X77199Y126518D01*
X77177Y126524D01*
X77151Y126525D01*
X77140D01*
X77127Y126523D01*
X77110Y126520D01*
X77092Y126514D01*
X77074Y126507D01*
X77054Y126496D01*
X77036Y126482D01*
X77034Y126480D01*
X77029Y126473D01*
X77020Y126463D01*
X77010Y126449D01*
X77000Y126431D01*
X76991Y126408D01*
X76982Y126382D01*
X76976Y126351D01*
X76857Y126372D01*
Y126373D01*
X76858Y126377D01*
X76859Y126383D01*
X76861Y126392D01*
X76864Y126401D01*
X76868Y126413D01*
X76876Y126439D01*
X76890Y126470D01*
X76907Y126502D01*
X76928Y126531D01*
X76955Y126558D01*
X76957Y126559D01*
X76960Y126561D01*
X76964Y126564D01*
X76969Y126568D01*
X76976Y126573D01*
X76986Y126579D01*
X76996Y126585D01*
X77009Y126592D01*
X77037Y126603D01*
X77069Y126614D01*
X77108Y126621D01*
X77127Y126624D01*
X77162D01*
X77178Y126623D01*
D02*
G37*
G36*
X76353Y126635D02*
X76366Y126634D01*
X76382Y126633D01*
X76397Y126631D01*
X76415Y126627D01*
X76453Y126618D01*
X76496Y126606D01*
X76517Y126597D01*
X76537Y126587D01*
X76556Y126575D01*
X76576Y126562D01*
X76577Y126561D01*
X76580Y126559D01*
X76586Y126555D01*
X76593Y126548D01*
X76600Y126541D01*
X76610Y126531D01*
X76620Y126520D01*
X76631Y126509D01*
X76642Y126494D01*
X76654Y126478D01*
X76666Y126461D01*
X76678Y126442D01*
X76687Y126421D01*
X76699Y126400D01*
X76707Y126377D01*
X76716Y126352D01*
X76589Y126322D01*
Y126324D01*
X76587Y126327D01*
X76585Y126332D01*
X76582Y126339D01*
X76579Y126348D01*
X76575Y126359D01*
X76563Y126382D01*
X76549Y126407D01*
X76532Y126432D01*
X76511Y126456D01*
X76489Y126478D01*
X76486Y126480D01*
X76477Y126486D01*
X76463Y126493D01*
X76445Y126503D01*
X76421Y126511D01*
X76394Y126520D01*
X76362Y126525D01*
X76327Y126527D01*
X76315D01*
X76308Y126525D01*
X76298D01*
X76287Y126524D01*
X76260Y126520D01*
X76231Y126514D01*
X76200Y126504D01*
X76167Y126490D01*
X76138Y126472D01*
X76136D01*
X76135Y126469D01*
X76125Y126462D01*
X76112Y126451D01*
X76097Y126434D01*
X76078Y126413D01*
X76062Y126389D01*
X76046Y126359D01*
X76032Y126327D01*
Y126325D01*
X76031Y126322D01*
X76029Y126318D01*
X76028Y126311D01*
X76025Y126303D01*
X76022Y126293D01*
X76018Y126269D01*
X76012Y126241D01*
X76007Y126210D01*
X76004Y126176D01*
X76002Y126139D01*
Y126138D01*
Y126134D01*
Y126127D01*
Y126118D01*
X76004Y126108D01*
Y126096D01*
X76005Y126081D01*
X76007Y126066D01*
X76011Y126032D01*
X76018Y125995D01*
X76026Y125959D01*
X76038Y125922D01*
Y125921D01*
X76039Y125918D01*
X76042Y125914D01*
X76045Y125907D01*
X76053Y125890D01*
X76066Y125870D01*
X76081Y125847D01*
X76101Y125823D01*
X76124Y125802D01*
X76150Y125783D01*
X76152D01*
X76155Y125781D01*
X76159Y125778D01*
X76164Y125775D01*
X76171Y125773D01*
X76180Y125768D01*
X76200Y125760D01*
X76225Y125752D01*
X76253Y125744D01*
X76284Y125739D01*
X76317Y125737D01*
X76327D01*
X76335Y125739D01*
X76345D01*
X76355Y125740D01*
X76380Y125746D01*
X76410Y125753D01*
X76439Y125764D01*
X76470Y125780D01*
X76486Y125788D01*
X76500Y125799D01*
X76501Y125801D01*
X76503Y125802D01*
X76507Y125807D01*
X76513Y125811D01*
X76518Y125818D01*
X76525Y125826D01*
X76534Y125835D01*
X76541Y125846D01*
X76549Y125859D01*
X76559Y125873D01*
X76568Y125887D01*
X76576Y125904D01*
X76583Y125922D01*
X76590Y125942D01*
X76597Y125963D01*
X76603Y125986D01*
X76733Y125953D01*
Y125952D01*
X76731Y125946D01*
X76728Y125938D01*
X76724Y125926D01*
X76720Y125914D01*
X76714Y125898D01*
X76707Y125881D01*
X76699Y125863D01*
X76679Y125823D01*
X76654Y125784D01*
X76638Y125764D01*
X76623Y125744D01*
X76606Y125728D01*
X76586Y125711D01*
X76585Y125709D01*
X76582Y125706D01*
X76575Y125704D01*
X76568Y125698D01*
X76556Y125691D01*
X76545Y125684D01*
X76530Y125677D01*
X76514Y125670D01*
X76496Y125661D01*
X76476Y125654D01*
X76455Y125647D01*
X76432Y125640D01*
X76408Y125635D01*
X76383Y125632D01*
X76356Y125629D01*
X76328Y125627D01*
X76312D01*
X76301Y125629D01*
X76288D01*
X76273Y125630D01*
X76256Y125633D01*
X76236Y125636D01*
X76195Y125643D01*
X76153Y125654D01*
X76111Y125670D01*
X76091Y125680D01*
X76071Y125691D01*
X76070Y125692D01*
X76067Y125694D01*
X76062Y125698D01*
X76056Y125704D01*
X76047Y125709D01*
X76038Y125718D01*
X76026Y125728D01*
X76015Y125739D01*
X76004Y125752D01*
X75991Y125764D01*
X75966Y125797D01*
X75942Y125835D01*
X75921Y125877D01*
Y125878D01*
X75918Y125883D01*
X75916Y125890D01*
X75912Y125898D01*
X75909Y125909D01*
X75905Y125924D01*
X75899Y125939D01*
X75895Y125956D01*
X75891Y125974D01*
X75885Y125995D01*
X75878Y126039D01*
X75873Y126088D01*
X75870Y126139D01*
Y126141D01*
Y126146D01*
Y126155D01*
X75871Y126165D01*
Y126179D01*
X75873Y126193D01*
X75874Y126211D01*
X75877Y126229D01*
X75884Y126270D01*
X75894Y126315D01*
X75908Y126361D01*
X75928Y126404D01*
X75929Y126406D01*
X75930Y126410D01*
X75933Y126416D01*
X75939Y126423D01*
X75945Y126432D01*
X75952Y126444D01*
X75970Y126469D01*
X75994Y126497D01*
X76022Y126525D01*
X76054Y126554D01*
X76093Y126578D01*
X76094Y126579D01*
X76098Y126580D01*
X76104Y126583D01*
X76111Y126587D01*
X76122Y126592D01*
X76133Y126596D01*
X76148Y126602D01*
X76163Y126607D01*
X76180Y126613D01*
X76198Y126618D01*
X76238Y126627D01*
X76283Y126634D01*
X76329Y126637D01*
X76343D01*
X76353Y126635D01*
D02*
G37*
%LPC*%
G36*
X77918Y126525D02*
X77910D01*
X77904Y126524D01*
X77888Y126521D01*
X77870Y126517D01*
X77849Y126509D01*
X77826Y126496D01*
X77815Y126487D01*
X77804Y126479D01*
X77794Y126468D01*
X77784Y126455D01*
Y126454D01*
X77781Y126451D01*
X77779Y126445D01*
X77774Y126438D01*
X77770Y126427D01*
X77764Y126414D01*
X77760Y126399D01*
X77755Y126380D01*
X77749Y126359D01*
X77743Y126335D01*
X77738Y126308D01*
X77733Y126279D01*
X77729Y126245D01*
X77726Y126208D01*
X77725Y126169D01*
X77724Y126125D01*
Y126122D01*
Y126115D01*
Y126103D01*
X77725Y126086D01*
Y126067D01*
X77726Y126045D01*
X77728Y126021D01*
X77731Y125995D01*
X77738Y125940D01*
X77742Y125914D01*
X77748Y125888D01*
X77753Y125864D01*
X77762Y125842D01*
X77770Y125822D01*
X77780Y125805D01*
Y125804D01*
X77783Y125802D01*
X77790Y125792D01*
X77802Y125780D01*
X77818Y125766D01*
X77839Y125752D01*
X77863Y125739D01*
X77890Y125729D01*
X77904Y125728D01*
X77920Y125726D01*
X77928D01*
X77934Y125728D01*
X77948Y125730D01*
X77967Y125736D01*
X77989Y125746D01*
X78013Y125760D01*
X78024Y125768D01*
X78035Y125780D01*
X78046Y125791D01*
X78058Y125805D01*
Y125807D01*
X78060Y125809D01*
X78063Y125814D01*
X78066Y125821D01*
X78072Y125830D01*
X78076Y125843D01*
X78082Y125857D01*
X78087Y125874D01*
X78091Y125895D01*
X78097Y125918D01*
X78103Y125945D01*
X78107Y125973D01*
X78110Y126007D01*
X78113Y126042D01*
X78115Y126081D01*
Y126125D01*
Y126127D01*
Y126128D01*
Y126135D01*
Y126148D01*
X78114Y126165D01*
Y126183D01*
X78113Y126205D01*
X78111Y126229D01*
X78108Y126256D01*
X78101Y126310D01*
X78097Y126337D01*
X78091Y126362D01*
X78086Y126386D01*
X78077Y126408D01*
X78069Y126428D01*
X78059Y126445D01*
Y126447D01*
X78056Y126448D01*
X78053Y126452D01*
X78049Y126458D01*
X78037Y126470D01*
X78021Y126486D01*
X78000Y126500D01*
X77976Y126513D01*
X77963Y126518D01*
X77949Y126523D01*
X77934Y126524D01*
X77918Y126525D01*
D02*
G37*
%LPD*%
D83*
X149200Y58600D02*
G03*
X149200Y58600I-300J0D01*
G01*
Y47600D02*
G03*
X149200Y47600I-300J0D01*
G01*
D84*
X152547Y107100D02*
G03*
X152547Y107100I-447J0D01*
G01*
Y98100D02*
G03*
X152547Y98100I-447J0D01*
G01*
Y80100D02*
G03*
X152547Y80100I-447J0D01*
G01*
Y89100D02*
G03*
X152547Y89100I-447J0D01*
G01*
X158126Y120126D02*
G03*
X158126Y116874I-1626J-1626D01*
G01*
X146126Y120126D02*
G03*
X146126Y116874I-1626J-1626D01*
G01*
X152126Y120126D02*
G03*
X152126Y116874I-1626J-1626D01*
G01*
X164126Y120126D02*
G03*
X164126Y116874I-1626J-1626D01*
G01*
X170405Y56008D02*
G03*
X171675Y56008I635J0D01*
G01*
X88635Y56968D02*
G03*
X88635Y55952I0J-508D01*
G01*
Y76968D02*
G03*
X88635Y75952I0J-508D01*
G01*
X129635Y61968D02*
G03*
X129635Y60952I0J-508D01*
G01*
Y80968D02*
G03*
X129635Y79952I0J-508D01*
G01*
X106032Y43135D02*
G03*
X107048Y43135I508J0D01*
G01*
X106000Y110000D02*
G03*
X106000Y110000I-15000J0D01*
G01*
X40000Y64250D02*
G03*
X40000Y64250I-8000J0D01*
G01*
Y46750D02*
G03*
X40000Y46750I-8000J0D01*
G01*
X57000Y64250D02*
G03*
X57000Y64250I-8000J0D01*
G01*
Y46750D02*
G03*
X57000Y46750I-8000J0D01*
G01*
X65000Y93000D02*
X65000D01*
X65000D02*
X125000D01*
Y33000D02*
Y93000D01*
X65000Y33000D02*
X125000D01*
X65000D02*
Y93000D01*
X146260Y110340D02*
X153000D01*
X146260Y106200D02*
X153000D01*
X146260D02*
Y110340D01*
X153000Y106200D02*
Y110340D01*
X146260Y101340D02*
X153000D01*
X146260Y97200D02*
X153000D01*
X146260D02*
Y101340D01*
X153000Y97200D02*
Y101340D01*
X146260Y83340D02*
X153000D01*
X146260Y79200D02*
X153000D01*
X146260D02*
Y83340D01*
X153000Y79200D02*
Y83340D01*
X146260Y92340D02*
X153000D01*
X146260Y88200D02*
X153000D01*
X146260D02*
Y92340D01*
X153000Y88200D02*
Y92340D01*
X158126Y116874D02*
Y120126D01*
X158500Y120200D02*
Y121216D01*
X146126Y116874D02*
Y120126D01*
X146500Y120200D02*
Y121216D01*
X152126Y116874D02*
Y120126D01*
X152500Y120200D02*
Y121216D01*
X164126Y116874D02*
Y120126D01*
X164500Y120200D02*
Y121216D01*
X170913Y47372D02*
X173072D01*
X169008D02*
Y56008D01*
Y47372D02*
X170913D01*
X173072D02*
Y56008D01*
X171675D02*
X173072D01*
X169008D02*
X170405D01*
X83555Y54555D02*
Y58365D01*
X88635Y54555D02*
Y55952D01*
X83555Y54555D02*
X88635D01*
X83555Y58365D02*
X88635D01*
Y56968D02*
Y58365D01*
X83555Y74555D02*
Y78365D01*
X88635Y74555D02*
Y75952D01*
X83555Y74555D02*
X88635D01*
X83555Y78365D02*
X88635D01*
Y76968D02*
Y78365D01*
X124555Y59555D02*
Y63365D01*
X129635Y59555D02*
Y60952D01*
X124555Y59555D02*
X129635D01*
X124555Y63365D02*
X129635D01*
Y61968D02*
Y63365D01*
X124555Y78555D02*
Y82365D01*
X129635Y78555D02*
Y79952D01*
X124555Y78555D02*
X129635D01*
X124555Y82365D02*
X129635D01*
Y80968D02*
Y82365D01*
X104635Y38055D02*
X108445D01*
X107048Y43135D02*
X108445D01*
Y38055D02*
Y43135D01*
X104635Y38055D02*
Y43135D01*
X106032D01*
X65949Y29200D02*
X72000D01*
Y26800D02*
Y29200D01*
X65949Y26800D02*
Y29200D01*
Y26800D02*
X72000D01*
X86949Y29200D02*
X93000D01*
Y26800D02*
Y29200D01*
X86949Y26800D02*
Y29200D01*
Y26800D02*
X93000D01*
X72949Y29200D02*
X79000D01*
Y26800D02*
Y29200D01*
X72949Y26800D02*
Y29200D01*
Y26800D02*
X79000D01*
X93949Y29200D02*
X100000D01*
Y26800D02*
Y29200D01*
X93949Y26800D02*
Y29200D01*
Y26800D02*
X100000D01*
X79949Y29200D02*
X86000D01*
Y26800D02*
Y29200D01*
X79949Y26800D02*
Y29200D01*
Y26800D02*
X86000D01*
X100949Y29200D02*
X107000D01*
Y26800D02*
Y29200D01*
X100949Y26800D02*
Y29200D01*
Y26800D02*
X107000D01*
X151949Y105200D02*
X158000D01*
Y102800D02*
Y105200D01*
X151949Y102800D02*
Y105200D01*
Y102800D02*
X158000D01*
X151949Y96200D02*
X158000D01*
Y93800D02*
Y96200D01*
X151949Y93800D02*
Y96200D01*
Y93800D02*
X158000D01*
X152000Y84800D02*
X158051D01*
X152000D02*
Y87200D01*
X158051Y84800D02*
Y87200D01*
X152000D02*
X158051D01*
X151949Y78200D02*
X158000D01*
Y75800D02*
Y78200D01*
X151949Y75800D02*
Y78200D01*
Y75800D02*
X158000D01*
X109500Y26800D02*
X115551D01*
X109500D02*
Y29200D01*
X115551Y26800D02*
Y29200D01*
X109500D02*
X115551D01*
X116500Y26800D02*
X122551D01*
X116500D02*
Y29200D01*
X122551Y26800D02*
Y29200D01*
X116500D02*
X122551D01*
X123449D02*
X129500D01*
Y26800D02*
Y29200D01*
X123449Y26800D02*
Y29200D01*
Y26800D02*
X129500D01*
X130449Y29200D02*
X136500D01*
Y26800D02*
Y29200D01*
X130449Y26800D02*
Y29200D01*
Y26800D02*
X136500D01*
X145800Y29449D02*
Y35500D01*
X148200D01*
X145800Y29449D02*
X148200D01*
Y35500D01*
X141300Y29449D02*
Y35500D01*
X143700D01*
X141300Y29449D02*
X143700D01*
Y35500D01*
X164500Y91800D02*
X170551D01*
X164500D02*
Y94200D01*
X170551Y91800D02*
Y94200D01*
X164500D02*
X170551D01*
X164500Y95800D02*
X170551D01*
X164500D02*
Y98200D01*
X170551Y95800D02*
Y98200D01*
X164500D02*
X170551D01*
X164500Y99800D02*
X170551D01*
X164500D02*
Y102200D01*
X170551Y99800D02*
Y102200D01*
X164500D02*
X170551D01*
X164500Y103800D02*
X170551D01*
X164500D02*
Y106200D01*
X170551Y103800D02*
Y106200D01*
X164500D02*
X170551D01*
X164500Y107800D02*
X170551D01*
X164500D02*
Y110200D01*
X170551Y107800D02*
Y110200D01*
X164500D02*
X170551D01*
X170700Y29500D02*
Y35551D01*
X168300Y29500D02*
X170700D01*
X168300Y35551D02*
X170700D01*
X168300Y29500D02*
Y35551D01*
X166200Y29500D02*
Y35551D01*
X163800Y29500D02*
X166200D01*
X163800Y35551D02*
X166200D01*
X163800Y29500D02*
Y35551D01*
X161700Y29500D02*
Y35551D01*
X159300Y29500D02*
X161700D01*
X159300Y35551D02*
X161700D01*
X159300Y29500D02*
Y35551D01*
X157200Y29500D02*
Y35551D01*
X154800Y29500D02*
X157200D01*
X154800Y35551D02*
X157200D01*
X154800Y29500D02*
Y35551D01*
X152700Y29500D02*
Y35551D01*
X150300Y29500D02*
X152700D01*
X150300Y35551D02*
X152700D01*
X150300Y29500D02*
Y35551D01*
X124100Y34300D02*
Y36700D01*
X116900Y34300D02*
X124100D01*
X116900D02*
Y36700D01*
X124100D01*
X152100Y60300D02*
Y62700D01*
X144900Y60300D02*
X152100D01*
X144900D02*
Y62700D01*
X152100D01*
X163100Y49300D02*
Y51700D01*
X155900Y49300D02*
X163100D01*
X155900D02*
Y51700D01*
X163100D01*
X152100Y49300D02*
Y51700D01*
X144900Y49300D02*
X152100D01*
X144900D02*
Y51700D01*
X152100D01*
X129100Y98300D02*
Y100700D01*
X121900Y98300D02*
X129100D01*
X121900D02*
Y100700D01*
X129100D01*
X120100Y98300D02*
Y100700D01*
X112900Y98300D02*
X120100D01*
X112900D02*
Y100700D01*
X120100D01*
X129100Y111800D02*
Y114200D01*
X121900Y111800D02*
X129100D01*
X121900D02*
Y114200D01*
X129100D01*
X120100Y111800D02*
Y114200D01*
X112900Y111800D02*
X120100D01*
X112900D02*
Y114200D01*
X120100D01*
X143800Y72600D02*
X146200D01*
Y65400D02*
Y72600D01*
X143800Y65400D02*
X146200D01*
X143800D02*
Y72600D01*
X140800D02*
X143200D01*
Y65400D02*
Y72600D01*
X140800Y65400D02*
X143200D01*
X140800D02*
Y72600D01*
X141400Y93800D02*
Y96200D01*
X148600D01*
Y93800D02*
Y96200D01*
X141400Y93800D02*
X148600D01*
X89600Y49800D02*
Y52200D01*
X82400Y49800D02*
X89600D01*
X82400D02*
Y52200D01*
X89600D01*
X139400Y102800D02*
Y105200D01*
X146600D01*
Y102800D02*
Y105200D01*
X139400Y102800D02*
X146600D01*
X89100Y69800D02*
Y72200D01*
X81900Y69800D02*
X89100D01*
X81900D02*
Y72200D01*
X89100D01*
X141400Y75800D02*
Y78200D01*
X148600D01*
Y75800D02*
Y78200D01*
X141400Y75800D02*
X148600D01*
X141400Y84800D02*
Y87200D01*
X148600D01*
Y84800D02*
Y87200D01*
X141400Y84800D02*
X148600D01*
X130800Y79100D02*
X133200D01*
Y71900D02*
Y79100D01*
X130800Y71900D02*
X133200D01*
X130800D02*
Y79100D01*
X130550Y60350D02*
X132950D01*
Y53150D02*
Y60350D01*
X130550Y53150D02*
X132950D01*
X130550D02*
Y60350D01*
X163100Y60300D02*
Y62700D01*
X155900Y60300D02*
X163100D01*
X155900D02*
Y62700D01*
X163100D01*
X41744Y27380D02*
Y37540D01*
Y27380D02*
X50761D01*
Y37540D01*
X41744D02*
X50761D01*
X130651Y35396D02*
Y43524D01*
X127222D02*
X130143D01*
X127222Y35396D02*
X130651D01*
X127222D02*
Y43524D01*
X130143D02*
X130651D01*
X79540Y42919D02*
Y51936D01*
X69380Y42919D02*
X79540D01*
X69380D02*
Y51936D01*
X79540D01*
X120540Y66919D02*
Y75936D01*
X110380Y66919D02*
X120540D01*
X110380D02*
Y75936D01*
X120540D01*
Y46919D02*
Y55936D01*
X110380Y46919D02*
X120540D01*
X110380D02*
Y55936D01*
X120540D01*
X79540Y62919D02*
Y71936D01*
X69380Y62919D02*
X79540D01*
X69380D02*
Y71936D01*
X79540D01*
X138000Y54800D02*
X140900D01*
Y56200D01*
X138000D02*
X140900D01*
X138000Y54800D02*
Y56200D01*
Y43800D02*
X140900D01*
Y45200D01*
X138000D02*
X140900D01*
X138000Y43800D02*
Y45200D01*
X131600Y115500D02*
Y122800D01*
X112100Y115500D02*
Y122800D01*
X131600D01*
X112100Y115500D02*
X131600D01*
Y102000D02*
Y109300D01*
X112100Y102000D02*
Y109300D01*
X131600D01*
X112100Y102000D02*
X131600D01*
X97984Y120600D02*
X100016D01*
X99000Y119584D02*
Y121616D01*
X35500Y68556D02*
Y70588D01*
X34484Y69572D02*
X36516D01*
X28500Y40412D02*
Y42444D01*
X27484Y41428D02*
X29516D01*
X52500Y68556D02*
Y70588D01*
X51484Y69572D02*
X53516D01*
X45500Y40412D02*
Y42444D01*
X44484Y41428D02*
X46516D01*
X134000Y115500D02*
X141500D01*
X134000Y122000D02*
X141500D01*
Y115500D02*
Y122000D01*
X134000Y115500D02*
Y122000D01*
X169000Y76500D02*
X175500D01*
X169000Y91000D02*
X175500D01*
X169000Y76500D02*
Y91000D01*
X175500Y76500D02*
Y91000D01*
X170250Y59000D02*
X175750D01*
X170250Y74700D02*
X175750D01*
X170250Y59000D02*
Y74700D01*
X175750Y59000D02*
Y74700D01*
X175250Y60500D02*
X175750D01*
X175250D02*
Y73200D01*
X175750D01*
X144270Y58592D02*
Y60500D01*
Y53515D02*
Y57548D01*
Y60500D02*
Y62625D01*
X141730D02*
X144270D01*
X141730Y53515D02*
Y62625D01*
Y53515D02*
X144270D01*
Y57548D02*
Y58592D01*
X159230Y65500D02*
Y67408D01*
Y68452D02*
Y72485D01*
Y63375D02*
Y65500D01*
Y63375D02*
X161770D01*
Y72485D01*
X159230D02*
X161770D01*
X159230Y67408D02*
Y68452D01*
X165770Y68592D02*
Y70500D01*
Y63515D02*
Y67548D01*
Y70500D02*
Y72625D01*
X163230D02*
X165770D01*
X163230Y63515D02*
Y72625D01*
Y63515D02*
X165770D01*
Y67548D02*
Y68592D01*
X144270Y47592D02*
Y49500D01*
Y42515D02*
Y46548D01*
Y49500D02*
Y51625D01*
X141730D02*
X144270D01*
X141730Y42515D02*
Y51625D01*
Y42515D02*
X144270D01*
Y46548D02*
Y47592D01*
X22000Y102000D02*
X54000D01*
X22000Y86000D02*
X54000D01*
Y102000D01*
X22000Y86000D02*
Y102000D01*
X22125Y109155D02*
Y107631D01*
X23141D01*
X23649D02*
X24156D01*
X23902D01*
Y109155D01*
X23649Y108901D01*
X157037Y64851D02*
X156784Y65105D01*
X156276D01*
X156022Y64851D01*
Y63835D01*
X156276Y63581D01*
X156784D01*
X157037Y63835D01*
X158561Y63581D02*
X157545D01*
X158561Y64597D01*
Y64851D01*
X158307Y65105D01*
X157799D01*
X157545Y64851D01*
X159069Y63581D02*
X159577D01*
X159323D01*
Y65105D01*
X159069Y64851D01*
X102956Y57628D02*
Y59152D01*
X103717D01*
X103971Y58898D01*
Y58390D01*
X103717Y58136D01*
X102956D01*
X103463D02*
X103971Y57628D01*
X104479Y58898D02*
X104733Y59152D01*
X105241D01*
X105495Y58898D01*
Y58644D01*
X105241Y58390D01*
X104987D01*
X105241D01*
X105495Y58136D01*
Y57882D01*
X105241Y57628D01*
X104733D01*
X104479Y57882D01*
X106003Y59152D02*
X107018D01*
Y58898D01*
X106003Y57882D01*
Y57628D01*
X57887Y56055D02*
Y57579D01*
X58648D01*
X58902Y57325D01*
Y56817D01*
X58648Y56563D01*
X57887D01*
X58394D02*
X58902Y56055D01*
X59410Y57325D02*
X59664Y57579D01*
X60172D01*
X60426Y57325D01*
Y57071D01*
X60172Y56817D01*
X59918D01*
X60172D01*
X60426Y56563D01*
Y56309D01*
X60172Y56055D01*
X59664D01*
X59410Y56309D01*
X61949Y57579D02*
X61441Y57325D01*
X60934Y56817D01*
Y56309D01*
X61188Y56055D01*
X61695D01*
X61949Y56309D01*
Y56563D01*
X61695Y56817D01*
X60934D01*
X148476Y29250D02*
Y29758D01*
Y29504D01*
X150000D01*
Y29250D01*
Y29758D01*
X148476Y30520D02*
X150000D01*
X149238D01*
Y31535D01*
X148476D01*
X150000D01*
Y32297D02*
X148730D01*
X149238D01*
Y32043D01*
Y32551D01*
Y32297D01*
X148730D01*
X148476Y32551D01*
X152976Y29250D02*
Y29758D01*
Y29504D01*
X154500D01*
Y29250D01*
Y29758D01*
X152976Y30520D02*
X154500D01*
Y31535D01*
Y32297D02*
X153230D01*
X153738D01*
Y32043D01*
Y32551D01*
Y32297D01*
X153230D01*
X152976Y32551D01*
X157476Y29250D02*
Y29758D01*
Y29504D01*
X159000D01*
Y29250D01*
Y29758D01*
Y30774D02*
Y31281D01*
X158746Y31535D01*
X158238D01*
X157984Y31281D01*
Y30774D01*
X158238Y30520D01*
X158746D01*
X159000Y30774D01*
X157984Y32043D02*
X158746D01*
X159000Y32297D01*
Y33059D01*
X157984D01*
X157730Y33821D02*
X157984D01*
Y33567D01*
Y34074D01*
Y33821D01*
X158746D01*
X159000Y34074D01*
X157730Y35852D02*
X157476Y35598D01*
Y35090D01*
X157730Y34836D01*
X157984D01*
X158238Y35090D01*
Y35598D01*
X158492Y35852D01*
X158746D01*
X159000Y35598D01*
Y35090D01*
X158746Y34836D01*
X161976Y29250D02*
X162992D01*
X163500Y29758D01*
X162992Y30266D01*
X161976D01*
X163500Y31027D02*
Y31535D01*
X163246Y31789D01*
X162738D01*
X162484Y31535D01*
Y31027D01*
X162738Y30774D01*
X163246D01*
X163500Y31027D01*
X162484Y32297D02*
X163246D01*
X163500Y32551D01*
Y33313D01*
X162484D01*
X162230Y34074D02*
X162484D01*
Y33821D01*
Y34328D01*
Y34074D01*
X163246D01*
X163500Y34328D01*
X162230Y36106D02*
X161976Y35852D01*
Y35344D01*
X162230Y35090D01*
X162484D01*
X162738Y35344D01*
Y35852D01*
X162992Y36106D01*
X163246D01*
X163500Y35852D01*
Y35344D01*
X163246Y35090D01*
X166476Y29250D02*
X167492D01*
X168000Y29758D01*
X167492Y30266D01*
X166476D01*
X168000Y30774D02*
Y31281D01*
Y31027D01*
X166984D01*
Y30774D01*
X168000Y32043D02*
X166984D01*
Y32805D01*
X167238Y33059D01*
X168000D01*
X166730Y34582D02*
X166476Y34328D01*
Y33821D01*
X166730Y33567D01*
X166984D01*
X167238Y33821D01*
Y34328D01*
X167492Y34582D01*
X167746D01*
X168000Y34328D01*
Y33821D01*
X167746Y33567D01*
X164516Y114524D02*
X163500D01*
Y113762D01*
X164008Y114016D01*
X164262D01*
X164516Y113762D01*
Y113254D01*
X164262Y113000D01*
X163754D01*
X163500Y113254D01*
X165024Y114524D02*
Y113508D01*
X165531Y113000D01*
X166039Y113508D01*
Y114524D01*
X166547Y112746D02*
X167563D01*
X168071Y114524D02*
Y113000D01*
X169086D01*
X169594Y114524D02*
Y113508D01*
X170102Y113000D01*
X170610Y113508D01*
Y114524D01*
X165630Y108620D02*
X164615D01*
Y107858D01*
X165122Y108112D01*
X165376D01*
X165630Y107858D01*
Y107350D01*
X165376Y107096D01*
X164869D01*
X164615Y107350D01*
X166138Y108620D02*
Y107604D01*
X166646Y107096D01*
X167154Y107604D01*
Y108620D01*
X167662Y107096D02*
X168423D01*
X168677Y107350D01*
X168423Y107604D01*
X167916D01*
X167662Y107858D01*
X167916Y108112D01*
X168677D01*
X169947Y107096D02*
X169439D01*
X169185Y107350D01*
Y107858D01*
X169439Y108112D01*
X169947D01*
X170201Y107858D01*
Y107604D01*
X169185D01*
X170709Y107096D02*
Y108112D01*
X171470D01*
X171724Y107858D01*
Y107096D01*
X164615Y103083D02*
X165122D01*
X164869D01*
Y104607D01*
X164615Y104353D01*
X166900Y103083D02*
X165884D01*
X166900Y104099D01*
Y104353D01*
X166646Y104607D01*
X166138D01*
X165884Y104353D01*
X167408Y103083D02*
Y104607D01*
X167916Y104099D01*
X168423Y104607D01*
Y103083D01*
X168931Y104353D02*
X169185Y104607D01*
X169693D01*
X169947Y104353D01*
Y104099D01*
X169693Y103845D01*
X169439D01*
X169693D01*
X169947Y103591D01*
Y103337D01*
X169693Y103083D01*
X169185D01*
X168931Y103337D01*
X164615Y99095D02*
X165122D01*
X164869D01*
Y100619D01*
X164615Y100365D01*
X166900Y99095D02*
X165884D01*
X166900Y100111D01*
Y100365D01*
X166646Y100619D01*
X166138D01*
X165884Y100365D01*
X167408Y99095D02*
Y100619D01*
X167916Y100111D01*
X168423Y100619D01*
Y99095D01*
X168931D02*
X169439D01*
X169185D01*
Y100619D01*
X168931Y100365D01*
X164615Y95082D02*
X165122D01*
X164869D01*
Y96606D01*
X164615Y96352D01*
X166900Y95082D02*
X165884D01*
X166900Y96098D01*
Y96352D01*
X166646Y96606D01*
X166138D01*
X165884Y96352D01*
X167408Y96606D02*
Y95590D01*
X167916Y95082D01*
X168423Y95590D01*
Y96606D01*
X139730Y30266D02*
X139476Y30012D01*
Y29504D01*
X139730Y29250D01*
X140746D01*
X141000Y29504D01*
Y30012D01*
X140746Y30266D01*
X140238D01*
Y29758D01*
X141000Y30774D02*
X139476D01*
X141000Y31789D01*
X139476D01*
Y32297D02*
X141000D01*
Y33059D01*
X140746Y33313D01*
X139730D01*
X139476Y33059D01*
Y32297D01*
X141254Y33821D02*
Y34836D01*
X139476Y35344D02*
X141000D01*
Y36360D01*
X139476Y36868D02*
X140492D01*
X141000Y37375D01*
X140492Y37883D01*
X139476D01*
X144230Y30266D02*
X143976Y30012D01*
Y29504D01*
X144230Y29250D01*
X145246D01*
X145500Y29504D01*
Y30012D01*
X145246Y30266D01*
X144738D01*
Y29758D01*
X145500Y30774D02*
X144484D01*
Y31535D01*
X144738Y31789D01*
X145500D01*
X143976Y33313D02*
X145500D01*
Y32551D01*
X145246Y32297D01*
X144738D01*
X144484Y32551D01*
Y33313D01*
X144230Y34836D02*
X143976Y34582D01*
Y34074D01*
X144230Y33821D01*
X144484D01*
X144738Y34074D01*
Y34582D01*
X144992Y34836D01*
X145246D01*
X145500Y34582D01*
Y34074D01*
X145246Y33821D01*
X165379Y117137D02*
Y118660D01*
X166141D01*
X166395Y118406D01*
Y117899D01*
X166141Y117645D01*
X165379D01*
X165887D02*
X166395Y117137D01*
X167919D02*
X166903D01*
X167919Y118152D01*
Y118406D01*
X167665Y118660D01*
X167157D01*
X166903Y118406D01*
X168426D02*
X168680Y118660D01*
X169188D01*
X169442Y118406D01*
Y118152D01*
X169188Y117899D01*
X168934D01*
X169188D01*
X169442Y117645D01*
Y117391D01*
X169188Y117137D01*
X168680D01*
X168426Y117391D01*
X153400Y117118D02*
Y118642D01*
X154162D01*
X154416Y118388D01*
Y117880D01*
X154162Y117626D01*
X153400D01*
X153908D02*
X154416Y117118D01*
X155685D02*
Y118642D01*
X154924Y117880D01*
X155939D01*
X147391Y117117D02*
Y118641D01*
X148152D01*
X148406Y118387D01*
Y117879D01*
X148152Y117625D01*
X147391D01*
X147898D02*
X148406Y117117D01*
X148914Y118387D02*
X149168Y118641D01*
X149676D01*
X149930Y118387D01*
Y118133D01*
X149676Y117879D01*
X149422D01*
X149676D01*
X149930Y117625D01*
Y117371D01*
X149676Y117117D01*
X149168D01*
X148914Y117371D01*
X142650Y42627D02*
Y44151D01*
X143412D01*
X143666Y43897D01*
Y43389D01*
X143412Y43135D01*
X142650D01*
X143158D02*
X143666Y42627D01*
X145190D02*
X144174D01*
X145190Y43643D01*
Y43897D01*
X144936Y44151D01*
X144428D01*
X144174Y43897D01*
X159385Y117127D02*
Y118651D01*
X160147D01*
X160401Y118397D01*
Y117889D01*
X160147Y117635D01*
X159385D01*
X159893D02*
X160401Y117127D01*
X160909D02*
X161416D01*
X161162D01*
Y118651D01*
X160909Y118397D01*
X160323Y123621D02*
Y122098D01*
X161085D01*
X161339Y122352D01*
Y123367D01*
X161085Y123621D01*
X160323D01*
X162863Y123367D02*
X162609Y123621D01*
X162101D01*
X161847Y123367D01*
Y123113D01*
X162101Y122860D01*
X162609D01*
X162863Y122606D01*
Y122352D01*
X162609Y122098D01*
X162101D01*
X161847Y122352D01*
X164132Y122098D02*
Y123621D01*
X163370Y122860D01*
X164386D01*
X148327Y123629D02*
Y122106D01*
X149088D01*
X149342Y122360D01*
Y123375D01*
X149088Y123629D01*
X148327D01*
X150866Y123375D02*
X150612Y123629D01*
X150104D01*
X149850Y123375D01*
Y123121D01*
X150104Y122868D01*
X150612D01*
X150866Y122614D01*
Y122360D01*
X150612Y122106D01*
X150104D01*
X149850Y122360D01*
X151374Y123375D02*
X151628Y123629D01*
X152135D01*
X152389Y123375D01*
Y123121D01*
X152135Y122868D01*
X151881D01*
X152135D01*
X152389Y122614D01*
Y122360D01*
X152135Y122106D01*
X151628D01*
X151374Y122360D01*
X142315Y123621D02*
Y122098D01*
X143077D01*
X143330Y122352D01*
Y123367D01*
X143077Y123621D01*
X142315D01*
X144854Y123367D02*
X144600Y123621D01*
X144092D01*
X143838Y123367D01*
Y123113D01*
X144092Y122860D01*
X144600D01*
X144854Y122606D01*
Y122352D01*
X144600Y122098D01*
X144092D01*
X143838Y122352D01*
X146377Y122098D02*
X145362D01*
X146377Y123113D01*
Y123367D01*
X146124Y123621D01*
X145616D01*
X145362Y123367D01*
X154330Y123620D02*
Y122096D01*
X155092D01*
X155346Y122350D01*
Y123366D01*
X155092Y123620D01*
X154330D01*
X156870Y123366D02*
X156616Y123620D01*
X156108D01*
X155854Y123366D01*
Y123112D01*
X156108Y122858D01*
X156616D01*
X156870Y122604D01*
Y122350D01*
X156616Y122096D01*
X156108D01*
X155854Y122350D01*
X157377Y122096D02*
X157885D01*
X157631D01*
Y123620D01*
X157377Y123366D01*
X146262Y91524D02*
X145754D01*
X145500Y91270D01*
Y90254D01*
X145754Y90000D01*
X146262D01*
X146516Y90254D01*
Y91270D01*
X146262Y91524D01*
X147024Y89492D02*
Y91016D01*
X147785D01*
X148039Y90762D01*
Y90254D01*
X147785Y90000D01*
X147024D01*
X148801Y91270D02*
Y91016D01*
X148547D01*
X149055D01*
X148801D01*
Y90254D01*
X149055Y90000D01*
X150071D02*
X150578D01*
X150832Y90254D01*
Y90762D01*
X150578Y91016D01*
X150071D01*
X149817Y90762D01*
Y90254D01*
X150071Y90000D01*
X152102D02*
Y91524D01*
X151340Y90762D01*
X152356D01*
X146262Y82524D02*
X145754D01*
X145500Y82270D01*
Y81254D01*
X145754Y81000D01*
X146262D01*
X146516Y81254D01*
Y82270D01*
X146262Y82524D01*
X147024Y80492D02*
Y82016D01*
X147785D01*
X148039Y81762D01*
Y81254D01*
X147785Y81000D01*
X147024D01*
X148801Y82270D02*
Y82016D01*
X148547D01*
X149055D01*
X148801D01*
Y81254D01*
X149055Y81000D01*
X150071D02*
X150578D01*
X150832Y81254D01*
Y81762D01*
X150578Y82016D01*
X150071D01*
X149817Y81762D01*
Y81254D01*
X150071Y81000D01*
X151340Y82270D02*
X151594Y82524D01*
X152102D01*
X152356Y82270D01*
Y82016D01*
X152102Y81762D01*
X151848D01*
X152102D01*
X152356Y81508D01*
Y81254D01*
X152102Y81000D01*
X151594D01*
X151340Y81254D01*
X178666Y29635D02*
X178412Y29889D01*
X177904D01*
X177650Y29635D01*
Y29381D01*
X177904Y29127D01*
X178412D01*
X178666Y28873D01*
Y28619D01*
X178412Y28365D01*
X177904D01*
X177650Y28619D01*
X179936Y28365D02*
Y29889D01*
X179174Y29127D01*
X180190D01*
X178666Y125635D02*
X178412Y125889D01*
X177904D01*
X177650Y125635D01*
Y125381D01*
X177904Y125127D01*
X178412D01*
X178666Y124873D01*
Y124619D01*
X178412Y124366D01*
X177904D01*
X177650Y124619D01*
X179174Y125635D02*
X179428Y125889D01*
X179936D01*
X180190Y125635D01*
Y125381D01*
X179936Y125127D01*
X179682D01*
X179936D01*
X180190Y124873D01*
Y124619D01*
X179936Y124366D01*
X179428D01*
X179174Y124619D01*
X20666Y125635D02*
X20412Y125889D01*
X19904D01*
X19650Y125635D01*
Y125381D01*
X19904Y125127D01*
X20412D01*
X20666Y124873D01*
Y124619D01*
X20412Y124366D01*
X19904D01*
X19650Y124619D01*
X22190Y124366D02*
X21174D01*
X22190Y125381D01*
Y125635D01*
X21936Y125889D01*
X21428D01*
X21174Y125635D01*
X20666Y29135D02*
X20412Y29389D01*
X19904D01*
X19650Y29135D01*
Y28881D01*
X19904Y28627D01*
X20412D01*
X20666Y28373D01*
Y28119D01*
X20412Y27865D01*
X19904D01*
X19650Y28119D01*
X21174Y27865D02*
X21682D01*
X21428D01*
Y29389D01*
X21174Y29135D01*
X102916Y51174D02*
X102662Y51428D01*
X102155D01*
X101901Y51174D01*
Y50159D01*
X102155Y49905D01*
X102662D01*
X102916Y50159D01*
X103424Y51174D02*
X103678Y51428D01*
X104186D01*
X104440Y51174D01*
Y50920D01*
X104186Y50666D01*
X103932D01*
X104186D01*
X104440Y50412D01*
Y50159D01*
X104186Y49905D01*
X103678D01*
X103424Y50159D01*
X105963Y49905D02*
X104948D01*
X105963Y50920D01*
Y51174D01*
X105709Y51428D01*
X105202D01*
X104948Y51174D01*
X102916Y56178D02*
X102662Y56432D01*
X102155D01*
X101901Y56178D01*
Y55162D01*
X102155Y54908D01*
X102662D01*
X102916Y55162D01*
X103424Y56178D02*
X103678Y56432D01*
X104186D01*
X104440Y56178D01*
Y55924D01*
X104186Y55670D01*
X103932D01*
X104186D01*
X104440Y55416D01*
Y55162D01*
X104186Y54908D01*
X103678D01*
X103424Y55162D01*
X104948Y54908D02*
X105455D01*
X105202D01*
Y56432D01*
X104948Y56178D01*
X64109Y46683D02*
X63855Y46937D01*
X63348D01*
X63094Y46683D01*
Y45668D01*
X63348Y45414D01*
X63855D01*
X64109Y45668D01*
X65633Y45414D02*
X64617D01*
X65633Y46429D01*
Y46683D01*
X65379Y46937D01*
X64871D01*
X64617Y46683D01*
X66141Y45668D02*
X66395Y45414D01*
X66902D01*
X67156Y45668D01*
Y46683D01*
X66902Y46937D01*
X66395D01*
X66141Y46683D01*
Y46429D01*
X66395Y46176D01*
X67156D01*
X59105Y46683D02*
X58852Y46937D01*
X58344D01*
X58090Y46683D01*
Y45668D01*
X58344Y45414D01*
X58852D01*
X59105Y45668D01*
X60629Y45414D02*
X59613D01*
X60629Y46429D01*
Y46683D01*
X60375Y46937D01*
X59867D01*
X59613Y46683D01*
X61137D02*
X61391Y46937D01*
X61899D01*
X62152Y46683D01*
Y46429D01*
X61899Y46176D01*
X62152Y45922D01*
Y45668D01*
X61899Y45414D01*
X61391D01*
X61137Y45668D01*
Y45922D01*
X61391Y46176D01*
X61137Y46429D01*
Y46683D01*
X61391Y46176D02*
X61899D01*
X69498Y78137D02*
Y79661D01*
X70006Y79153D01*
X70514Y79661D01*
Y78137D01*
X72038D02*
X71022D01*
X72038Y79153D01*
Y79407D01*
X71784Y79661D01*
X71276D01*
X71022Y79407D01*
X110516Y62126D02*
Y63650D01*
X111024Y63142D01*
X111532Y63650D01*
Y62126D01*
X112040Y63396D02*
X112293Y63650D01*
X112801D01*
X113055Y63396D01*
Y63142D01*
X112801Y62888D01*
X112547D01*
X112801D01*
X113055Y62634D01*
Y62380D01*
X112801Y62126D01*
X112293D01*
X112040Y62380D01*
X110516Y82133D02*
Y83657D01*
X111024Y83149D01*
X111532Y83657D01*
Y82133D01*
X112801D02*
Y83657D01*
X112040Y82895D01*
X113055D01*
X131734Y50480D02*
X131988Y50226D01*
X132496D01*
X132750Y50480D01*
Y51496D01*
X132496Y51750D01*
X131988D01*
X131734Y51496D01*
X131226Y51750D02*
X130719D01*
X130973D01*
Y50226D01*
X131226Y50480D01*
X128941Y51750D02*
X129957D01*
X128941Y50734D01*
Y50480D01*
X129195Y50226D01*
X129703D01*
X129957Y50480D01*
X131943Y81248D02*
X131689Y81502D01*
X131182D01*
X130928Y81248D01*
Y80232D01*
X131182Y79978D01*
X131689D01*
X131943Y80232D01*
X132451Y79978D02*
X132959D01*
X132705D01*
Y81502D01*
X132451Y81248D01*
X134482Y79978D02*
Y81502D01*
X133721Y80740D01*
X134736D01*
X142532Y89368D02*
X142278Y89622D01*
X141770D01*
X141516Y89368D01*
Y88352D01*
X141770Y88098D01*
X142278D01*
X142532Y88352D01*
X143040Y88098D02*
X143547D01*
X143293D01*
Y89622D01*
X143040Y89368D01*
X144309D02*
X144563Y89622D01*
X145071D01*
X145325Y89368D01*
Y89114D01*
X145071Y88860D01*
X144817D01*
X145071D01*
X145325Y88606D01*
Y88352D01*
X145071Y88098D01*
X144563D01*
X144309Y88352D01*
X142532Y80351D02*
X142278Y80605D01*
X141770D01*
X141516Y80351D01*
Y79335D01*
X141770Y79081D01*
X142278D01*
X142532Y79335D01*
X143040Y79081D02*
X143547D01*
X143293D01*
Y80605D01*
X143040Y80351D01*
X144309Y79081D02*
X144817D01*
X144563D01*
Y80605D01*
X144309Y80351D01*
X83043Y74371D02*
X82789Y74625D01*
X82281D01*
X82027Y74371D01*
Y73355D01*
X82281Y73101D01*
X82789D01*
X83043Y73355D01*
X83551Y73101D02*
X84059D01*
X83805D01*
Y74625D01*
X83551Y74371D01*
X84821D02*
X85074Y74625D01*
X85582D01*
X85836Y74371D01*
Y73355D01*
X85582Y73101D01*
X85074D01*
X84821Y73355D01*
Y74371D01*
X140532Y107351D02*
X140278Y107605D01*
X139770D01*
X139516Y107351D01*
Y106335D01*
X139770Y106081D01*
X140278D01*
X140532Y106335D01*
X141040D02*
X141293Y106081D01*
X141801D01*
X142055Y106335D01*
Y107351D01*
X141801Y107605D01*
X141293D01*
X141040Y107351D01*
Y107097D01*
X141293Y106843D01*
X142055D01*
X83552Y54346D02*
X83299Y54600D01*
X82791D01*
X82537Y54346D01*
Y53331D01*
X82791Y53077D01*
X83299D01*
X83552Y53331D01*
X84060Y54346D02*
X84314Y54600D01*
X84822D01*
X85076Y54346D01*
Y54092D01*
X84822Y53838D01*
X85076Y53584D01*
Y53331D01*
X84822Y53077D01*
X84314D01*
X84060Y53331D01*
Y53584D01*
X84314Y53838D01*
X84060Y54092D01*
Y54346D01*
X84314Y53838D02*
X84822D01*
X142532Y98359D02*
X142278Y98613D01*
X141770D01*
X141516Y98359D01*
Y97344D01*
X141770Y97090D01*
X142278D01*
X142532Y97344D01*
X143040Y98613D02*
X144055D01*
Y98359D01*
X143040Y97344D01*
Y97090D01*
X28142Y126397D02*
Y125381D01*
X28650Y124873D01*
X29158Y125381D01*
Y126397D01*
X29920Y124873D02*
X30428D01*
X30682Y125127D01*
Y125635D01*
X30428Y125889D01*
X29920D01*
X29666Y125635D01*
Y125127D01*
X29920Y124873D01*
X31190Y125889D02*
Y125127D01*
X31443Y124873D01*
X32205D01*
Y125889D01*
X32967Y126143D02*
Y125889D01*
X32713D01*
X33221D01*
X32967D01*
Y125127D01*
X33221Y124873D01*
X33983Y125635D02*
X34998D01*
X35506Y124873D02*
X36014D01*
X35760D01*
Y126397D01*
X35506Y126143D01*
X68143Y126397D02*
Y125381D01*
X68650Y124873D01*
X69158Y125381D01*
Y126397D01*
X69920Y124873D02*
X70428D01*
X70682Y125127D01*
Y125635D01*
X70428Y125889D01*
X69920D01*
X69666Y125635D01*
Y125127D01*
X69920Y124873D01*
X71190Y125889D02*
Y125127D01*
X71443Y124873D01*
X72205D01*
Y125889D01*
X72967Y126143D02*
Y125889D01*
X72713D01*
X73221D01*
X72967D01*
Y125127D01*
X73221Y124873D01*
X73983Y125635D02*
X74998D01*
X74490Y126143D02*
Y125127D01*
X75506Y124873D02*
X76014D01*
X75760D01*
Y126397D01*
X75506Y126143D01*
X57143Y30397D02*
Y29381D01*
X57650Y28874D01*
X58158Y29381D01*
Y30397D01*
X58666Y28874D02*
X59174D01*
X58920D01*
Y29889D01*
X58666D01*
X59936Y28874D02*
Y29889D01*
X60697D01*
X60951Y29635D01*
Y28874D01*
X61459Y29635D02*
X62475D01*
X62983Y28874D02*
X63490D01*
X63237D01*
Y30397D01*
X62983Y30143D01*
X28142Y30397D02*
Y29381D01*
X28650Y28874D01*
X29158Y29381D01*
Y30397D01*
X29666Y28874D02*
X30174D01*
X29920D01*
Y29889D01*
X29666D01*
X30936Y28874D02*
Y29889D01*
X31697D01*
X31951Y29635D01*
Y28874D01*
X32459Y29635D02*
X33475D01*
X32967Y30143D02*
Y29127D01*
X33983Y28874D02*
X34490D01*
X34237D01*
Y30397D01*
X33983Y30143D01*
X145409Y50808D02*
Y49539D01*
X145663Y49285D01*
X146171D01*
X146424Y49539D01*
Y50808D01*
X146932Y50554D02*
X147186Y50808D01*
X147694D01*
X147948Y50554D01*
Y50300D01*
X147694Y50047D01*
X147440D01*
X147694D01*
X147948Y49793D01*
Y49539D01*
X147694Y49285D01*
X147186D01*
X146932Y49539D01*
X145410Y61814D02*
Y60545D01*
X145664Y60291D01*
X146172D01*
X146426Y60545D01*
Y61814D01*
X147949Y60291D02*
X146934D01*
X147949Y61306D01*
Y61560D01*
X147695Y61814D01*
X147187D01*
X146934Y61560D01*
X167878Y58416D02*
Y57146D01*
X168132Y56892D01*
X168640D01*
X168893Y57146D01*
Y58416D01*
X169401Y56892D02*
X169909D01*
X169655D01*
Y58416D01*
X169401Y58162D01*
X131750Y30000D02*
Y31524D01*
X132258Y31016D01*
X132766Y31524D01*
Y30000D01*
X134035D02*
Y31524D01*
X133274Y30762D01*
X134289D01*
X124500Y30000D02*
Y31524D01*
X125008Y31016D01*
X125516Y31524D01*
Y30000D01*
X126024Y31270D02*
X126277Y31524D01*
X126785D01*
X127039Y31270D01*
Y31016D01*
X126785Y30762D01*
X126531D01*
X126785D01*
X127039Y30508D01*
Y30254D01*
X126785Y30000D01*
X126277D01*
X126024Y30254D01*
X118250Y30000D02*
Y31524D01*
X118758Y31016D01*
X119266Y31524D01*
Y30000D01*
X120789D02*
X119774D01*
X120789Y31016D01*
Y31270D01*
X120535Y31524D01*
X120027D01*
X119774Y31270D01*
X111000Y30000D02*
Y31524D01*
X111508Y31016D01*
X112016Y31524D01*
Y30000D01*
X112524D02*
X113031D01*
X112777D01*
Y31524D01*
X112524Y31270D01*
X153085Y80365D02*
X152832Y80619D01*
X152324D01*
X152070Y80365D01*
Y80111D01*
X152324Y79857D01*
X152832D01*
X153085Y79603D01*
Y79350D01*
X152832Y79096D01*
X152324D01*
X152070Y79350D01*
X154355Y79096D02*
Y80619D01*
X153593Y79857D01*
X154609D01*
X153136Y89357D02*
X152882Y89611D01*
X152375D01*
X152121Y89357D01*
Y89103D01*
X152375Y88849D01*
X152882D01*
X153136Y88595D01*
Y88341D01*
X152882Y88087D01*
X152375D01*
X152121Y88341D01*
X153644Y89357D02*
X153898Y89611D01*
X154406D01*
X154660Y89357D01*
Y89103D01*
X154406Y88849D01*
X154152D01*
X154406D01*
X154660Y88595D01*
Y88341D01*
X154406Y88087D01*
X153898D01*
X153644Y88341D01*
X153085Y98348D02*
X152832Y98602D01*
X152324D01*
X152070Y98348D01*
Y98094D01*
X152324Y97841D01*
X152832D01*
X153085Y97587D01*
Y97333D01*
X152832Y97079D01*
X152324D01*
X152070Y97333D01*
X154609Y97079D02*
X153593D01*
X154609Y98094D01*
Y98348D01*
X154355Y98602D01*
X153847D01*
X153593Y98348D01*
X153085Y107365D02*
X152832Y107619D01*
X152324D01*
X152070Y107365D01*
Y107111D01*
X152324Y106858D01*
X152832D01*
X153085Y106604D01*
Y106350D01*
X152832Y106096D01*
X152324D01*
X152070Y106350D01*
X153593Y106096D02*
X154101D01*
X153847D01*
Y107619D01*
X153593Y107365D01*
X102000Y31524D02*
Y30508D01*
X102508Y30000D01*
X103016Y30508D01*
Y31524D01*
X103777Y30000D02*
X104285D01*
X104539Y30254D01*
Y30762D01*
X104285Y31016D01*
X103777D01*
X103524Y30762D01*
Y30254D01*
X103777Y30000D01*
X105047Y31016D02*
Y30254D01*
X105301Y30000D01*
X106063D01*
Y31016D01*
X106824Y31270D02*
Y31016D01*
X106571D01*
X107078D01*
X106824D01*
Y30254D01*
X107078Y30000D01*
X80000Y31524D02*
Y30508D01*
X80508Y30000D01*
X81016Y30508D01*
Y31524D01*
X81524Y30000D02*
X82031D01*
X81777D01*
Y31016D01*
X81524D01*
X82793Y30000D02*
Y31016D01*
X83555D01*
X83809Y30762D01*
Y30000D01*
X95000Y31524D02*
Y30000D01*
X96016D01*
X96777D02*
X97285D01*
X97539Y30254D01*
Y30762D01*
X97285Y31016D01*
X96777D01*
X96524Y30762D01*
Y30254D01*
X96777Y30000D01*
X98047Y31016D02*
Y30254D01*
X98301Y30000D01*
X99063D01*
Y31016D01*
X99824Y31270D02*
Y31016D01*
X99571D01*
X100078D01*
X99824D01*
Y30254D01*
X100078Y30000D01*
X74000Y31524D02*
Y30000D01*
X75016D01*
X75524D02*
X76031D01*
X75777D01*
Y31016D01*
X75524D01*
X76793Y30000D02*
Y31016D01*
X77555D01*
X77809Y30762D01*
Y30000D01*
X87016Y31270D02*
X86762Y31524D01*
X86254D01*
X86000Y31270D01*
Y30254D01*
X86254Y30000D01*
X86762D01*
X87016Y30254D01*
Y30762D01*
X86508D01*
X87524Y30000D02*
Y31524D01*
X88539Y30000D01*
Y31524D01*
X89047D02*
Y30000D01*
X89809D01*
X90063Y30254D01*
Y31270D01*
X89809Y31524D01*
X89047D01*
X90824Y30000D02*
X91332D01*
X91586Y30254D01*
Y30762D01*
X91332Y31016D01*
X90824D01*
X90571Y30762D01*
Y30254D01*
X90824Y30000D01*
X92094Y31016D02*
Y30254D01*
X92348Y30000D01*
X93110D01*
Y31016D01*
X93871Y31270D02*
Y31016D01*
X93618D01*
X94125D01*
X93871D01*
Y30254D01*
X94125Y30000D01*
X66016Y31270D02*
X65762Y31524D01*
X65254D01*
X65000Y31270D01*
Y30254D01*
X65254Y30000D01*
X65762D01*
X66016Y30254D01*
Y30762D01*
X65508D01*
X66524Y30000D02*
Y31524D01*
X67539Y30000D01*
Y31524D01*
X68047D02*
Y30000D01*
X68809D01*
X69063Y30254D01*
Y31270D01*
X68809Y31524D01*
X68047D01*
X69571Y30000D02*
X70078D01*
X69824D01*
Y31016D01*
X69571D01*
X70840Y30000D02*
Y31016D01*
X71602D01*
X71856Y30762D01*
Y30000D01*
X113970Y84633D02*
Y86156D01*
X114732D01*
X114985Y85902D01*
Y85395D01*
X114732Y85141D01*
X113970D01*
X114478D02*
X114985Y84633D01*
X115493Y85902D02*
X115747Y86156D01*
X116255D01*
X116509Y85902D01*
Y85648D01*
X116255Y85395D01*
X116001D01*
X116255D01*
X116509Y85141D01*
Y84887D01*
X116255Y84633D01*
X115747D01*
X115493Y84887D01*
X117017D02*
X117271Y84633D01*
X117779D01*
X118032Y84887D01*
Y85902D01*
X117779Y86156D01*
X117271D01*
X117017Y85902D01*
Y85648D01*
X117271Y85395D01*
X118032D01*
X72949Y80620D02*
Y82143D01*
X73711D01*
X73964Y81889D01*
Y81381D01*
X73711Y81127D01*
X72949D01*
X73457D02*
X73964Y80620D01*
X74472Y81889D02*
X74726Y82143D01*
X75234D01*
X75488Y81889D01*
Y81635D01*
X75234Y81381D01*
X74980D01*
X75234D01*
X75488Y81127D01*
Y80874D01*
X75234Y80620D01*
X74726D01*
X74472Y80874D01*
X75996Y81889D02*
X76250Y82143D01*
X76758D01*
X77011Y81889D01*
Y81635D01*
X76758Y81381D01*
X77011Y81127D01*
Y80874D01*
X76758Y80620D01*
X76250D01*
X75996Y80874D01*
Y81127D01*
X76250Y81381D01*
X75996Y81635D01*
Y81889D01*
X76250Y81381D02*
X76758D01*
X113968Y64622D02*
Y66145D01*
X114729D01*
X114983Y65891D01*
Y65383D01*
X114729Y65129D01*
X113968D01*
X114475D02*
X114983Y64622D01*
X115491Y65891D02*
X115745Y66145D01*
X116253D01*
X116507Y65891D01*
Y65637D01*
X116253Y65383D01*
X115999D01*
X116253D01*
X116507Y65129D01*
Y64876D01*
X116253Y64622D01*
X115745D01*
X115491Y64876D01*
X118030Y66145D02*
X117015D01*
Y65383D01*
X117522Y65637D01*
X117776D01*
X118030Y65383D01*
Y64876D01*
X117776Y64622D01*
X117269D01*
X117015Y64876D01*
X72950Y60626D02*
Y62149D01*
X73712D01*
X73966Y61895D01*
Y61388D01*
X73712Y61134D01*
X72950D01*
X73458D02*
X73966Y60626D01*
X74474Y61895D02*
X74727Y62149D01*
X75235D01*
X75489Y61895D01*
Y61641D01*
X75235Y61388D01*
X74981D01*
X75235D01*
X75489Y61134D01*
Y60880D01*
X75235Y60626D01*
X74727D01*
X74474Y60880D01*
X76759Y60626D02*
Y62149D01*
X75997Y61388D01*
X77013D01*
X117968Y39631D02*
Y41155D01*
X118730D01*
X118983Y40901D01*
Y40393D01*
X118730Y40139D01*
X117968D01*
X118476D02*
X118983Y39631D01*
X119491Y40901D02*
X119745Y41155D01*
X120253D01*
X120507Y40901D01*
Y40647D01*
X120253Y40393D01*
X119999D01*
X120253D01*
X120507Y40139D01*
Y39885D01*
X120253Y39631D01*
X119745D01*
X119491Y39885D01*
X121015Y40901D02*
X121269Y41155D01*
X121777D01*
X122030Y40901D01*
Y40647D01*
X121777Y40393D01*
X121523D01*
X121777D01*
X122030Y40139D01*
Y39885D01*
X121777Y39631D01*
X121269D01*
X121015Y39885D01*
X126958Y35637D02*
Y37161D01*
X127720D01*
X127974Y36907D01*
Y36399D01*
X127720Y36145D01*
X126958D01*
X127466D02*
X127974Y35637D01*
X128482Y36907D02*
X128735Y37161D01*
X129243D01*
X129497Y36907D01*
Y36653D01*
X129243Y36399D01*
X128989D01*
X129243D01*
X129497Y36145D01*
Y35891D01*
X129243Y35637D01*
X128735D01*
X128482Y35891D01*
X131021Y35637D02*
X130005D01*
X131021Y36653D01*
Y36907D01*
X130767Y37161D01*
X130259D01*
X130005Y36907D01*
X166898Y47050D02*
Y48574D01*
X167660D01*
X167914Y48320D01*
Y47812D01*
X167660Y47558D01*
X166898D01*
X167406D02*
X167914Y47050D01*
X168422Y48320D02*
X168676Y48574D01*
X169183D01*
X169437Y48320D01*
Y48066D01*
X169183Y47812D01*
X168930D01*
X169183D01*
X169437Y47558D01*
Y47304D01*
X169183Y47050D01*
X168676D01*
X168422Y47304D01*
X169945Y47050D02*
X170453D01*
X170199D01*
Y48574D01*
X169945Y48320D01*
X160467Y46117D02*
Y47640D01*
X161229D01*
X161482Y47386D01*
Y46878D01*
X161229Y46624D01*
X160467D01*
X160975D02*
X161482Y46117D01*
X161990Y47386D02*
X162244Y47640D01*
X162752D01*
X163006Y47386D01*
Y47132D01*
X162752Y46878D01*
X162498D01*
X162752D01*
X163006Y46624D01*
Y46371D01*
X162752Y46117D01*
X162244D01*
X161990Y46371D01*
X163514Y47386D02*
X163768Y47640D01*
X164276D01*
X164529Y47386D01*
Y46371D01*
X164276Y46117D01*
X163768D01*
X163514Y46371D01*
Y47386D01*
X159893Y43619D02*
Y45143D01*
X160655D01*
X160909Y44889D01*
Y44381D01*
X160655Y44127D01*
X159893D01*
X160401D02*
X160909Y43619D01*
X162433D02*
X161417D01*
X162433Y44635D01*
Y44889D01*
X162179Y45143D01*
X161671D01*
X161417Y44889D01*
X162940Y43873D02*
X163194Y43619D01*
X163702D01*
X163956Y43873D01*
Y44889D01*
X163702Y45143D01*
X163194D01*
X162940Y44889D01*
Y44635D01*
X163194Y44381D01*
X163956D01*
X159884Y48623D02*
Y50146D01*
X160646D01*
X160900Y49892D01*
Y49385D01*
X160646Y49131D01*
X159884D01*
X160392D02*
X160900Y48623D01*
X162423D02*
X161408D01*
X162423Y49638D01*
Y49892D01*
X162169Y50146D01*
X161661D01*
X161408Y49892D01*
X162931D02*
X163185Y50146D01*
X163693D01*
X163947Y49892D01*
Y49638D01*
X163693Y49385D01*
X163947Y49131D01*
Y48877D01*
X163693Y48623D01*
X163185D01*
X162931Y48877D01*
Y49131D01*
X163185Y49385D01*
X162931Y49638D01*
Y49892D01*
X163185Y49385D02*
X163693D01*
X135887Y48616D02*
Y50139D01*
X136648D01*
X136902Y49885D01*
Y49378D01*
X136648Y49124D01*
X135887D01*
X136394D02*
X136902Y48616D01*
X138426D02*
X137410D01*
X138426Y49631D01*
Y49885D01*
X138172Y50139D01*
X137664D01*
X137410Y49885D01*
X138934Y50139D02*
X139949D01*
Y49885D01*
X138934Y48870D01*
Y48616D01*
X135896Y51130D02*
Y52654D01*
X136658D01*
X136912Y52400D01*
Y51892D01*
X136658Y51638D01*
X135896D01*
X136404D02*
X136912Y51130D01*
X138435D02*
X137420D01*
X138435Y52146D01*
Y52400D01*
X138181Y52654D01*
X137673D01*
X137420Y52400D01*
X139959Y52654D02*
X139451Y52400D01*
X138943Y51892D01*
Y51384D01*
X139197Y51130D01*
X139705D01*
X139959Y51384D01*
Y51638D01*
X139705Y51892D01*
X138943D01*
X166394Y67561D02*
Y69085D01*
X167156D01*
X167410Y68831D01*
Y68323D01*
X167156Y68069D01*
X166394D01*
X166902D02*
X167410Y67561D01*
X168933D02*
X167918D01*
X168933Y68577D01*
Y68831D01*
X168679Y69085D01*
X168171D01*
X167918Y68831D01*
X170457Y69085D02*
X169441D01*
Y68323D01*
X169949Y68577D01*
X170203D01*
X170457Y68323D01*
Y67815D01*
X170203Y67561D01*
X169695D01*
X169441Y67815D01*
X166393Y73113D02*
Y74637D01*
X167154D01*
X167408Y74383D01*
Y73875D01*
X167154Y73621D01*
X166393D01*
X166900D02*
X167408Y73113D01*
X168932D02*
X167916D01*
X168932Y74129D01*
Y74383D01*
X168678Y74637D01*
X168170D01*
X167916Y74383D01*
X170201Y73113D02*
Y74637D01*
X169440Y73875D01*
X170455D01*
X163386Y61622D02*
Y63145D01*
X164148D01*
X164402Y62891D01*
Y62384D01*
X164148Y62130D01*
X163386D01*
X163894D02*
X164402Y61622D01*
X165925D02*
X164910D01*
X165925Y62637D01*
Y62891D01*
X165671Y63145D01*
X165163D01*
X164910Y62891D01*
X167449Y61622D02*
X166433D01*
X167449Y62637D01*
Y62891D01*
X167195Y63145D01*
X166687D01*
X166433Y62891D01*
X161464Y57124D02*
Y58647D01*
X162226D01*
X162479Y58393D01*
Y57885D01*
X162226Y57631D01*
X161464D01*
X161972D02*
X162479Y57124D01*
X164003D02*
X162987D01*
X164003Y58139D01*
Y58393D01*
X163749Y58647D01*
X163241D01*
X162987Y58393D01*
X164511Y57124D02*
X165019D01*
X164765D01*
Y58647D01*
X164511Y58393D01*
X158391Y59629D02*
Y61152D01*
X159152D01*
X159406Y60898D01*
Y60391D01*
X159152Y60137D01*
X158391D01*
X158898D02*
X159406Y59629D01*
X160930D02*
X159914D01*
X160930Y60644D01*
Y60898D01*
X160676Y61152D01*
X160168D01*
X159914Y60898D01*
X161438D02*
X161692Y61152D01*
X162199D01*
X162453Y60898D01*
Y59883D01*
X162199Y59629D01*
X161692D01*
X161438Y59883D01*
Y60898D01*
X158878Y54619D02*
Y56143D01*
X159640D01*
X159894Y55889D01*
Y55381D01*
X159640Y55127D01*
X158878D01*
X159386D02*
X159894Y54619D01*
X160402D02*
X160910D01*
X160656D01*
Y56143D01*
X160402Y55889D01*
X161671Y54873D02*
X161925Y54619D01*
X162433D01*
X162687Y54873D01*
Y55889D01*
X162433Y56143D01*
X161925D01*
X161671Y55889D01*
Y55635D01*
X161925Y55381D01*
X162687D01*
X135897Y59623D02*
Y61147D01*
X136659D01*
X136913Y60893D01*
Y60385D01*
X136659Y60131D01*
X135897D01*
X136405D02*
X136913Y59623D01*
X137421D02*
X137929D01*
X137675D01*
Y61147D01*
X137421Y60893D01*
X138690D02*
X138944Y61147D01*
X139452D01*
X139706Y60893D01*
Y60639D01*
X139452Y60385D01*
X139706Y60131D01*
Y59877D01*
X139452Y59623D01*
X138944D01*
X138690Y59877D01*
Y60131D01*
X138944Y60385D01*
X138690Y60639D01*
Y60893D01*
X138944Y60385D02*
X139452D01*
X135899Y62121D02*
Y63644D01*
X136661D01*
X136914Y63390D01*
Y62882D01*
X136661Y62628D01*
X135899D01*
X136407D02*
X136914Y62121D01*
X137422D02*
X137930D01*
X137676D01*
Y63644D01*
X137422Y63390D01*
X138692Y63644D02*
X139708D01*
Y63390D01*
X138692Y62375D01*
Y62121D01*
X120390Y84048D02*
Y85571D01*
X121152D01*
X121405Y85317D01*
Y84809D01*
X121152Y84555D01*
X120390D01*
X120898D02*
X121405Y84048D01*
X121913D02*
X122421D01*
X122167D01*
Y85571D01*
X121913Y85317D01*
X124199Y85571D02*
X123691Y85317D01*
X123183Y84809D01*
Y84302D01*
X123437Y84048D01*
X123945D01*
X124199Y84302D01*
Y84555D01*
X123945Y84809D01*
X123183D01*
X122396Y82548D02*
Y84071D01*
X123158D01*
X123412Y83817D01*
Y83309D01*
X123158Y83055D01*
X122396D01*
X122904D02*
X123412Y82548D01*
X123920D02*
X124428D01*
X124174D01*
Y84071D01*
X123920Y83817D01*
X126205Y84071D02*
X125189D01*
Y83309D01*
X125697Y83563D01*
X125951D01*
X126205Y83309D01*
Y82802D01*
X125951Y82548D01*
X125443D01*
X125189Y82802D01*
X156883Y94067D02*
Y95591D01*
X157645D01*
X157899Y95337D01*
Y94829D01*
X157645Y94575D01*
X156883D01*
X157391D02*
X157899Y94067D01*
X158407D02*
X158914D01*
X158660D01*
Y95591D01*
X158407Y95337D01*
X160438Y94067D02*
Y95591D01*
X159676Y94829D01*
X160692D01*
X120390Y64059D02*
Y65582D01*
X121152D01*
X121406Y65328D01*
Y64821D01*
X121152Y64567D01*
X120390D01*
X120898D02*
X121406Y64059D01*
X121914D02*
X122422D01*
X122168D01*
Y65582D01*
X121914Y65328D01*
X123183D02*
X123437Y65582D01*
X123945D01*
X124199Y65328D01*
Y65074D01*
X123945Y64821D01*
X123691D01*
X123945D01*
X124199Y64567D01*
Y64313D01*
X123945Y64059D01*
X123437D01*
X123183Y64313D01*
X122387Y64044D02*
Y65568D01*
X123149D01*
X123403Y65314D01*
Y64806D01*
X123149Y64552D01*
X122387D01*
X122895D02*
X123403Y64044D01*
X123911D02*
X124419D01*
X124165D01*
Y65568D01*
X123911Y65314D01*
X126196Y64044D02*
X125180D01*
X126196Y65060D01*
Y65314D01*
X125942Y65568D01*
X125434D01*
X125180Y65314D01*
X158500Y85500D02*
Y87024D01*
X159262D01*
X159516Y86770D01*
Y86262D01*
X159262Y86008D01*
X158500D01*
X159008D02*
X159516Y85500D01*
X160024D02*
X160531D01*
X160277D01*
Y87024D01*
X160024Y86770D01*
X161293Y85500D02*
X161801D01*
X161547D01*
Y87024D01*
X161293Y86770D01*
X79398Y80052D02*
Y81576D01*
X80160D01*
X80414Y81322D01*
Y80814D01*
X80160Y80560D01*
X79398D01*
X79906D02*
X80414Y80052D01*
X80922D02*
X81430D01*
X81176D01*
Y81576D01*
X80922Y81322D01*
X82191D02*
X82445Y81576D01*
X82953D01*
X83207Y81322D01*
Y80306D01*
X82953Y80052D01*
X82445D01*
X82191Y80306D01*
Y81322D01*
X83000Y79000D02*
X84524D01*
Y78238D01*
X84270Y77984D01*
X83762D01*
X83508Y78238D01*
Y79000D01*
Y78492D02*
X83000Y77984D01*
X83254Y77476D02*
X83000Y77223D01*
Y76715D01*
X83254Y76461D01*
X84270D01*
X84524Y76715D01*
Y77223D01*
X84270Y77476D01*
X84016D01*
X83762Y77223D01*
Y76461D01*
X156883Y112050D02*
Y113574D01*
X157645D01*
X157899Y113320D01*
Y112812D01*
X157645Y112558D01*
X156883D01*
X157391D02*
X157899Y112050D01*
X158407Y113320D02*
X158660Y113574D01*
X159168D01*
X159422Y113320D01*
Y113066D01*
X159168Y112812D01*
X159422Y112558D01*
Y112304D01*
X159168Y112050D01*
X158660D01*
X158407Y112304D01*
Y112558D01*
X158660Y112812D01*
X158407Y113066D01*
Y113320D01*
X158660Y112812D02*
X159168D01*
X79386Y60054D02*
Y61577D01*
X80148D01*
X80402Y61323D01*
Y60815D01*
X80148Y60561D01*
X79386D01*
X79894D02*
X80402Y60054D01*
X80910Y61577D02*
X81925D01*
Y61323D01*
X80910Y60308D01*
Y60054D01*
X81500Y58500D02*
Y60024D01*
X82262D01*
X82516Y59770D01*
Y59262D01*
X82262Y59008D01*
X81500D01*
X82008D02*
X82516Y58500D01*
X84039Y60024D02*
X83531Y59770D01*
X83024Y59262D01*
Y58754D01*
X83277Y58500D01*
X83785D01*
X84039Y58754D01*
Y59008D01*
X83785Y59262D01*
X83024D01*
X156883Y103059D02*
Y104582D01*
X157645D01*
X157899Y104328D01*
Y103821D01*
X157645Y103567D01*
X156883D01*
X157391D02*
X157899Y103059D01*
X159422Y104582D02*
X158407D01*
Y103821D01*
X158914Y104074D01*
X159168D01*
X159422Y103821D01*
Y103313D01*
X159168Y103059D01*
X158660D01*
X158407Y103313D01*
X112471Y110439D02*
X112979D01*
X113233Y110693D01*
Y111201D01*
X112979Y111455D01*
X112471D01*
X112217Y111201D01*
Y110693D01*
X112471Y110439D01*
X113741Y111455D02*
Y110693D01*
X113995Y110439D01*
X114756D01*
Y111455D01*
X115518Y111709D02*
Y111455D01*
X115264D01*
X115772D01*
X115518D01*
Y110693D01*
X115772Y110439D01*
X116534Y110185D02*
X117549D01*
X118057Y111963D02*
X119073D01*
X118565D01*
Y110439D01*
X119581D02*
Y111963D01*
X120343D01*
X120596Y111709D01*
Y111201D01*
X120343Y110947D01*
X119581D01*
X120089D02*
X120596Y110439D01*
X121104D02*
Y111455D01*
X121612Y111963D01*
X122120Y111455D01*
Y110439D01*
Y111201D01*
X121104D01*
X123644Y111709D02*
X123390Y111963D01*
X122882D01*
X122628Y111709D01*
Y110693D01*
X122882Y110439D01*
X123390D01*
X123644Y110693D01*
X124913Y111963D02*
X124405D01*
X124151Y111709D01*
Y110693D01*
X124405Y110439D01*
X124913D01*
X125167Y110693D01*
Y111709D01*
X124913Y111963D01*
X125675Y110439D02*
X126183D01*
X125929D01*
Y111963D01*
X125675Y111709D01*
X146762Y100524D02*
X146254D01*
X146000Y100270D01*
Y99254D01*
X146254Y99000D01*
X146762D01*
X147016Y99254D01*
Y100270D01*
X146762Y100524D01*
X147524Y98492D02*
Y100016D01*
X148285D01*
X148539Y99762D01*
Y99254D01*
X148285Y99000D01*
X147524D01*
X149301Y100270D02*
Y100016D01*
X149047D01*
X149555D01*
X149301D01*
Y99254D01*
X149555Y99000D01*
X150571D02*
X151078D01*
X151332Y99254D01*
Y99762D01*
X151078Y100016D01*
X150571D01*
X150317Y99762D01*
Y99254D01*
X150571Y99000D01*
X151840D02*
X152348D01*
X152094D01*
Y100524D01*
X151840Y100270D01*
X128371Y45924D02*
X127863D01*
X128117D01*
Y44655D01*
X127863Y44401D01*
X127610D01*
X127356Y44655D01*
X129895Y45924D02*
X128879D01*
Y45162D01*
X129387Y45416D01*
X129641D01*
X129895Y45162D01*
Y44655D01*
X129641Y44401D01*
X129133D01*
X128879Y44655D01*
X170151Y93420D02*
X169644D01*
X169898D01*
Y92150D01*
X169644Y91896D01*
X169390D01*
X169136Y92150D01*
X170659Y93166D02*
X170913Y93420D01*
X171421D01*
X171675Y93166D01*
Y92912D01*
X171421Y92658D01*
X171167D01*
X171421D01*
X171675Y92404D01*
Y92150D01*
X171421Y91896D01*
X170913D01*
X170659Y92150D01*
X112217Y123952D02*
X112725D01*
X112471D01*
Y124968D01*
X112217D01*
X113487Y123952D02*
Y124968D01*
X114249D01*
X114502Y124714D01*
Y123952D01*
X115010Y123698D02*
X116026D01*
X116534Y125476D02*
X117549D01*
X117042D01*
Y123952D01*
X118057D02*
Y125476D01*
X118819D01*
X119073Y125222D01*
Y124714D01*
X118819Y124460D01*
X118057D01*
X118565D02*
X119073Y123952D01*
X119581D02*
Y124968D01*
X120089Y125476D01*
X120596Y124968D01*
Y123952D01*
Y124714D01*
X119581D01*
X122120Y125222D02*
X121866Y125476D01*
X121358D01*
X121104Y125222D01*
Y124206D01*
X121358Y123952D01*
X121866D01*
X122120Y124206D01*
X123390Y125476D02*
X122882D01*
X122628Y125222D01*
Y124206D01*
X122882Y123952D01*
X123390D01*
X123644Y124206D01*
Y125222D01*
X123390Y125476D01*
X124151Y123952D02*
X124659D01*
X124405D01*
Y125476D01*
X124151Y125222D01*
X103133Y45806D02*
X103640D01*
X103387D01*
Y44282D01*
X103133D01*
X103640D01*
X104402Y45806D02*
Y44282D01*
X105418D01*
X105926Y44028D02*
X106941D01*
X107449Y44282D02*
X108211D01*
X108465Y44536D01*
X108211Y44790D01*
X107703D01*
X107449Y45044D01*
X107703Y45298D01*
X108465D01*
X109734Y44282D02*
X109227D01*
X108973Y44536D01*
Y45044D01*
X109227Y45298D01*
X109734D01*
X109988Y45044D01*
Y44790D01*
X108973D01*
X110496Y44282D02*
Y45298D01*
X111258D01*
X111512Y45044D01*
Y44282D01*
X112020D02*
X112781D01*
X113035Y44536D01*
X112781Y44790D01*
X112274D01*
X112020Y45044D01*
X112274Y45298D01*
X113035D01*
X113543Y44282D02*
X114051D01*
X113797D01*
Y45806D01*
X113543Y45552D01*
X138137Y48325D02*
Y46802D01*
X138899D01*
X139152Y47056D01*
Y48071D01*
X138899Y48325D01*
X138137D01*
X139660Y47817D02*
X140676D01*
X139660Y46802D01*
X140676D01*
X142199D02*
X141184D01*
X142199Y47817D01*
Y48071D01*
X141946Y48325D01*
X141438D01*
X141184Y48071D01*
X138137Y59326D02*
Y57803D01*
X138899D01*
X139152Y58057D01*
Y59072D01*
X138899Y59326D01*
X138137D01*
X139660Y58818D02*
X140676D01*
X139660Y57803D01*
X140676D01*
X141184D02*
X141692D01*
X141438D01*
Y59326D01*
X141184Y59072D01*
X124686Y86403D02*
Y84880D01*
X125448D01*
X125702Y85134D01*
Y86149D01*
X125448Y86403D01*
X124686D01*
X126210Y85895D02*
Y84880D01*
Y85388D01*
X126464Y85642D01*
X126718Y85895D01*
X126971D01*
X127733D02*
X128241Y84880D01*
X128749Y85895D01*
X130018Y84880D02*
Y86403D01*
X129257Y85642D01*
X130272D01*
X124670Y67401D02*
Y65878D01*
X125432D01*
X125686Y66132D01*
Y67147D01*
X125432Y67401D01*
X124670D01*
X126194Y66893D02*
Y65878D01*
Y66385D01*
X126448Y66639D01*
X126702Y66893D01*
X126955D01*
X127717D02*
X128225Y65878D01*
X128733Y66893D01*
X129241Y67147D02*
X129495Y67401D01*
X130002D01*
X130256Y67147D01*
Y66893D01*
X130002Y66639D01*
X129749D01*
X130002D01*
X130256Y66385D01*
Y66132D01*
X130002Y65878D01*
X129495D01*
X129241Y66132D01*
X83671Y82406D02*
Y80883D01*
X84433D01*
X84686Y81137D01*
Y82152D01*
X84433Y82406D01*
X83671D01*
X85194Y81898D02*
Y80883D01*
Y81390D01*
X85448Y81644D01*
X85702Y81898D01*
X85956D01*
X86718D02*
X87226Y80883D01*
X87733Y81898D01*
X89257Y80883D02*
X88241D01*
X89257Y81898D01*
Y82152D01*
X89003Y82406D01*
X88495D01*
X88241Y82152D01*
X36570Y39947D02*
Y38424D01*
X37332D01*
X37586Y38678D01*
Y39693D01*
X37332Y39947D01*
X36570D01*
X38094Y38424D02*
X38602D01*
X38348D01*
Y39947D01*
X38094Y39693D01*
X142872Y53778D02*
X142618Y54032D01*
X142110D01*
X141856Y53778D01*
Y52762D01*
X142110Y52508D01*
X142618D01*
X142872Y52762D01*
X144395Y52508D02*
X143380D01*
X144395Y53524D01*
Y53778D01*
X144141Y54032D01*
X143633D01*
X143380Y53778D01*
X145919Y52508D02*
X144903D01*
X145919Y53524D01*
Y53778D01*
X145665Y54032D01*
X145157D01*
X144903Y53778D01*
X164374Y74793D02*
X164120Y75047D01*
X163612D01*
X163358Y74793D01*
Y73778D01*
X163612Y73524D01*
X164120D01*
X164374Y73778D01*
X164882Y73524D02*
X165390D01*
X165136D01*
Y75047D01*
X164882Y74793D01*
X166151Y73778D02*
X166405Y73524D01*
X166913D01*
X167167Y73778D01*
Y74793D01*
X166913Y75047D01*
X166405D01*
X166151Y74793D01*
Y74539D01*
X166405Y74286D01*
X167167D01*
X160367Y74647D02*
X160113Y74901D01*
X159605D01*
X159351Y74647D01*
Y73631D01*
X159605Y73377D01*
X160113D01*
X160367Y73631D01*
X160875Y73377D02*
X161383D01*
X161129D01*
Y74901D01*
X160875Y74647D01*
X162144D02*
X162398Y74901D01*
X162906D01*
X163160Y74647D01*
Y74393D01*
X162906Y74139D01*
X163160Y73885D01*
Y73631D01*
X162906Y73377D01*
X162398D01*
X162144Y73631D01*
Y73885D01*
X162398Y74139D01*
X162144Y74393D01*
Y74647D01*
X162398Y74139D02*
X162906D01*
X142874Y64771D02*
X142621Y65025D01*
X142113D01*
X141859Y64771D01*
Y63756D01*
X142113Y63502D01*
X142621D01*
X142874Y63756D01*
X143382Y63502D02*
X143890D01*
X143636D01*
Y65025D01*
X143382Y64771D01*
X144652Y65025D02*
X145668D01*
Y64771D01*
X144652Y63756D01*
Y63502D01*
X141945Y74750D02*
X141691Y75004D01*
X141184D01*
X140930Y74750D01*
Y73735D01*
X141184Y73481D01*
X141691D01*
X141945Y73735D01*
X142453Y73481D02*
X142961D01*
X142707D01*
Y75004D01*
X142453Y74750D01*
X144942D02*
X144689Y75004D01*
X144181D01*
X143927Y74750D01*
Y73735D01*
X144181Y73481D01*
X144689D01*
X144942Y73735D01*
X146466Y73481D02*
X145450D01*
X146466Y74496D01*
Y74750D01*
X146212Y75004D01*
X145704D01*
X145450Y74750D01*
X114042Y116364D02*
X113788Y116618D01*
X113281D01*
X113027Y116364D01*
Y115349D01*
X113281Y115095D01*
X113788D01*
X114042Y115349D01*
X114550Y116364D02*
X114804Y116618D01*
X115312D01*
X115566Y116364D01*
Y116110D01*
X115312Y115857D01*
X115058D01*
X115312D01*
X115566Y115603D01*
Y115349D01*
X115312Y115095D01*
X114804D01*
X114550Y115349D01*
X123034Y116364D02*
X122780Y116618D01*
X122272D01*
X122018Y116364D01*
Y115349D01*
X122272Y115095D01*
X122780D01*
X123034Y115349D01*
X124303Y115095D02*
Y116618D01*
X123542Y115857D01*
X124557D01*
X114046Y102854D02*
X113792Y103108D01*
X113284D01*
X113030Y102854D01*
Y101839D01*
X113284Y101585D01*
X113792D01*
X114046Y101839D01*
X115570Y103108D02*
X114554D01*
Y102346D01*
X115062Y102600D01*
X115316D01*
X115570Y102346D01*
Y101839D01*
X115316Y101585D01*
X114808D01*
X114554Y101839D01*
X123038Y102854D02*
X122784Y103108D01*
X122276D01*
X122022Y102854D01*
Y101839D01*
X122276Y101585D01*
X122784D01*
X123038Y101839D01*
X124561Y103108D02*
X124053Y102854D01*
X123546Y102346D01*
Y101839D01*
X123799Y101585D01*
X124307D01*
X124561Y101839D01*
Y102092D01*
X124307Y102346D01*
X123546D01*
X146044Y53862D02*
X145791Y54116D01*
X145283D01*
X145029Y53862D01*
Y52847D01*
X145283Y52593D01*
X145791D01*
X146044Y52847D01*
X146552Y52593D02*
X147060D01*
X146806D01*
Y54116D01*
X146552Y53862D01*
X148838Y54116D02*
X147822D01*
Y53354D01*
X148330Y53608D01*
X148584D01*
X148838Y53354D01*
Y52847D01*
X148584Y52593D01*
X148076D01*
X147822Y52847D01*
X157037Y53853D02*
X156784Y54107D01*
X156276D01*
X156022Y53853D01*
Y52837D01*
X156276Y52583D01*
X156784D01*
X157037Y52837D01*
X157545Y52583D02*
X158053D01*
X157799D01*
Y54107D01*
X157545Y53853D01*
X159831Y54107D02*
X159323Y53853D01*
X158815Y53345D01*
Y52837D01*
X159069Y52583D01*
X159577D01*
X159831Y52837D01*
Y53091D01*
X159577Y53345D01*
X158815D01*
X146054Y64865D02*
X145800Y65119D01*
X145292D01*
X145038Y64865D01*
Y63849D01*
X145292Y63595D01*
X145800D01*
X146054Y63849D01*
X147577Y63595D02*
X146562D01*
X147577Y64611D01*
Y64865D01*
X147323Y65119D01*
X146816D01*
X146562Y64865D01*
X148085D02*
X148339Y65119D01*
X148847D01*
X149101Y64865D01*
Y63849D01*
X148847Y63595D01*
X148339D01*
X148085Y63849D01*
Y64865D01*
X118035Y38852D02*
X117781Y39106D01*
X117274D01*
X117020Y38852D01*
Y37837D01*
X117274Y37583D01*
X117781D01*
X118035Y37837D01*
X119559Y37583D02*
X118543D01*
X119559Y38598D01*
Y38852D01*
X119305Y39106D01*
X118797D01*
X118543Y38852D01*
X120067D02*
X120321Y39106D01*
X120828D01*
X121082Y38852D01*
Y38598D01*
X120828Y38344D01*
X120574D01*
X120828D01*
X121082Y38090D01*
Y37837D01*
X120828Y37583D01*
X120321D01*
X120067Y37837D01*
X135149Y124422D02*
X134641D01*
X134895D01*
Y123152D01*
X134641Y122898D01*
X134387D01*
X134133Y123152D01*
X136672Y122898D02*
X135657D01*
X136672Y123914D01*
Y124168D01*
X136418Y124422D01*
X135911D01*
X135657Y124168D01*
X69498Y58130D02*
Y59654D01*
X70006Y59146D01*
X70514Y59654D01*
Y58130D01*
X71022D02*
X71530D01*
X71276D01*
Y59654D01*
X71022Y59400D01*
X146262Y109524D02*
X145754D01*
X145500Y109270D01*
Y108254D01*
X145754Y108000D01*
X146262D01*
X146516Y108254D01*
Y109270D01*
X146262Y109524D01*
X147024Y107492D02*
Y109016D01*
X147785D01*
X148039Y108762D01*
Y108254D01*
X147785Y108000D01*
X147024D01*
X148801Y109270D02*
Y109016D01*
X148547D01*
X149055D01*
X148801D01*
Y108254D01*
X149055Y108000D01*
X150071D02*
X150578D01*
X150832Y108254D01*
Y108762D01*
X150578Y109016D01*
X150071D01*
X149817Y108762D01*
Y108254D01*
X150071Y108000D01*
X152356D02*
X151340D01*
X152356Y109016D01*
Y109270D01*
X152102Y109524D01*
X151594D01*
X151340Y109270D01*
X42151Y56909D02*
X41898Y57163D01*
X41390D01*
X41136Y56909D01*
Y55893D01*
X41390Y55639D01*
X41898D01*
X42151Y55893D01*
X43675Y55639D02*
X42659D01*
X43675Y56655D01*
Y56909D01*
X43421Y57163D01*
X42913D01*
X42659Y56909D01*
X44945Y55639D02*
Y57163D01*
X44183Y56401D01*
X45198D01*
X42148Y74415D02*
X41894Y74669D01*
X41386D01*
X41132Y74415D01*
Y73399D01*
X41386Y73145D01*
X41894D01*
X42148Y73399D01*
X43671Y73145D02*
X42656D01*
X43671Y74161D01*
Y74415D01*
X43417Y74669D01*
X42909D01*
X42656Y74415D01*
X45195Y74669D02*
X44179D01*
Y73907D01*
X44687Y74161D01*
X44941D01*
X45195Y73907D01*
Y73399D01*
X44941Y73145D01*
X44433D01*
X44179Y73399D01*
X20174Y39127D02*
X19920Y39381D01*
X19412D01*
X19159Y39127D01*
Y38873D01*
X19412Y38619D01*
X19920D01*
X20174Y38365D01*
Y38111D01*
X19920Y37857D01*
X19412D01*
X19159Y38111D01*
X20682Y39381D02*
Y37857D01*
Y38619D01*
X20936Y38873D01*
X21444D01*
X21698Y38619D01*
Y37857D01*
X22459D02*
X22967D01*
X23221Y38111D01*
Y38619D01*
X22967Y38873D01*
X22459D01*
X22206Y38619D01*
Y38111D01*
X22459Y37857D01*
X23729Y38873D02*
Y37857D01*
Y38365D01*
X23983Y38619D01*
X24237Y38873D01*
X24491D01*
X25506Y39127D02*
Y38873D01*
X25253D01*
X25760D01*
X25506D01*
Y38111D01*
X25760Y37857D01*
X26522D02*
X27030D01*
X26776D01*
Y39381D01*
X26522Y39127D01*
X25133Y56909D02*
X24880Y57163D01*
X24372D01*
X24118Y56909D01*
Y55893D01*
X24372Y55639D01*
X24880D01*
X25133Y55893D01*
X26657Y55639D02*
X25641D01*
X26657Y56655D01*
Y56909D01*
X26403Y57163D01*
X25895D01*
X25641Y56909D01*
X27165Y57163D02*
X28180D01*
Y56909D01*
X27165Y55893D01*
Y55639D01*
X83682Y62399D02*
Y60875D01*
X84443D01*
X84697Y61129D01*
Y62145D01*
X84443Y62399D01*
X83682D01*
X85205Y61891D02*
Y60875D01*
Y61383D01*
X85459Y61637D01*
X85713Y61891D01*
X85967D01*
X86729D02*
X87236Y60875D01*
X87744Y61891D01*
X88252Y60875D02*
X88760D01*
X88506D01*
Y62399D01*
X88252Y62145D01*
X147990Y74725D02*
X147483D01*
X147737D01*
Y73455D01*
X147483Y73201D01*
X147229D01*
X146975Y73455D01*
X148498Y73201D02*
X149006D01*
X148752D01*
Y74725D01*
X148498Y74471D01*
X25155Y74415D02*
X24901Y74669D01*
X24393D01*
X24139Y74415D01*
Y73399D01*
X24393Y73145D01*
X24901D01*
X25155Y73399D01*
X26679Y73145D02*
X25663D01*
X26679Y74161D01*
Y74415D01*
X26425Y74669D01*
X25917D01*
X25663Y74415D01*
X28202Y74669D02*
X27694Y74415D01*
X27186Y73907D01*
Y73399D01*
X27440Y73145D01*
X27948D01*
X28202Y73399D01*
Y73653D01*
X27948Y73907D01*
X27186D01*
X20174Y44127D02*
X19920Y44381D01*
X19412D01*
X19159Y44127D01*
Y43873D01*
X19412Y43619D01*
X19920D01*
X20174Y43365D01*
Y43111D01*
X19920Y42857D01*
X19412D01*
X19159Y43111D01*
X20682Y44381D02*
Y42857D01*
Y43619D01*
X20936Y43873D01*
X21444D01*
X21698Y43619D01*
Y42857D01*
X22459D02*
X22967D01*
X23221Y43111D01*
Y43619D01*
X22967Y43873D01*
X22459D01*
X22206Y43619D01*
Y43111D01*
X22459Y42857D01*
X23729Y43873D02*
Y42857D01*
Y43365D01*
X23983Y43619D01*
X24237Y43873D01*
X24491D01*
X25506Y44127D02*
Y43873D01*
X25253D01*
X25760D01*
X25506D01*
Y43111D01*
X25760Y42857D01*
X27538D02*
X26522D01*
X27538Y43873D01*
Y44127D01*
X27284Y44381D01*
X26776D01*
X26522Y44127D01*
X171383Y77124D02*
X170875D01*
X171129D01*
Y75854D01*
X170875Y75600D01*
X170621D01*
X170367Y75854D01*
X172652Y75600D02*
Y77124D01*
X171891Y76362D01*
X172906D01*
D85*
X156865Y97365D02*
Y97619D01*
X158135Y97365D02*
Y98254D01*
Y100286D02*
Y102064D01*
X156865Y100286D02*
Y102064D01*
Y97365D02*
X158135D01*
X156865Y102064D02*
X158135D01*
X156865Y97619D02*
Y99143D01*
X158135Y98254D02*
Y99143D01*
X81365Y54365D02*
Y54619D01*
X82635Y54365D02*
Y55254D01*
Y57286D02*
Y59064D01*
X81365Y57286D02*
Y59064D01*
Y54365D02*
X82635D01*
X81365Y59064D02*
X82635D01*
X81365Y54619D02*
Y56143D01*
X82635Y55254D02*
Y56143D01*
X79365Y54365D02*
Y54619D01*
X80635Y54365D02*
Y55254D01*
Y57286D02*
Y59064D01*
X79365Y57286D02*
Y59064D01*
Y54365D02*
X80635D01*
X79365Y59064D02*
X80635D01*
X79365Y54619D02*
Y56143D01*
X80635Y55254D02*
Y56143D01*
X156865Y106365D02*
Y106619D01*
X158135Y106365D02*
Y107254D01*
Y109286D02*
Y111064D01*
X156865Y109286D02*
Y111064D01*
Y106365D02*
X158135D01*
X156865Y111064D02*
X158135D01*
X156865Y106619D02*
Y108143D01*
X158135Y107254D02*
Y108143D01*
X81365Y74365D02*
Y74619D01*
X82635Y74365D02*
Y75254D01*
Y77286D02*
Y79064D01*
X81365Y77286D02*
Y79064D01*
Y74365D02*
X82635D01*
X81365Y79064D02*
X82635D01*
X81365Y74619D02*
Y76143D01*
X82635Y75254D02*
Y76143D01*
X79365Y74365D02*
Y74619D01*
X80635Y74365D02*
Y75254D01*
Y77286D02*
Y79064D01*
X79365Y77286D02*
Y79064D01*
Y74365D02*
X80635D01*
X79365Y79064D02*
X80635D01*
X79365Y74619D02*
Y76143D01*
X80635Y75254D02*
Y76143D01*
X156865Y79365D02*
Y79619D01*
X158135Y79365D02*
Y80254D01*
Y82286D02*
Y84064D01*
X156865Y82286D02*
Y84064D01*
Y79365D02*
X158135D01*
X156865Y84064D02*
X158135D01*
X156865Y79619D02*
Y81143D01*
X158135Y80254D02*
Y81143D01*
X122365Y58365D02*
Y58619D01*
X123635Y58365D02*
Y59254D01*
Y61286D02*
Y63064D01*
X122365Y61286D02*
Y63064D01*
Y58365D02*
X123635D01*
X122365Y63064D02*
X123635D01*
X122365Y58619D02*
Y60143D01*
X123635Y59254D02*
Y60143D01*
X120365Y58365D02*
Y58619D01*
X121635Y58365D02*
Y59254D01*
Y61286D02*
Y63064D01*
X120365Y61286D02*
Y63064D01*
Y58365D02*
X121635D01*
X120365Y63064D02*
X121635D01*
X120365Y58619D02*
Y60143D01*
X121635Y59254D02*
Y60143D01*
X156865Y88365D02*
Y88619D01*
X158135Y88365D02*
Y89254D01*
Y91286D02*
Y93064D01*
X156865Y91286D02*
Y93064D01*
Y88365D02*
X158135D01*
X156865Y93064D02*
X158135D01*
X156865Y88619D02*
Y90143D01*
X158135Y89254D02*
Y90143D01*
X122365Y76865D02*
Y77119D01*
X123635Y76865D02*
Y77754D01*
Y79786D02*
Y81564D01*
X122365Y79786D02*
Y81564D01*
Y76865D02*
X123635D01*
X122365Y81564D02*
X123635D01*
X122365Y77119D02*
Y78643D01*
X123635Y77754D02*
Y78643D01*
X120365Y78365D02*
Y78619D01*
X121635Y78365D02*
Y79254D01*
Y81286D02*
Y83064D01*
X120365Y81286D02*
Y83064D01*
Y78365D02*
X121635D01*
X120365Y83064D02*
X121635D01*
X120365Y78619D02*
Y80143D01*
X121635Y79254D02*
Y80143D01*
X135865Y61135D02*
X136119D01*
X135865Y59865D02*
X136754D01*
X138786D02*
X140564D01*
X138786Y61135D02*
X140564D01*
X135865Y59865D02*
Y61135D01*
X140564Y59865D02*
Y61135D01*
X136119D02*
X137643D01*
X136754Y59865D02*
X137643D01*
X137135Y58381D02*
Y58635D01*
X135865Y57746D02*
Y58635D01*
Y53936D02*
Y55714D01*
X137135Y53936D02*
Y55714D01*
X135865Y58635D02*
X137135D01*
X135865Y53936D02*
X137135D01*
Y56857D02*
Y58381D01*
X135865Y56857D02*
Y57746D01*
X158865Y53635D02*
X159119D01*
X158865Y52365D02*
X159754D01*
X161786D02*
X163564D01*
X161786Y53635D02*
X163564D01*
X158865Y52365D02*
Y53635D01*
X163564Y52365D02*
Y53635D01*
X159119D02*
X160643D01*
X159754Y52365D02*
X160643D01*
X158365Y58635D02*
X158619D01*
X158365Y57365D02*
X159254D01*
X161286D02*
X163064D01*
X161286Y58635D02*
X163064D01*
X158365Y57365D02*
Y58635D01*
X163064Y57365D02*
Y58635D01*
X158619D02*
X160143D01*
X159254Y57365D02*
X160143D01*
X165881Y54865D02*
X166135D01*
X165246Y56135D02*
X166135D01*
X161436D02*
X163214D01*
X161436Y54865D02*
X163214D01*
X166135D02*
Y56135D01*
X161436Y54865D02*
Y56135D01*
X164357Y54865D02*
X165881D01*
X164357Y56135D02*
X165246D01*
X163365Y60635D02*
X163619D01*
X163365Y59365D02*
X164254D01*
X166286D02*
X168064D01*
X166286Y60635D02*
X168064D01*
X163365Y59365D02*
Y60635D01*
X168064Y59365D02*
Y60635D01*
X163619D02*
X165143D01*
X164254Y59365D02*
X165143D01*
X167635Y71881D02*
Y72135D01*
X166365Y71246D02*
Y72135D01*
Y67436D02*
Y69214D01*
X167635Y67436D02*
Y69214D01*
X166365Y72135D02*
X167635D01*
X166365Y67436D02*
X167635D01*
Y70357D02*
Y71881D01*
X166365Y70357D02*
Y71246D01*
Y61865D02*
Y62119D01*
X167635Y61865D02*
Y62754D01*
Y64786D02*
Y66564D01*
X166365Y64786D02*
Y66564D01*
Y61865D02*
X167635D01*
X166365Y66564D02*
X167635D01*
X166365Y62119D02*
Y63643D01*
X167635Y62754D02*
Y63643D01*
X135865Y50135D02*
X136119D01*
X135865Y48865D02*
X136754D01*
X138786D02*
X140564D01*
X138786Y50135D02*
X140564D01*
X135865Y48865D02*
Y50135D01*
X140564Y48865D02*
Y50135D01*
X136119D02*
X137643D01*
X136754Y48865D02*
X137643D01*
X137135Y47381D02*
Y47635D01*
X135865Y46746D02*
Y47635D01*
Y42936D02*
Y44714D01*
X137135Y42936D02*
Y44714D01*
X135865Y47635D02*
X137135D01*
X135865Y42936D02*
X137135D01*
Y45857D02*
Y47381D01*
X135865Y45857D02*
Y46746D01*
X159865Y47635D02*
X160119D01*
X159865Y46365D02*
X160754D01*
X162786D02*
X164564D01*
X162786Y47635D02*
X164564D01*
X159865Y46365D02*
Y47635D01*
X164564Y46365D02*
Y47635D01*
X160119D02*
X161643D01*
X160754Y46365D02*
X161643D01*
X159865Y42635D02*
X160119D01*
X159865Y41365D02*
X160754D01*
X162786D02*
X164564D01*
X162786Y42635D02*
X164564D01*
X159865Y41365D02*
Y42635D01*
X164564Y41365D02*
Y42635D01*
X160119D02*
X161643D01*
X160754Y41365D02*
X161643D01*
X164881Y43865D02*
X165135D01*
X164246Y45135D02*
X165135D01*
X160436D02*
X162214D01*
X160436Y43865D02*
X162214D01*
X165135D02*
Y45135D01*
X160436Y43865D02*
Y45135D01*
X163357Y43865D02*
X164881D01*
X163357Y45135D02*
X164246D01*
X166865Y41365D02*
Y41619D01*
X168135Y41365D02*
Y42254D01*
Y44286D02*
Y46064D01*
X166865Y44286D02*
Y46064D01*
Y41365D02*
X168135D01*
X166865Y46064D02*
X168135D01*
X166865Y41619D02*
Y43143D01*
X168135Y42254D02*
Y43143D01*
X131381Y33365D02*
X131635D01*
X130746Y34635D02*
X131635D01*
X126936D02*
X128714D01*
X126936Y33365D02*
X128714D01*
X131635D02*
Y34635D01*
X126936Y33365D02*
Y34635D01*
X129857Y33365D02*
X131381D01*
X129857Y34635D02*
X130746D01*
X122381Y37365D02*
X122635D01*
X121746Y38635D02*
X122635D01*
X117936D02*
X119714D01*
X117936Y37365D02*
X119714D01*
X122635D02*
Y38635D01*
X117936Y37365D02*
Y38635D01*
X120857Y37365D02*
X122381D01*
X120857Y38635D02*
X121746D01*
X77381Y58365D02*
X77635D01*
X76746Y59635D02*
X77635D01*
X72936D02*
X74714D01*
X72936Y58365D02*
X74714D01*
X77635D02*
Y59635D01*
X72936Y58365D02*
Y59635D01*
X75857Y58365D02*
X77381D01*
X75857Y59635D02*
X76746D01*
X118381Y62365D02*
X118635D01*
X117746Y63635D02*
X118635D01*
X113936D02*
X115714D01*
X113936Y62365D02*
X115714D01*
X118635D02*
Y63635D01*
X113936Y62365D02*
Y63635D01*
X116857Y62365D02*
X118381D01*
X116857Y63635D02*
X117746D01*
X77381Y78365D02*
X77635D01*
X76746Y79635D02*
X77635D01*
X72936D02*
X74714D01*
X72936Y78365D02*
X74714D01*
X77635D02*
Y79635D01*
X72936Y78365D02*
Y79635D01*
X75857Y78365D02*
X77381D01*
X75857Y79635D02*
X76746D01*
X118381Y82365D02*
X118635D01*
X117746Y83635D02*
X118635D01*
X113936D02*
X115714D01*
X113936Y82365D02*
X115714D01*
X118635D02*
Y83635D01*
X113936Y82365D02*
Y83635D01*
X116857Y82365D02*
X118381D01*
X116857Y83635D02*
X117746D01*
X160635Y115881D02*
Y116135D01*
X159365Y115246D02*
Y116135D01*
Y111436D02*
Y113214D01*
X160635Y111436D02*
Y113214D01*
X159365Y116135D02*
X160635D01*
X159365Y111436D02*
X160635D01*
Y114357D02*
Y115881D01*
X159365Y114357D02*
Y115246D01*
X142615Y41635D02*
X142869D01*
X142615Y40365D02*
X143504D01*
X145536D02*
X147314D01*
X145536Y41635D02*
X147314D01*
X142615Y40365D02*
Y41635D01*
X147314Y40365D02*
Y41635D01*
X142869D02*
X144393D01*
X143504Y40365D02*
X144393D01*
X148635Y115881D02*
Y116135D01*
X147365Y115246D02*
Y116135D01*
Y111436D02*
Y113214D01*
X148635Y111436D02*
Y113214D01*
X147365Y116135D02*
X148635D01*
X147365Y111436D02*
X148635D01*
Y114357D02*
Y115881D01*
X147365Y114357D02*
Y115246D01*
X154635Y115881D02*
Y116135D01*
X153365Y115246D02*
Y116135D01*
Y111436D02*
Y113214D01*
X154635Y111436D02*
Y113214D01*
X153365Y116135D02*
X154635D01*
X153365Y111436D02*
X154635D01*
Y114357D02*
Y115881D01*
X153365Y114357D02*
Y115246D01*
X166635Y115881D02*
Y116135D01*
X165365Y115246D02*
Y116135D01*
Y111436D02*
Y113214D01*
X166635Y111436D02*
Y113214D01*
X165365Y116135D02*
X166635D01*
X165365Y111436D02*
X166635D01*
Y114357D02*
Y115881D01*
X165365Y114357D02*
Y115246D01*
X57865Y50365D02*
Y50619D01*
X59135Y50365D02*
Y51254D01*
Y53286D02*
Y55064D01*
X57865Y53286D02*
Y55064D01*
Y50365D02*
X59135D01*
X57865Y55064D02*
X59135D01*
X57865Y50619D02*
Y52143D01*
X59135Y51254D02*
Y52143D01*
X107381Y55365D02*
X107635D01*
X106746Y56635D02*
X107635D01*
X102936D02*
X104714D01*
X102936Y55365D02*
X104714D01*
X107635D02*
Y56635D01*
X102936Y55365D02*
Y56635D01*
X105857Y55365D02*
X107381D01*
X105857Y56635D02*
X106746D01*
X62000Y42000D02*
Y44500D01*
X58000D02*
X62000D01*
X58000Y36800D02*
X62000D01*
X58000Y42000D02*
Y44500D01*
Y36800D02*
Y39300D01*
X62000Y36800D02*
Y39300D01*
X67000Y42000D02*
Y44500D01*
X63000D02*
X67000D01*
X63000Y36800D02*
X67000D01*
X63000Y42000D02*
Y44500D01*
Y36800D02*
Y39300D01*
X67000Y36800D02*
Y39300D01*
X107000Y50000D02*
X109500D01*
Y54000D01*
X101800Y50000D02*
Y54000D01*
X107000D02*
X109500D01*
X101800D02*
X104300D01*
X101800Y50000D02*
X104300D01*
X107000Y45000D02*
X109500D01*
Y49000D01*
X101800Y45000D02*
Y49000D01*
X107000D02*
X109500D01*
X101800D02*
X104300D01*
X101800Y45000D02*
X104300D01*
D86*
X148096Y53575D02*
Y59425D01*
Y53575D02*
X154904D01*
Y59425D01*
X148096D02*
X154904D01*
X148096Y42575D02*
Y48425D01*
Y42575D02*
X154904D01*
Y48425D01*
X148096D02*
X154904D01*
X153125Y65650D02*
Y72350D01*
X149875Y65650D02*
Y72350D01*
X153125D01*
X149875Y65650D02*
X153125D01*
M02*
