G04 Layer_Color=12632256*
%FSLAX43Y43*%
%MOMM*%
G71*
G01*
G75*
%ADD56C,0.508*%
%ADD57O,1.200X2.000*%
%ADD58R,1.200X2.000*%
%ADD59C,5.000*%
%ADD60C,6.000*%
%ADD61O,5.500X1.800*%
%ADD62O,1.800X5.500*%
%ADD63O,2.000X1.200*%
%ADD64O,3.048X1.524*%
%ADD65O,1.800X2.400*%
%ADD66R,4.000X4.000*%
%ADD67C,4.000*%
%ADD68R,3.000X3.000*%
%ADD69C,3.000*%
%ADD70O,1.800X3.000*%
%ADD71O,3.000X1.800*%
%ADD72O,2.600X1.800*%
%ADD73O,1.270X2.540*%
%ADD74R,1.270X2.540*%
%ADD75O,3.000X4.000*%
D56*
X120000Y88000D02*
D03*
X70000Y38000D02*
D03*
D57*
X157500Y118500D02*
D03*
X145500D02*
D03*
X151500D02*
D03*
X163500D02*
D03*
X145000Y71000D02*
D03*
Y67000D02*
D03*
X142000Y71000D02*
D03*
Y67000D02*
D03*
X132000Y77500D02*
D03*
Y73500D02*
D03*
X131750Y58750D02*
D03*
Y54750D02*
D03*
D58*
X155500Y118500D02*
D03*
X143500D02*
D03*
X149500D02*
D03*
X161500D02*
D03*
D59*
X22000Y24500D02*
D03*
Y121000D02*
D03*
X180000D02*
D03*
Y25000D02*
D03*
D60*
X31000D02*
D03*
X60000D02*
D03*
X71000Y121000D02*
D03*
X31000D02*
D03*
D61*
X69000Y28000D02*
D03*
X90000D02*
D03*
X76000D02*
D03*
X97000D02*
D03*
X83000D02*
D03*
X104000D02*
D03*
X155000Y104000D02*
D03*
Y95000D02*
D03*
Y86000D02*
D03*
Y77000D02*
D03*
X112500Y28000D02*
D03*
X119500D02*
D03*
X126500D02*
D03*
X133500D02*
D03*
X167500Y93000D02*
D03*
Y97000D02*
D03*
Y101000D02*
D03*
Y105000D02*
D03*
Y109000D02*
D03*
D62*
X147000Y32500D02*
D03*
X142500D02*
D03*
X169500D02*
D03*
X165000D02*
D03*
X160500D02*
D03*
X156000D02*
D03*
X151500D02*
D03*
D63*
X122500Y35500D02*
D03*
X118500D02*
D03*
X150500Y61500D02*
D03*
X146500D02*
D03*
X161500Y50500D02*
D03*
X157500D02*
D03*
X150500D02*
D03*
X146500D02*
D03*
X127500Y99500D02*
D03*
X123500D02*
D03*
X118500D02*
D03*
X114500D02*
D03*
X127500Y113000D02*
D03*
X123500D02*
D03*
X118500D02*
D03*
X114500D02*
D03*
X143000Y95000D02*
D03*
X147000D02*
D03*
X88000Y51000D02*
D03*
X84000D02*
D03*
X141000Y104000D02*
D03*
X145000D02*
D03*
X87500Y71000D02*
D03*
X83500D02*
D03*
X143000Y77000D02*
D03*
X147000D02*
D03*
X143000Y86000D02*
D03*
X147000D02*
D03*
X161500Y61500D02*
D03*
X157500D02*
D03*
D64*
X129000Y36920D02*
D03*
Y39460D02*
D03*
Y42000D02*
D03*
D65*
X114500Y117000D02*
D03*
X117040D02*
D03*
X122120D02*
D03*
X124660D02*
D03*
X127200D02*
D03*
X114500Y103500D02*
D03*
X117040D02*
D03*
X122120D02*
D03*
X124660D02*
D03*
X127200D02*
D03*
D66*
X91000Y115000D02*
D03*
D67*
Y105000D02*
D03*
D68*
X32000Y68000D02*
D03*
Y43000D02*
D03*
X49000Y68000D02*
D03*
Y43000D02*
D03*
D69*
X32000Y60500D02*
D03*
Y50500D02*
D03*
X49000Y60500D02*
D03*
Y50500D02*
D03*
D70*
X139500Y119500D02*
D03*
X136000D02*
D03*
D71*
X171500Y78500D02*
D03*
Y82000D02*
D03*
Y85500D02*
D03*
Y89000D02*
D03*
D72*
X173250Y73200D02*
D03*
Y70660D02*
D03*
Y68120D02*
D03*
Y65580D02*
D03*
Y63040D02*
D03*
Y60500D02*
D03*
D73*
X143000Y55420D02*
D03*
X160500Y70580D02*
D03*
X164500Y65420D02*
D03*
X143000Y44420D02*
D03*
D74*
Y60500D02*
D03*
X160500Y65500D02*
D03*
X164500Y70500D02*
D03*
X143000Y49500D02*
D03*
D75*
X38000Y103000D02*
D03*
Y85000D02*
D03*
M02*
